<svg xmlns="http://www.w3.org/2000/svg" fill="none" viewBox="0 0 368 522">
<rect width="368" height="522" rx="50" fill="white"/>
<path d="M269.408 137.36C272.234 137.36 274.448 138.213 276.048 139.92C277.674 141.627 278.488 143.96 278.488 146.92V160H270.648V147.96C270.648 146.76 270.314 145.827 269.648 145.16C268.981 144.493 268.074 144.16 266.928 144.16C265.781 144.16 264.874 144.493 264.208 145.16C263.541 145.827 263.208 146.76 263.208 147.96V160H255.368V147.96C255.368 146.76 255.034 145.827 254.368 145.16C253.728 144.493 252.834 144.16 251.688 144.16C250.514 144.16 249.594 144.493 248.928 145.16C248.261 145.827 247.928 146.76 247.928 147.96V160H240.088V137.56H247.928V140.52C248.621 139.56 249.514 138.8 250.608 138.24C251.728 137.653 253.008 137.36 254.448 137.36C256.101 137.36 257.568 137.72 258.848 138.44C260.154 139.16 261.181 140.173 261.928 141.48C262.728 140.253 263.781 139.267 265.088 138.52C266.394 137.747 267.834 137.36 269.408 137.36Z" fill="black"/>
<path d="M235.626 137.56V160H227.746V156.8C227.079 157.813 226.159 158.64 224.986 159.28C223.812 159.893 222.466 160.2 220.946 160.2C218.332 160.2 216.266 159.347 214.746 157.64C213.252 155.907 212.506 153.56 212.506 150.6V137.56H220.306V149.6C220.306 150.88 220.639 151.893 221.306 152.64C221.999 153.36 222.906 153.72 224.026 153.72C225.172 153.72 226.079 153.36 226.746 152.64C227.412 151.893 227.746 150.88 227.746 149.6V137.56H235.626Z" fill="black"/>
<path d="M204.321 135.48C202.934 135.48 201.814 135.107 200.961 134.36C200.134 133.587 199.721 132.627 199.721 131.48C199.721 130.307 200.134 129.333 200.961 128.56C201.814 127.787 202.934 127.4 204.321 127.4C205.681 127.4 206.774 127.787 207.601 128.56C208.454 129.333 208.881 130.307 208.881 131.48C208.881 132.627 208.454 133.587 207.601 134.36C206.774 135.107 205.681 135.48 204.321 135.48ZM208.201 137.56V160H200.361V137.56H208.201Z" fill="black"/>
<path d="M186.986 137.36C189.812 137.36 192.026 138.213 193.626 139.92C195.252 141.627 196.066 143.96 196.066 146.92V160H188.226V147.96C188.226 146.76 187.892 145.827 187.226 145.16C186.559 144.493 185.652 144.16 184.506 144.16C183.359 144.16 182.452 144.493 181.786 145.16C181.119 145.827 180.786 146.76 180.786 147.96V160H172.946V147.96C172.946 146.76 172.612 145.827 171.946 145.16C171.306 144.493 170.412 144.16 169.266 144.16C168.092 144.16 167.172 144.493 166.506 145.16C165.839 145.827 165.506 146.76 165.506 147.96V160H157.666V137.56H165.506V140.52C166.199 139.56 167.092 138.8 168.186 138.24C169.306 137.653 170.586 137.36 172.026 137.36C173.679 137.36 175.146 137.72 176.426 138.44C177.732 139.16 178.759 140.173 179.506 141.48C180.306 140.253 181.359 139.267 182.666 138.52C183.972 137.747 185.412 137.36 186.986 137.36Z" fill="black"/>
<path d="M154.457 148.52C154.457 149.133 154.417 149.747 154.337 150.36H139.497C139.577 151.587 139.911 152.507 140.497 153.12C141.111 153.707 141.884 154 142.817 154C144.124 154 145.057 153.413 145.617 152.24H153.977C153.631 153.787 152.951 155.173 151.937 156.4C150.951 157.6 149.697 158.547 148.177 159.24C146.657 159.933 144.977 160.28 143.137 160.28C140.924 160.28 138.951 159.813 137.217 158.88C135.511 157.947 134.164 156.613 133.177 154.88C132.217 153.147 131.737 151.107 131.737 148.76C131.737 146.413 132.217 144.387 133.177 142.68C134.137 140.947 135.471 139.613 137.177 138.68C138.911 137.747 140.897 137.28 143.137 137.28C145.351 137.28 147.311 137.733 149.017 138.64C150.724 139.547 152.057 140.853 153.017 142.56C153.977 144.24 154.457 146.227 154.457 148.52ZM146.457 146.56C146.457 145.6 146.137 144.853 145.497 144.32C144.857 143.76 144.057 143.48 143.097 143.48C142.137 143.48 141.351 143.747 140.737 144.28C140.124 144.787 139.724 145.547 139.537 146.56H146.457Z" fill="black"/>
<path d="M122.967 141.52C123.847 140.24 124.913 139.227 126.167 138.48C127.42 137.733 128.767 137.36 130.207 137.36V145.72H128.007C126.3 145.72 125.033 146.053 124.207 146.72C123.38 147.387 122.967 148.547 122.967 150.2V160H115.127V137.56H122.967V141.52Z" fill="black"/>
<path d="M111.977 141.2C111.977 142.907 111.577 144.467 110.777 145.88C110.004 147.267 108.817 148.387 107.217 149.24C105.644 150.067 103.71 150.48 101.417 150.48H97.537V160H89.697V131.8H101.417C103.684 131.8 105.604 132.2 107.177 133C108.777 133.8 109.977 134.907 110.777 136.32C111.577 137.733 111.977 139.36 111.977 141.2ZM100.657 144.24C102.87 144.24 103.977 143.227 103.977 141.2C103.977 139.147 102.87 138.12 100.657 138.12H97.537V144.24H100.657Z" fill="black"/>
<g filter="url(#filter0_dddd_325_487)">
<path d="M184 221L208.023 294.935H285.763L222.87 340.63L246.893 414.565L184 368.87L121.107 414.565L145.13 340.63L82.237 294.935H159.977L184 221Z" fill="url(#paint0_radial_325_487)"/>
</g>
<defs>
<filter id="filter0_dddd_325_487" x="44.2369" y="214" width="279.526" height="332.565" filterUnits="userSpaceOnUse" color-interpolation-filters="sRGB">
<feFlood flood-opacity="0" result="BackgroundImageFix"/>
<feColorMatrix in="SourceAlpha" type="matrix" values="0 0 0 0 0 0 0 0 0 0 0 0 0 0 0 0 0 0 127 0" result="hardAlpha"/>
<feOffset dy="6"/>
<feGaussianBlur stdDeviation="6.5"/>
<feColorMatrix type="matrix" values="0 0 0 0 0 0 0 0 0 0 0 0 0 0 0 0 0 0 0.1 0"/>
<feBlend mode="normal" in2="BackgroundImageFix" result="effect1_dropShadow_325_487"/>
<feColorMatrix in="SourceAlpha" type="matrix" values="0 0 0 0 0 0 0 0 0 0 0 0 0 0 0 0 0 0 127 0" result="hardAlpha"/>
<feOffset dy="24"/>
<feGaussianBlur stdDeviation="12"/>
<feColorMatrix type="matrix" values="0 0 0 0 0 0 0 0 0 0 0 0 0 0 0 0 0 0 0.09 0"/>
<feBlend mode="normal" in2="effect1_dropShadow_325_487" result="effect2_dropShadow_325_487"/>
<feColorMatrix in="SourceAlpha" type="matrix" values="0 0 0 0 0 0 0 0 0 0 0 0 0 0 0 0 0 0 127 0" result="hardAlpha"/>
<feOffset dy="53"/>
<feGaussianBlur stdDeviation="16"/>
<feColorMatrix type="matrix" values="0 0 0 0 0 0 0 0 0 0 0 0 0 0 0 0 0 0 0.05 0"/>
<feBlend mode="normal" in2="effect2_dropShadow_325_487" result="effect3_dropShadow_325_487"/>
<feColorMatrix in="SourceAlpha" type="matrix" values="0 0 0 0 0 0 0 0 0 0 0 0 0 0 0 0 0 0 127 0" result="hardAlpha"/>
<feOffset dy="94"/>
<feGaussianBlur stdDeviation="19"/>
<feColorMatrix type="matrix" values="0 0 0 0 0 0 0 0 0 0 0 0 0 0 0 0 0 0 0.01 0"/>
<feBlend mode="normal" in2="effect3_dropShadow_325_487" result="effect4_dropShadow_325_487"/>
<feBlend mode="normal" in="SourceGraphic" in2="effect4_dropShadow_325_487" result="shape"/>
</filter>
<radialGradient id="paint0_radial_325_487" cx="0" cy="0" r="1" gradientUnits="userSpaceOnUse" gradientTransform="translate(184 328) rotate(90) scale(107)">
<stop stop-color="#A19F9F"/>
<stop offset="1" stop-color="#D9D9D9"/>
</radialGradient>
</defs>
</svg>