<svg width="368" height="522" viewBox="0 0 368 522" fill="none" xmlns="http://www.w3.org/2000/svg">
<rect width="368" height="522" rx="50" fill="#A7429C"/>
<path d="M117.168 391.664H247.821V392.864H117.168V391.664Z" fill="white"/>
<path d="M241.797 389.48C240.789 389.48 239.885 389.312 239.085 388.976C238.285 388.624 237.653 388.144 237.189 387.536C236.725 386.912 236.469 386.2 236.421 385.4H238.677C238.741 386.056 239.045 386.592 239.589 387.008C240.149 387.424 240.877 387.632 241.773 387.632C242.605 387.632 243.261 387.448 243.741 387.08C244.221 386.712 244.461 386.248 244.461 385.688C244.461 385.112 244.205 384.688 243.693 384.416C243.181 384.128 242.389 383.848 241.317 383.576C240.341 383.32 239.541 383.064 238.917 382.808C238.309 382.536 237.781 382.144 237.333 381.632C236.901 381.104 236.685 380.416 236.685 379.568C236.685 378.896 236.885 378.28 237.285 377.72C237.685 377.16 238.253 376.72 238.989 376.4C239.725 376.064 240.565 375.896 241.509 375.896C242.965 375.896 244.141 376.264 245.037 377C245.933 377.736 246.413 378.744 246.477 380.024H244.293C244.245 379.336 243.965 378.784 243.453 378.368C242.957 377.952 242.285 377.744 241.437 377.744C240.653 377.744 240.029 377.912 239.565 378.248C239.101 378.584 238.869 379.024 238.869 379.568C238.869 380 239.005 380.36 239.277 380.648C239.565 380.92 239.917 381.144 240.333 381.32C240.765 381.48 241.357 381.664 242.109 381.872C243.053 382.128 243.821 382.384 244.413 382.64C245.005 382.88 245.509 383.248 245.925 383.744C246.357 384.24 246.581 384.888 246.597 385.688C246.597 386.408 246.397 387.056 245.997 387.632C245.597 388.208 245.029 388.664 244.293 389C243.573 389.32 242.741 389.48 241.797 389.48Z" fill="white"/>
<path d="M233.419 371.504V389.264H231.235V371.504H233.419Z" fill="white"/>
<path d="M226.457 373.976C226.041 373.976 225.689 373.832 225.401 373.544C225.113 373.256 224.969 372.904 224.969 372.488C224.969 372.072 225.113 371.72 225.401 371.432C225.689 371.144 226.041 371 226.457 371C226.857 371 227.193 371.144 227.465 371.432C227.753 371.72 227.897 372.072 227.897 372.488C227.897 372.904 227.753 373.256 227.465 373.544C227.193 373.832 226.857 373.976 226.457 373.976ZM227.513 376.112V389.264H225.329V376.112H227.513Z" fill="white"/>
<path d="M208.294 382.64C208.294 381.296 208.566 380.12 209.11 379.112C209.654 378.088 210.398 377.296 211.342 376.736C212.302 376.176 213.366 375.896 214.534 375.896C215.686 375.896 216.686 376.144 217.534 376.64C218.382 377.136 219.014 377.76 219.43 378.512V376.112H221.638V389.264H219.43V386.816C218.998 387.584 218.35 388.224 217.486 388.736C216.638 389.232 215.646 389.48 214.51 389.48C213.342 389.48 212.286 389.192 211.342 388.616C210.398 388.04 209.654 387.232 209.11 386.192C208.566 385.152 208.294 383.968 208.294 382.64ZM219.43 382.664C219.43 381.672 219.23 380.808 218.83 380.072C218.43 379.336 217.886 378.776 217.198 378.392C216.526 377.992 215.782 377.792 214.966 377.792C214.15 377.792 213.406 377.984 212.734 378.368C212.062 378.752 211.526 379.312 211.126 380.048C210.726 380.784 210.526 381.648 210.526 382.64C210.526 383.648 210.726 384.528 211.126 385.28C211.526 386.016 212.062 386.584 212.734 386.984C213.406 387.368 214.15 387.56 214.966 387.56C215.782 387.56 216.526 387.368 217.198 386.984C217.886 386.584 218.43 386.016 218.83 385.28C219.23 384.528 219.43 383.656 219.43 382.664Z" fill="white"/>
<path d="M203.032 377.912V385.664C203.032 386.304 203.168 386.76 203.44 387.032C203.712 387.288 204.184 387.416 204.856 387.416H206.464V389.264H204.496C203.28 389.264 202.368 388.984 201.76 388.424C201.152 387.864 200.848 386.944 200.848 385.664V377.912H199.144V376.112H200.848V372.8H203.032V376.112H206.464V377.912H203.032Z" fill="white"/>
<path d="M197.485 382.184C197.485 382.6 197.461 383.04 197.413 383.504H186.901C186.981 384.8 187.421 385.816 188.221 386.552C189.037 387.272 190.021 387.632 191.173 387.632C192.117 387.632 192.901 387.416 193.525 386.984C194.165 386.536 194.613 385.944 194.869 385.208H197.221C196.869 386.472 196.165 387.504 195.109 388.304C194.053 389.088 192.741 389.48 191.173 389.48C189.925 389.48 188.805 389.2 187.813 388.64C186.837 388.08 186.069 387.288 185.509 386.264C184.949 385.224 184.669 384.024 184.669 382.664C184.669 381.304 184.941 380.112 185.485 379.088C186.029 378.064 186.789 377.28 187.765 376.736C188.757 376.176 189.893 375.896 191.173 375.896C192.421 375.896 193.525 376.168 194.485 376.712C195.445 377.256 196.181 378.008 196.693 378.968C197.221 379.912 197.485 380.984 197.485 382.184ZM195.229 381.728C195.229 380.896 195.045 380.184 194.677 379.592C194.309 378.984 193.805 378.528 193.165 378.224C192.541 377.904 191.845 377.744 191.077 377.744C189.973 377.744 189.029 378.096 188.245 378.8C187.477 379.504 187.037 380.48 186.925 381.728H195.229Z" fill="white"/>
<path d="M168.45 382.64C168.45 381.296 168.722 380.12 169.266 379.112C169.81 378.088 170.554 377.296 171.498 376.736C172.458 376.176 173.53 375.896 174.714 375.896C175.738 375.896 176.69 376.136 177.57 376.616C178.45 377.08 179.122 377.696 179.586 378.464V371.504H181.794V389.264H179.586V386.792C179.154 387.576 178.514 388.224 177.666 388.736C176.818 389.232 175.826 389.48 174.69 389.48C173.522 389.48 172.458 389.192 171.498 388.616C170.554 388.04 169.81 387.232 169.266 386.192C168.722 385.152 168.45 383.968 168.45 382.64ZM179.586 382.664C179.586 381.672 179.386 380.808 178.986 380.072C178.586 379.336 178.042 378.776 177.354 378.392C176.682 377.992 175.938 377.792 175.122 377.792C174.306 377.792 173.562 377.984 172.89 378.368C172.218 378.752 171.682 379.312 171.282 380.048C170.882 380.784 170.682 381.648 170.682 382.64C170.682 383.648 170.882 384.528 171.282 385.28C171.682 386.016 172.218 386.584 172.89 386.984C173.562 387.368 174.306 387.56 175.122 387.56C175.938 387.56 176.682 387.368 177.354 386.984C178.042 386.584 178.586 386.016 178.986 385.28C179.386 384.528 179.586 383.656 179.586 382.664Z" fill="white"/>
<path d="M159.985 382.184C159.985 382.6 159.961 383.04 159.913 383.504H149.401C149.481 384.8 149.921 385.816 150.721 386.552C151.537 387.272 152.521 387.632 153.673 387.632C154.617 387.632 155.401 387.416 156.025 386.984C156.665 386.536 157.113 385.944 157.369 385.208H159.721C159.369 386.472 158.665 387.504 157.609 388.304C156.553 389.088 155.241 389.48 153.673 389.48C152.425 389.48 151.305 389.2 150.313 388.64C149.337 388.08 148.569 387.288 148.009 386.264C147.449 385.224 147.169 384.024 147.169 382.664C147.169 381.304 147.441 380.112 147.985 379.088C148.529 378.064 149.289 377.28 150.265 376.736C151.257 376.176 152.393 375.896 153.673 375.896C154.921 375.896 156.025 376.168 156.985 376.712C157.945 377.256 158.681 378.008 159.193 378.968C159.721 379.912 159.985 380.984 159.985 382.184ZM157.729 381.728C157.729 380.896 157.545 380.184 157.177 379.592C156.809 378.984 156.305 378.528 155.665 378.224C155.041 377.904 154.345 377.744 153.577 377.744C152.473 377.744 151.529 378.096 150.745 378.8C149.977 379.504 149.537 380.48 149.425 381.728H157.729Z" fill="white"/>
<path d="M145.102 382.184C145.102 382.6 145.078 383.04 145.03 383.504H134.518C134.598 384.8 135.038 385.816 135.838 386.552C136.654 387.272 137.638 387.632 138.79 387.632C139.734 387.632 140.518 387.416 141.142 386.984C141.782 386.536 142.23 385.944 142.486 385.208H144.838C144.486 386.472 143.782 387.504 142.726 388.304C141.67 389.088 140.358 389.48 138.79 389.48C137.542 389.48 136.422 389.2 135.43 388.64C134.454 388.08 133.686 387.288 133.126 386.264C132.566 385.224 132.286 384.024 132.286 382.664C132.286 381.304 132.558 380.112 133.102 379.088C133.646 378.064 134.406 377.28 135.382 376.736C136.374 376.176 137.51 375.896 138.79 375.896C140.038 375.896 141.142 376.168 142.102 376.712C143.062 377.256 143.798 378.008 144.31 378.968C144.838 379.912 145.102 380.984 145.102 382.184ZM142.846 381.728C142.846 380.896 142.662 380.184 142.294 379.592C141.926 378.984 141.422 378.528 140.782 378.224C140.158 377.904 139.462 377.744 138.694 377.744C137.59 377.744 136.646 378.096 135.862 378.8C135.094 379.504 134.654 380.48 134.542 381.728H142.846Z" fill="white"/>
<path d="M124.32 389.432C123.216 389.432 122.224 389.24 121.344 388.856C120.48 388.456 119.8 387.912 119.304 387.224C118.808 386.52 118.552 385.712 118.536 384.8H120.864C120.944 385.584 121.264 386.248 121.824 386.792C122.4 387.32 123.232 387.584 124.32 387.584C125.36 387.584 126.176 387.328 126.768 386.816C127.376 386.288 127.68 385.616 127.68 384.8C127.68 384.16 127.504 383.64 127.152 383.24C126.8 382.84 126.36 382.536 125.832 382.328C125.304 382.12 124.592 381.896 123.696 381.656C122.592 381.368 121.704 381.08 121.032 380.792C120.376 380.504 119.808 380.056 119.328 379.448C118.864 378.824 118.632 377.992 118.632 376.952C118.632 376.04 118.864 375.232 119.328 374.528C119.792 373.824 120.44 373.28 121.272 372.896C122.12 372.512 123.088 372.32 124.176 372.32C125.744 372.32 127.024 372.712 128.016 373.496C129.024 374.28 129.592 375.32 129.72 376.616H127.32C127.24 375.976 126.904 375.416 126.312 374.936C125.72 374.44 124.936 374.192 123.96 374.192C123.048 374.192 122.304 374.432 121.728 374.912C121.152 375.376 120.864 376.032 120.864 376.88C120.864 377.488 121.032 377.984 121.368 378.368C121.72 378.752 122.144 379.048 122.64 379.256C123.152 379.448 123.864 379.672 124.776 379.928C125.88 380.232 126.768 380.536 127.44 380.84C128.112 381.128 128.688 381.584 129.168 382.208C129.648 382.816 129.888 383.648 129.888 384.704C129.888 385.52 129.672 386.288 129.24 387.008C128.808 387.728 128.168 388.312 127.32 388.76C126.472 389.208 125.472 389.432 124.32 389.432Z" fill="white"/>
<path d="M0 412H368V472C368 499.614 345.614 522 318 522H50C22.3858 522 0 499.614 0 472V412Z" fill="#3B3B3B"/>
<path d="M268.235 259.046C268.59 258.349 269.094 257.808 269.746 257.423C270.413 257.038 271.221 256.845 272.169 256.845V258.934H271.635C269.368 258.934 268.235 260.164 268.235 262.624V269.247H266.212V257.067H268.235V259.046Z" fill="white"/>
<path d="M263.542 262.691C263.542 263.076 263.52 263.483 263.476 263.913H253.741C253.815 265.113 254.222 266.054 254.963 266.736C255.719 267.403 256.63 267.736 257.697 267.736C258.571 267.736 259.297 267.536 259.875 267.136C260.468 266.721 260.883 266.173 261.12 265.491H263.298C262.972 266.662 262.32 267.617 261.342 268.358C260.364 269.084 259.149 269.447 257.697 269.447C256.541 269.447 255.504 269.188 254.585 268.67C253.681 268.151 252.97 267.417 252.452 266.469C251.933 265.506 251.674 264.395 251.674 263.135C251.674 261.876 251.926 260.772 252.429 259.823C252.933 258.875 253.637 258.149 254.541 257.645C255.46 257.127 256.512 256.867 257.697 256.867C258.853 256.867 259.875 257.119 260.764 257.623C261.653 258.127 262.335 258.823 262.809 259.712C263.298 260.587 263.542 261.579 263.542 262.691ZM261.453 262.268C261.453 261.498 261.283 260.838 260.942 260.29C260.601 259.727 260.134 259.305 259.542 259.023C258.964 258.727 258.319 258.579 257.608 258.579C256.586 258.579 255.711 258.905 254.985 259.557C254.274 260.209 253.867 261.113 253.763 262.268H261.453Z" fill="white"/>
<path d="M239.432 259.312C239.832 258.616 240.425 258.038 241.21 257.579C242.01 257.104 242.936 256.867 243.988 256.867C245.07 256.867 246.048 257.127 246.922 257.645C247.811 258.164 248.508 258.897 249.011 259.846C249.515 260.779 249.767 261.868 249.767 263.113C249.767 264.343 249.515 265.439 249.011 266.402C248.508 267.366 247.811 268.114 246.922 268.647C246.048 269.181 245.07 269.447 243.988 269.447C242.951 269.447 242.032 269.218 241.232 268.758C240.447 268.284 239.847 267.699 239.432 267.003V275.026H237.409V257.067H239.432V259.312ZM247.7 263.113C247.7 262.194 247.515 261.394 247.144 260.713C246.774 260.031 246.27 259.512 245.633 259.157C245.011 258.801 244.322 258.623 243.566 258.623C242.825 258.623 242.136 258.808 241.499 259.179C240.877 259.535 240.373 260.061 239.988 260.757C239.617 261.439 239.432 262.231 239.432 263.135C239.432 264.054 239.617 264.861 239.988 265.558C240.373 266.239 240.877 266.765 241.499 267.136C242.136 267.492 242.825 267.669 243.566 267.669C244.322 267.669 245.011 267.492 245.633 267.136C246.27 266.765 246.774 266.239 247.144 265.558C247.515 264.861 247.7 264.046 247.7 263.113Z" fill="white"/>
<path d="M228.505 269.447C227.364 269.447 226.326 269.188 225.393 268.67C224.474 268.151 223.748 267.417 223.215 266.469C222.696 265.506 222.437 264.395 222.437 263.135C222.437 261.891 222.703 260.794 223.237 259.846C223.785 258.883 224.526 258.149 225.46 257.645C226.393 257.127 227.438 256.867 228.593 256.867C229.749 256.867 230.794 257.127 231.727 257.645C232.661 258.149 233.394 258.875 233.928 259.823C234.476 260.772 234.75 261.876 234.75 263.135C234.75 264.395 234.469 265.506 233.905 266.469C233.357 267.417 232.609 268.151 231.661 268.67C230.712 269.188 229.66 269.447 228.505 269.447ZM228.505 267.669C229.231 267.669 229.912 267.499 230.549 267.158C231.186 266.817 231.698 266.306 232.083 265.625C232.483 264.943 232.683 264.113 232.683 263.135C232.683 262.157 232.49 261.327 232.105 260.646C231.72 259.964 231.216 259.46 230.594 259.134C229.971 258.794 229.297 258.623 228.571 258.623C227.83 258.623 227.149 258.794 226.526 259.134C225.919 259.46 225.43 259.964 225.059 260.646C224.689 261.327 224.504 262.157 224.504 263.135C224.504 264.128 224.682 264.965 225.037 265.647C225.408 266.328 225.897 266.84 226.504 267.18C227.112 267.506 227.778 267.669 228.505 267.669Z" fill="white"/>
<path d="M219.745 252.8V269.247H217.723V252.8H219.745Z" fill="white"/>
<path d="M215.053 262.691C215.053 263.076 215.031 263.483 214.986 263.913H205.251C205.325 265.113 205.733 266.054 206.474 266.736C207.229 267.403 208.141 267.736 209.208 267.736C210.082 267.736 210.808 267.536 211.386 267.136C211.978 266.721 212.393 266.173 212.63 265.491H214.808C214.483 266.662 213.831 267.617 212.853 268.358C211.875 269.084 210.66 269.447 209.208 269.447C208.052 269.447 207.015 269.188 206.096 268.67C205.192 268.151 204.481 267.417 203.962 266.469C203.444 265.506 203.184 264.395 203.184 263.135C203.184 261.876 203.436 260.772 203.94 259.823C204.444 258.875 205.148 258.149 206.051 257.645C206.97 257.127 208.022 256.867 209.208 256.867C210.363 256.867 211.386 257.119 212.275 257.623C213.164 258.127 213.845 258.823 214.32 259.712C214.809 260.587 215.053 261.579 215.053 262.691ZM212.964 262.268C212.964 261.498 212.793 260.838 212.453 260.29C212.112 259.727 211.645 259.305 211.052 259.023C210.474 258.727 209.83 258.579 209.119 258.579C208.096 258.579 207.222 258.905 206.496 259.557C205.785 260.209 205.377 261.113 205.273 262.268H212.964Z" fill="white"/>
<path d="M196.015 267.38L199.794 257.067H201.95L197.171 269.247H194.815L190.036 257.067H192.215L196.015 267.38Z" fill="white"/>
<path d="M188.811 262.691C188.811 263.076 188.789 263.483 188.745 263.913H179.01C179.084 265.113 179.491 266.054 180.232 266.736C180.988 267.403 181.899 267.736 182.966 267.736C183.84 267.736 184.566 267.536 185.144 267.136C185.737 266.721 186.152 266.173 186.389 265.491H188.567C188.241 266.662 187.589 267.617 186.611 268.358C185.633 269.084 184.418 269.447 182.966 269.447C181.81 269.447 180.773 269.188 179.854 268.67C178.95 268.151 178.239 267.417 177.72 266.469C177.202 265.506 176.943 264.395 176.943 263.135C176.943 261.876 177.194 260.772 177.698 259.823C178.202 258.875 178.906 258.149 179.81 257.645C180.728 257.127 181.78 256.867 182.966 256.867C184.122 256.867 185.144 257.119 186.033 257.623C186.922 258.127 187.604 258.823 188.078 259.712C188.567 260.587 188.811 261.579 188.811 262.691ZM186.722 262.268C186.722 261.498 186.552 260.838 186.211 260.29C185.87 259.727 185.403 259.305 184.811 259.023C184.233 258.727 183.588 258.579 182.877 258.579C181.855 258.579 180.98 258.905 180.254 259.557C179.543 260.209 179.136 261.113 179.032 262.268H186.722Z" fill="white"/>
<path d="M166.807 253.756C168.496 253.756 169.955 254.074 171.185 254.711C172.43 255.334 173.378 256.23 174.03 257.401C174.697 258.571 175.03 259.949 175.03 261.535C175.03 263.12 174.697 264.498 174.03 265.669C173.378 266.825 172.43 267.714 171.185 268.336C169.955 268.944 168.496 269.247 166.807 269.247H161.984V253.756H166.807ZM166.807 267.58C168.807 267.58 170.333 267.054 171.385 266.002C172.437 264.935 172.963 263.446 172.963 261.535C172.963 259.609 172.43 258.105 171.363 257.023C170.311 255.941 168.792 255.4 166.807 255.4H164.006V267.58H166.807Z" fill="white"/>
<path d="M143.061 259.312C143.461 258.616 144.053 258.038 144.839 257.579C145.639 257.104 146.565 256.867 147.617 256.867C148.699 256.867 149.677 257.127 150.551 257.645C151.44 258.164 152.136 258.897 152.64 259.846C153.144 260.779 153.396 261.868 153.396 263.113C153.396 264.343 153.144 265.439 152.64 266.402C152.136 267.366 151.44 268.114 150.551 268.647C149.677 269.181 148.699 269.447 147.617 269.447C146.58 269.447 145.661 269.218 144.861 268.758C144.076 268.284 143.476 267.699 143.061 267.003V275.026H141.038V257.067H143.061V259.312ZM151.329 263.113C151.329 262.194 151.144 261.394 150.773 260.713C150.403 260.031 149.899 259.512 149.262 259.157C148.639 258.801 147.95 258.623 147.195 258.623C146.454 258.623 145.765 258.808 145.128 259.179C144.505 259.535 144.002 260.061 143.616 260.757C143.246 261.439 143.061 262.231 143.061 263.135C143.061 264.054 143.246 264.861 143.616 265.558C144.002 266.239 144.505 266.765 145.128 267.136C145.765 267.492 146.454 267.669 147.195 267.669C147.95 267.669 148.639 267.492 149.262 267.136C149.899 266.765 150.403 266.239 150.773 265.558C151.144 264.861 151.329 264.046 151.329 263.113Z" fill="white"/>
<path d="M128.041 259.312C128.441 258.616 129.033 258.038 129.819 257.579C130.619 257.104 131.545 256.867 132.597 256.867C133.679 256.867 134.657 257.127 135.531 257.645C136.42 258.164 137.116 258.897 137.62 259.846C138.124 260.779 138.376 261.868 138.376 263.113C138.376 264.343 138.124 265.439 137.62 266.402C137.116 267.366 136.42 268.114 135.531 268.647C134.657 269.181 133.679 269.447 132.597 269.447C131.56 269.447 130.641 269.218 129.841 268.758C129.056 268.284 128.455 267.699 128.041 267.003V275.026H126.018V257.067H128.041V259.312ZM136.309 263.113C136.309 262.194 136.124 261.394 135.753 260.713C135.383 260.031 134.879 259.512 134.242 259.157C133.619 258.801 132.93 258.623 132.175 258.623C131.434 258.623 130.745 258.808 130.108 259.179C129.485 259.535 128.981 260.061 128.596 260.757C128.226 261.439 128.041 262.231 128.041 263.135C128.041 264.054 128.226 264.861 128.596 265.558C128.981 266.239 129.485 266.765 130.108 267.136C130.745 267.492 131.434 267.669 132.175 267.669C132.93 267.669 133.619 267.492 134.242 267.136C134.879 266.765 135.383 266.239 135.753 265.558C136.124 264.861 136.309 264.046 136.309 263.113Z" fill="white"/>
<path d="M120.199 265.802H113.442L112.197 269.247H110.063L115.664 253.845H117.998L123.577 269.247H121.443L120.199 265.802ZM119.621 264.158L116.82 256.334L114.02 264.158H119.621Z" fill="white"/>
<path d="M97.1298 255.023V253.178H101.308V269.247H99.2635V255.023H97.1298Z" fill="white"/>
<path d="M285.447 289.421C285.803 288.725 286.307 288.184 286.959 287.799C287.625 287.414 288.433 287.221 289.381 287.221V289.31H288.848C286.581 289.31 285.447 290.54 285.447 293V299.623H283.425V287.443H285.447V289.421Z" fill="white"/>
<path d="M280.755 293.066C280.755 293.452 280.733 293.859 280.688 294.289H270.953C271.027 295.489 271.435 296.43 272.176 297.112C272.931 297.778 273.842 298.112 274.909 298.112C275.784 298.112 276.51 297.912 277.088 297.512C277.68 297.097 278.095 296.549 278.332 295.867H280.51C280.184 297.038 279.532 297.993 278.554 298.734C277.576 299.46 276.361 299.823 274.909 299.823C273.754 299.823 272.716 299.564 271.798 299.045C270.894 298.527 270.183 297.793 269.664 296.845C269.145 295.882 268.886 294.77 268.886 293.511C268.886 292.251 269.138 291.148 269.642 290.199C270.146 289.251 270.849 288.525 271.753 288.021C272.672 287.502 273.724 287.243 274.909 287.243C276.065 287.243 277.087 287.495 277.977 287.999C278.866 288.503 279.547 289.199 280.021 290.088C280.51 290.962 280.755 291.955 280.755 293.066ZM278.666 292.644C278.666 291.874 278.495 291.214 278.154 290.666C277.814 290.103 277.347 289.681 276.754 289.399C276.176 289.103 275.532 288.955 274.82 288.955C273.798 288.955 272.924 289.281 272.198 289.933C271.487 290.584 271.079 291.488 270.975 292.644H278.666Z" fill="white"/>
<path d="M261.359 287.221C262.841 287.221 264.041 287.673 264.96 288.577C265.878 289.466 266.338 290.755 266.338 292.444V299.623H264.337V292.733C264.337 291.518 264.034 290.592 263.426 289.955C262.819 289.303 261.989 288.977 260.937 288.977C259.87 288.977 259.018 289.31 258.381 289.977C257.758 290.644 257.447 291.614 257.447 292.889V299.623H255.425V287.443H257.447V289.177C257.847 288.555 258.388 288.073 259.07 287.732C259.766 287.391 260.529 287.221 261.359 287.221Z" fill="white"/>
<path d="M245.428 287.243C246.48 287.243 247.399 287.473 248.184 287.932C248.984 288.392 249.577 288.969 249.962 289.666V287.443H252.007V299.89C252.007 301.001 251.77 301.987 251.296 302.846C250.821 303.72 250.14 304.402 249.251 304.891C248.377 305.38 247.354 305.624 246.184 305.624C244.583 305.624 243.25 305.246 242.183 304.491C241.116 303.735 240.486 302.705 240.294 301.401H242.294C242.516 302.142 242.976 302.735 243.672 303.179C244.368 303.639 245.206 303.868 246.184 303.868C247.295 303.868 248.199 303.52 248.895 302.824C249.606 302.127 249.962 301.149 249.962 299.89V297.334C249.562 298.045 248.969 298.638 248.184 299.112C247.399 299.586 246.48 299.823 245.428 299.823C244.346 299.823 243.361 299.556 242.472 299.023C241.598 298.49 240.909 297.741 240.405 296.778C239.901 295.815 239.649 294.719 239.649 293.489C239.649 292.244 239.901 291.155 240.405 290.221C240.909 289.273 241.598 288.54 242.472 288.021C243.361 287.502 244.346 287.243 245.428 287.243ZM249.962 293.511C249.962 292.592 249.777 291.792 249.406 291.111C249.036 290.429 248.532 289.91 247.895 289.555C247.273 289.184 246.584 288.999 245.828 288.999C245.072 288.999 244.383 289.177 243.761 289.532C243.139 289.888 242.642 290.407 242.272 291.088C241.901 291.77 241.716 292.57 241.716 293.489C241.716 294.422 241.901 295.237 242.272 295.934C242.642 296.615 243.139 297.141 243.761 297.512C244.383 297.867 245.072 298.045 245.828 298.045C246.584 298.045 247.273 297.867 247.895 297.512C248.532 297.141 249.036 296.615 249.406 295.934C249.777 295.237 249.962 294.43 249.962 293.511Z" fill="white"/>
<path d="M235.98 285.465C235.594 285.465 235.268 285.332 235.002 285.065C234.735 284.798 234.602 284.472 234.602 284.087C234.602 283.702 234.735 283.376 235.002 283.109C235.268 282.842 235.594 282.709 235.98 282.709C236.35 282.709 236.661 282.842 236.913 283.109C237.18 283.376 237.313 283.702 237.313 284.087C237.313 284.472 237.18 284.798 236.913 285.065C236.661 285.332 236.35 285.465 235.98 285.465ZM236.958 287.443V299.623H234.935V287.443H236.958Z" fill="white"/>
<path d="M227.635 299.823C226.701 299.823 225.864 299.668 225.123 299.356C224.382 299.03 223.797 298.586 223.367 298.023C222.937 297.445 222.7 296.786 222.656 296.045H224.745C224.804 296.652 225.086 297.149 225.59 297.534C226.108 297.919 226.783 298.112 227.612 298.112C228.383 298.112 228.99 297.941 229.435 297.601C229.879 297.26 230.102 296.83 230.102 296.311C230.102 295.778 229.865 295.385 229.39 295.133C228.916 294.867 228.183 294.607 227.19 294.356C226.286 294.118 225.545 293.881 224.967 293.644C224.404 293.392 223.915 293.029 223.501 292.555C223.1 292.066 222.9 291.429 222.9 290.644C222.9 290.021 223.086 289.451 223.456 288.932C223.827 288.414 224.353 288.006 225.034 287.71C225.716 287.399 226.494 287.243 227.368 287.243C228.716 287.243 229.805 287.584 230.635 288.266C231.465 288.947 231.909 289.881 231.969 291.066H229.946C229.902 290.429 229.642 289.918 229.168 289.532C228.709 289.147 228.087 288.955 227.301 288.955C226.575 288.955 225.997 289.11 225.568 289.421C225.138 289.732 224.923 290.14 224.923 290.644C224.923 291.044 225.049 291.377 225.301 291.644C225.568 291.896 225.894 292.103 226.279 292.266C226.679 292.414 227.227 292.585 227.924 292.777C228.798 293.015 229.509 293.252 230.057 293.489C230.606 293.711 231.072 294.052 231.458 294.511C231.858 294.97 232.065 295.571 232.08 296.311C232.08 296.978 231.895 297.578 231.524 298.112C231.154 298.645 230.628 299.067 229.946 299.379C229.279 299.675 228.509 299.823 227.635 299.823Z" fill="white"/>
<path d="M220.653 293.066C220.653 293.452 220.631 293.859 220.586 294.289H210.851C210.925 295.489 211.333 296.43 212.074 297.112C212.829 297.778 213.741 298.112 214.807 298.112C215.682 298.112 216.408 297.912 216.986 297.512C217.578 297.097 217.993 296.549 218.23 295.867H220.408C220.082 297.038 219.431 297.993 218.453 298.734C217.475 299.46 216.26 299.823 214.807 299.823C213.652 299.823 212.614 299.564 211.696 299.045C210.792 298.527 210.081 297.793 209.562 296.845C209.043 295.882 208.784 294.77 208.784 293.511C208.784 292.251 209.036 291.148 209.54 290.199C210.044 289.251 210.747 288.525 211.651 288.021C212.57 287.502 213.622 287.243 214.807 287.243C215.963 287.243 216.986 287.495 217.875 287.999C218.764 288.503 219.445 289.199 219.92 290.088C220.408 290.962 220.653 291.955 220.653 293.066ZM218.564 292.644C218.564 291.874 218.393 291.214 218.053 290.666C217.712 290.103 217.245 289.681 216.652 289.399C216.074 289.103 215.43 288.955 214.719 288.955C213.696 288.955 212.822 289.281 212.096 289.933C211.385 290.584 210.977 291.488 210.873 292.644H218.564Z" fill="white"/>
<path d="M198.648 284.132C200.338 284.132 201.797 284.45 203.027 285.087C204.272 285.71 205.22 286.606 205.872 287.777C206.539 288.947 206.872 290.325 206.872 291.911C206.872 293.496 206.539 294.874 205.872 296.045C205.22 297.2 204.272 298.09 203.027 298.712C201.797 299.319 200.338 299.623 198.648 299.623H193.825V284.132H198.648ZM198.648 297.956C200.649 297.956 202.175 297.43 203.227 296.378C204.279 295.311 204.805 293.822 204.805 291.911C204.805 289.984 204.272 288.48 203.205 287.399C202.153 286.317 200.634 285.776 198.648 285.776H195.848V297.956H198.648Z" fill="white"/>
<path d="M185.23 293.066C185.23 293.452 185.208 293.859 185.163 294.289H175.428C175.502 295.489 175.91 296.43 176.651 297.112C177.406 297.778 178.318 298.112 179.384 298.112C180.259 298.112 180.985 297.912 181.563 297.512C182.155 297.097 182.57 296.549 182.807 295.867H184.985C184.66 297.038 184.008 297.993 183.03 298.734C182.052 299.46 180.837 299.823 179.384 299.823C178.229 299.823 177.192 299.564 176.273 299.045C175.369 298.527 174.658 297.793 174.139 296.845C173.621 295.882 173.361 294.77 173.361 293.511C173.361 292.251 173.613 291.148 174.117 290.199C174.621 289.251 175.325 288.525 176.228 288.021C177.147 287.502 178.199 287.243 179.384 287.243C180.54 287.243 181.563 287.495 182.452 287.999C183.341 288.503 184.022 289.199 184.497 290.088C184.986 290.962 185.23 291.955 185.23 293.066ZM183.141 292.644C183.141 291.874 182.97 291.214 182.63 290.666C182.289 290.103 181.822 289.681 181.229 289.399C180.651 289.103 180.007 288.955 179.296 288.955C178.273 288.955 177.399 289.281 176.673 289.933C175.962 290.584 175.554 291.488 175.45 292.644H183.141Z" fill="white"/>
<path d="M166.192 297.756L169.971 287.443H172.127L167.348 299.623H164.992L160.213 287.443H162.392L166.192 297.756Z" fill="white"/>
<path d="M157.233 285.465C156.848 285.465 156.522 285.332 156.255 285.065C155.988 284.798 155.855 284.472 155.855 284.087C155.855 283.702 155.988 283.376 156.255 283.109C156.522 282.842 156.848 282.709 157.233 282.709C157.603 282.709 157.915 282.842 158.166 283.109C158.433 283.376 158.567 283.702 158.567 284.087C158.567 284.472 158.433 284.798 158.166 285.065C157.915 285.332 157.603 285.465 157.233 285.465ZM158.211 287.443V299.623H156.188V287.443H158.211Z" fill="white"/>
<path d="M150.559 289.11V296.289C150.559 296.882 150.685 297.304 150.937 297.556C151.189 297.793 151.626 297.912 152.249 297.912H153.738V299.623H151.915C150.789 299.623 149.944 299.364 149.381 298.845C148.818 298.327 148.537 297.475 148.537 296.289V289.11H146.959V287.443H148.537V284.376H150.559V287.443H153.738V289.11H150.559Z" fill="white"/>
<path d="M132.317 293.489C132.317 292.244 132.568 291.155 133.072 290.221C133.576 289.273 134.265 288.54 135.139 288.021C136.028 287.502 137.014 287.243 138.095 287.243C139.162 287.243 140.088 287.473 140.874 287.932C141.659 288.392 142.244 288.969 142.63 289.666V287.443H144.674V299.623H142.63V297.356C142.229 298.067 141.629 298.66 140.829 299.134C140.044 299.594 139.125 299.823 138.073 299.823C136.991 299.823 136.014 299.556 135.139 299.023C134.265 298.49 133.576 297.741 133.072 296.778C132.568 295.815 132.317 294.719 132.317 293.489ZM142.63 293.511C142.63 292.592 142.444 291.792 142.074 291.111C141.703 290.429 141.2 289.91 140.562 289.555C139.94 289.184 139.251 288.999 138.495 288.999C137.74 288.999 137.051 289.177 136.428 289.532C135.806 289.888 135.31 290.407 134.939 291.088C134.569 291.77 134.384 292.57 134.384 293.489C134.384 294.422 134.569 295.237 134.939 295.934C135.31 296.615 135.806 297.141 136.428 297.512C137.051 297.867 137.74 298.045 138.495 298.045C139.251 298.045 139.94 297.867 140.562 297.512C141.2 297.141 141.703 296.615 142.074 295.934C142.444 295.237 142.63 294.43 142.63 293.511Z" fill="white"/>
<path d="M130.403 293.066C130.403 293.452 130.38 293.859 130.336 294.289H120.601C120.675 295.489 121.082 296.43 121.823 297.112C122.579 297.778 123.49 298.112 124.557 298.112C125.431 298.112 126.157 297.912 126.735 297.512C127.328 297.097 127.743 296.549 127.98 295.867H130.158C129.832 297.038 129.18 297.993 128.202 298.734C127.224 299.46 126.009 299.823 124.557 299.823C123.401 299.823 122.364 299.564 121.445 299.045C120.542 298.527 119.83 297.793 119.312 296.845C118.793 295.882 118.534 294.77 118.534 293.511C118.534 292.251 118.786 291.148 119.289 290.199C119.793 289.251 120.497 288.525 121.401 288.021C122.32 287.502 123.372 287.243 124.557 287.243C125.713 287.243 126.735 287.495 127.624 287.999C128.513 288.503 129.195 289.199 129.669 290.088C130.158 290.962 130.403 291.955 130.403 293.066ZM128.313 292.644C128.313 291.874 128.143 291.214 127.802 290.666C127.461 290.103 126.995 289.681 126.402 289.399C125.824 289.103 125.179 288.955 124.468 288.955C123.446 288.955 122.572 289.281 121.845 289.933C121.134 290.584 120.727 291.488 120.623 292.644H128.313Z" fill="white"/>
<path d="M113.021 289.421C113.376 288.725 113.88 288.184 114.532 287.799C115.199 287.414 116.006 287.221 116.955 287.221V289.31H116.421C114.154 289.31 113.021 290.54 113.021 293V299.623H110.998V287.443H113.021V289.421Z" fill="white"/>
<path d="M93.0735 291.866C93.0735 290.355 93.4143 288.999 94.0959 287.799C94.7775 286.584 95.7036 285.635 96.8742 284.954C98.0596 284.272 99.3709 283.931 100.808 283.931C102.497 283.931 103.972 284.339 105.231 285.154C106.491 285.969 107.409 287.125 107.987 288.621H105.565C105.135 287.688 104.513 286.969 103.698 286.465C102.897 285.961 101.934 285.71 100.808 285.71C99.7265 285.71 98.756 285.961 97.8966 286.465C97.0372 286.969 96.363 287.688 95.874 288.621C95.385 289.54 95.1405 290.622 95.1405 291.866C95.1405 293.096 95.385 294.178 95.874 295.111C96.363 296.03 97.0372 296.741 97.8966 297.245C98.756 297.749 99.7265 298.001 100.808 298.001C101.934 298.001 102.897 297.756 103.698 297.267C104.513 296.763 105.135 296.045 105.565 295.111H107.987C107.409 296.593 106.491 297.741 105.231 298.556C103.972 299.356 102.497 299.756 100.808 299.756C99.3709 299.756 98.0596 299.423 96.8742 298.756C95.7036 298.075 94.7775 297.134 94.0959 295.934C93.4143 294.733 93.0735 293.378 93.0735 291.866Z" fill="white"/>
<path d="M79.9175 285.398V283.554H84.096V299.623H82.0512V285.398H79.9175Z" fill="white"/>
<path d="M277.85 319.797C278.206 319.101 278.71 318.56 279.362 318.175C280.028 317.789 280.836 317.597 281.784 317.597V319.686H281.251C278.984 319.686 277.85 320.916 277.85 323.376V329.999H275.828V317.819H277.85V319.797Z" fill="white"/>
<path d="M273.158 323.442C273.158 323.827 273.136 324.235 273.091 324.665H263.356C263.43 325.865 263.838 326.806 264.579 327.487C265.334 328.154 266.246 328.488 267.312 328.488C268.187 328.488 268.913 328.288 269.491 327.887C270.083 327.473 270.498 326.924 270.735 326.243H272.913C272.587 327.413 271.936 328.369 270.958 329.11C269.98 329.836 268.765 330.199 267.312 330.199C266.157 330.199 265.12 329.94 264.201 329.421C263.297 328.902 262.586 328.169 262.067 327.221C261.548 326.258 261.289 325.146 261.289 323.887C261.289 322.627 261.541 321.523 262.045 320.575C262.549 319.627 263.253 318.901 264.156 318.397C265.075 317.878 266.127 317.619 267.312 317.619C268.468 317.619 269.491 317.871 270.38 318.375C271.269 318.878 271.95 319.575 272.425 320.464C272.913 321.338 273.158 322.331 273.158 323.442ZM271.069 323.02C271.069 322.249 270.898 321.59 270.558 321.042C270.217 320.479 269.75 320.056 269.157 319.775C268.579 319.479 267.935 319.33 267.224 319.33C266.201 319.33 265.327 319.656 264.601 320.308C263.89 320.96 263.482 321.864 263.378 323.02H271.069Z" fill="white"/>
<path d="M252.048 317.619C253.1 317.619 254.019 317.849 254.804 318.308C255.604 318.767 256.197 319.345 256.582 320.042V317.819H258.627V330.266C258.627 331.377 258.39 332.362 257.916 333.222C257.442 334.096 256.76 334.778 255.871 335.267C254.997 335.756 253.974 336 252.804 336C251.203 336 249.87 335.622 248.803 334.866C247.736 334.111 247.106 333.081 246.914 331.777H248.914C249.136 332.518 249.596 333.111 250.292 333.555C250.989 334.014 251.826 334.244 252.804 334.244C253.915 334.244 254.819 333.896 255.515 333.2C256.227 332.503 256.582 331.525 256.582 330.266V327.71C256.182 328.421 255.589 329.014 254.804 329.488C254.019 329.962 253.1 330.199 252.048 330.199C250.966 330.199 249.981 329.932 249.092 329.399C248.218 328.865 247.529 328.117 247.025 327.154C246.521 326.191 246.269 325.094 246.269 323.865C246.269 322.62 246.521 321.531 247.025 320.597C247.529 319.649 248.218 318.915 249.092 318.397C249.981 317.878 250.966 317.619 252.048 317.619ZM256.582 323.887C256.582 322.968 256.397 322.168 256.026 321.486C255.656 320.805 255.152 320.286 254.515 319.93C253.893 319.56 253.204 319.375 252.448 319.375C251.692 319.375 251.003 319.553 250.381 319.908C249.759 320.264 249.262 320.782 248.892 321.464C248.521 322.146 248.336 322.946 248.336 323.865C248.336 324.798 248.521 325.613 248.892 326.309C249.262 326.991 249.759 327.517 250.381 327.887C251.003 328.243 251.692 328.421 252.448 328.421C253.204 328.421 253.893 328.243 254.515 327.887C255.152 327.517 255.656 326.991 256.026 326.309C256.397 325.613 256.582 324.805 256.582 323.887Z" fill="white"/>
<path d="M231.249 323.865C231.249 322.62 231.501 321.531 232.005 320.597C232.509 319.649 233.198 318.915 234.072 318.397C234.961 317.878 235.946 317.619 237.028 317.619C238.095 317.619 239.021 317.849 239.806 318.308C240.592 318.767 241.177 319.345 241.562 320.042V317.819H243.607V329.999H241.562V327.732C241.162 328.443 240.562 329.036 239.762 329.51C238.976 329.969 238.058 330.199 237.006 330.199C235.924 330.199 234.946 329.932 234.072 329.399C233.198 328.865 232.509 328.117 232.005 327.154C231.501 326.191 231.249 325.094 231.249 323.865ZM241.562 323.887C241.562 322.968 241.377 322.168 241.006 321.486C240.636 320.805 240.132 320.286 239.495 319.93C238.873 319.56 238.184 319.375 237.428 319.375C236.672 319.375 235.983 319.553 235.361 319.908C234.739 320.264 234.242 320.782 233.872 321.464C233.501 322.146 233.316 322.946 233.316 323.865C233.316 324.798 233.501 325.613 233.872 326.309C234.242 326.991 234.739 327.517 235.361 327.887C235.983 328.243 236.672 328.421 237.428 328.421C238.184 328.421 238.873 328.243 239.495 327.887C240.132 327.517 240.636 326.991 241.006 326.309C241.377 325.613 241.562 324.805 241.562 323.887Z" fill="white"/>
<path d="M223.722 317.597C225.204 317.597 226.404 318.049 227.323 318.953C228.242 319.842 228.701 321.131 228.701 322.82V329.999H226.701V323.109C226.701 321.894 226.397 320.968 225.789 320.331C225.182 319.679 224.352 319.353 223.3 319.353C222.233 319.353 221.381 319.686 220.744 320.353C220.122 321.02 219.81 321.99 219.81 323.264V329.999H217.788V317.819H219.81V319.553C220.211 318.93 220.751 318.449 221.433 318.108C222.129 317.767 222.893 317.597 223.722 317.597Z" fill="white"/>
<path d="M202.012 323.865C202.012 322.62 202.264 321.531 202.768 320.597C203.272 319.649 203.961 318.915 204.835 318.397C205.724 317.878 206.709 317.619 207.791 317.619C208.858 317.619 209.784 317.849 210.569 318.308C211.355 318.767 211.94 319.345 212.325 320.042V317.819H214.37V329.999H212.325V327.732C211.925 328.443 211.325 329.036 210.525 329.51C209.74 329.969 208.821 330.199 207.769 330.199C206.687 330.199 205.709 329.932 204.835 329.399C203.961 328.865 203.272 328.117 202.768 327.154C202.264 326.191 202.012 325.094 202.012 323.865ZM212.325 323.887C212.325 322.968 212.14 322.168 211.77 321.486C211.399 320.805 210.895 320.286 210.258 319.93C209.636 319.56 208.947 319.375 208.191 319.375C207.435 319.375 206.746 319.553 206.124 319.908C205.502 320.264 205.005 320.782 204.635 321.464C204.264 322.146 204.079 322.946 204.079 323.865C204.079 324.798 204.264 325.613 204.635 326.309C205.005 326.991 205.502 327.517 206.124 327.887C206.746 328.243 207.435 328.421 208.191 328.421C208.947 328.421 209.636 328.243 210.258 327.887C210.895 327.517 211.399 326.991 211.77 326.309C212.14 325.613 212.325 324.805 212.325 323.887Z" fill="white"/>
<path d="M199.338 314.618V329.999H197.315V318.53L192.203 329.999H190.781L185.646 318.508V329.999H183.624V314.618H185.802L191.492 327.332L197.182 314.618H199.338Z" fill="white"/>
<path d="M172.069 319.486V326.665C172.069 327.258 172.195 327.68 172.447 327.932C172.699 328.169 173.136 328.288 173.759 328.288H175.248V329.999H173.425C172.299 329.999 171.454 329.74 170.891 329.221C170.328 328.702 170.047 327.85 170.047 326.665V319.486H168.469V317.819H170.047V314.752H172.069V317.819H175.248V319.486H172.069Z" fill="white"/>
<path d="M155.346 323.887C155.346 322.627 155.598 321.531 156.102 320.597C156.605 319.649 157.302 318.915 158.191 318.397C159.095 317.878 160.125 317.619 161.28 317.619C162.777 317.619 164.007 317.982 164.97 318.708C165.948 319.434 166.592 320.442 166.903 321.731H164.725C164.518 320.99 164.11 320.405 163.503 319.975C162.91 319.545 162.169 319.33 161.28 319.33C160.125 319.33 159.191 319.73 158.48 320.531C157.769 321.316 157.413 322.435 157.413 323.887C157.413 325.354 157.769 326.487 158.48 327.287C159.191 328.087 160.125 328.488 161.28 328.488C162.169 328.488 162.91 328.28 163.503 327.865C164.096 327.45 164.503 326.858 164.725 326.087H166.903C166.578 327.332 165.926 328.332 164.948 329.088C163.97 329.829 162.747 330.199 161.28 330.199C160.125 330.199 159.095 329.94 158.191 329.421C157.302 328.902 156.605 328.169 156.102 327.221C155.598 326.272 155.346 325.161 155.346 323.887Z" fill="white"/>
<path d="M153.432 323.442C153.432 323.827 153.41 324.235 153.365 324.665H143.63C143.704 325.865 144.112 326.806 144.853 327.487C145.608 328.154 146.519 328.488 147.586 328.488C148.461 328.488 149.187 328.288 149.765 327.887C150.357 327.473 150.772 326.924 151.009 326.243H153.187C152.861 327.413 152.209 328.369 151.231 329.11C150.253 329.836 149.038 330.199 147.586 330.199C146.431 330.199 145.393 329.94 144.475 329.421C143.571 328.902 142.86 328.169 142.341 327.221C141.822 326.258 141.563 325.146 141.563 323.887C141.563 322.627 141.815 321.523 142.319 320.575C142.823 319.627 143.526 318.901 144.43 318.397C145.349 317.878 146.401 317.619 147.586 317.619C148.742 317.619 149.765 317.871 150.654 318.375C151.543 318.878 152.224 319.575 152.698 320.464C153.187 321.338 153.432 322.331 153.432 323.442ZM151.343 323.02C151.343 322.249 151.172 321.59 150.831 321.042C150.491 320.479 150.024 320.056 149.431 319.775C148.853 319.479 148.209 319.33 147.497 319.33C146.475 319.33 145.601 319.656 144.875 320.308C144.164 320.96 143.756 321.864 143.652 323.02H151.343Z" fill="white"/>
<path d="M137.895 315.841C137.509 315.841 137.183 315.707 136.917 315.441C136.665 315.174 136.539 314.848 136.539 314.463C136.539 314.078 136.665 313.752 136.917 313.485C137.183 313.218 137.509 313.085 137.895 313.085C138.28 313.085 138.599 313.218 138.85 313.485C139.117 313.752 139.25 314.078 139.25 314.463C139.25 314.848 139.117 315.174 138.85 315.441C138.599 315.707 138.28 315.841 137.895 315.841ZM138.895 332.644C138.895 333.726 138.621 334.518 138.072 335.022C137.524 335.526 136.724 335.778 135.672 335.778H134.494V334.066H135.339C135.902 334.066 136.294 333.955 136.517 333.733C136.754 333.511 136.872 333.133 136.872 332.599V317.819H138.895V332.644Z" fill="white"/>
<path d="M127.901 330.199C126.76 330.199 125.723 329.94 124.789 329.421C123.87 328.902 123.144 328.169 122.611 327.221C122.092 326.258 121.833 325.146 121.833 323.887C121.833 322.642 122.1 321.546 122.633 320.597C123.181 319.634 123.922 318.901 124.856 318.397C125.789 317.878 126.834 317.619 127.99 317.619C129.145 317.619 130.19 317.878 131.124 318.397C132.057 318.901 132.791 319.627 133.324 320.575C133.872 321.523 134.146 322.627 134.146 323.887C134.146 325.146 133.865 326.258 133.302 327.221C132.753 328.169 132.005 328.902 131.057 329.421C130.109 329.94 129.057 330.199 127.901 330.199ZM127.901 328.421C128.627 328.421 129.308 328.25 129.946 327.91C130.583 327.569 131.094 327.058 131.479 326.376C131.879 325.694 132.079 324.865 132.079 323.887C132.079 322.909 131.887 322.079 131.501 321.397C131.116 320.716 130.612 320.212 129.99 319.886C129.368 319.545 128.693 319.375 127.967 319.375C127.227 319.375 126.545 319.545 125.923 319.886C125.315 320.212 124.826 320.716 124.456 321.397C124.085 322.079 123.9 322.909 123.9 323.887C123.9 324.88 124.078 325.717 124.433 326.398C124.804 327.08 125.293 327.591 125.9 327.932C126.508 328.258 127.175 328.421 127.901 328.421Z" fill="white"/>
<path d="M116.32 319.797C116.675 319.101 117.179 318.56 117.831 318.175C118.498 317.789 119.306 317.597 120.254 317.597V319.686H119.72C117.453 319.686 116.32 320.916 116.32 323.376V329.999H114.297V317.819H116.32V319.797Z" fill="white"/>
<path d="M111.783 319.041C111.783 320.331 111.339 321.405 110.45 322.264C109.576 323.109 108.235 323.531 106.427 323.531H103.449V329.999H101.426V314.507H106.427C108.175 314.507 109.502 314.93 110.405 315.774C111.324 316.619 111.783 317.708 111.783 319.041ZM106.427 321.864C107.553 321.864 108.383 321.62 108.916 321.131C109.45 320.642 109.716 319.945 109.716 319.041C109.716 317.13 108.62 316.174 106.427 316.174H103.449V321.864H106.427Z" fill="white"/>
<path d="M87.5143 315.774V313.929H91.6929V329.999H89.6481V315.774H87.5143Z" fill="white"/>
<path d="M275.586 464.3L271.311 478H268.961L265.661 467.125L262.361 478H260.011L255.711 464.3H258.036L261.186 475.8L264.586 464.3H266.911L270.236 475.825L273.336 464.3H275.586Z" fill="white"/>
<path d="M247.319 478.225C246.036 478.225 244.869 477.933 243.819 477.35C242.786 476.767 241.969 475.942 241.369 474.875C240.786 473.792 240.494 472.542 240.494 471.125C240.494 469.725 240.794 468.492 241.394 467.425C242.011 466.342 242.844 465.517 243.894 464.95C244.944 464.367 246.119 464.075 247.419 464.075C248.719 464.075 249.894 464.367 250.944 464.95C251.994 465.517 252.819 466.333 253.419 467.4C254.036 468.467 254.344 469.708 254.344 471.125C254.344 472.542 254.028 473.792 253.394 474.875C252.778 475.942 251.936 476.767 250.869 477.35C249.803 477.933 248.619 478.225 247.319 478.225ZM247.319 476.225C248.136 476.225 248.903 476.033 249.619 475.65C250.336 475.267 250.911 474.692 251.344 473.925C251.794 473.158 252.019 472.225 252.019 471.125C252.019 470.025 251.803 469.092 251.369 468.325C250.936 467.558 250.369 466.992 249.669 466.625C248.969 466.242 248.211 466.05 247.394 466.05C246.561 466.05 245.794 466.242 245.094 466.625C244.411 466.992 243.861 467.558 243.444 468.325C243.028 469.092 242.819 470.025 242.819 471.125C242.819 472.242 243.019 473.183 243.419 473.95C243.836 474.717 244.386 475.292 245.069 475.675C245.753 476.042 246.503 476.225 247.319 476.225Z" fill="white"/>
<path d="M232.028 464.05C233.695 464.05 235.045 464.558 236.078 465.575C237.112 466.575 237.628 468.025 237.628 469.925V478H235.378V470.25C235.378 468.883 235.037 467.842 234.353 467.125C233.67 466.392 232.737 466.025 231.553 466.025C230.353 466.025 229.395 466.4 228.678 467.15C227.978 467.9 227.628 468.992 227.628 470.425V478H225.353V464.3H227.628V466.25C228.078 465.55 228.687 465.008 229.453 464.625C230.237 464.242 231.095 464.05 232.028 464.05Z" fill="white"/>
<path d="M215.685 470.625C215.685 471.058 215.66 471.517 215.61 472H204.66C204.744 473.35 205.202 474.408 206.035 475.175C206.885 475.925 207.91 476.3 209.11 476.3C210.094 476.3 210.91 476.075 211.56 475.625C212.227 475.158 212.694 474.542 212.96 473.775H215.41C215.044 475.092 214.31 476.167 213.21 477C212.11 477.817 210.744 478.225 209.11 478.225C207.81 478.225 206.644 477.933 205.61 477.35C204.594 476.767 203.794 475.942 203.21 474.875C202.627 473.792 202.335 472.542 202.335 471.125C202.335 469.708 202.619 468.467 203.185 467.4C203.752 466.333 204.544 465.517 205.56 464.95C206.594 464.367 207.777 464.075 209.11 464.075C210.41 464.075 211.56 464.358 212.56 464.925C213.56 465.492 214.327 466.275 214.86 467.275C215.41 468.258 215.685 469.375 215.685 470.625ZM213.335 470.15C213.335 469.283 213.144 468.542 212.76 467.925C212.377 467.292 211.852 466.817 211.185 466.5C210.535 466.167 209.81 466 209.01 466C207.86 466 206.877 466.367 206.06 467.1C205.26 467.833 204.802 468.85 204.685 470.15H213.335Z" fill="white"/>
<path d="M188.566 466.85C189.032 466.033 189.716 465.367 190.616 464.85C191.516 464.333 192.541 464.075 193.691 464.075C194.924 464.075 196.032 464.367 197.016 464.95C197.999 465.533 198.774 466.358 199.341 467.425C199.907 468.475 200.191 469.7 200.191 471.1C200.191 472.483 199.907 473.717 199.341 474.8C198.774 475.883 197.991 476.725 196.991 477.325C196.007 477.925 194.907 478.225 193.691 478.225C192.507 478.225 191.466 477.967 190.566 477.45C189.682 476.933 189.016 476.275 188.566 475.475V478H186.291V459.5H188.566V466.85ZM197.866 471.1C197.866 470.067 197.657 469.167 197.241 468.4C196.824 467.633 196.257 467.05 195.541 466.65C194.841 466.25 194.066 466.05 193.216 466.05C192.382 466.05 191.607 466.258 190.891 466.675C190.191 467.075 189.624 467.667 189.191 468.45C188.774 469.217 188.566 470.108 188.566 471.125C188.566 472.158 188.774 473.067 189.191 473.85C189.624 474.617 190.191 475.208 190.891 475.625C191.607 476.025 192.382 476.225 193.216 476.225C194.066 476.225 194.841 476.025 195.541 475.625C196.257 475.208 196.824 474.617 197.241 473.85C197.657 473.067 197.866 472.15 197.866 471.1Z" fill="white"/>
<path d="M181.313 462.075C180.88 462.075 180.513 461.925 180.213 461.625C179.913 461.325 179.763 460.958 179.763 460.525C179.763 460.092 179.913 459.725 180.213 459.425C180.513 459.125 180.88 458.975 181.313 458.975C181.73 458.975 182.08 459.125 182.363 459.425C182.663 459.725 182.813 460.092 182.813 460.525C182.813 460.958 182.663 461.325 182.363 461.625C182.08 461.925 181.73 462.075 181.313 462.075ZM182.413 464.3V478H180.138V464.3H182.413Z" fill="white"/>
<path d="M173.087 466.525C173.487 465.742 174.054 465.133 174.787 464.7C175.537 464.267 176.446 464.05 177.512 464.05V466.4H176.912C174.362 466.4 173.087 467.783 173.087 470.55V478H170.812V464.3H173.087V466.525Z" fill="white"/>
<path d="M154.777 471.125C154.777 469.708 155.06 468.475 155.627 467.425C156.193 466.358 156.977 465.533 157.977 464.95C158.993 464.367 160.152 464.075 161.452 464.075C163.135 464.075 164.518 464.483 165.602 465.3C166.702 466.117 167.427 467.25 167.777 468.7H165.327C165.093 467.867 164.635 467.208 163.952 466.725C163.285 466.242 162.452 466 161.452 466C160.152 466 159.102 466.45 158.302 467.35C157.502 468.233 157.102 469.492 157.102 471.125C157.102 472.775 157.502 474.05 158.302 474.95C159.102 475.85 160.152 476.3 161.452 476.3C162.452 476.3 163.285 476.067 163.952 475.6C164.618 475.133 165.077 474.467 165.327 473.6H167.777C167.41 475 166.677 476.125 165.577 476.975C164.477 477.808 163.102 478.225 161.452 478.225C160.152 478.225 158.993 477.933 157.977 477.35C156.977 476.767 156.193 475.942 155.627 474.875C155.06 473.808 154.777 472.558 154.777 471.125Z" fill="white"/>
<path d="M147.415 478.225C146.365 478.225 145.423 478.05 144.59 477.7C143.757 477.333 143.098 476.833 142.615 476.2C142.132 475.55 141.865 474.808 141.815 473.975H144.165C144.232 474.658 144.548 475.217 145.115 475.65C145.698 476.083 146.457 476.3 147.39 476.3C148.257 476.3 148.94 476.108 149.44 475.725C149.94 475.342 150.19 474.858 150.19 474.275C150.19 473.675 149.923 473.233 149.39 472.95C148.857 472.65 148.032 472.358 146.915 472.075C145.898 471.808 145.065 471.542 144.415 471.275C143.782 470.992 143.232 470.583 142.765 470.05C142.315 469.5 142.09 468.783 142.09 467.9C142.09 467.2 142.298 466.558 142.715 465.975C143.132 465.392 143.723 464.933 144.49 464.6C145.257 464.25 146.132 464.075 147.115 464.075C148.632 464.075 149.857 464.458 150.79 465.225C151.723 465.992 152.223 467.042 152.29 468.375H150.015C149.965 467.658 149.673 467.083 149.14 466.65C148.623 466.217 147.923 466 147.04 466C146.223 466 145.573 466.175 145.09 466.525C144.607 466.875 144.365 467.333 144.365 467.9C144.365 468.35 144.507 468.725 144.79 469.025C145.09 469.308 145.457 469.542 145.89 469.725C146.34 469.892 146.957 470.083 147.74 470.3C148.723 470.567 149.523 470.833 150.14 471.1C150.757 471.35 151.282 471.733 151.715 472.25C152.165 472.767 152.398 473.442 152.415 474.275C152.415 475.025 152.207 475.7 151.79 476.3C151.373 476.9 150.782 477.375 150.015 477.725C149.265 478.058 148.398 478.225 147.415 478.225Z" fill="white"/>
<path d="M127.946 466.85C128.412 466.033 129.096 465.367 129.996 464.85C130.896 464.333 131.921 464.075 133.071 464.075C134.304 464.075 135.412 464.367 136.396 464.95C137.379 465.533 138.154 466.358 138.721 467.425C139.287 468.475 139.571 469.7 139.571 471.1C139.571 472.483 139.287 473.717 138.721 474.8C138.154 475.883 137.371 476.725 136.371 477.325C135.387 477.925 134.287 478.225 133.071 478.225C131.887 478.225 130.846 477.967 129.946 477.45C129.062 476.933 128.396 476.275 127.946 475.475V478H125.671V459.5H127.946V466.85ZM137.246 471.1C137.246 470.067 137.037 469.167 136.621 468.4C136.204 467.633 135.637 467.05 134.921 466.65C134.221 466.25 133.446 466.05 132.596 466.05C131.762 466.05 130.987 466.258 130.271 466.675C129.571 467.075 129.004 467.667 128.571 468.45C128.154 469.217 127.946 470.108 127.946 471.125C127.946 472.158 128.154 473.067 128.571 473.85C129.004 474.617 129.571 475.208 130.271 475.625C130.987 476.025 131.762 476.225 132.596 476.225C133.446 476.225 134.221 476.025 134.921 475.625C135.637 475.208 136.204 474.617 136.621 473.85C137.037 473.067 137.246 472.15 137.246 471.1Z" fill="white"/>
<path d="M121.829 464.3V478H119.554V475.975C119.121 476.675 118.513 477.225 117.729 477.625C116.963 478.008 116.113 478.2 115.179 478.2C114.113 478.2 113.154 477.983 112.304 477.55C111.454 477.1 110.779 476.433 110.279 475.55C109.796 474.667 109.554 473.592 109.554 472.325V464.3H111.804V472.025C111.804 473.375 112.146 474.417 112.829 475.15C113.513 475.867 114.446 476.225 115.629 476.225C116.846 476.225 117.804 475.85 118.504 475.1C119.204 474.35 119.554 473.258 119.554 471.825V464.3H121.829Z" fill="white"/>
<path d="M100.532 478.175C99.3815 478.175 98.3482 477.975 97.4315 477.575C96.5315 477.158 95.8232 476.592 95.3065 475.875C94.7899 475.142 94.5232 474.3 94.5065 473.35H96.9315C97.0149 474.167 97.3482 474.858 97.9315 475.425C98.5315 475.975 99.3982 476.25 100.532 476.25C101.615 476.25 102.465 475.983 103.082 475.45C103.715 474.9 104.032 474.2 104.032 473.35C104.032 472.683 103.848 472.142 103.482 471.725C103.115 471.308 102.657 470.992 102.107 470.775C101.557 470.558 100.815 470.325 99.8815 470.075C98.7315 469.775 97.8065 469.475 97.1065 469.175C96.4232 468.875 95.8315 468.408 95.3315 467.775C94.8482 467.125 94.6065 466.258 94.6065 465.175C94.6065 464.225 94.8482 463.383 95.3315 462.65C95.8149 461.917 96.4899 461.35 97.3565 460.95C98.2399 460.55 99.2482 460.35 100.382 460.35C102.015 460.35 103.348 460.758 104.382 461.575C105.432 462.392 106.023 463.475 106.157 464.825H103.657C103.573 464.158 103.223 463.575 102.607 463.075C101.99 462.558 101.173 462.3 100.157 462.3C99.2065 462.3 98.4315 462.55 97.8315 463.05C97.2315 463.533 96.9315 464.217 96.9315 465.1C96.9315 465.733 97.1065 466.25 97.4565 466.65C97.8232 467.05 98.2649 467.358 98.7815 467.575C99.3149 467.775 100.057 468.008 101.007 468.275C102.157 468.592 103.082 468.908 103.782 469.225C104.482 469.525 105.082 470 105.582 470.65C106.082 471.283 106.332 472.15 106.332 473.25C106.332 474.1 106.107 474.9 105.657 475.65C105.207 476.4 104.54 477.008 103.657 477.475C102.773 477.942 101.732 478.175 100.532 478.175Z" fill="white"/>
<path d="M272.412 73C272.412 70.1333 272.945 67.6167 274.012 65.45C275.112 63.2833 276.595 61.6167 278.462 60.45C280.328 59.2833 282.412 58.7 284.712 58.7C286.545 58.7 288.212 59.0833 289.712 59.85C291.245 60.6167 292.445 61.65 293.312 62.95V50H301.862V87H293.312V83C292.512 84.3333 291.362 85.4 289.862 86.2C288.395 87 286.678 87.4 284.712 87.4C282.412 87.4 280.328 86.8167 278.462 85.65C276.595 84.45 275.112 82.7667 274.012 80.6C272.945 78.4 272.412 75.8667 272.412 73ZM293.312 73.05C293.312 70.9167 292.712 69.2333 291.512 68C290.345 66.7667 288.912 66.15 287.212 66.15C285.512 66.15 284.062 66.7667 282.862 68C281.695 69.2 281.112 70.8667 281.112 73C281.112 75.1333 281.695 76.8333 282.862 78.1C284.062 79.3333 285.512 79.95 287.212 79.95C288.912 79.95 290.345 79.3333 291.512 78.1C292.712 76.8667 293.312 75.1833 293.312 73.05Z" fill="white"/>
<path d="M261.275 63.75C262.275 62.2167 263.525 61.0167 265.025 60.15C266.525 59.25 268.192 58.8 270.025 58.8V67.85H267.675C265.542 67.85 263.942 68.3167 262.875 69.25C261.808 70.15 261.275 71.75 261.275 74.05V87H252.725V59.1H261.275V63.75Z" fill="white"/>
<path d="M217.089 73C217.089 70.1333 217.623 67.6167 218.689 65.45C219.789 63.2833 221.273 61.6167 223.139 60.45C225.006 59.2833 227.089 58.7 229.389 58.7C231.356 58.7 233.073 59.1 234.539 59.9C236.039 60.7 237.189 61.75 237.989 63.05V59.1H246.539V87H237.989V83.05C237.156 84.35 235.989 85.4 234.489 86.2C233.023 87 231.306 87.4 229.339 87.4C227.073 87.4 225.006 86.8167 223.139 85.65C221.273 84.45 219.789 82.7667 218.689 80.6C217.623 78.4 217.089 75.8667 217.089 73ZM237.989 73.05C237.989 70.9167 237.389 69.2333 236.189 68C235.023 66.7667 233.589 66.15 231.889 66.15C230.189 66.15 228.739 66.7667 227.539 68C226.373 69.2 225.789 70.8667 225.789 73C225.789 75.1333 226.373 76.8333 227.539 78.1C228.739 79.3333 230.189 79.95 231.889 79.95C233.589 79.95 235.023 79.3333 236.189 78.1C237.389 76.8667 237.989 75.1833 237.989 73.05Z" fill="white"/>
<path d="M183.154 73C183.154 70.1333 183.687 67.6167 184.754 65.45C185.854 63.2833 187.337 61.6167 189.204 60.45C191.071 59.2833 193.154 58.7 195.454 58.7C197.287 58.7 198.954 59.0833 200.454 59.85C201.987 60.6167 203.187 61.65 204.054 62.95V50H212.604V87H204.054V83C203.254 84.3333 202.104 85.4 200.604 86.2C199.137 87 197.421 87.4 195.454 87.4C193.154 87.4 191.071 86.8167 189.204 85.65C187.337 84.45 185.854 82.7667 184.754 80.6C183.687 78.4 183.154 75.8667 183.154 73ZM204.054 73.05C204.054 70.9167 203.454 69.2333 202.254 68C201.087 66.7667 199.654 66.15 197.954 66.15C196.254 66.15 194.804 66.7667 193.604 68C192.437 69.2 191.854 70.8667 191.854 73C191.854 75.1333 192.437 76.8333 193.604 78.1C194.804 79.3333 196.254 79.95 197.954 79.95C199.654 79.95 201.087 79.3333 202.254 78.1C203.454 76.8667 204.054 75.1833 204.054 73.05Z" fill="white"/>
<path d="M168.162 58.8C171.429 58.8 174.029 59.8667 175.962 62C177.929 64.1 178.912 67 178.912 70.7V87H170.412V71.85C170.412 69.9833 169.929 68.5333 168.962 67.5C167.996 66.4667 166.696 65.95 165.062 65.95C163.429 65.95 162.129 66.4667 161.162 67.5C160.196 68.5333 159.712 69.9833 159.712 71.85V87H151.162V59.1H159.712V62.8C160.579 61.5667 161.746 60.6 163.212 59.9C164.679 59.1667 166.329 58.8 168.162 58.8Z" fill="white"/>
<path d="M115.527 73C115.527 70.1333 116.06 67.6167 117.127 65.45C118.227 63.2833 119.71 61.6167 121.577 60.45C123.444 59.2833 125.527 58.7 127.827 58.7C129.794 58.7 131.51 59.1 132.977 59.9C134.477 60.7 135.627 61.75 136.427 63.05V59.1H144.977V87H136.427V83.05C135.594 84.35 134.427 85.4 132.927 86.2C131.46 87 129.744 87.4 127.777 87.4C125.51 87.4 123.444 86.8167 121.577 85.65C119.71 84.45 118.227 82.7667 117.127 80.6C116.06 78.4 115.527 75.8667 115.527 73ZM136.427 73.05C136.427 70.9167 135.827 69.2333 134.627 68C133.46 66.7667 132.027 66.15 130.327 66.15C128.627 66.15 127.177 66.7667 125.977 68C124.81 69.2 124.227 70.8667 124.227 73C124.227 75.1333 124.81 76.8333 125.977 78.1C127.177 79.3333 128.627 79.95 130.327 79.95C132.027 79.95 133.46 79.3333 134.627 78.1C135.827 76.8667 136.427 75.1833 136.427 73.05Z" fill="white"/>
<path d="M112.464 79.75V87H108.114C105.014 87 102.598 86.25 100.864 84.75C99.1311 83.2167 98.2644 80.7333 98.2644 77.3V66.2H94.8644V59.1H98.2644V52.3H106.814V59.1H112.414V66.2H106.814V77.4C106.814 78.2333 107.014 78.8333 107.414 79.2C107.814 79.5667 108.481 79.75 109.414 79.75H112.464Z" fill="white"/>
<path d="M78.8527 87.35C76.286 87.35 73.986 86.9334 71.9527 86.1C69.9194 85.2667 68.286 84.0334 67.0527 82.4C65.8527 80.7667 65.2194 78.8 65.1527 76.5H74.2527C74.386 77.8 74.836 78.8 75.6027 79.5C76.3694 80.1667 77.3694 80.5 78.6027 80.5C79.8694 80.5 80.8694 80.2167 81.6027 79.65C82.336 79.05 82.7027 78.2334 82.7027 77.2C82.7027 76.3334 82.4027 75.6167 81.8027 75.05C81.236 74.4834 80.5194 74.0167 79.6527 73.65C78.8194 73.2834 77.6194 72.8667 76.0527 72.4C73.786 71.7 71.936 71 70.5027 70.3C69.0694 69.6 67.836 68.5667 66.8027 67.2C65.7694 65.8334 65.2527 64.05 65.2527 61.85C65.2527 58.5834 66.436 56.0334 68.8027 54.2C71.1694 52.3334 74.2527 51.4 78.0527 51.4C81.9194 51.4 85.036 52.3334 87.4027 54.2C89.7694 56.0334 91.036 58.6 91.2027 61.9H81.9527C81.886 60.7667 81.4694 59.8834 80.7027 59.25C79.936 58.5834 78.9527 58.25 77.7527 58.25C76.7194 58.25 75.886 58.5334 75.2527 59.1C74.6194 59.6334 74.3027 60.4167 74.3027 61.45C74.3027 62.5834 74.836 63.4667 75.9027 64.1C76.9694 64.7334 78.636 65.4167 80.9027 66.15C83.1694 66.9167 85.0027 67.65 86.4027 68.35C87.836 69.05 89.0694 70.0667 90.1027 71.4C91.136 72.7334 91.6527 74.45 91.6527 76.55C91.6527 78.55 91.136 80.3667 90.1027 82C89.1027 83.6334 87.636 84.9334 85.7027 85.9C83.7694 86.8667 81.486 87.35 78.8527 87.35Z" fill="white"/>
<path d="M334.108 135.8C337.308 135.8 339.875 136.867 341.808 139C343.742 141.1 344.708 144 344.708 147.7V164H336.208V148.85C336.208 146.983 335.725 145.533 334.758 144.5C333.792 143.467 332.492 142.95 330.858 142.95C329.225 142.95 327.925 143.467 326.958 144.5C325.992 145.533 325.508 146.983 325.508 148.85V164H316.958V127H325.508V139.85C326.375 138.617 327.558 137.633 329.058 136.9C330.558 136.167 332.242 135.8 334.108 135.8Z" fill="white"/>
<path d="M312.196 156.75V164H307.846C304.746 164 302.329 163.25 300.596 161.75C298.863 160.217 297.996 157.733 297.996 154.3V143.2H294.596V136.1H297.996V129.3H306.546V136.1H312.146V143.2H306.546V154.4C306.546 155.233 306.746 155.833 307.146 156.2C307.546 156.567 308.213 156.75 309.146 156.75H312.196Z" fill="white"/>
<path d="M279.955 135.8C283.221 135.8 285.821 136.867 287.755 139C289.721 141.1 290.705 144 290.705 147.7V164H282.205V148.85C282.205 146.983 281.721 145.533 280.755 144.5C279.788 143.467 278.488 142.95 276.855 142.95C275.221 142.95 273.921 143.467 272.955 144.5C271.988 145.533 271.505 146.983 271.505 148.85V164H262.955V136.1H271.505V139.8C272.371 138.567 273.538 137.6 275.005 136.9C276.471 136.167 278.121 135.8 279.955 135.8Z" fill="white"/>
<path d="M243.819 164.4C241.085 164.4 238.619 163.817 236.419 162.65C234.252 161.483 232.535 159.817 231.269 157.65C230.035 155.483 229.419 152.95 229.419 150.05C229.419 147.183 230.052 144.667 231.319 142.5C232.585 140.3 234.319 138.617 236.519 137.45C238.719 136.283 241.185 135.7 243.919 135.7C246.652 135.7 249.119 136.283 251.319 137.45C253.519 138.617 255.252 140.3 256.519 142.5C257.785 144.667 258.419 147.183 258.419 150.05C258.419 152.917 257.769 155.45 256.469 157.65C255.202 159.817 253.452 161.483 251.219 162.65C249.019 163.817 246.552 164.4 243.819 164.4ZM243.819 157C245.452 157 246.835 156.4 247.969 155.2C249.135 154 249.719 152.283 249.719 150.05C249.719 147.817 249.152 146.1 248.019 144.9C246.919 143.7 245.552 143.1 243.919 143.1C242.252 143.1 240.869 143.7 239.769 144.9C238.669 146.067 238.119 147.783 238.119 150.05C238.119 152.283 238.652 154 239.719 155.2C240.819 156.4 242.185 157 243.819 157Z" fill="white"/>
<path d="M213.789 135.8C217.256 135.8 220.006 136.85 222.039 138.95C224.106 141.05 225.139 143.967 225.139 147.7V164H216.639V148.85C216.639 147.05 216.156 145.667 215.189 144.7C214.256 143.7 212.956 143.2 211.289 143.2C209.622 143.2 208.306 143.7 207.339 144.7C206.406 145.667 205.939 147.05 205.939 148.85V164H197.439V148.85C197.439 147.05 196.956 145.667 195.989 144.7C195.056 143.7 193.756 143.2 192.089 143.2C190.422 143.2 189.106 143.7 188.139 144.7C187.206 145.667 186.739 147.05 186.739 148.85V164H178.189V136.1H186.739V139.6C187.606 138.433 188.739 137.517 190.139 136.85C191.539 136.15 193.122 135.8 194.889 135.8C196.989 135.8 198.856 136.25 200.489 137.15C202.156 138.05 203.456 139.333 204.389 141C205.356 139.467 206.672 138.217 208.339 137.25C210.006 136.283 211.822 135.8 213.789 135.8Z" fill="white"/>
<path d="M174.583 116.5L161.183 173.35H152.933L166.333 116.5H174.583Z" fill="white"/>
<path d="M149.172 153.8C149.172 155.633 148.689 157.333 147.722 158.9C146.789 160.433 145.389 161.7 143.522 162.7C141.689 163.667 139.506 164.2 136.972 164.3V168.35H133.772V164.25C130.239 163.95 127.389 162.9 125.222 161.1C123.056 159.267 121.906 156.783 121.772 153.65H130.872C131.072 155.65 132.039 156.933 133.772 157.5V149.6C131.172 148.933 129.089 148.283 127.522 147.65C125.989 147.017 124.639 146 123.472 144.6C122.306 143.2 121.722 141.283 121.722 138.85C121.722 135.817 122.839 133.383 125.072 131.55C127.339 129.717 130.239 128.683 133.772 128.45V124.4H136.972V128.45C140.472 128.717 143.239 129.733 145.272 131.5C147.306 133.267 148.439 135.717 148.672 138.85H139.522C139.322 137.05 138.472 135.883 136.972 135.35V143.1C139.739 143.867 141.872 144.55 143.372 145.15C144.872 145.75 146.206 146.75 147.372 148.15C148.572 149.517 149.172 151.4 149.172 153.8ZM130.772 138.45C130.772 139.283 131.022 139.983 131.522 140.55C132.056 141.117 132.806 141.617 133.772 142.05V135.1C132.839 135.267 132.106 135.633 131.572 136.2C131.039 136.733 130.772 137.483 130.772 138.45ZM136.972 157.65C137.972 157.483 138.756 157.083 139.322 156.45C139.922 155.817 140.222 155.033 140.222 154.1C140.222 153.233 139.939 152.533 139.372 152C138.839 151.433 138.039 150.95 136.972 150.55V157.65Z" fill="white"/>
<path d="M89.1553 145.25C89.1553 139.517 90.2553 135 92.4553 131.7C94.6886 128.4 98.2719 126.75 103.205 126.75C108.139 126.75 111.705 128.4 113.905 131.7C116.139 135 117.255 139.517 117.255 145.25C117.255 151.05 116.139 155.6 113.905 158.9C111.705 162.2 108.139 163.85 103.205 163.85C98.2719 163.85 94.6886 162.2 92.4553 158.9C90.2553 155.6 89.1553 151.05 89.1553 145.25ZM108.855 145.25C108.855 141.883 108.489 139.3 107.755 137.5C107.022 135.667 105.505 134.75 103.205 134.75C100.905 134.75 99.3886 135.667 98.6553 137.5C97.9219 139.3 97.5553 141.883 97.5553 145.25C97.5553 147.517 97.6886 149.4 97.9553 150.9C98.2219 152.367 98.7553 153.567 99.5553 154.5C100.389 155.4 101.605 155.85 103.205 155.85C104.805 155.85 106.005 155.4 106.805 154.5C107.639 153.567 108.189 152.367 108.455 150.9C108.722 149.4 108.855 147.517 108.855 145.25Z" fill="white"/>
<path d="M56.5381 145.25C56.5381 139.517 57.6381 135 59.8381 131.7C62.0714 128.4 65.6548 126.75 70.5881 126.75C75.5214 126.75 79.0881 128.4 81.2881 131.7C83.5214 135 84.6381 139.517 84.6381 145.25C84.6381 151.05 83.5214 155.6 81.2881 158.9C79.0881 162.2 75.5214 163.85 70.5881 163.85C65.6548 163.85 62.0714 162.2 59.8381 158.9C57.6381 155.6 56.5381 151.05 56.5381 145.25ZM76.2381 145.25C76.2381 141.883 75.8714 139.3 75.1381 137.5C74.4048 135.667 72.8881 134.75 70.5881 134.75C68.2881 134.75 66.7714 135.667 66.0381 137.5C65.3048 139.3 64.9381 141.883 64.9381 145.25C64.9381 147.517 65.0714 149.4 65.3381 150.9C65.6048 152.367 66.1381 153.567 66.9381 154.5C67.7714 155.4 68.9881 155.85 70.5881 155.85C72.1881 155.85 73.3881 155.4 74.1881 154.5C75.0214 153.567 75.5714 152.367 75.8381 150.9C76.1048 149.4 76.2381 147.517 76.2381 145.25Z" fill="white"/>
<path d="M22.9002 157.5V150.6L38.7002 128H48.2502V150.1H52.3502V157.5H48.2502V164H39.7002V157.5H22.9002ZM40.3002 137.4L31.9002 150.1H40.3002V137.4Z" fill="white"/>
<rect x="1" y="194" width="367" height="32" fill="#DEE13E"/>
<path d="M260.854 205.956L254.554 220.77H251.242L253.546 215.658L249.46 205.956H252.898L255.22 212.238L257.524 205.956H260.854Z" fill="black"/>
<path d="M248.363 202.68V216H245.285V202.68H248.363Z" fill="black"/>
<path d="M240.664 207.63C241.024 207.078 241.474 206.646 242.014 206.334C242.554 206.01 243.154 205.848 243.814 205.848V209.106H242.968C242.2 209.106 241.624 209.274 241.24 209.61C240.856 209.934 240.664 210.51 240.664 211.338V216H237.586V205.956H240.664V207.63Z" fill="black"/>
<path d="M224.757 210.96C224.757 209.928 224.949 209.022 225.333 208.242C225.729 207.462 226.263 206.862 226.935 206.442C227.607 206.022 228.357 205.812 229.185 205.812C229.893 205.812 230.511 205.956 231.039 206.244C231.579 206.532 231.993 206.91 232.281 207.378V205.956H235.359V216H232.281V214.578C231.981 215.046 231.561 215.424 231.021 215.712C230.493 216 229.875 216.144 229.167 216.144C228.351 216.144 227.607 215.934 226.935 215.514C226.263 215.082 225.729 214.476 225.333 213.696C224.949 212.904 224.757 211.992 224.757 210.96ZM232.281 210.978C232.281 210.21 232.065 209.604 231.633 209.16C231.213 208.716 230.697 208.494 230.085 208.494C229.473 208.494 228.951 208.716 228.519 209.16C228.099 209.592 227.889 210.192 227.889 210.96C227.889 211.728 228.099 212.34 228.519 212.796C228.951 213.24 229.473 213.462 230.085 213.462C230.697 213.462 231.213 213.24 231.633 212.796C232.065 212.352 232.281 211.746 232.281 210.978Z" fill="black"/>
<path d="M223.745 210.816C223.745 211.104 223.727 211.404 223.691 211.716H216.725C216.773 212.34 216.971 212.82 217.319 213.156C217.679 213.48 218.117 213.642 218.633 213.642C219.401 213.642 219.935 213.318 220.235 212.67H223.511C223.343 213.33 223.037 213.924 222.593 214.452C222.161 214.98 221.615 215.394 220.955 215.694C220.295 215.994 219.557 216.144 218.741 216.144C217.757 216.144 216.881 215.934 216.113 215.514C215.345 215.094 214.745 214.494 214.313 213.714C213.881 212.934 213.665 212.022 213.665 210.978C213.665 209.934 213.875 209.022 214.295 208.242C214.727 207.462 215.327 206.862 216.095 206.442C216.863 206.022 217.745 205.812 218.741 205.812C219.713 205.812 220.577 206.016 221.333 206.424C222.089 206.832 222.677 207.414 223.097 208.17C223.529 208.926 223.745 209.808 223.745 210.816ZM220.595 210.006C220.595 209.478 220.415 209.058 220.055 208.746C219.695 208.434 219.245 208.278 218.705 208.278C218.189 208.278 217.751 208.428 217.391 208.728C217.043 209.028 216.827 209.454 216.743 210.006H220.595Z" fill="black"/>
<path d="M213.164 205.956L206.864 220.77H203.552L205.856 215.658L201.77 205.956H205.208L207.53 212.238L209.834 205.956H213.164Z" fill="black"/>
<path d="M193.081 205.848C194.257 205.848 195.193 206.232 195.889 207C196.597 207.756 196.951 208.8 196.951 210.132V216H193.891V210.546C193.891 209.874 193.717 209.352 193.369 208.98C193.021 208.608 192.553 208.422 191.965 208.422C191.377 208.422 190.909 208.608 190.561 208.98C190.213 209.352 190.039 209.874 190.039 210.546V216H186.961V205.956H190.039V207.288C190.351 206.844 190.771 206.496 191.299 206.244C191.827 205.98 192.421 205.848 193.081 205.848Z" fill="black"/>
<path d="M180.072 216.144C179.088 216.144 178.2 215.934 177.408 215.514C176.628 215.094 176.01 214.494 175.554 213.714C175.11 212.934 174.888 212.022 174.888 210.978C174.888 209.946 175.116 209.04 175.572 208.26C176.028 207.468 176.652 206.862 177.444 206.442C178.236 206.022 179.124 205.812 180.108 205.812C181.092 205.812 181.98 206.022 182.772 206.442C183.564 206.862 184.188 207.468 184.644 208.26C185.1 209.04 185.328 209.946 185.328 210.978C185.328 212.01 185.094 212.922 184.626 213.714C184.17 214.494 183.54 215.094 182.736 215.514C181.944 215.934 181.056 216.144 180.072 216.144ZM180.072 213.48C180.66 213.48 181.158 213.264 181.566 212.832C181.986 212.4 182.196 211.782 182.196 210.978C182.196 210.174 181.992 209.556 181.584 209.124C181.188 208.692 180.696 208.476 180.108 208.476C179.508 208.476 179.01 208.692 178.614 209.124C178.218 209.544 178.02 210.162 178.02 210.978C178.02 211.782 178.212 212.4 178.596 212.832C178.992 213.264 179.484 213.48 180.072 213.48Z" fill="black"/>
<path d="M170.239 208.512H168.583V216H165.505V208.512H164.389V205.956H165.505V205.668C165.505 204.432 165.859 203.496 166.567 202.86C167.275 202.212 168.313 201.888 169.681 201.888C169.909 201.888 170.077 201.894 170.185 201.906V204.516C169.597 204.48 169.183 204.564 168.943 204.768C168.703 204.972 168.583 205.338 168.583 205.866V205.956H170.239V208.512Z" fill="black"/>
<path d="M163.753 208.512H162.097V216H159.019V208.512H157.903V205.956H159.019V205.668C159.019 204.432 159.373 203.496 160.081 202.86C160.789 202.212 161.827 201.888 163.195 201.888C163.423 201.888 163.591 201.894 163.699 201.906V204.516C163.111 204.48 162.697 204.564 162.457 204.768C162.217 204.972 162.097 205.338 162.097 205.866V205.956H163.753V208.512Z" fill="black"/>
<path d="M151.824 216.144C150.84 216.144 149.952 215.934 149.16 215.514C148.38 215.094 147.762 214.494 147.306 213.714C146.862 212.934 146.64 212.022 146.64 210.978C146.64 209.946 146.868 209.04 147.324 208.26C147.78 207.468 148.404 206.862 149.196 206.442C149.988 206.022 150.876 205.812 151.86 205.812C152.844 205.812 153.732 206.022 154.524 206.442C155.316 206.862 155.94 207.468 156.396 208.26C156.852 209.04 157.08 209.946 157.08 210.978C157.08 212.01 156.846 212.922 156.378 213.714C155.922 214.494 155.292 215.094 154.488 215.514C153.696 215.934 152.808 216.144 151.824 216.144ZM151.824 213.48C152.412 213.48 152.91 213.264 153.318 212.832C153.738 212.4 153.948 211.782 153.948 210.978C153.948 210.174 153.744 209.556 153.336 209.124C152.94 208.692 152.448 208.476 151.86 208.476C151.26 208.476 150.762 208.692 150.366 209.124C149.97 209.544 149.772 210.162 149.772 210.978C149.772 211.782 149.964 212.4 150.348 212.832C150.744 213.264 151.236 213.48 151.824 213.48Z" fill="black"/>
<path d="M127.217 206.172C127.217 205.2 127.493 204.45 128.045 203.922C128.609 203.394 129.335 203.13 130.223 203.13C131.111 203.13 131.831 203.394 132.383 203.922C132.935 204.45 133.211 205.2 133.211 206.172C133.211 207.144 132.935 207.894 132.383 208.422C131.831 208.95 131.111 209.214 130.223 209.214C129.335 209.214 128.609 208.95 128.045 208.422C127.493 207.894 127.217 207.144 127.217 206.172ZM139.439 203.328L132.509 216H129.539L136.469 203.328H139.439ZM130.205 204.93C129.629 204.93 129.341 205.344 129.341 206.172C129.341 206.988 129.629 207.396 130.205 207.396C130.481 207.396 130.697 207.294 130.853 207.09C131.009 206.886 131.087 206.58 131.087 206.172C131.087 205.344 130.793 204.93 130.205 204.93ZM135.785 213.156C135.785 212.184 136.061 211.434 136.613 210.906C137.165 210.378 137.885 210.114 138.773 210.114C139.661 210.114 140.381 210.378 140.933 210.906C141.485 211.434 141.761 212.184 141.761 213.156C141.761 214.128 141.485 214.878 140.933 215.406C140.381 215.934 139.661 216.198 138.773 216.198C137.885 216.198 137.165 215.934 136.613 215.406C136.061 214.878 135.785 214.128 135.785 213.156ZM138.755 211.914C138.479 211.914 138.263 212.016 138.107 212.22C137.963 212.424 137.891 212.736 137.891 213.156C137.891 213.972 138.179 214.38 138.755 214.38C139.031 214.38 139.247 214.278 139.403 214.074C139.559 213.87 139.637 213.564 139.637 213.156C139.637 212.748 139.559 212.442 139.403 212.238C139.247 212.022 139.031 211.914 138.755 211.914Z" fill="black"/>
<path d="M115.727 209.25C115.727 207.186 116.123 205.56 116.915 204.372C117.719 203.184 119.009 202.59 120.785 202.59C122.561 202.59 123.845 203.184 124.637 204.372C125.441 205.56 125.843 207.186 125.843 209.25C125.843 211.338 125.441 212.976 124.637 214.164C123.845 215.352 122.561 215.946 120.785 215.946C119.009 215.946 117.719 215.352 116.915 214.164C116.123 212.976 115.727 211.338 115.727 209.25ZM122.819 209.25C122.819 208.038 122.687 207.108 122.423 206.46C122.159 205.8 121.613 205.47 120.785 205.47C119.957 205.47 119.411 205.8 119.147 206.46C118.883 207.108 118.751 208.038 118.751 209.25C118.751 210.066 118.799 210.744 118.895 211.284C118.991 211.812 119.183 212.244 119.471 212.58C119.771 212.904 120.209 213.066 120.785 213.066C121.361 213.066 121.793 212.904 122.081 212.58C122.381 212.244 122.579 211.812 122.675 211.284C122.771 210.744 122.819 210.066 122.819 209.25Z" fill="black"/>
<path d="M108.635 205.722V202.86H113.621V216H110.417V205.722H108.635Z" fill="black"/>
</svg>
