<svg xmlns="http://www.w3.org/2000/svg" fill="none" viewBox="0 0 368 522">
<rect width="368" height="522" rx="50" fill="url(#paint0_linear_325_472)"/>
<path d="M254.729 148.8C254.729 146.507 255.156 144.493 256.009 142.76C256.889 141.027 258.076 139.693 259.569 138.76C261.063 137.827 262.729 137.36 264.569 137.36C266.036 137.36 267.369 137.667 268.569 138.28C269.796 138.893 270.756 139.72 271.449 140.76V130.4H278.289V160H271.449V156.8C270.809 157.867 269.889 158.72 268.689 159.36C267.516 160 266.143 160.32 264.569 160.32C262.729 160.32 261.063 159.853 259.569 158.92C258.076 157.96 256.889 156.613 256.009 154.88C255.156 153.12 254.729 151.093 254.729 148.8ZM271.449 148.84C271.449 147.133 270.969 145.787 270.009 144.8C269.076 143.813 267.929 143.32 266.569 143.32C265.209 143.32 264.049 143.813 263.089 144.8C262.156 145.76 261.689 147.093 261.689 148.8C261.689 150.507 262.156 151.867 263.089 152.88C264.049 153.867 265.209 154.36 266.569 154.36C267.929 154.36 269.076 153.867 270.009 152.88C270.969 151.893 271.449 150.547 271.449 148.84Z" fill="black"/>
<path d="M245.82 141.4C246.62 140.173 247.62 139.213 248.82 138.52C250.02 137.8 251.353 137.44 252.82 137.44V144.68H250.94C249.233 144.68 247.953 145.053 247.1 145.8C246.247 146.52 245.82 147.8 245.82 149.64V160H238.98V137.68H245.82V141.4Z" fill="black"/>
<path d="M210.472 148.8C210.472 146.507 210.898 144.493 211.752 142.76C212.632 141.027 213.818 139.693 215.312 138.76C216.805 137.827 218.472 137.36 220.312 137.36C221.885 137.36 223.258 137.68 224.432 138.32C225.632 138.96 226.552 139.8 227.192 140.84V137.68H234.032V160H227.192V156.84C226.525 157.88 225.592 158.72 224.392 159.36C223.218 160 221.845 160.32 220.272 160.32C218.458 160.32 216.805 159.853 215.312 158.92C213.818 157.96 212.632 156.613 211.752 154.88C210.898 153.12 210.472 151.093 210.472 148.8ZM227.192 148.84C227.192 147.133 226.712 145.787 225.752 144.8C224.818 143.813 223.672 143.32 222.312 143.32C220.952 143.32 219.792 143.813 218.832 144.8C217.898 145.76 217.432 147.093 217.432 148.8C217.432 150.507 217.898 151.867 218.832 152.88C219.792 153.867 220.952 154.36 222.312 154.36C223.672 154.36 224.818 153.867 225.752 152.88C226.712 151.893 227.192 150.547 227.192 148.84Z" fill="black"/>
<path d="M183.323 148.8C183.323 146.507 183.75 144.493 184.603 142.76C185.483 141.027 186.67 139.693 188.163 138.76C189.656 137.827 191.323 137.36 193.163 137.36C194.63 137.36 195.963 137.667 197.163 138.28C198.39 138.893 199.35 139.72 200.043 140.76V130.4H206.883V160H200.043V156.8C199.403 157.867 198.483 158.72 197.283 159.36C196.11 160 194.736 160.32 193.163 160.32C191.323 160.32 189.656 159.853 188.163 158.92C186.67 157.96 185.483 156.613 184.603 154.88C183.75 153.12 183.323 151.093 183.323 148.8ZM200.043 148.84C200.043 147.133 199.563 145.787 198.603 144.8C197.67 143.813 196.523 143.32 195.163 143.32C193.803 143.32 192.643 143.813 191.683 144.8C190.75 145.76 190.283 147.093 190.283 148.8C190.283 150.507 190.75 151.867 191.683 152.88C192.643 153.867 193.803 154.36 195.163 154.36C196.523 154.36 197.67 153.867 198.603 152.88C199.563 151.893 200.043 150.547 200.043 148.84Z" fill="black"/>
<path d="M171.33 137.44C173.943 137.44 176.023 138.293 177.57 140C179.143 141.68 179.93 144 179.93 146.96V160H173.13V147.88C173.13 146.387 172.743 145.227 171.97 144.4C171.197 143.573 170.157 143.16 168.85 143.16C167.543 143.16 166.503 143.573 165.73 144.4C164.957 145.227 164.57 146.387 164.57 147.88V160H157.73V137.68H164.57V140.64C165.263 139.653 166.197 138.88 167.37 138.32C168.543 137.733 169.863 137.44 171.33 137.44Z" fill="black"/>
<path d="M129.222 148.8C129.222 146.507 129.648 144.493 130.502 142.76C131.382 141.027 132.568 139.693 134.062 138.76C135.555 137.827 137.222 137.36 139.062 137.36C140.635 137.36 142.008 137.68 143.182 138.32C144.382 138.96 145.302 139.8 145.942 140.84V137.68H152.782V160H145.942V156.84C145.275 157.88 144.342 158.72 143.142 159.36C141.968 160 140.595 160.32 139.022 160.32C137.208 160.32 135.555 159.853 134.062 158.92C132.568 157.96 131.382 156.613 130.502 154.88C129.648 153.12 129.222 151.093 129.222 148.8ZM145.942 148.84C145.942 147.133 145.462 145.787 144.502 144.8C143.568 143.813 142.422 143.32 141.062 143.32C139.702 143.32 138.542 143.813 137.582 144.8C136.648 145.76 136.182 147.093 136.182 148.8C136.182 150.507 136.648 151.867 137.582 152.88C138.542 153.867 139.702 154.36 141.062 154.36C142.422 154.36 143.568 153.867 144.502 152.88C145.462 151.893 145.942 150.547 145.942 148.84Z" fill="black"/>
<path d="M126.772 154.2V160H123.292C120.812 160 118.878 159.4 117.492 158.2C116.105 156.973 115.412 154.987 115.412 152.24V143.36H112.692V137.68H115.412V132.24H122.252V137.68H126.732V143.36H122.252V152.32C122.252 152.987 122.412 153.467 122.732 153.76C123.052 154.053 123.585 154.2 124.332 154.2H126.772Z" fill="black"/>
<path d="M99.8822 160.28C97.8288 160.28 95.9888 159.947 94.3622 159.28C92.7355 158.613 91.4288 157.627 90.4422 156.32C89.4822 155.013 88.9755 153.44 88.9222 151.6H96.2022C96.3088 152.64 96.6688 153.44 97.2822 154C97.8955 154.533 98.6955 154.8 99.6822 154.8C100.696 154.8 101.496 154.573 102.082 154.12C102.669 153.64 102.962 152.987 102.962 152.16C102.962 151.467 102.722 150.893 102.242 150.44C101.789 149.987 101.216 149.613 100.522 149.32C99.8555 149.027 98.8955 148.693 97.6422 148.32C95.8288 147.76 94.3488 147.2 93.2022 146.64C92.0555 146.08 91.0688 145.253 90.2422 144.16C89.4155 143.067 89.0022 141.64 89.0022 139.88C89.0022 137.267 89.9488 135.227 91.8422 133.76C93.7355 132.267 96.2022 131.52 99.2422 131.52C102.336 131.52 104.829 132.267 106.722 133.76C108.616 135.227 109.629 137.28 109.762 139.92H102.362C102.309 139.013 101.976 138.307 101.362 137.8C100.749 137.267 99.9622 137 99.0022 137C98.1755 137 97.5088 137.227 97.0022 137.68C96.4955 138.107 96.2422 138.733 96.2422 139.56C96.2422 140.467 96.6688 141.173 97.5222 141.68C98.3755 142.187 99.7088 142.733 101.522 143.32C103.336 143.933 104.802 144.52 105.922 145.08C107.069 145.64 108.056 146.453 108.882 147.52C109.709 148.587 110.122 149.96 110.122 151.64C110.122 153.24 109.709 154.693 108.882 156C108.082 157.307 106.909 158.347 105.362 159.12C103.816 159.893 101.989 160.28 99.8822 160.28Z" fill="black"/>
<g filter="url(#filter0_dddd_325_472)">
<path d="M184 221L296.583 416H71.4167L184 221Z" fill="url(#paint1_linear_325_472)"/>
</g>
<defs>
<filter id="filter0_dddd_325_472" x="25.4167" y="212" width="317.167" height="365" filterUnits="userSpaceOnUse" color-interpolation-filters="sRGB">
<feFlood flood-opacity="0" result="BackgroundImageFix"/>
<feColorMatrix in="SourceAlpha" type="matrix" values="0 0 0 0 0 0 0 0 0 0 0 0 0 0 0 0 0 0 127 0" result="hardAlpha"/>
<feOffset dy="7"/>
<feGaussianBlur stdDeviation="8"/>
<feColorMatrix type="matrix" values="0 0 0 0 0 0 0 0 0 0 0 0 0 0 0 0 0 0 0.1 0"/>
<feBlend mode="normal" in2="BackgroundImageFix" result="effect1_dropShadow_325_472"/>
<feColorMatrix in="SourceAlpha" type="matrix" values="0 0 0 0 0 0 0 0 0 0 0 0 0 0 0 0 0 0 127 0" result="hardAlpha"/>
<feOffset dy="29"/>
<feGaussianBlur stdDeviation="14.5"/>
<feColorMatrix type="matrix" values="0 0 0 0 0 0 0 0 0 0 0 0 0 0 0 0 0 0 0.09 0"/>
<feBlend mode="normal" in2="effect1_dropShadow_325_472" result="effect2_dropShadow_325_472"/>
<feColorMatrix in="SourceAlpha" type="matrix" values="0 0 0 0 0 0 0 0 0 0 0 0 0 0 0 0 0 0 127 0" result="hardAlpha"/>
<feOffset dy="64"/>
<feGaussianBlur stdDeviation="19.5"/>
<feColorMatrix type="matrix" values="0 0 0 0 0 0 0 0 0 0 0 0 0 0 0 0 0 0 0.05 0"/>
<feBlend mode="normal" in2="effect2_dropShadow_325_472" result="effect3_dropShadow_325_472"/>
<feColorMatrix in="SourceAlpha" type="matrix" values="0 0 0 0 0 0 0 0 0 0 0 0 0 0 0 0 0 0 127 0" result="hardAlpha"/>
<feOffset dy="115"/>
<feGaussianBlur stdDeviation="23"/>
<feColorMatrix type="matrix" values="0 0 0 0 0 0 0 0 0 0 0 0 0 0 0 0 0 0 0.01 0"/>
<feBlend mode="normal" in2="effect3_dropShadow_325_472" result="effect4_dropShadow_325_472"/>
<feBlend mode="normal" in="SourceGraphic" in2="effect4_dropShadow_325_472" result="shape"/>
</filter>
<linearGradient id="paint0_linear_325_472" x1="184" y1="0" x2="184" y2="522" gradientUnits="userSpaceOnUse">
<stop stop-color="#A7429C"/>
<stop offset="1" stop-color="#E8C48D"/>
</linearGradient>
<linearGradient id="paint1_linear_325_472" x1="121.5" y1="231.5" x2="299.5" y2="481" gradientUnits="userSpaceOnUse">
<stop stop-color="#B05599"/>
<stop offset="1" stop-color="#E3B98E"/>
</linearGradient>
</defs>
</svg>