<svg width="224" height="85" viewBox="0 0 224 85" fill="none" xmlns="http://www.w3.org/2000/svg">
<g clip-path="url(#clip0_180_2)">
<path d="M117.988 43.963H109.842V43.8784C111.179 41.3176 111.512 39.8711 111.512 36.4798V14.4076L106.961 14.5737C105.13 14.6553 102.078 19.3693 99.8984 22.3438L99.5657 22.22L101.153 13.707H126.678L128.265 22.22L127.929 22.3438C125.759 19.3693 122.71 14.6553 120.869 14.5737L116.316 14.4076V36.4798C116.316 39.9103 116.621 41.3116 117.988 43.8784V43.963Z" fill="#1554F6"/>
<path d="M137.583 41.8555C136.831 42.7035 135.906 43.3842 134.869 43.8527C133.832 44.3212 132.707 44.5668 131.567 44.5734C129.101 44.5734 127.096 43.4168 127.096 41.0613C127.096 36.8848 133.111 34.8585 137.497 34.1579V29.6704C137.497 27.5203 136.621 26.116 133.655 26.116C131.644 26.0962 129.685 26.752 128.1 27.9763L127.889 27.7286C129.601 25.3309 132.568 23.6367 136.203 23.6367C140.421 23.6367 141.676 25.9922 141.676 28.553V40.3305C141.676 41.3633 142.094 42.1424 143.305 42.1424C144.058 42.1225 144.781 41.8451 145.35 41.3573L145.436 41.4418C144.807 42.7645 143.556 44.4617 141.05 44.4617C138.968 44.4677 137.873 43.2598 137.583 41.8555ZM137.497 41.1519V34.8676C134.198 35.6135 131.024 36.9815 131.024 39.6994C131.024 41.312 132.107 42.3447 134.076 42.3447C135.325 42.3657 136.54 41.94 137.497 41.1459V41.1519Z" fill="#1554F6"/>
<path d="M146.98 43.8779C147.523 42.7213 147.896 41.3171 147.896 38.2157V19.402C147.896 16.7143 147.02 15.144 146.016 14.0689V13.9843L152.074 11.7949V38.1643C152.074 41.2657 152.449 42.7545 153.035 43.8689V43.9534H146.977L146.98 43.8779Z" fill="#1554F6"/>
<path d="M156.756 43.8779C157.299 42.7213 157.672 41.3171 157.672 38.2157V19.402C157.672 16.7143 156.796 15.144 155.792 14.0689V13.9843L161.85 11.7949V38.1643C161.85 41.2657 162.268 42.7545 162.851 43.8689V43.9534H156.747L156.756 43.8779ZM169.373 43.9625L162.186 33.695L166.99 28.528C168.326 27.1237 168.821 25.345 168.162 24.3002V24.2337H173.591V24.3153C171.086 25.4326 169.288 27.2083 167.576 29.0293L165.403 31.3848L171.543 40.1423C172.798 41.921 173.716 43.0777 175.178 43.8628V43.9474L169.373 43.9625Z" fill="#1554F6"/>
<path d="M101.379 54.8707C101.154 54.8778 100.934 54.7976 100.768 54.6472C100.687 54.5775 100.623 54.4911 100.579 54.3941C100.535 54.297 100.513 54.1918 100.515 54.0855C100.509 53.9726 100.529 53.8597 100.573 53.7553C100.616 53.6508 100.683 53.5573 100.768 53.4816C100.935 53.3325 101.154 53.2526 101.379 53.2581H114.857C115.086 53.2524 115.31 53.3321 115.482 53.4816C115.568 53.5567 115.635 53.6502 115.679 53.7548C115.723 53.8594 115.742 53.9725 115.736 54.0855C115.741 54.1945 115.721 54.3032 115.677 54.4032C115.633 54.5033 115.567 54.5919 115.482 54.6623C115.306 54.8034 115.084 54.8773 114.857 54.8707H101.379ZM108.142 72.9114C108.022 72.9152 107.902 72.895 107.79 72.8519C107.677 72.8089 107.575 72.7438 107.489 72.6607C107.406 72.5833 107.34 72.4895 107.296 72.3855C107.252 72.2815 107.23 72.1695 107.233 72.0567V54.1852H109.021V72.0567C109.023 72.1695 109.002 72.2815 108.957 72.3855C108.913 72.4895 108.848 72.5833 108.765 72.6607C108.683 72.7418 108.586 72.8058 108.479 72.8489C108.372 72.892 108.258 72.9132 108.142 72.9114Z" fill="#1554F6"/>
<path d="M128.915 65.7294C128.936 67.0657 128.608 68.3847 127.963 69.5586C127.363 70.658 126.477 71.5787 125.396 72.2251C124.289 72.8774 123.021 73.212 121.733 73.1915C120.452 73.2074 119.191 72.873 118.089 72.2251C117.004 71.5809 116.113 70.66 115.51 69.5586C114.865 68.3847 114.537 67.0657 114.558 65.7294C114.533 64.388 114.861 63.0633 115.51 61.8851C116.118 60.7875 117.008 59.8677 118.089 59.2186C119.188 58.5619 120.45 58.222 121.733 58.2371C123.023 58.2173 124.293 58.5574 125.396 59.2186C126.473 59.8699 127.358 60.7894 127.963 61.8851C128.612 63.0633 128.94 64.388 128.915 65.7294ZM127.184 65.7294C127.203 64.6727 126.96 63.6276 126.476 62.6854C126.032 61.8272 125.36 61.1048 124.532 60.5957C123.693 60.0845 122.724 59.8215 121.74 59.8377C120.755 59.8215 119.786 60.0845 118.947 60.5957C118.118 61.1069 117.442 61.8285 116.99 62.6854C116.496 63.6244 116.248 64.6709 116.267 65.7294C116.248 66.7802 116.496 67.8189 116.99 68.7493C117.447 69.6026 118.122 70.323 118.947 70.839C119.782 71.359 120.753 71.6276 121.74 71.6121C122.726 71.6276 123.697 71.359 124.532 70.839C125.356 70.3253 126.027 69.604 126.476 68.7493C126.96 67.8156 127.203 66.7783 127.184 65.7294Z" fill="#1554F6"/>
<path d="M146.419 73.1926C145.025 73.2075 143.643 72.9499 142.35 72.4346C141.138 71.9482 140.034 71.2299 139.103 70.3207C138.172 69.4052 137.439 68.312 136.948 67.1076C136.43 65.8322 136.17 64.4687 136.182 63.0942C136.17 61.7207 136.43 60.3582 136.948 59.0838C137.439 57.8794 138.172 56.7862 139.103 55.8707C140.034 54.9615 141.138 54.2432 142.35 53.7568C143.642 53.2401 145.025 52.9824 146.419 52.9988C147.394 52.9961 148.366 53.1138 149.312 53.3491C150.203 53.5701 151.054 53.9245 151.836 54.4C151.961 54.4833 152.066 54.5938 152.141 54.7231C152.209 54.8484 152.244 54.9887 152.242 55.1308C152.244 55.245 152.221 55.3583 152.174 55.4627C152.127 55.5671 152.058 55.66 151.971 55.7348C151.823 55.8795 151.626 55.9645 151.418 55.9733C151.332 55.9743 151.246 55.96 151.165 55.9311L150.908 55.8314C150.239 55.4849 149.535 55.2076 148.809 55.004C148.034 54.7863 147.233 54.6775 146.428 54.6808C144.907 54.6543 143.408 55.0374 142.091 55.7891C140.844 56.5075 139.815 57.5443 139.112 58.7909C138.38 60.1091 138.009 61.5934 138.035 63.0972C138.01 64.6057 138.381 66.0947 139.112 67.4186C139.809 68.6697 140.839 69.7078 142.091 70.4204C143.41 71.1655 144.909 71.5443 146.428 71.5166C147.296 71.5131 148.16 71.3901 148.995 71.1512C149.783 70.9393 150.534 70.6082 151.22 70.1697L151.079 70.7586V64.3051L151.482 64.7007H146.599C146.485 64.7011 146.372 64.6788 146.268 64.6353C146.163 64.5917 146.068 64.5277 145.988 64.4471C145.906 64.3695 145.841 64.2757 145.797 64.1716C145.753 64.0676 145.732 63.9557 145.735 63.8431C145.731 63.7304 145.752 63.6182 145.796 63.514C145.839 63.4098 145.905 63.3161 145.988 63.2391C146.157 63.0932 146.375 63.0137 146.599 63.0157H151.986C152.103 63.0101 152.22 63.0285 152.33 63.0695C152.439 63.1105 152.54 63.1734 152.624 63.2542C152.704 63.3329 152.767 63.4272 152.808 63.5311C152.85 63.6351 152.869 63.7465 152.865 63.8582V70.6197C152.866 70.768 152.827 70.9139 152.752 71.0424C152.675 71.1742 152.571 71.2884 152.447 71.3776C151.573 71.95 150.623 72.3983 149.623 72.7094C148.588 73.0367 147.506 73.1998 146.419 73.1926Z" fill="#1554F6"/>
<path d="M168.961 58.5765C169.075 58.5738 169.188 58.5947 169.293 58.6379C169.398 58.6811 169.493 58.7456 169.572 58.8272C169.731 58.9943 169.818 59.2166 169.813 59.4463V72.0693C169.815 72.1821 169.793 72.2941 169.749 72.3981C169.705 72.5021 169.639 72.5958 169.556 72.6733C169.479 72.7526 169.387 72.8157 169.285 72.8588C169.182 72.9019 169.072 72.924 168.961 72.9239C168.843 72.929 168.725 72.9092 168.615 72.866C168.505 72.8229 168.406 72.7572 168.323 72.6733C168.244 72.5938 168.182 72.4993 168.141 72.3956C168.099 72.2918 168.079 72.1808 168.082 72.0693V68.7475L168.592 68.5512C168.578 69.1072 168.427 69.6514 168.152 70.1366C167.843 70.706 167.435 71.2171 166.947 71.6465C166.415 72.119 165.806 72.4988 165.146 72.7699C164.433 73.0644 163.666 73.2124 162.894 73.2047C161.681 73.2209 160.491 72.8792 159.475 72.2233C158.452 71.5533 157.629 70.6228 157.095 69.5296C156.505 68.3333 156.208 67.0163 156.228 65.6853C156.2 64.3483 156.501 63.0245 157.107 61.8289C157.653 60.7609 158.475 59.8553 159.491 59.2047C160.497 58.5683 161.669 58.2366 162.863 58.2504C163.645 58.2448 164.42 58.3883 165.146 58.6732C165.833 58.9373 166.463 59.3266 167.005 59.8207C167.517 60.2942 167.932 60.8613 168.226 61.4907C168.515 62.1013 168.665 62.7673 168.665 63.4416L168.055 63.0218V59.4584C168.052 59.3445 168.071 59.2312 168.113 59.125C168.154 59.0188 168.216 58.9217 168.296 58.8393C168.38 58.7496 168.484 58.6796 168.599 58.6341C168.714 58.5887 168.838 58.5691 168.961 58.5765ZM163.062 71.6223C164.009 71.6391 164.94 71.3694 165.729 70.8493C166.523 70.3154 167.156 69.5786 167.56 68.7172C168.013 67.7659 168.241 66.7248 168.226 65.6732C168.239 64.649 168.011 63.6358 167.56 62.7138C167.15 61.8612 166.518 61.1317 165.729 60.5999C164.939 60.082 164.009 59.8135 163.062 59.8298C162.124 59.8171 161.204 60.0752 160.412 60.5727C159.622 61.0806 158.988 61.7943 158.581 62.6352C158.123 63.5763 157.895 64.6108 157.916 65.6551C157.9 66.7051 158.122 67.7453 158.566 68.6991C158.964 69.5646 159.598 70.303 160.397 70.8311C161.184 71.3542 162.113 71.6299 163.062 71.6223Z" fill="#1554F6"/>
<path d="M173.329 58.6312H179.934C180.04 58.6291 180.145 58.6492 180.243 58.6904C180.341 58.7315 180.429 58.7926 180.501 58.8697C180.576 58.9463 180.634 59.0367 180.672 59.1357C180.711 59.2348 180.73 59.3404 180.727 59.4465C180.73 59.5504 180.712 59.6539 180.673 59.7505C180.634 59.8471 180.576 59.9348 180.501 60.0082C180.427 60.0816 180.338 60.1392 180.241 60.1776C180.143 60.216 180.038 60.2344 179.934 60.2317H173.329C173.22 60.2336 173.112 60.2135 173.012 60.1724C172.912 60.1314 172.821 60.0703 172.746 59.9931C172.668 59.9185 172.606 59.8288 172.565 59.7295C172.523 59.6303 172.503 59.5237 172.505 59.4163C172.502 59.3115 172.522 59.2073 172.564 59.1109C172.605 59.0145 172.667 58.9281 172.746 58.8577C172.823 58.7837 172.914 58.7256 173.014 58.6868C173.114 58.6479 173.221 58.629 173.329 58.6312ZM176.247 54.6751C176.361 54.6716 176.474 54.6925 176.58 54.7363C176.685 54.78 176.78 54.8457 176.857 54.9288C176.936 55.0082 176.999 55.1026 177.04 55.2064C177.081 55.3102 177.101 55.4212 177.098 55.5328V69.6174C177.074 70.0212 177.147 70.4248 177.312 70.7951C177.424 71.0305 177.621 71.2158 177.864 71.3146C178.081 71.3973 178.312 71.4403 178.545 71.4414C178.685 71.4334 178.822 71.4006 178.951 71.3448C179.081 71.295 179.22 71.2704 179.36 71.2723C179.443 71.2719 179.525 71.2892 179.601 71.3231C179.677 71.357 179.744 71.4066 179.799 71.4686C179.926 71.6068 179.993 71.7892 179.985 71.9759C179.977 72.1162 179.931 72.2516 179.85 72.3676C179.77 72.4836 179.66 72.5758 179.531 72.6343C179.203 72.8183 178.83 72.9102 178.453 72.9C178.282 72.9 178.029 72.8849 177.687 72.8577C177.322 72.8249 176.966 72.7223 176.64 72.5557C176.244 72.3438 175.924 72.0157 175.725 71.6166C175.447 71.0098 175.32 70.346 175.355 69.6808V55.5116C175.353 55.3988 175.375 55.2868 175.419 55.1828C175.463 55.0788 175.529 54.9851 175.612 54.9077C175.696 54.8279 175.795 54.766 175.905 54.726C176.014 54.686 176.13 54.6687 176.247 54.6751Z" fill="#1554F6"/>
<path d="M190.482 58.4617C191.502 58.4158 192.512 58.6804 193.375 59.2196C194.112 59.728 194.679 60.4418 195.005 61.2701C195.365 62.1809 195.543 63.1521 195.53 64.1299V72.0692C195.532 72.182 195.51 72.2939 195.466 72.398C195.422 72.502 195.356 72.5957 195.273 72.6731C195.197 72.7529 195.104 72.8163 195.002 72.8594C194.9 72.9025 194.79 72.9244 194.678 72.9238C194.56 72.9283 194.442 72.9083 194.333 72.8651C194.223 72.822 194.123 72.7566 194.04 72.6731C193.962 72.5933 193.9 72.4987 193.859 72.3951C193.817 72.2914 193.797 72.1806 193.799 72.0692V64.1299C193.81 63.4268 193.69 62.7276 193.445 62.0674C193.223 61.4775 192.829 60.9658 192.313 60.5967C191.686 60.1926 190.945 59.9959 190.198 60.035C189.411 60.0332 188.637 60.2263 187.945 60.5967C187.264 60.9456 186.676 61.4497 186.23 62.0674C185.797 62.6689 185.568 63.3912 185.577 64.1299V72.0692C185.579 72.182 185.557 72.2939 185.513 72.398C185.469 72.502 185.404 72.5957 185.321 72.6731C185.244 72.7529 185.152 72.8163 185.049 72.8594C184.947 72.9025 184.837 72.9244 184.725 72.9238C184.607 72.9286 184.489 72.9088 184.379 72.8657C184.27 72.8225 184.17 72.7569 184.088 72.6731C184.009 72.5933 183.947 72.4987 183.906 72.3951C183.864 72.2914 183.844 72.1806 183.846 72.0692V52.9927C183.844 52.8799 183.865 52.7678 183.91 52.6637C183.954 52.5596 184.02 52.4659 184.103 52.3887C184.182 52.3081 184.277 52.2441 184.382 52.2006C184.487 52.157 184.599 52.1347 184.713 52.1351C184.827 52.132 184.941 52.153 185.046 52.1967C185.151 52.2405 185.246 52.3059 185.324 52.3887C185.403 52.468 185.465 52.5624 185.507 52.6662C185.548 52.7701 185.568 52.8811 185.565 52.9927V62.0825L184.912 63.0639C184.958 62.463 185.147 61.8814 185.464 61.3668C185.806 60.8029 186.243 60.3005 186.755 59.881C187.281 59.4434 187.874 59.0926 188.513 58.8422C189.138 58.5911 189.807 58.4619 190.482 58.4617Z" fill="#1554F6"/>
<path d="M206.42 73.1924C205.069 73.223 203.734 72.9034 202.547 72.2654C201.456 71.6621 200.557 70.7688 199.952 69.6864C199.309 68.4972 198.987 67.1635 199.018 65.8149C198.975 64.3998 199.302 62.9976 199.968 61.7442C200.545 60.6804 201.396 59.7857 202.434 59.1501C203.401 58.5571 204.516 58.2433 205.654 58.2441C206.481 58.2436 207.302 58.3909 208.077 58.679C208.854 58.9644 209.563 59.4043 210.162 59.9715C210.785 60.5674 211.285 61.2771 211.636 62.0612C212.032 62.9637 212.234 63.9374 212.231 64.921C212.232 65.0294 212.21 65.1368 212.167 65.2362C212.123 65.3356 212.059 65.4248 211.978 65.4979C211.897 65.5756 211.801 65.6367 211.697 65.6777C211.592 65.7186 211.48 65.7386 211.367 65.7364H200.01L199.668 64.2265H210.815L210.445 64.5647V64.003C210.395 63.1912 210.099 62.4133 209.594 61.7713C209.118 61.1768 208.512 60.6975 207.821 60.3701C207.146 60.0449 206.404 59.8765 205.654 59.8779C205.056 59.8834 204.464 59.997 203.908 60.2131C203.3 60.4474 202.75 60.8067 202.293 61.267C201.782 61.7866 201.381 62.4028 201.115 63.0789C200.796 63.9159 200.643 64.8059 200.663 65.7002C200.646 66.7459 200.879 67.7808 201.344 68.72C201.78 69.5989 202.458 70.3379 203.301 70.8521C204.234 71.3973 205.305 71.6695 206.389 71.6372C206.987 71.6445 207.582 71.5495 208.147 71.3564C208.652 71.183 209.125 70.9324 209.551 70.6135C209.927 70.3334 210.265 70.0077 210.558 69.6441C210.721 69.4849 210.94 69.3949 211.169 69.3935C211.267 69.391 211.365 69.4098 211.456 69.4483C211.547 69.4869 211.628 69.5444 211.694 69.6169C211.829 69.7508 211.906 69.9319 211.907 70.1213C211.909 70.2365 211.884 70.3505 211.835 70.455C211.786 70.5595 211.713 70.6519 211.624 70.7252C211.003 71.4412 210.252 72.0363 209.411 72.4798C208.492 72.9682 207.462 73.2136 206.42 73.1924Z" fill="#1554F6"/>
<path d="M216.599 72.9107C216.48 72.9158 216.362 72.8961 216.253 72.8529C216.143 72.8097 216.043 72.744 215.961 72.6601C215.882 72.5806 215.819 72.4862 215.778 72.3824C215.737 72.2786 215.717 72.1676 215.72 72.0561V59.4874C215.719 59.3775 215.742 59.2686 215.785 59.1674C215.829 59.0662 215.893 58.9747 215.973 58.8986C216.052 58.8185 216.148 58.7551 216.252 58.712C216.357 58.669 216.47 58.6472 216.583 58.6479C216.697 58.6444 216.811 58.665 216.916 58.7082C217.021 58.7514 217.116 58.8163 217.194 58.8986C217.349 59.0562 217.435 59.2675 217.435 59.4874V63.6971L217.007 63.7817C217.069 63.1097 217.237 62.4514 217.505 61.8309C217.78 61.1817 218.158 60.5802 218.625 60.0491C219.097 59.5067 219.67 59.0588 220.313 58.7295C220.993 58.3868 221.747 58.2136 222.51 58.2251C222.852 58.2255 223.191 58.2975 223.502 58.4365C223.646 58.4857 223.77 58.5785 223.856 58.7017C223.943 58.8248 223.988 58.972 223.985 59.1221C223.993 59.2395 223.977 59.3574 223.937 59.4685C223.898 59.5796 223.836 59.6816 223.756 59.7683C223.687 59.8408 223.604 59.8983 223.511 59.9373C223.419 59.9763 223.319 59.9959 223.219 59.9948C223.026 59.9887 222.837 59.9403 222.666 59.8529C222.419 59.7506 222.152 59.7032 221.885 59.7139C221.323 59.7232 220.775 59.8829 220.298 60.176C219.745 60.5045 219.256 60.9267 218.851 61.4232C218.416 61.951 218.067 62.543 217.816 63.1777C217.566 63.7983 217.436 64.4603 217.435 65.1285V72.0561C217.437 72.1689 217.415 72.2809 217.371 72.3849C217.327 72.4889 217.261 72.5826 217.178 72.6601C217.103 72.7376 217.013 72.7997 216.914 72.8427C216.814 72.8857 216.707 72.9088 216.599 72.9107Z" fill="#1554F6"/>
<path d="M44.9942 0C46.4226 0.22649 47.8601 0.407674 49.2671 0.691541C62.3576 3.30674 72.0785 10.4638 78.4452 22.0329C79.4799 23.9113 80.1879 25.9587 81.0273 27.9488C81.2196 28.4048 81.3325 28.891 81.5187 29.4919L80.194 29.3379L80.7282 29.1839C80.7038 29.1386 80.6824 29.0662 80.661 29.0662C79.5131 29.1256 78.3817 28.7764 77.4716 28.0817C75.1886 26.2698 72.5272 24.9561 70.4212 22.5402L73.5741 21.1692C73.3482 20.5109 72.2586 19.9281 71.1842 20.0519C70.6226 20.1153 70.0672 20.2421 69.5056 20.3146C68.3214 20.4656 67.7232 20.1455 67.1952 19.1067C66.3223 17.3642 65.7393 15.5523 65.953 13.4867L65.0679 13.6377C64.897 11.8107 64.7321 9.99574 64.5642 8.18081L64.2926 8.1506C64.1553 8.80591 64.0149 9.4582 63.8348 10.3189C63.5632 8.77269 63.3251 7.39866 63.084 6.02765H62.8276C62.2691 7.01514 62.8825 8.11738 62.6414 9.24076C62.2233 8.10228 61.8296 7.03929 61.4389 5.9763L60.978 6.10012C61.1795 7.12385 61.3778 8.14758 61.5884 9.28305L59.9159 6.41116L59.5954 6.5531C60.0319 7.63119 60.4653 8.70626 60.9872 10.0048L58.457 7.22652L58.1213 7.46509L60.0838 10.6903L57.3155 9.06865L57.1019 9.28002L58.8934 11.2641L57.4467 10.6088L57.285 10.7598L57.8771 11.5842C58.0144 15.3046 58.6218 18.8892 61.1947 21.9604L58.6645 21.3746L58.3746 22.8845C58.0968 23.0053 57.874 24.1589 58.1548 24.7327C58.3548 25.1654 58.5112 25.6165 58.6218 26.0795C58.7256 26.4781 59.6961 26.9221 60.3645 26.7892L60.0593 27.4596C60.7854 27.8001 61.5291 28.1025 62.2874 28.3655C62.5499 28.441 62.8978 28.1844 63.2885 28.0636L63.6669 28.5588L64.256 27.7616C64.5856 28.3172 64.8817 28.3656 65.1106 27.6951C65.8339 28.2387 65.8339 28.2387 66.1849 26.4872C66.7526 26.8345 67.2592 27.2059 67.8178 27.4777C69.2217 28.1602 70.644 28.8034 72.0633 29.4467C72.6493 29.7124 73.2475 29.9449 73.8427 30.1835C73.9739 30.2348 74.1967 30.3164 74.2394 30.2681C74.6758 29.7758 74.8712 30.3254 75.1795 30.4342C75.4476 30.4944 75.7228 30.5177 75.9974 30.5036L76.0615 30.2288L77.4624 31.0623L77.0992 29.9419L78.7138 30.7301L78.8175 30.6153L78.4452 30.0114C78.5343 30.0034 78.6241 30.0106 78.7108 30.0325C79.66 30.4795 80.6061 30.9385 81.7934 29.9661C82.2206 32.3457 82.709 34.3841 82.9348 36.4497C84.1252 47.904 81.1311 58.1776 73.7999 67.1617C72.6432 68.581 71.2911 69.8463 70.0123 71.166C69.8417 71.3492 69.6045 71.4578 69.353 71.468C67.7689 71.2566 66.188 70.9969 64.6497 70.7614L67.186 70.4322L67.2409 70.0094C62.1256 70.71 58.3593 67.814 54.2634 65.5551C54.4343 65.3498 54.5503 65.1927 54.6877 65.0568C54.825 64.921 54.9929 64.7941 55.3652 64.4921C52.2399 63.4624 49.4838 62.0762 47.1245 60.0137C44.7653 57.9511 42.4396 55.9912 40.1047 53.974C42.1649 51.8903 46.0899 49.8005 48.1653 50.782C48.4003 49.7673 47.9302 49.121 47.1428 48.5352C44.6675 46.6961 41.9543 46.7686 39.1067 47.3484C37.9935 47.546 36.865 47.647 35.7341 47.6504C35.0255 47.6959 34.319 47.5352 33.7018 47.1879C33.0845 46.8407 32.5836 46.3222 32.2607 45.6965C29.8191 41.2664 28.0275 36.6551 28.3174 31.479C28.348 30.9143 28.3174 30.3466 28.3174 29.7819L27.9939 29.6701L26.5411 30.7965C26.3937 30.4018 26.2714 29.9984 26.1749 29.5886C25.4384 25.7925 25.1192 21.9288 25.2226 18.0648C25.244 17.4186 24.9174 16.7572 24.5756 16.1109C23.1563 17.9863 23.5226 20.2512 22.8512 22.2745C22.5887 20.3388 22.3628 18.403 22.0576 16.4764C21.7982 14.8456 21.4716 13.227 21.1145 11.6174C21.0382 11.2761 20.6933 10.9953 20.4705 10.6843C20.2324 11.0829 19.7868 11.4845 19.7899 11.8922C19.7899 14.1027 19.9181 16.3133 20.0157 18.5359C20.0765 19.0702 20.103 19.6078 20.0951 20.1455C19.5579 18.4936 19.0482 16.8236 18.4805 15.1929C17.9128 13.5622 17.687 11.8046 15.9259 10.4729C15.8221 11.1221 15.6207 11.5721 15.7092 11.9647C16.2006 14.3564 16.7591 16.7361 17.2902 19.1218C17.344 19.3196 17.344 19.5279 17.2902 19.7257C16.5546 18.3547 15.8343 16.9716 15.0774 15.6127C14.3205 14.2537 13.5514 12.9824 12.709 11.5178C13.4964 10.8383 14.4456 9.95345 15.4559 9.14715C21.8251 4.03562 29.5917 0.922045 37.7606 0.205348C37.9598 0.171028 38.1559 0.120526 38.3467 0.0543553L44.9942 0ZM43.8832 8.38011C43.4528 10.2434 44.3654 11.8892 44.6615 13.84L41.8871 8.97201L41.53 9.14715C41.8108 11.101 42.9187 12.7921 43.6359 14.8486C42.1099 13.3025 41.0875 11.5902 39.3295 10.5967C39.7507 12.6593 41.2034 14.136 42.3632 15.9992L37.6569 13.2542L37.4554 13.4988C38.1147 14.8396 39.4607 15.6429 40.4312 16.9535L37.9255 15.6942L37.6447 16.0143L38.8076 17.4397C37.6569 17.9319 38.8075 18.3457 38.8686 18.7654C38.696 18.9975 38.5668 19.2583 38.4871 19.5355C38.3925 20.6166 38.896 21.5829 39.1524 22.5946C39.2287 22.8966 39.1677 23.2529 39.2409 23.57C39.3752 24.1377 39.6103 24.6843 39.714 25.2581C39.8483 26.0191 39.9093 26.768 40.3031 27.4898C40.6327 28.0938 40.8281 28.7491 41.1028 29.3772C41.2172 29.644 41.3616 29.8972 41.5331 30.1322C42.0123 30.7784 42.525 31.4065 43.0073 32.0528C43.3766 32.5481 43.7184 33.0645 44.0724 33.5627L43.9778 33.7832C42.9004 33.5023 41.826 33.2003 40.7395 32.9588C40.429 32.9491 40.1191 32.993 39.8239 33.0886L40.004 33.901L39.1463 34.3962L40.1627 35.2357C39.8847 35.1955 39.6019 35.2027 39.3264 35.2569C39.2273 35.3105 39.1412 35.3847 39.0737 35.4743C39.0063 35.564 38.9592 35.667 38.9357 35.7763C38.8976 36.2212 38.8915 36.6683 38.9174 37.1141L39.3417 37.4432L38.835 38.0049L39.5339 38.3613C39.4485 38.7056 39.2104 39.1313 39.3295 39.2884C39.5217 39.536 39.9399 39.6055 40.1718 39.7021C40.0833 40.0041 39.8666 40.4329 39.9399 40.5054C40.2446 40.6934 40.5773 40.833 40.9257 40.9191C40.7273 41.6801 40.7273 41.6801 42.5799 41.4566C41.9268 42.8035 41.9268 42.7975 43.5292 42.885C43.7252 42.8999 43.9099 42.9822 44.0511 43.1176C45.1223 44.2651 46.1875 44.2953 47.0879 43.2655L47.9578 44.0628C48.2294 43.6974 48.5041 43.335 48.7604 42.9968L49.5051 43.8484L50.1461 42.9424L51.2235 43.4437C51.3875 43.0631 51.5241 42.6716 51.6325 42.272C51.6969 41.8085 51.7325 41.3416 51.7393 40.8738C52.9052 41.5593 53.9124 42.1422 54.9135 42.7401C55.9146 43.338 56.9096 43.9782 57.9381 44.552C58.4354 44.797 58.9532 44.999 59.4856 45.156C60.2578 45.4217 61.036 45.6663 61.8143 45.9139C62.2538 46.0559 62.6964 46.1857 63.1359 46.3216L63.2275 46.1072C64.3934 47.2789 64.3934 47.2789 65.1442 46.5813L67.1646 47.8225C67.2409 47.3333 67.2806 47.0917 67.3264 46.7927L69.5758 48.1003L69.7467 47.898L69.0691 46.3881L71.9717 47.7651L72.1151 47.5054L71.0988 46.382C72.518 46.7384 73.6076 47.7017 75.0665 47.4209C75.0055 47.2216 74.9658 47.0887 74.9048 46.8833H76.3636V46.7293L74.9994 46.3277L75.0269 46.2159H77.1939L77.2213 45.9985L74.2059 45.4791C74.3668 45.4019 74.5428 45.3607 74.7216 45.3583C74.9017 45.3372 75.0787 45.2888 75.2558 45.2556L75.3137 45.005C72.2128 45.4006 69.9909 43.5947 67.5187 42.269L68.0528 41.5321C64.1125 40.4178 61.6434 37.4463 58.6767 35.0485C60.2577 33.8194 61.7289 32.7172 63.9142 33.0252C63.6944 32.5813 63.609 32.1796 63.377 31.9924C62.4034 31.2374 61.3351 30.6516 60.0197 30.7845C58.7042 30.9173 57.3552 31.0864 56.0183 31.177C55.5798 31.2182 55.1392 31.1242 54.7567 30.9079C54.3743 30.6917 54.0687 30.3638 53.8819 29.9691C52.4077 27.2693 51.2815 24.4669 51.4402 21.3112C51.4585 20.9488 51.4402 20.5834 51.4402 19.9975L50.3109 20.7313C50.1869 20.3266 50.0911 19.9139 50.024 19.4962C49.8348 17.3249 49.6822 15.1506 49.493 12.9794C49.4281 12.5704 49.3331 12.1667 49.2091 11.7714L48.852 11.8016C48.7116 12.3875 48.5468 12.9703 48.4339 13.5622C48.321 14.1541 48.2721 14.7701 48.1958 15.3741C47.677 13.0005 47.5609 10.5786 46.5324 8.31971C46.0013 10.1799 46.3188 12.0492 46.3615 13.9367C45.4154 12.1368 45.4611 9.8991 43.8832 8.38011Z" fill="#1554F6"/>
<path d="M-9.87835e-05 37.8958C0.241017 36.3587 0.433267 34.8155 0.729321 33.2875C1.61033 28.6379 3.32298 24.1812 5.78668 20.127L10.6548 24.4514L10.4991 24.6386C9.0341 24.086 7.84378 22.872 6.14681 22.6425C5.92095 24.2521 7.44395 24.4876 7.97807 25.4691C7.4409 25.5144 6.66872 25.4389 7.02581 26.2995C7.2181 26.7706 7.66677 27.1391 8.07576 27.6464C7.12655 28.1628 7.12655 28.9329 7.57826 29.7965C7.60322 29.8484 7.61615 29.9052 7.61615 29.9626C7.61615 30.0201 7.60322 30.0768 7.57826 30.1287C6.74809 31.234 7.51417 31.7685 8.4237 32.2789C8.11849 33.0097 7.89262 33.7375 8.97917 34.1663C7.82852 34.9937 8.59461 35.4799 9.21418 35.9782L8.92425 36.0809C9.11187 36.4992 9.25603 36.9353 9.35457 37.3824C9.41723 38.0762 9.44168 38.7728 9.42782 39.4692C9.42782 39.6383 9.27829 39.8527 9.34239 39.9735C9.70253 40.656 9.97723 41.4592 10.5297 41.9454C11.0821 42.4316 11.1614 42.9662 11.2896 43.549C11.5246 44.615 11.6681 45.7052 12.721 46.3816C12.9103 46.4994 12.9469 46.8376 13.072 47.0641C13.2758 47.4856 13.5147 47.8897 13.7862 48.272C14.6439 49.329 15.5412 50.3557 16.4171 51.3946C16.4843 51.517 16.5395 51.6454 16.582 51.7781C15.5229 51.5999 14.5767 51.4761 13.6581 51.2738C12.7882 51.0714 11.9519 50.7393 11.0882 50.5067C10.5327 50.3588 9.80934 50.0447 9.51328 50.7574C9.36678 51.1107 9.72388 51.6633 9.86123 52.1616C9.91006 52.1616 9.75443 52.1133 9.65371 52.1616C9.29051 52.3579 8.94559 52.5874 8.5946 52.8018C8.81181 53.1172 9.06364 53.4079 9.34544 53.6685C9.65065 53.895 10.0291 54.0037 10.3526 54.2725C10.0065 54.2082 9.65484 54.1778 9.30271 54.1819C8.84957 54.2477 8.40104 54.3415 7.95977 54.4627L8.34129 55.8428C7.60573 57.1021 7.60574 57.1021 8.72891 57.7061L7.93232 58.6604L9.15316 59.2643C8.96698 59.7083 8.49082 60.4723 8.62511 60.5991C9.08293 61.0219 9.75747 61.2212 10.2214 61.4477L9.5774 62.6919L11.2713 63.4197L10.9447 64.0478C12.1656 65.2769 13.2888 64.0478 14.4943 63.9632C14.1525 64.3468 13.8137 64.6759 13.539 65.0504C12.9286 65.8657 13.1941 66.4757 14.2044 66.5603C14.8514 66.6207 15.5107 66.5603 16.2187 66.5603C16.4263 67.4663 16.9787 67.9042 17.9432 67.8317C18.1788 67.8655 18.4005 67.9626 18.5842 68.1125C19.6707 68.7437 20.217 68.6199 20.8763 67.575L21.3676 66.7898C21.5063 67.235 21.6767 67.6699 21.8774 68.0914C22.1826 68.6591 22.7106 68.6953 23.0738 68.1457C23.3532 67.6867 23.6069 67.2129 23.8338 66.7264L25.3232 67.9102L26.3487 66.2916C26.4278 66.5258 26.5545 66.7416 26.721 66.9257C27.0263 67.1884 27.5299 67.578 27.7862 67.4844C27.9903 67.3834 28.1692 67.239 28.3101 67.0615C28.451 66.8839 28.5504 66.6777 28.6011 66.4576C28.7415 65.6846 28.6652 64.8722 28.6927 64.078C28.7134 63.8746 28.7481 63.6728 28.7965 63.474C29.6511 63.8666 30.4752 64.1988 31.2382 64.6185C31.7187 64.9192 32.1749 65.2564 32.6025 65.6272C32.6727 65.6815 32.7185 65.7691 32.7917 65.8144C33.6005 66.2885 34.565 66.6147 35.1876 67.2609C35.9964 68.1004 37.0188 68.3179 37.9924 68.7256C38.9661 69.1332 39.9611 69.7221 40.9835 70.1298C41.3193 70.2627 41.7801 70.0905 42.2929 70.0483C42.7599 70.5737 43.1902 71.4102 44.3164 70.9814C44.5209 70.9029 44.9482 71.3498 45.2504 71.5854C45.8974 72.0806 46.5353 72.4521 47.1396 71.5642C47.5242 71.9387 47.863 72.2679 48.2048 72.594C49.2273 73.5724 49.6271 73.5241 50.4054 72.3132C51.0158 72.7933 51.6262 73.3188 52.2702 73.7385C53.5704 74.569 53.9031 74.3908 53.9641 72.8326C55.3193 73.3701 56.299 74.6052 57.7396 74.8921L57.9594 74.6928L56.7202 72.0595C58.4568 72.8235 59.8517 74.1734 61.7714 74.3093L62.0339 74.0284L59.7235 72.3071L59.931 72.0534C62.04 72.7178 63.9292 74.0919 66.5388 73.9952C65.4492 74.726 64.5916 75.3421 63.6912 75.8947C55.3742 81.0013 46.3277 82.9068 36.6129 81.9072C36.1781 81.867 35.7399 81.9291 35.3341 82.0884C29.825 84.302 24.1451 85.4103 18.1843 84.7731C15.3652 84.4908 12.6026 83.8041 9.98332 82.7347C14.302 81.3757 18.3583 79.8265 21.9842 77.6009C19.6341 75.9581 17.1832 74.4784 15.004 72.6785C7.06855 66.1315 2.23503 57.8007 0.503469 47.6862C0.31729 46.596 0.152486 45.5028 -0.0214844 44.4096L-9.87835e-05 37.8958Z" fill="#1554F6"/>
<path d="M8.72902 15.8301L13.5941 23.111L6.57422 18.8832L8.72902 15.8301Z" fill="#1554F6"/>
<path d="M9.79419 14.5492L11.9673 12.1816C13.237 15.2589 14.5249 18.3723 15.7733 21.3862L9.79419 14.5492Z" fill="#1554F6"/>
<path d="M68.7028 72.1077C67.7109 72.9805 66.8319 71.996 65.8735 72.1258V71.9023L68.7028 72.1077Z" fill="#1554F6"/>
</g>
<defs>
<clipPath id="clip0_180_2">
<rect width="224" height="85" fill="white"/>
</clipPath>
</defs>
</svg>
