<svg xmlns="http://www.w3.org/2000/svg" fill="none" viewBox="0 0 368 522">
<rect width="368" height="522" rx="50" fill="url(#paint0_linear_325_457)"/>
<path d="M216.819 148.88C216.819 146.56 217.286 144.533 218.219 142.8C219.179 141.067 220.499 139.733 222.179 138.8C223.886 137.867 225.833 137.4 228.019 137.4C230.819 137.4 233.153 138.133 235.019 139.6C236.913 141.067 238.153 143.133 238.739 145.8H231.459C230.846 144.093 229.659 143.24 227.899 143.24C226.646 143.24 225.646 143.733 224.899 144.72C224.153 145.68 223.779 147.067 223.779 148.88C223.779 150.693 224.153 152.093 224.899 153.08C225.646 154.04 226.646 154.52 227.899 154.52C229.659 154.52 230.846 153.667 231.459 151.96H238.739C238.153 154.573 236.913 156.627 235.019 158.12C233.126 159.613 230.793 160.36 228.019 160.36C225.833 160.36 223.886 159.893 222.179 158.96C220.499 158.027 219.179 156.693 218.219 154.96C217.286 153.227 216.819 151.2 216.819 148.88Z" fill="black"/>
<path d="M209.822 135.4C208.622 135.4 207.636 135.053 206.862 134.36C206.116 133.64 205.742 132.76 205.742 131.72C205.742 130.653 206.116 129.773 206.862 129.08C207.636 128.36 208.622 128 209.822 128C210.996 128 211.956 128.36 212.702 129.08C213.476 129.773 213.862 130.653 213.862 131.72C213.862 132.76 213.476 133.64 212.702 134.36C211.956 135.053 210.996 135.4 209.822 135.4ZM213.222 137.72V160.04H206.382V137.72H213.222Z" fill="black"/>
<path d="M193.158 160.36C191.211 160.36 189.478 160.027 187.958 159.36C186.438 158.693 185.238 157.787 184.358 156.64C183.478 155.467 182.984 154.16 182.878 152.72H189.638C189.718 153.493 190.078 154.12 190.718 154.6C191.358 155.08 192.144 155.32 193.078 155.32C193.931 155.32 194.584 155.16 195.038 154.84C195.518 154.493 195.758 154.053 195.758 153.52C195.758 152.88 195.424 152.413 194.758 152.12C194.091 151.8 193.011 151.453 191.518 151.08C189.918 150.707 188.584 150.32 187.518 149.92C186.451 149.493 185.531 148.84 184.758 147.96C183.984 147.053 183.598 145.84 183.598 144.32C183.598 143.04 183.944 141.88 184.638 140.84C185.358 139.773 186.398 138.933 187.758 138.32C189.144 137.707 190.784 137.4 192.678 137.4C195.478 137.4 197.678 138.093 199.278 139.48C200.904 140.867 201.838 142.707 202.078 145H195.758C195.651 144.227 195.304 143.613 194.718 143.16C194.158 142.707 193.411 142.48 192.478 142.48C191.678 142.48 191.064 142.64 190.638 142.96C190.211 143.253 189.998 143.667 189.998 144.2C189.998 144.84 190.331 145.32 190.998 145.64C191.691 145.96 192.758 146.28 194.198 146.6C195.851 147.027 197.198 147.453 198.238 147.88C199.278 148.28 200.184 148.947 200.958 149.88C201.758 150.787 202.171 152.013 202.198 153.56C202.198 154.867 201.824 156.04 201.078 157.08C200.358 158.093 199.304 158.893 197.918 159.48C196.558 160.067 194.971 160.36 193.158 160.36Z" fill="black"/>
<path d="M155.569 148.84C155.569 146.547 155.996 144.533 156.849 142.8C157.729 141.067 158.916 139.733 160.409 138.8C161.903 137.867 163.569 137.4 165.409 137.4C166.983 137.4 168.356 137.72 169.529 138.36C170.729 139 171.649 139.84 172.289 140.88V137.72H179.129V160.04H172.289V156.88C171.623 157.92 170.689 158.76 169.489 159.4C168.316 160.04 166.943 160.36 165.369 160.36C163.556 160.36 161.903 159.893 160.409 158.96C158.916 158 157.729 156.653 156.849 154.92C155.996 153.16 155.569 151.133 155.569 148.84ZM172.289 148.88C172.289 147.173 171.809 145.827 170.849 144.84C169.916 143.853 168.769 143.36 167.409 143.36C166.049 143.36 164.889 143.853 163.929 144.84C162.996 145.8 162.529 147.133 162.529 148.84C162.529 150.547 162.996 151.907 163.929 152.92C164.889 153.907 166.049 154.4 167.409 154.4C168.769 154.4 169.916 153.907 170.849 152.92C171.809 151.933 172.289 150.587 172.289 148.88Z" fill="black"/>
<path d="M147.562 145.64C149.189 145.987 150.495 146.8 151.482 148.08C152.469 149.333 152.962 150.773 152.962 152.4C152.962 154.747 152.135 156.613 150.482 158C148.855 159.36 146.575 160.04 143.642 160.04H130.562V131.96H143.202C146.055 131.96 148.282 132.613 149.882 133.92C151.509 135.227 152.322 137 152.322 139.24C152.322 140.893 151.882 142.267 151.002 143.36C150.149 144.453 149.002 145.213 147.562 145.64ZM137.402 143.32H141.882C143.002 143.32 143.855 143.08 144.442 142.6C145.055 142.093 145.362 141.36 145.362 140.4C145.362 139.44 145.055 138.707 144.442 138.2C143.855 137.693 143.002 137.44 141.882 137.44H137.402V143.32ZM142.442 154.52C143.589 154.52 144.469 154.267 145.082 153.76C145.722 153.227 146.042 152.467 146.042 151.48C146.042 150.493 145.709 149.72 145.042 149.16C144.402 148.6 143.509 148.32 142.362 148.32H137.402V154.52H142.442Z" fill="black"/>
<g filter="url(#filter0_dddd_325_457)">
<circle cx="184.5" cy="330.5" r="96.5" fill="url(#paint1_linear_325_457)"/>
<circle cx="184.5" cy="330.5" r="96" stroke="url(#paint2_linear_325_457)"/>
</g>
<defs>
<filter id="filter0_dddd_325_457" x="54" y="227" width="261" height="319" filterUnits="userSpaceOnUse" color-interpolation-filters="sRGB">
<feFlood flood-opacity="0" result="BackgroundImageFix"/>
<feColorMatrix in="SourceAlpha" type="matrix" values="0 0 0 0 0 0 0 0 0 0 0 0 0 0 0 0 0 0 127 0" result="hardAlpha"/>
<feOffset dy="5"/>
<feGaussianBlur stdDeviation="6"/>
<feColorMatrix type="matrix" values="0 0 0 0 0 0 0 0 0 0 0 0 0 0 0 0 0 0 0.1 0"/>
<feBlend mode="normal" in2="BackgroundImageFix" result="effect1_dropShadow_325_457"/>
<feColorMatrix in="SourceAlpha" type="matrix" values="0 0 0 0 0 0 0 0 0 0 0 0 0 0 0 0 0 0 127 0" result="hardAlpha"/>
<feOffset dy="21"/>
<feGaussianBlur stdDeviation="10.5"/>
<feColorMatrix type="matrix" values="0 0 0 0 0 0 0 0 0 0 0 0 0 0 0 0 0 0 0.09 0"/>
<feBlend mode="normal" in2="effect1_dropShadow_325_457" result="effect2_dropShadow_325_457"/>
<feColorMatrix in="SourceAlpha" type="matrix" values="0 0 0 0 0 0 0 0 0 0 0 0 0 0 0 0 0 0 127 0" result="hardAlpha"/>
<feOffset dy="48"/>
<feGaussianBlur stdDeviation="14.5"/>
<feColorMatrix type="matrix" values="0 0 0 0 0 0 0 0 0 0 0 0 0 0 0 0 0 0 0.05 0"/>
<feBlend mode="normal" in2="effect2_dropShadow_325_457" result="effect3_dropShadow_325_457"/>
<feColorMatrix in="SourceAlpha" type="matrix" values="0 0 0 0 0 0 0 0 0 0 0 0 0 0 0 0 0 0 127 0" result="hardAlpha"/>
<feOffset dy="85"/>
<feGaussianBlur stdDeviation="17"/>
<feColorMatrix type="matrix" values="0 0 0 0 0 0 0 0 0 0 0 0 0 0 0 0 0 0 0.01 0"/>
<feBlend mode="normal" in2="effect3_dropShadow_325_457" result="effect4_dropShadow_325_457"/>
<feBlend mode="normal" in="SourceGraphic" in2="effect4_dropShadow_325_457" result="shape"/>
</filter>
<linearGradient id="paint0_linear_325_457" x1="184" y1="0" x2="348" y2="512" gradientUnits="userSpaceOnUse">
<stop stop-color="#5CBA47"/>
<stop offset="1" stop-color="#3C9282"/>
</linearGradient>
<linearGradient id="paint1_linear_325_457" x1="107.5" y1="258.5" x2="268.5" y2="427" gradientUnits="userSpaceOnUse">
<stop stop-color="#87E0B6"/>
<stop offset="0.998088" stop-color="#5DB55B"/>
</linearGradient>
<linearGradient id="paint2_linear_325_457" x1="184.5" y1="234" x2="184.5" y2="427" gradientUnits="userSpaceOnUse">
<stop stop-color="#B5B5B5"/>
<stop offset="1" stop-color="#5AB74A"/>
</linearGradient>
</defs>
</svg>