<svg width="368" height="522" viewBox="0 0 368 522" fill="none" xmlns="http://www.w3.org/2000/svg">
<rect width="368" height="522" rx="50" fill="#5CBA47"/>
<path d="M0 412H368V472C368 499.614 345.614 522 318 522H50C22.3858 522 0 499.614 0 472V412Z" fill="#3B3B3B"/>
<path d="M225.024 73.05C225.024 70.15 225.607 67.6167 226.774 65.45C227.974 63.2833 229.624 61.6167 231.724 60.45C233.857 59.2833 236.291 58.7 239.024 58.7C242.524 58.7 245.441 59.6167 247.774 61.45C250.141 63.2833 251.691 65.8667 252.424 69.2H243.324C242.557 67.0667 241.074 66 238.874 66C237.307 66 236.057 66.6167 235.124 67.85C234.191 69.05 233.724 70.7833 233.724 73.05C233.724 75.3167 234.191 77.0667 235.124 78.3C236.057 79.5 237.307 80.1 238.874 80.1C241.074 80.1 242.557 79.0333 243.324 76.9H252.424C251.691 80.1667 250.141 82.7333 247.774 84.6C245.407 86.4667 242.491 87.4 239.024 87.4C236.291 87.4 233.857 86.8167 231.724 85.65C229.624 84.4834 227.974 82.8167 226.774 80.65C225.607 78.4834 225.024 75.95 225.024 73.05Z" fill="white"/>
<path d="M216.278 56.2C214.778 56.2 213.545 55.7667 212.578 54.9C211.645 54 211.178 52.9 211.178 51.6C211.178 50.2667 211.645 49.1667 212.578 48.3C213.545 47.4 214.778 46.95 216.278 46.95C217.745 46.95 218.945 47.4 219.878 48.3C220.845 49.1667 221.328 50.2667 221.328 51.6C221.328 52.9 220.845 54 219.878 54.9C218.945 55.7667 217.745 56.2 216.278 56.2ZM220.528 59.1V87H211.978V59.1H220.528Z" fill="white"/>
<path d="M195.447 87.4C193.014 87.4 190.847 86.9834 188.947 86.15C187.047 85.3167 185.547 84.1833 184.447 82.75C183.347 81.2833 182.73 79.65 182.597 77.85H191.047C191.147 78.8167 191.597 79.6 192.397 80.2C193.197 80.8 194.18 81.1 195.347 81.1C196.414 81.1 197.23 80.9 197.797 80.5C198.397 80.0667 198.697 79.5167 198.697 78.85C198.697 78.05 198.28 77.4667 197.447 77.1C196.614 76.7 195.264 76.2667 193.397 75.8C191.397 75.3333 189.73 74.85 188.397 74.35C187.064 73.8167 185.914 73 184.947 71.9C183.98 70.7667 183.497 69.25 183.497 67.35C183.497 65.75 183.93 64.3 184.797 63C185.697 61.6667 186.997 60.6167 188.697 59.85C190.43 59.0833 192.48 58.7 194.847 58.7C198.347 58.7 201.097 59.5667 203.097 61.3C205.13 63.0333 206.297 65.3333 206.597 68.2H198.697C198.564 67.2333 198.13 66.4667 197.397 65.9C196.697 65.3333 195.764 65.05 194.597 65.05C193.597 65.05 192.83 65.25 192.297 65.65C191.764 66.0167 191.497 66.5333 191.497 67.2C191.497 68 191.914 68.6 192.747 69C193.614 69.4 194.947 69.8 196.747 70.2C198.814 70.7333 200.497 71.2667 201.797 71.8C203.097 72.3 204.23 73.1333 205.197 74.3C206.197 75.4333 206.714 76.9667 206.747 78.9C206.747 80.5333 206.28 82 205.347 83.3C204.447 84.5667 203.13 85.5667 201.397 86.3C199.697 87.0333 197.714 87.4 195.447 87.4Z" fill="white"/>
<path d="M148.462 73C148.462 70.1333 148.995 67.6167 150.062 65.45C151.162 63.2833 152.645 61.6167 154.512 60.45C156.378 59.2833 158.462 58.7 160.762 58.7C162.728 58.7 164.445 59.1 165.912 59.9C167.412 60.7 168.562 61.75 169.362 63.05V59.1H177.912V87H169.362V83.05C168.528 84.35 167.362 85.4 165.862 86.2C164.395 87 162.678 87.4 160.712 87.4C158.445 87.4 156.378 86.8167 154.512 85.65C152.645 84.45 151.162 82.7667 150.062 80.6C148.995 78.4 148.462 75.8667 148.462 73ZM169.362 73.05C169.362 70.9167 168.762 69.2333 167.562 68C166.395 66.7667 164.962 66.15 163.262 66.15C161.562 66.15 160.112 66.7667 158.912 68C157.745 69.2 157.162 70.8667 157.162 73C157.162 75.1333 157.745 76.8333 158.912 78.1C160.112 79.3333 161.562 79.95 163.262 79.95C164.962 79.95 166.395 79.3333 167.562 78.1C168.762 76.8667 169.362 75.1833 169.362 73.05Z" fill="white"/>
<path d="M138.453 69C140.486 69.4334 142.119 70.45 143.353 72.05C144.586 73.6167 145.203 75.4167 145.203 77.45C145.203 80.3834 144.169 82.7167 142.103 84.45C140.069 86.15 137.219 87 133.553 87H117.203V51.9H133.003C136.569 51.9 139.353 52.7167 141.353 54.35C143.386 55.9834 144.403 58.2 144.403 61C144.403 63.0667 143.853 64.7834 142.753 66.15C141.686 67.5167 140.253 68.4667 138.453 69ZM125.753 66.1H131.353C132.753 66.1 133.819 65.8 134.553 65.2C135.319 64.5667 135.703 63.65 135.703 62.45C135.703 61.25 135.319 60.3334 134.553 59.7C133.819 59.0667 132.753 58.75 131.353 58.75H125.753V66.1ZM132.053 80.1C133.486 80.1 134.586 79.7834 135.353 79.15C136.153 78.4834 136.553 77.5334 136.553 76.3C136.553 75.0667 136.136 74.1 135.303 73.4C134.503 72.7 133.386 72.35 131.953 72.35H125.753V80.1H132.053Z" fill="white"/>
<path d="M267.225 254.063C267.582 253.365 268.087 252.822 268.741 252.436C269.41 252.05 270.219 251.856 271.17 251.856V253.952H270.635C268.362 253.952 267.225 255.185 267.225 257.651V264.293H265.197V252.079H267.225V254.063Z" fill="white"/>
<path d="M262.52 257.718C262.52 258.105 262.498 258.513 262.453 258.944H252.691C252.765 260.148 253.174 261.091 253.917 261.775C254.674 262.443 255.588 262.778 256.658 262.778C257.535 262.778 258.263 262.577 258.842 262.176C259.437 261.76 259.853 261.21 260.09 260.527H262.275C261.948 261.7 261.294 262.659 260.313 263.402C259.333 264.13 258.114 264.494 256.658 264.494C255.499 264.494 254.459 264.234 253.538 263.714C252.631 263.194 251.918 262.458 251.398 261.507C250.878 260.541 250.618 259.427 250.618 258.164C250.618 256.901 250.871 255.794 251.376 254.843C251.881 253.892 252.587 253.164 253.493 252.659C254.414 252.139 255.469 251.879 256.658 251.879C257.817 251.879 258.842 252.131 259.734 252.637C260.625 253.142 261.309 253.84 261.784 254.732C262.275 255.608 262.52 256.604 262.52 257.718ZM260.425 257.295C260.425 256.522 260.254 255.861 259.912 255.311C259.57 254.747 259.102 254.323 258.508 254.041C257.928 253.744 257.282 253.595 256.569 253.595C255.544 253.595 254.667 253.922 253.939 254.576C253.226 255.229 252.817 256.136 252.713 257.295H260.425Z" fill="white"/>
<path d="M238.342 254.33C238.743 253.632 239.337 253.053 240.125 252.592C240.927 252.116 241.856 251.879 242.911 251.879C243.996 251.879 244.976 252.139 245.853 252.659C246.745 253.179 247.443 253.914 247.948 254.865C248.453 255.801 248.706 256.894 248.706 258.142C248.706 259.375 248.453 260.475 247.948 261.44C247.443 262.406 246.745 263.157 245.853 263.692C244.976 264.226 243.996 264.494 242.911 264.494C241.871 264.494 240.95 264.264 240.147 263.803C239.36 263.327 238.758 262.741 238.342 262.042V270.088H236.314V252.079H238.342V254.33ZM246.633 258.142C246.633 257.221 246.447 256.418 246.076 255.735C245.705 255.051 245.199 254.531 244.56 254.174C243.936 253.818 243.245 253.64 242.488 253.64C241.745 253.64 241.054 253.825 240.415 254.197C239.791 254.553 239.285 255.081 238.899 255.779C238.528 256.463 238.342 257.258 238.342 258.164C238.342 259.085 238.528 259.895 238.899 260.593C239.285 261.277 239.791 261.804 240.415 262.176C241.054 262.533 241.745 262.711 242.488 262.711C243.245 262.711 243.936 262.533 244.56 262.176C245.199 261.804 245.705 261.277 246.076 260.593C246.447 259.895 246.633 259.078 246.633 258.142Z" fill="white"/>
<path d="M227.384 264.494C226.24 264.494 225.2 264.234 224.264 263.714C223.342 263.194 222.614 262.458 222.079 261.507C221.559 260.541 221.299 259.427 221.299 258.164C221.299 256.916 221.567 255.816 222.102 254.865C222.651 253.9 223.394 253.164 224.331 252.659C225.267 252.139 226.314 251.879 227.473 251.879C228.632 251.879 229.68 252.139 230.616 252.659C231.552 253.164 232.287 253.892 232.822 254.843C233.372 255.794 233.647 256.901 233.647 258.164C233.647 259.427 233.365 260.541 232.8 261.507C232.25 262.458 231.5 263.194 230.549 263.714C229.598 264.234 228.543 264.494 227.384 264.494ZM227.384 262.711C228.112 262.711 228.796 262.54 229.435 262.198C230.073 261.856 230.586 261.344 230.972 260.66C231.374 259.977 231.574 259.145 231.574 258.164C231.574 257.183 231.381 256.351 230.995 255.668C230.608 254.984 230.103 254.479 229.479 254.152C228.855 253.81 228.179 253.64 227.451 253.64C226.708 253.64 226.024 253.81 225.4 254.152C224.791 254.479 224.301 254.984 223.929 255.668C223.558 256.351 223.372 257.183 223.372 258.164C223.372 259.16 223.55 259.999 223.907 260.683C224.279 261.366 224.769 261.879 225.378 262.221C225.987 262.547 226.656 262.711 227.384 262.711Z" fill="white"/>
<path d="M218.6 247.8V264.293H216.572V247.8H218.6Z" fill="white"/>
<path d="M213.895 257.718C213.895 258.105 213.873 258.513 213.828 258.944H204.066C204.14 260.148 204.549 261.091 205.292 261.775C206.049 262.443 206.963 262.778 208.033 262.778C208.91 262.778 209.638 262.577 210.217 262.176C210.812 261.76 211.228 261.21 211.465 260.527H213.65C213.323 261.7 212.669 262.659 211.688 263.402C210.708 264.13 209.489 264.494 208.033 264.494C206.874 264.494 205.834 264.234 204.913 263.714C204.006 263.194 203.293 262.458 202.773 261.507C202.253 260.541 201.993 259.427 201.993 258.164C201.993 256.901 202.246 255.794 202.751 254.843C203.256 253.892 203.962 253.164 204.868 252.659C205.789 252.139 206.844 251.879 208.033 251.879C209.192 251.879 210.217 252.131 211.109 252.637C212 253.142 212.684 253.84 213.159 254.732C213.65 255.608 213.895 256.604 213.895 257.718ZM211.8 257.295C211.8 256.522 211.629 255.861 211.287 255.311C210.945 254.747 210.477 254.323 209.883 254.041C209.303 253.744 208.657 253.595 207.944 253.595C206.919 253.595 206.042 253.922 205.314 254.576C204.601 255.229 204.192 256.136 204.088 257.295H211.8Z" fill="white"/>
<path d="M194.804 262.421L198.593 252.079H200.755L195.963 264.293H193.6L188.808 252.079H190.993L194.804 262.421Z" fill="white"/>
<path d="M187.58 257.718C187.58 258.105 187.558 258.513 187.513 258.944H177.751C177.825 260.148 178.234 261.091 178.977 261.775C179.734 262.443 180.648 262.778 181.718 262.778C182.595 262.778 183.323 262.577 183.902 262.176C184.497 261.76 184.913 261.21 185.15 260.527H187.335C187.008 261.7 186.354 262.659 185.373 263.402C184.393 264.13 183.174 264.494 181.718 264.494C180.559 264.494 179.519 264.234 178.598 263.714C177.691 263.194 176.978 262.458 176.458 261.507C175.938 260.541 175.678 259.427 175.678 258.164C175.678 256.901 175.931 255.794 176.436 254.843C176.941 253.892 177.647 253.164 178.553 252.659C179.474 252.139 180.529 251.879 181.718 251.879C182.877 251.879 183.902 252.131 184.794 252.637C185.685 253.142 186.369 253.84 186.844 254.732C187.335 255.608 187.58 256.604 187.58 257.718ZM185.485 257.295C185.485 256.522 185.314 255.861 184.972 255.311C184.63 254.747 184.162 254.323 183.568 254.041C182.989 253.744 182.342 253.595 181.629 253.595C180.604 253.595 179.727 253.922 178.999 254.576C178.286 255.229 177.877 256.136 177.773 257.295H185.485Z" fill="white"/>
<path d="M165.514 248.758C167.208 248.758 168.671 249.078 169.905 249.717C171.153 250.341 172.104 251.24 172.758 252.414C173.426 253.588 173.761 254.969 173.761 256.559C173.761 258.149 173.426 259.531 172.758 260.705C172.104 261.864 171.153 262.755 169.905 263.379C168.671 263.989 167.208 264.293 165.514 264.293H160.677V248.758H165.514ZM165.514 262.622C167.52 262.622 169.05 262.094 170.105 261.039C171.16 259.969 171.688 258.476 171.688 256.559C171.688 254.628 171.153 253.119 170.083 252.035C169.028 250.95 167.505 250.408 165.514 250.408H162.706V262.622H165.514Z" fill="white"/>
<path d="M141.702 254.33C142.103 253.632 142.697 253.053 143.485 252.592C144.287 252.116 145.216 251.879 146.271 251.879C147.355 251.879 148.336 252.139 149.213 252.659C150.104 253.179 150.803 253.914 151.308 254.865C151.813 255.801 152.066 256.894 152.066 258.142C152.066 259.375 151.813 260.475 151.308 261.44C150.803 262.406 150.104 263.157 149.213 263.692C148.336 264.226 147.355 264.494 146.271 264.494C145.231 264.494 144.309 264.264 143.507 263.803C142.719 263.327 142.118 262.741 141.702 262.042V270.088H139.673V252.079H141.702V254.33ZM149.993 258.142C149.993 257.221 149.807 256.418 149.436 255.735C149.064 255.051 148.559 254.531 147.92 254.174C147.296 253.818 146.605 253.64 145.847 253.64C145.104 253.64 144.413 253.825 143.774 254.197C143.15 254.553 142.645 255.081 142.259 255.779C141.887 256.463 141.702 257.258 141.702 258.164C141.702 259.085 141.887 259.895 142.259 260.593C142.645 261.277 143.15 261.804 143.774 262.176C144.413 262.533 145.104 262.711 145.847 262.711C146.605 262.711 147.296 262.533 147.92 262.176C148.559 261.804 149.064 261.277 149.436 260.593C149.807 259.895 149.993 259.078 149.993 258.142Z" fill="white"/>
<path d="M126.64 254.33C127.041 253.632 127.635 253.053 128.423 252.592C129.225 252.116 130.154 251.879 131.209 251.879C132.293 251.879 133.274 252.139 134.151 252.659C135.042 253.179 135.741 253.914 136.246 254.865C136.751 255.801 137.004 256.894 137.004 258.142C137.004 259.375 136.751 260.475 136.246 261.44C135.741 262.406 135.042 263.157 134.151 263.692C133.274 264.226 132.293 264.494 131.209 264.494C130.169 264.494 129.247 264.264 128.445 263.803C127.657 263.327 127.056 262.741 126.64 262.042V270.088H124.611V252.079H126.64V254.33ZM134.931 258.142C134.931 257.221 134.745 256.418 134.374 255.735C134.002 255.051 133.497 254.531 132.858 254.174C132.234 253.818 131.543 253.64 130.785 253.64C130.042 253.64 129.351 253.825 128.712 254.197C128.088 254.553 127.583 255.081 127.197 255.779C126.825 256.463 126.64 257.258 126.64 258.164C126.64 259.085 126.825 259.895 127.197 260.593C127.583 261.277 128.088 261.804 128.712 262.176C129.351 262.533 130.042 262.711 130.785 262.711C131.543 262.711 132.234 262.533 132.858 262.176C133.497 261.804 134.002 261.277 134.374 260.593C134.745 259.895 134.931 259.078 134.931 258.142Z" fill="white"/>
<path d="M118.776 260.839H112L110.752 264.293H108.612L114.229 248.848H116.569L122.163 264.293H120.024L118.776 260.839ZM118.196 259.189L115.388 251.344L112.579 259.189H118.196Z" fill="white"/>
<path d="M95.6422 250.029V248.179H99.8324V264.293H97.7819V250.029H95.6422Z" fill="white"/>
<path d="M276.868 281.552C277.224 280.854 277.729 280.311 278.383 279.925C279.052 279.539 279.862 279.345 280.813 279.345V281.44H280.278C278.004 281.44 276.868 282.674 276.868 285.14V291.782H274.839V279.568H276.868V281.552Z" fill="white"/>
<path d="M272.162 285.207C272.162 285.593 272.14 286.002 272.095 286.433H262.333C262.407 287.637 262.816 288.58 263.559 289.264C264.317 289.932 265.231 290.267 266.3 290.267C267.177 290.267 267.905 290.066 268.485 289.665C269.079 289.249 269.495 288.699 269.733 288.015H271.917C271.59 289.189 270.936 290.148 269.956 290.891C268.975 291.619 267.757 291.983 266.3 291.983C265.141 291.983 264.101 291.723 263.18 291.203C262.274 290.683 261.56 289.947 261.04 288.996C260.52 288.03 260.26 286.916 260.26 285.653C260.26 284.39 260.513 283.283 261.018 282.332C261.523 281.381 262.229 280.653 263.135 280.148C264.057 279.628 265.112 279.368 266.3 279.368C267.459 279.368 268.485 279.62 269.376 280.125C270.268 280.631 270.951 281.329 271.427 282.221C271.917 283.097 272.162 284.093 272.162 285.207ZM270.067 284.784C270.067 284.011 269.896 283.35 269.554 282.8C269.213 282.235 268.745 281.812 268.15 281.53C267.571 281.232 266.924 281.084 266.211 281.084C265.186 281.084 264.309 281.411 263.581 282.064C262.868 282.718 262.459 283.625 262.355 284.784H270.067Z" fill="white"/>
<path d="M250.993 279.368C252.048 279.368 252.969 279.598 253.757 280.059C254.559 280.519 255.154 281.099 255.54 281.797V279.568H257.591V292.05C257.591 293.164 257.353 294.152 256.877 295.014C256.402 295.891 255.718 296.574 254.827 297.064C253.95 297.555 252.925 297.8 251.751 297.8C250.146 297.8 248.809 297.421 247.739 296.663C246.669 295.906 246.038 294.873 245.845 293.565H247.851C248.073 294.308 248.534 294.903 249.232 295.348C249.931 295.809 250.77 296.039 251.751 296.039C252.865 296.039 253.772 295.69 254.47 294.992C255.183 294.293 255.54 293.313 255.54 292.05V289.486C255.139 290.2 254.544 290.794 253.757 291.27C252.969 291.745 252.048 291.983 250.993 291.983C249.908 291.983 248.92 291.715 248.029 291.18C247.152 290.645 246.461 289.895 245.956 288.929C245.451 287.963 245.198 286.864 245.198 285.631C245.198 284.382 245.451 283.29 245.956 282.354C246.461 281.403 247.152 280.668 248.029 280.148C248.92 279.628 249.908 279.368 250.993 279.368ZM255.54 285.653C255.54 284.732 255.354 283.929 254.983 283.246C254.611 282.562 254.106 282.042 253.467 281.686C252.843 281.314 252.152 281.128 251.394 281.128C250.637 281.128 249.946 281.307 249.322 281.663C248.698 282.02 248.2 282.54 247.828 283.223C247.457 283.907 247.271 284.709 247.271 285.631C247.271 286.567 247.457 287.384 247.828 288.082C248.2 288.766 248.698 289.293 249.322 289.665C249.946 290.021 250.637 290.2 251.394 290.2C252.152 290.2 252.843 290.021 253.467 289.665C254.106 289.293 254.611 288.766 254.983 288.082C255.354 287.384 255.54 286.574 255.54 285.653Z" fill="white"/>
<path d="M230.136 285.631C230.136 284.382 230.389 283.29 230.894 282.354C231.399 281.403 232.09 280.668 232.967 280.148C233.858 279.628 234.846 279.368 235.931 279.368C237.001 279.368 237.93 279.598 238.717 280.059C239.505 280.519 240.092 281.099 240.478 281.797V279.568H242.529V291.782H240.478V289.509C240.077 290.222 239.475 290.816 238.673 291.292C237.885 291.752 236.964 291.983 235.909 291.983C234.824 291.983 233.844 291.715 232.967 291.18C232.09 290.645 231.399 289.895 230.894 288.929C230.389 287.963 230.136 286.864 230.136 285.631ZM240.478 285.653C240.478 284.732 240.292 283.929 239.921 283.246C239.549 282.562 239.044 282.042 238.405 281.686C237.781 281.314 237.09 281.128 236.332 281.128C235.575 281.128 234.884 281.307 234.26 281.663C233.635 282.02 233.138 282.54 232.766 283.223C232.395 283.907 232.209 284.709 232.209 285.631C232.209 286.567 232.395 287.384 232.766 288.082C233.138 288.766 233.635 289.293 234.26 289.665C234.884 290.021 235.575 290.2 236.332 290.2C237.09 290.2 237.781 290.021 238.405 289.665C239.044 289.293 239.549 288.766 239.921 288.082C240.292 287.384 240.478 286.574 240.478 285.653Z" fill="white"/>
<path d="M222.588 279.345C224.074 279.345 225.278 279.799 226.199 280.705C227.12 281.596 227.581 282.889 227.581 284.583V291.782H225.575V284.873C225.575 283.654 225.27 282.726 224.661 282.087C224.052 281.433 223.22 281.106 222.165 281.106C221.095 281.106 220.241 281.44 219.602 282.109C218.978 282.778 218.666 283.751 218.666 285.029V291.782H216.637V279.568H218.666V281.307C219.067 280.683 219.609 280.2 220.293 279.858C220.991 279.516 221.756 279.345 222.588 279.345Z" fill="white"/>
<path d="M200.818 285.631C200.818 284.382 201.07 283.29 201.575 282.354C202.081 281.403 202.772 280.668 203.648 280.148C204.54 279.628 205.528 279.368 206.613 279.368C207.682 279.368 208.611 279.598 209.399 280.059C210.186 280.519 210.773 281.099 211.159 281.797V279.568H213.21V291.782H211.159V289.509C210.758 290.222 210.156 290.816 209.354 291.292C208.567 291.752 207.645 291.983 206.59 291.983C205.506 291.983 204.525 291.715 203.648 291.18C202.772 290.645 202.081 289.895 201.575 288.929C201.07 287.963 200.818 286.864 200.818 285.631ZM211.159 285.653C211.159 284.732 210.974 283.929 210.602 283.246C210.231 282.562 209.726 282.042 209.087 281.686C208.463 281.314 207.772 281.128 207.014 281.128C206.256 281.128 205.565 281.307 204.941 281.663C204.317 282.02 203.819 282.54 203.448 283.223C203.076 283.907 202.89 284.709 202.89 285.631C202.89 286.567 203.076 287.384 203.448 288.082C203.819 288.766 204.317 289.293 204.941 289.665C205.565 290.021 206.256 290.2 207.014 290.2C207.772 290.2 208.463 290.021 209.087 289.665C209.726 289.293 210.231 288.766 210.602 288.082C210.974 287.384 211.159 286.574 211.159 285.653Z" fill="white"/>
<path d="M198.136 276.359V291.782H196.107V280.281L190.981 291.782H189.555L184.406 280.259V291.782H182.378V276.359H184.562L190.268 289.108L195.974 276.359H198.136Z" fill="white"/>
<path d="M170.791 281.24V288.439C170.791 289.033 170.917 289.457 171.17 289.709C171.423 289.947 171.861 290.066 172.485 290.066H173.978V291.782H172.151C171.021 291.782 170.174 291.522 169.61 291.002C169.045 290.482 168.763 289.628 168.763 288.439V281.24H167.18V279.568H168.763V276.492H170.791V279.568H173.978V281.24H170.791Z" fill="white"/>
<path d="M154.021 285.653C154.021 284.39 154.274 283.29 154.779 282.354C155.284 281.403 155.982 280.668 156.874 280.148C157.78 279.628 158.813 279.368 159.972 279.368C161.473 279.368 162.706 279.732 163.672 280.46C164.652 281.188 165.299 282.198 165.611 283.491H163.427C163.219 282.748 162.81 282.161 162.201 281.73C161.606 281.299 160.863 281.084 159.972 281.084C158.813 281.084 157.877 281.485 157.164 282.287C156.45 283.075 156.094 284.197 156.094 285.653C156.094 287.124 156.45 288.261 157.164 289.063C157.877 289.865 158.813 290.267 159.972 290.267C160.863 290.267 161.606 290.059 162.201 289.643C162.795 289.226 163.204 288.632 163.427 287.859H165.611C165.284 289.108 164.63 290.111 163.65 290.868C162.669 291.611 161.443 291.983 159.972 291.983C158.813 291.983 157.78 291.723 156.874 291.203C155.982 290.683 155.284 289.947 154.779 288.996C154.274 288.045 154.021 286.931 154.021 285.653Z" fill="white"/>
<path d="M152.102 285.207C152.102 285.593 152.079 286.002 152.035 286.433H142.272C142.347 287.637 142.755 288.58 143.498 289.264C144.256 289.932 145.17 290.267 146.24 290.267C147.116 290.267 147.844 290.066 148.424 289.665C149.018 289.249 149.434 288.699 149.672 288.015H151.856C151.529 289.189 150.876 290.148 149.895 290.891C148.914 291.619 147.696 291.983 146.24 291.983C145.081 291.983 144.041 291.723 143.119 291.203C142.213 290.683 141.5 289.947 140.98 288.996C140.46 288.03 140.2 286.916 140.2 285.653C140.2 284.39 140.452 283.283 140.957 282.332C141.463 281.381 142.168 280.653 143.075 280.148C143.996 279.628 145.051 279.368 146.24 279.368C147.399 279.368 148.424 279.62 149.315 280.125C150.207 280.631 150.891 281.329 151.366 282.221C151.856 283.097 152.102 284.093 152.102 285.207ZM150.006 284.784C150.006 284.011 149.836 283.35 149.494 282.8C149.152 282.235 148.684 281.812 148.09 281.53C147.51 281.232 146.864 281.084 146.151 281.084C145.125 281.084 144.249 281.411 143.521 282.064C142.807 282.718 142.399 283.625 142.295 284.784H150.006Z" fill="white"/>
<path d="M136.521 277.585C136.135 277.585 135.808 277.451 135.54 277.183C135.288 276.916 135.161 276.589 135.161 276.203C135.161 275.816 135.288 275.489 135.54 275.222C135.808 274.955 136.135 274.821 136.521 274.821C136.907 274.821 137.227 274.955 137.479 275.222C137.747 275.489 137.881 275.816 137.881 276.203C137.881 276.589 137.747 276.916 137.479 277.183C137.227 277.451 136.907 277.585 136.521 277.585ZM137.524 294.434C137.524 295.519 137.249 296.314 136.699 296.819C136.15 297.325 135.347 297.577 134.292 297.577H133.111V295.861H133.958C134.523 295.861 134.916 295.749 135.139 295.527C135.377 295.304 135.496 294.925 135.496 294.39V279.568H137.524V294.434Z" fill="white"/>
<path d="M126.499 291.983C125.355 291.983 124.315 291.723 123.379 291.203C122.458 290.683 121.729 289.947 121.195 288.996C120.674 288.03 120.414 286.916 120.414 285.653C120.414 284.405 120.682 283.305 121.217 282.354C121.767 281.388 122.51 280.653 123.446 280.148C124.382 279.628 125.429 279.368 126.588 279.368C127.747 279.368 128.795 279.628 129.731 280.148C130.667 280.653 131.403 281.381 131.937 282.332C132.487 283.283 132.762 284.39 132.762 285.653C132.762 286.916 132.48 288.03 131.915 288.996C131.365 289.947 130.615 290.683 129.664 291.203C128.713 291.723 127.658 291.983 126.499 291.983ZM126.499 290.2C127.227 290.2 127.911 290.029 128.55 289.687C129.189 289.345 129.701 288.833 130.088 288.149C130.489 287.466 130.689 286.634 130.689 285.653C130.689 284.672 130.496 283.84 130.11 283.157C129.723 282.473 129.218 281.968 128.594 281.641C127.97 281.299 127.294 281.128 126.566 281.128C125.823 281.128 125.14 281.299 124.515 281.641C123.906 281.968 123.416 282.473 123.044 283.157C122.673 283.84 122.487 284.672 122.487 285.653C122.487 286.648 122.666 287.488 123.022 288.171C123.394 288.855 123.884 289.368 124.493 289.709C125.102 290.036 125.771 290.2 126.499 290.2Z" fill="white"/>
<path d="M114.886 281.552C115.243 280.854 115.748 280.311 116.401 279.925C117.07 279.539 117.88 279.345 118.831 279.345V281.44H118.296C116.023 281.44 114.886 282.674 114.886 285.14V291.782H112.858V279.568H114.886V281.552Z" fill="white"/>
<path d="M110.337 280.794C110.337 282.087 109.891 283.164 109 284.026C108.123 284.873 106.778 285.296 104.965 285.296H101.979V291.782H99.9506V276.247H104.965C106.719 276.247 108.049 276.671 108.955 277.518C109.876 278.365 110.337 279.457 110.337 280.794ZM104.965 283.625C106.095 283.625 106.927 283.379 107.462 282.889C107.997 282.399 108.264 281.7 108.264 280.794C108.264 278.877 107.165 277.919 104.965 277.919H101.979V283.625H104.965Z" fill="white"/>
<path d="M86 277.518V275.668H90.1902V291.782H88.1397V277.518H86Z" fill="white"/>
<path d="M275.586 464.3L271.311 478H268.961L265.661 467.125L262.361 478H260.011L255.711 464.3H258.036L261.186 475.8L264.586 464.3H266.911L270.236 475.825L273.336 464.3H275.586Z" fill="white"/>
<path d="M247.32 478.225C246.036 478.225 244.87 477.933 243.82 477.35C242.786 476.767 241.97 475.942 241.37 474.875C240.786 473.792 240.495 472.542 240.495 471.125C240.495 469.725 240.795 468.492 241.395 467.425C242.011 466.342 242.845 465.517 243.895 464.95C244.945 464.367 246.12 464.075 247.42 464.075C248.72 464.075 249.895 464.367 250.945 464.95C251.995 465.517 252.82 466.333 253.42 467.4C254.036 468.467 254.345 469.708 254.345 471.125C254.345 472.542 254.028 473.792 253.395 474.875C252.778 475.942 251.936 476.767 250.87 477.35C249.803 477.933 248.62 478.225 247.32 478.225ZM247.32 476.225C248.136 476.225 248.903 476.033 249.62 475.65C250.336 475.267 250.911 474.692 251.345 473.925C251.795 473.158 252.02 472.225 252.02 471.125C252.02 470.025 251.803 469.092 251.37 468.325C250.936 467.558 250.37 466.992 249.67 466.625C248.97 466.242 248.211 466.05 247.395 466.05C246.561 466.05 245.795 466.242 245.095 466.625C244.411 466.992 243.861 467.558 243.445 468.325C243.028 469.092 242.82 470.025 242.82 471.125C242.82 472.242 243.02 473.183 243.42 473.95C243.836 474.717 244.386 475.292 245.07 475.675C245.753 476.042 246.503 476.225 247.32 476.225Z" fill="white"/>
<path d="M232.028 464.05C233.695 464.05 235.045 464.558 236.078 465.575C237.112 466.575 237.628 468.025 237.628 469.925V478H235.378V470.25C235.378 468.883 235.037 467.842 234.353 467.125C233.67 466.392 232.737 466.025 231.553 466.025C230.353 466.025 229.395 466.4 228.678 467.15C227.978 467.9 227.628 468.992 227.628 470.425V478H225.353V464.3H227.628V466.25C228.078 465.55 228.687 465.008 229.453 464.625C230.237 464.242 231.095 464.05 232.028 464.05Z" fill="white"/>
<path d="M215.685 470.625C215.685 471.058 215.66 471.517 215.61 472H204.66C204.744 473.35 205.202 474.408 206.035 475.175C206.885 475.925 207.91 476.3 209.11 476.3C210.094 476.3 210.91 476.075 211.56 475.625C212.227 475.158 212.694 474.542 212.96 473.775H215.41C215.044 475.092 214.31 476.167 213.21 477C212.11 477.817 210.744 478.225 209.11 478.225C207.81 478.225 206.644 477.933 205.61 477.35C204.594 476.767 203.794 475.942 203.21 474.875C202.627 473.792 202.335 472.542 202.335 471.125C202.335 469.708 202.619 468.467 203.185 467.4C203.752 466.333 204.544 465.517 205.56 464.95C206.594 464.367 207.777 464.075 209.11 464.075C210.41 464.075 211.56 464.358 212.56 464.925C213.56 465.492 214.327 466.275 214.86 467.275C215.41 468.258 215.685 469.375 215.685 470.625ZM213.335 470.15C213.335 469.283 213.144 468.542 212.76 467.925C212.377 467.292 211.852 466.817 211.185 466.5C210.535 466.167 209.81 466 209.01 466C207.86 466 206.877 466.367 206.06 467.1C205.26 467.833 204.802 468.85 204.685 470.15H213.335Z" fill="white"/>
<path d="M188.566 466.85C189.032 466.033 189.716 465.367 190.616 464.85C191.516 464.333 192.541 464.075 193.691 464.075C194.924 464.075 196.032 464.367 197.016 464.95C197.999 465.533 198.774 466.358 199.341 467.425C199.907 468.475 200.191 469.7 200.191 471.1C200.191 472.483 199.907 473.717 199.341 474.8C198.774 475.883 197.991 476.725 196.991 477.325C196.007 477.925 194.907 478.225 193.691 478.225C192.507 478.225 191.466 477.967 190.566 477.45C189.682 476.933 189.016 476.275 188.566 475.475V478H186.291V459.5H188.566V466.85ZM197.866 471.1C197.866 470.067 197.657 469.167 197.241 468.4C196.824 467.633 196.257 467.05 195.541 466.65C194.841 466.25 194.066 466.05 193.216 466.05C192.382 466.05 191.607 466.258 190.891 466.675C190.191 467.075 189.624 467.667 189.191 468.45C188.774 469.217 188.566 470.108 188.566 471.125C188.566 472.158 188.774 473.067 189.191 473.85C189.624 474.617 190.191 475.208 190.891 475.625C191.607 476.025 192.382 476.225 193.216 476.225C194.066 476.225 194.841 476.025 195.541 475.625C196.257 475.208 196.824 474.617 197.241 473.85C197.657 473.067 197.866 472.15 197.866 471.1Z" fill="white"/>
<path d="M181.313 462.075C180.88 462.075 180.513 461.925 180.213 461.625C179.913 461.325 179.763 460.958 179.763 460.525C179.763 460.092 179.913 459.725 180.213 459.425C180.513 459.125 180.88 458.975 181.313 458.975C181.73 458.975 182.08 459.125 182.363 459.425C182.663 459.725 182.813 460.092 182.813 460.525C182.813 460.958 182.663 461.325 182.363 461.625C182.08 461.925 181.73 462.075 181.313 462.075ZM182.413 464.3V478H180.138V464.3H182.413Z" fill="white"/>
<path d="M173.087 466.525C173.487 465.742 174.054 465.133 174.787 464.7C175.537 464.267 176.446 464.05 177.512 464.05V466.4H176.912C174.362 466.4 173.087 467.783 173.087 470.55V478H170.812V464.3H173.087V466.525Z" fill="white"/>
<path d="M154.777 471.125C154.777 469.708 155.06 468.475 155.627 467.425C156.193 466.358 156.977 465.533 157.977 464.95C158.993 464.367 160.152 464.075 161.452 464.075C163.135 464.075 164.518 464.483 165.602 465.3C166.702 466.117 167.427 467.25 167.777 468.7H165.327C165.093 467.867 164.635 467.208 163.952 466.725C163.285 466.242 162.452 466 161.452 466C160.152 466 159.102 466.45 158.302 467.35C157.502 468.233 157.102 469.492 157.102 471.125C157.102 472.775 157.502 474.05 158.302 474.95C159.102 475.85 160.152 476.3 161.452 476.3C162.452 476.3 163.285 476.067 163.952 475.6C164.618 475.133 165.077 474.467 165.327 473.6H167.777C167.41 475 166.677 476.125 165.577 476.975C164.477 477.808 163.102 478.225 161.452 478.225C160.152 478.225 158.993 477.933 157.977 477.35C156.977 476.767 156.193 475.942 155.627 474.875C155.06 473.808 154.777 472.558 154.777 471.125Z" fill="white"/>
<path d="M147.415 478.225C146.365 478.225 145.424 478.05 144.59 477.7C143.757 477.333 143.099 476.833 142.615 476.2C142.132 475.55 141.865 474.808 141.815 473.975H144.165C144.232 474.658 144.549 475.217 145.115 475.65C145.699 476.083 146.457 476.3 147.39 476.3C148.257 476.3 148.94 476.108 149.44 475.725C149.94 475.342 150.19 474.858 150.19 474.275C150.19 473.675 149.924 473.233 149.39 472.95C148.857 472.65 148.032 472.358 146.915 472.075C145.899 471.808 145.065 471.542 144.415 471.275C143.782 470.992 143.232 470.583 142.765 470.05C142.315 469.5 142.09 468.783 142.09 467.9C142.09 467.2 142.299 466.558 142.715 465.975C143.132 465.392 143.724 464.933 144.49 464.6C145.257 464.25 146.132 464.075 147.115 464.075C148.632 464.075 149.857 464.458 150.79 465.225C151.724 465.992 152.224 467.042 152.29 468.375H150.015C149.965 467.658 149.674 467.083 149.14 466.65C148.624 466.217 147.924 466 147.04 466C146.224 466 145.574 466.175 145.09 466.525C144.607 466.875 144.365 467.333 144.365 467.9C144.365 468.35 144.507 468.725 144.79 469.025C145.09 469.308 145.457 469.542 145.89 469.725C146.34 469.892 146.957 470.083 147.74 470.3C148.724 470.567 149.524 470.833 150.14 471.1C150.757 471.35 151.282 471.733 151.715 472.25C152.165 472.767 152.399 473.442 152.415 474.275C152.415 475.025 152.207 475.7 151.79 476.3C151.374 476.9 150.782 477.375 150.015 477.725C149.265 478.058 148.399 478.225 147.415 478.225Z" fill="white"/>
<path d="M127.946 466.85C128.412 466.033 129.096 465.367 129.996 464.85C130.896 464.333 131.921 464.075 133.071 464.075C134.304 464.075 135.412 464.367 136.396 464.95C137.379 465.533 138.154 466.358 138.721 467.425C139.287 468.475 139.571 469.7 139.571 471.1C139.571 472.483 139.287 473.717 138.721 474.8C138.154 475.883 137.371 476.725 136.371 477.325C135.387 477.925 134.287 478.225 133.071 478.225C131.887 478.225 130.846 477.967 129.946 477.45C129.062 476.933 128.396 476.275 127.946 475.475V478H125.671V459.5H127.946V466.85ZM137.246 471.1C137.246 470.067 137.037 469.167 136.621 468.4C136.204 467.633 135.637 467.05 134.921 466.65C134.221 466.25 133.446 466.05 132.596 466.05C131.762 466.05 130.987 466.258 130.271 466.675C129.571 467.075 129.004 467.667 128.571 468.45C128.154 469.217 127.946 470.108 127.946 471.125C127.946 472.158 128.154 473.067 128.571 473.85C129.004 474.617 129.571 475.208 130.271 475.625C130.987 476.025 131.762 476.225 132.596 476.225C133.446 476.225 134.221 476.025 134.921 475.625C135.637 475.208 136.204 474.617 136.621 473.85C137.037 473.067 137.246 472.15 137.246 471.1Z" fill="white"/>
<path d="M121.829 464.3V478H119.554V475.975C119.121 476.675 118.513 477.225 117.729 477.625C116.963 478.008 116.113 478.2 115.179 478.2C114.113 478.2 113.154 477.983 112.304 477.55C111.454 477.1 110.779 476.433 110.279 475.55C109.796 474.667 109.554 473.592 109.554 472.325V464.3H111.804V472.025C111.804 473.375 112.146 474.417 112.829 475.15C113.513 475.867 114.446 476.225 115.629 476.225C116.846 476.225 117.804 475.85 118.504 475.1C119.204 474.35 119.554 473.258 119.554 471.825V464.3H121.829Z" fill="white"/>
<path d="M100.532 478.175C99.3816 478.175 98.3483 477.975 97.4316 477.575C96.5316 477.158 95.8233 476.592 95.3066 475.875C94.7899 475.142 94.5233 474.3 94.5066 473.35H96.9316C97.0149 474.167 97.3483 474.858 97.9316 475.425C98.5316 475.975 99.3983 476.25 100.532 476.25C101.615 476.25 102.465 475.983 103.082 475.45C103.715 474.9 104.032 474.2 104.032 473.35C104.032 472.683 103.848 472.142 103.482 471.725C103.115 471.308 102.657 470.992 102.107 470.775C101.557 470.558 100.815 470.325 99.8816 470.075C98.7316 469.775 97.8066 469.475 97.1066 469.175C96.4233 468.875 95.8316 468.408 95.3316 467.775C94.8483 467.125 94.6066 466.258 94.6066 465.175C94.6066 464.225 94.8483 463.383 95.3316 462.65C95.8149 461.917 96.4899 461.35 97.3566 460.95C98.2399 460.55 99.2483 460.35 100.382 460.35C102.015 460.35 103.348 460.758 104.382 461.575C105.432 462.392 106.023 463.475 106.157 464.825H103.657C103.573 464.158 103.223 463.575 102.607 463.075C101.99 462.558 101.173 462.3 100.157 462.3C99.2066 462.3 98.4316 462.55 97.8316 463.05C97.2316 463.533 96.9316 464.217 96.9316 465.1C96.9316 465.733 97.1066 466.25 97.4566 466.65C97.8233 467.05 98.2649 467.358 98.7816 467.575C99.3149 467.775 100.057 468.008 101.007 468.275C102.157 468.592 103.082 468.908 103.782 469.225C104.482 469.525 105.082 470 105.582 470.65C106.082 471.283 106.332 472.15 106.332 473.25C106.332 474.1 106.107 474.9 105.657 475.65C105.207 476.4 104.54 477.008 103.657 477.475C102.773 477.942 101.732 478.175 100.532 478.175Z" fill="white"/>
<path d="M331.472 135.8C334.672 135.8 337.238 136.867 339.172 139C341.105 141.1 342.072 144 342.072 147.7V164H333.572V148.85C333.572 146.983 333.088 145.533 332.122 144.5C331.155 143.467 329.855 142.95 328.222 142.95C326.588 142.95 325.288 143.467 324.322 144.5C323.355 145.533 322.872 146.983 322.872 148.85V164H314.322V127H322.872V139.85C323.738 138.617 324.922 137.633 326.422 136.9C327.922 136.167 329.605 135.8 331.472 135.8Z" fill="white"/>
<path d="M309.559 156.75V164H305.209C302.109 164 299.692 163.25 297.959 161.75C296.226 160.217 295.359 157.733 295.359 154.3V143.2H291.959V136.1H295.359V129.3H303.909V136.1H309.509V143.2H303.909V154.4C303.909 155.233 304.109 155.833 304.509 156.2C304.909 156.567 305.576 156.75 306.509 156.75H309.559Z" fill="white"/>
<path d="M277.318 135.8C280.584 135.8 283.184 136.867 285.118 139C287.084 141.1 288.068 144 288.068 147.7V164H279.568V148.85C279.568 146.983 279.084 145.533 278.118 144.5C277.151 143.467 275.851 142.95 274.218 142.95C272.584 142.95 271.284 143.467 270.318 144.5C269.351 145.533 268.868 146.983 268.868 148.85V164H260.318V136.1H268.868V139.8C269.734 138.567 270.901 137.6 272.368 136.9C273.834 136.167 275.484 135.8 277.318 135.8Z" fill="white"/>
<path d="M241.182 164.4C238.448 164.4 235.982 163.817 233.782 162.65C231.615 161.483 229.898 159.817 228.632 157.65C227.398 155.483 226.782 152.95 226.782 150.05C226.782 147.183 227.415 144.667 228.682 142.5C229.948 140.3 231.682 138.617 233.882 137.45C236.082 136.283 238.548 135.7 241.282 135.7C244.015 135.7 246.482 136.283 248.682 137.45C250.882 138.617 252.615 140.3 253.882 142.5C255.148 144.667 255.782 147.183 255.782 150.05C255.782 152.917 255.132 155.45 253.832 157.65C252.565 159.817 250.815 161.483 248.582 162.65C246.382 163.817 243.915 164.4 241.182 164.4ZM241.182 157C242.815 157 244.198 156.4 245.332 155.2C246.498 154 247.082 152.283 247.082 150.05C247.082 147.817 246.515 146.1 245.382 144.9C244.282 143.7 242.915 143.1 241.282 143.1C239.615 143.1 238.232 143.7 237.132 144.9C236.032 146.067 235.482 147.783 235.482 150.05C235.482 152.283 236.015 154 237.082 155.2C238.182 156.4 239.548 157 241.182 157Z" fill="white"/>
<path d="M211.152 135.8C214.619 135.8 217.369 136.85 219.402 138.95C221.469 141.05 222.502 143.967 222.502 147.7V164H214.002V148.85C214.002 147.05 213.519 145.667 212.552 144.7C211.619 143.7 210.319 143.2 208.652 143.2C206.985 143.2 205.669 143.7 204.702 144.7C203.769 145.667 203.302 147.05 203.302 148.85V164H194.802V148.85C194.802 147.05 194.319 145.667 193.352 144.7C192.419 143.7 191.119 143.2 189.452 143.2C187.785 143.2 186.469 143.7 185.502 144.7C184.569 145.667 184.102 147.05 184.102 148.85V164H175.552V136.1H184.102V139.6C184.969 138.433 186.102 137.517 187.502 136.85C188.902 136.15 190.485 135.8 192.252 135.8C194.352 135.8 196.219 136.25 197.852 137.15C199.519 138.05 200.819 139.333 201.752 141C202.719 139.467 204.035 138.217 205.702 137.25C207.369 136.283 209.185 135.8 211.152 135.8Z" fill="white"/>
<path d="M171.946 116.5L158.546 173.35H150.296L163.696 116.5H171.946Z" fill="white"/>
<path d="M146.536 153.8C146.536 155.633 146.052 157.333 145.086 158.9C144.152 160.433 142.752 161.7 140.886 162.7C139.052 163.667 136.869 164.2 134.336 164.3V168.35H131.136V164.25C127.602 163.95 124.752 162.9 122.586 161.1C120.419 159.267 119.269 156.783 119.136 153.65H128.236C128.436 155.65 129.402 156.933 131.136 157.5V149.6C128.536 148.933 126.452 148.283 124.886 147.65C123.352 147.017 122.002 146 120.836 144.6C119.669 143.2 119.086 141.283 119.086 138.85C119.086 135.817 120.202 133.383 122.436 131.55C124.702 129.717 127.602 128.683 131.136 128.45V124.4H134.336V128.45C137.836 128.717 140.602 129.733 142.636 131.5C144.669 133.267 145.802 135.717 146.036 138.85H136.886C136.686 137.05 135.836 135.883 134.336 135.35V143.1C137.102 143.867 139.236 144.55 140.736 145.15C142.236 145.75 143.569 146.75 144.736 148.15C145.936 149.517 146.536 151.4 146.536 153.8ZM128.136 138.45C128.136 139.283 128.386 139.983 128.886 140.55C129.419 141.117 130.169 141.617 131.136 142.05V135.1C130.202 135.267 129.469 135.633 128.936 136.2C128.402 136.733 128.136 137.483 128.136 138.45ZM134.336 157.65C135.336 157.483 136.119 157.083 136.686 156.45C137.286 155.817 137.586 155.033 137.586 154.1C137.586 153.233 137.302 152.533 136.736 152C136.202 151.433 135.402 150.95 134.336 150.55V157.65Z" fill="white"/>
<path d="M86.5186 145.25C86.5186 139.517 87.6186 135 89.8186 131.7C92.0519 128.4 95.6352 126.75 100.569 126.75C105.502 126.75 109.069 128.4 111.269 131.7C113.502 135 114.619 139.517 114.619 145.25C114.619 151.05 113.502 155.6 111.269 158.9C109.069 162.2 105.502 163.85 100.569 163.85C95.6352 163.85 92.0519 162.2 89.8186 158.9C87.6186 155.6 86.5186 151.05 86.5186 145.25ZM106.219 145.25C106.219 141.883 105.852 139.3 105.119 137.5C104.385 135.667 102.869 134.75 100.569 134.75C98.2686 134.75 96.7519 135.667 96.0186 137.5C95.2852 139.3 94.9186 141.883 94.9186 145.25C94.9186 147.517 95.0519 149.4 95.3186 150.9C95.5852 152.367 96.1186 153.567 96.9186 154.5C97.7519 155.4 98.9686 155.85 100.569 155.85C102.169 155.85 103.369 155.4 104.169 154.5C105.002 153.567 105.552 152.367 105.819 150.9C106.085 149.4 106.219 147.517 106.219 145.25Z" fill="white"/>
<path d="M53.9014 145.25C53.9014 139.517 55.0014 135 57.2014 131.7C59.4347 128.4 63.018 126.75 67.9514 126.75C72.8847 126.75 76.4514 128.4 78.6514 131.7C80.8847 135 82.0014 139.517 82.0014 145.25C82.0014 151.05 80.8847 155.6 78.6514 158.9C76.4514 162.2 72.8847 163.85 67.9514 163.85C63.018 163.85 59.4347 162.2 57.2014 158.9C55.0014 155.6 53.9014 151.05 53.9014 145.25ZM73.6014 145.25C73.6014 141.883 73.2347 139.3 72.5014 137.5C71.768 135.667 70.2514 134.75 67.9514 134.75C65.6514 134.75 64.1347 135.667 63.4014 137.5C62.668 139.3 62.3014 141.883 62.3014 145.25C62.3014 147.517 62.4347 149.4 62.7014 150.9C62.968 152.367 63.5014 153.567 64.3014 154.5C65.1347 155.4 66.3514 155.85 67.9514 155.85C69.5514 155.85 70.7514 155.4 71.5514 154.5C72.3847 153.567 72.9347 152.367 73.2014 150.9C73.468 149.4 73.6014 147.517 73.6014 145.25Z" fill="white"/>
<path d="M25.0369 157.15C26.1702 156.25 26.6869 155.833 26.5869 155.9C29.8536 153.2 32.4202 150.983 34.2869 149.25C36.1869 147.517 37.7869 145.7 39.0869 143.8C40.3869 141.9 41.0369 140.05 41.0369 138.25C41.0369 136.883 40.7202 135.817 40.0869 135.05C39.4536 134.283 38.5036 133.9 37.2369 133.9C35.9702 133.9 34.9702 134.383 34.2369 135.35C33.5369 136.283 33.1869 137.617 33.1869 139.35H24.9369C25.0036 136.517 25.6036 134.15 26.7369 132.25C27.9036 130.35 29.4202 128.95 31.2869 128.05C33.1869 127.15 35.2869 126.7 37.5869 126.7C41.5536 126.7 44.5369 127.717 46.5369 129.75C48.5702 131.783 49.5869 134.433 49.5869 137.7C49.5869 141.267 48.3702 144.583 45.9369 147.65C43.5036 150.683 40.4036 153.65 36.6369 156.55H50.1369V163.5H25.0369V157.15Z" fill="white"/>
<path d="M117.168 391.664H247.821V392.864H117.168V391.664Z" fill="white"/>
<path d="M241.797 389.48C240.789 389.48 239.885 389.312 239.085 388.976C238.285 388.624 237.653 388.144 237.189 387.536C236.725 386.912 236.469 386.2 236.421 385.4H238.677C238.741 386.056 239.045 386.592 239.589 387.008C240.149 387.424 240.877 387.632 241.773 387.632C242.605 387.632 243.261 387.448 243.741 387.08C244.221 386.712 244.461 386.248 244.461 385.688C244.461 385.112 244.205 384.688 243.693 384.416C243.181 384.128 242.389 383.848 241.317 383.576C240.341 383.32 239.541 383.064 238.917 382.808C238.309 382.536 237.781 382.144 237.333 381.632C236.901 381.104 236.685 380.416 236.685 379.568C236.685 378.896 236.885 378.28 237.285 377.72C237.685 377.16 238.253 376.72 238.989 376.4C239.725 376.064 240.565 375.896 241.509 375.896C242.965 375.896 244.141 376.264 245.037 377C245.933 377.736 246.413 378.744 246.477 380.024H244.293C244.245 379.336 243.965 378.784 243.453 378.368C242.957 377.952 242.285 377.744 241.437 377.744C240.653 377.744 240.029 377.912 239.565 378.248C239.101 378.584 238.869 379.024 238.869 379.568C238.869 380 239.005 380.36 239.277 380.648C239.565 380.92 239.917 381.144 240.333 381.32C240.765 381.48 241.357 381.664 242.109 381.872C243.053 382.128 243.821 382.384 244.413 382.64C245.005 382.88 245.509 383.248 245.925 383.744C246.357 384.24 246.581 384.888 246.597 385.688C246.597 386.408 246.397 387.056 245.997 387.632C245.597 388.208 245.029 388.664 244.293 389C243.573 389.32 242.741 389.48 241.797 389.48Z" fill="white"/>
<path d="M233.419 371.504V389.264H231.235V371.504H233.419Z" fill="white"/>
<path d="M226.457 373.976C226.041 373.976 225.689 373.832 225.401 373.544C225.113 373.256 224.969 372.904 224.969 372.488C224.969 372.072 225.113 371.72 225.401 371.432C225.689 371.144 226.041 371 226.457 371C226.857 371 227.193 371.144 227.465 371.432C227.753 371.72 227.897 372.072 227.897 372.488C227.897 372.904 227.753 373.256 227.465 373.544C227.193 373.832 226.857 373.976 226.457 373.976ZM227.513 376.112V389.264H225.329V376.112H227.513Z" fill="white"/>
<path d="M208.294 382.64C208.294 381.296 208.566 380.12 209.11 379.112C209.654 378.088 210.398 377.296 211.342 376.736C212.302 376.176 213.366 375.896 214.534 375.896C215.686 375.896 216.686 376.144 217.534 376.64C218.382 377.136 219.014 377.76 219.43 378.512V376.112H221.638V389.264H219.43V386.816C218.998 387.584 218.35 388.224 217.486 388.736C216.638 389.232 215.646 389.48 214.51 389.48C213.342 389.48 212.286 389.192 211.342 388.616C210.398 388.04 209.654 387.232 209.11 386.192C208.566 385.152 208.294 383.968 208.294 382.64ZM219.43 382.664C219.43 381.672 219.23 380.808 218.83 380.072C218.43 379.336 217.886 378.776 217.198 378.392C216.526 377.992 215.782 377.792 214.966 377.792C214.15 377.792 213.406 377.984 212.734 378.368C212.062 378.752 211.526 379.312 211.126 380.048C210.726 380.784 210.526 381.648 210.526 382.64C210.526 383.648 210.726 384.528 211.126 385.28C211.526 386.016 212.062 386.584 212.734 386.984C213.406 387.368 214.15 387.56 214.966 387.56C215.782 387.56 216.526 387.368 217.198 386.984C217.886 386.584 218.43 386.016 218.83 385.28C219.23 384.528 219.43 383.656 219.43 382.664Z" fill="white"/>
<path d="M203.032 377.912V385.664C203.032 386.304 203.168 386.76 203.44 387.032C203.712 387.288 204.184 387.416 204.856 387.416H206.464V389.264H204.496C203.28 389.264 202.368 388.984 201.76 388.424C201.152 387.864 200.848 386.944 200.848 385.664V377.912H199.144V376.112H200.848V372.8H203.032V376.112H206.464V377.912H203.032Z" fill="white"/>
<path d="M197.485 382.184C197.485 382.6 197.461 383.04 197.413 383.504H186.901C186.981 384.8 187.421 385.816 188.221 386.552C189.037 387.272 190.021 387.632 191.173 387.632C192.117 387.632 192.901 387.416 193.525 386.984C194.165 386.536 194.613 385.944 194.869 385.208H197.221C196.869 386.472 196.165 387.504 195.109 388.304C194.053 389.088 192.741 389.48 191.173 389.48C189.925 389.48 188.805 389.2 187.813 388.64C186.837 388.08 186.069 387.288 185.509 386.264C184.949 385.224 184.669 384.024 184.669 382.664C184.669 381.304 184.941 380.112 185.485 379.088C186.029 378.064 186.789 377.28 187.765 376.736C188.757 376.176 189.893 375.896 191.173 375.896C192.421 375.896 193.525 376.168 194.485 376.712C195.445 377.256 196.181 378.008 196.693 378.968C197.221 379.912 197.485 380.984 197.485 382.184ZM195.229 381.728C195.229 380.896 195.045 380.184 194.677 379.592C194.309 378.984 193.805 378.528 193.165 378.224C192.541 377.904 191.845 377.744 191.077 377.744C189.973 377.744 189.029 378.096 188.245 378.8C187.477 379.504 187.037 380.48 186.925 381.728H195.229Z" fill="white"/>
<path d="M168.45 382.64C168.45 381.296 168.722 380.12 169.266 379.112C169.81 378.088 170.554 377.296 171.498 376.736C172.458 376.176 173.53 375.896 174.714 375.896C175.738 375.896 176.69 376.136 177.57 376.616C178.45 377.08 179.122 377.696 179.586 378.464V371.504H181.794V389.264H179.586V386.792C179.154 387.576 178.514 388.224 177.666 388.736C176.818 389.232 175.826 389.48 174.69 389.48C173.522 389.48 172.458 389.192 171.498 388.616C170.554 388.04 169.81 387.232 169.266 386.192C168.722 385.152 168.45 383.968 168.45 382.64ZM179.586 382.664C179.586 381.672 179.386 380.808 178.986 380.072C178.586 379.336 178.042 378.776 177.354 378.392C176.682 377.992 175.938 377.792 175.122 377.792C174.306 377.792 173.562 377.984 172.89 378.368C172.218 378.752 171.682 379.312 171.282 380.048C170.882 380.784 170.682 381.648 170.682 382.64C170.682 383.648 170.882 384.528 171.282 385.28C171.682 386.016 172.218 386.584 172.89 386.984C173.562 387.368 174.306 387.56 175.122 387.56C175.938 387.56 176.682 387.368 177.354 386.984C178.042 386.584 178.586 386.016 178.986 385.28C179.386 384.528 179.586 383.656 179.586 382.664Z" fill="white"/>
<path d="M159.985 382.184C159.985 382.6 159.961 383.04 159.913 383.504H149.401C149.481 384.8 149.921 385.816 150.721 386.552C151.537 387.272 152.521 387.632 153.673 387.632C154.617 387.632 155.401 387.416 156.025 386.984C156.665 386.536 157.113 385.944 157.369 385.208H159.721C159.369 386.472 158.665 387.504 157.609 388.304C156.553 389.088 155.241 389.48 153.673 389.48C152.425 389.48 151.305 389.2 150.313 388.64C149.337 388.08 148.569 387.288 148.009 386.264C147.449 385.224 147.169 384.024 147.169 382.664C147.169 381.304 147.441 380.112 147.985 379.088C148.529 378.064 149.289 377.28 150.265 376.736C151.257 376.176 152.393 375.896 153.673 375.896C154.921 375.896 156.025 376.168 156.985 376.712C157.945 377.256 158.681 378.008 159.193 378.968C159.721 379.912 159.985 380.984 159.985 382.184ZM157.729 381.728C157.729 380.896 157.545 380.184 157.177 379.592C156.809 378.984 156.305 378.528 155.665 378.224C155.041 377.904 154.345 377.744 153.577 377.744C152.473 377.744 151.529 378.096 150.745 378.8C149.977 379.504 149.537 380.48 149.425 381.728H157.729Z" fill="white"/>
<path d="M145.102 382.184C145.102 382.6 145.078 383.04 145.03 383.504H134.518C134.598 384.8 135.038 385.816 135.838 386.552C136.654 387.272 137.638 387.632 138.79 387.632C139.734 387.632 140.518 387.416 141.142 386.984C141.782 386.536 142.23 385.944 142.486 385.208H144.838C144.486 386.472 143.782 387.504 142.726 388.304C141.67 389.088 140.358 389.48 138.79 389.48C137.542 389.48 136.422 389.2 135.43 388.64C134.454 388.08 133.686 387.288 133.126 386.264C132.566 385.224 132.286 384.024 132.286 382.664C132.286 381.304 132.558 380.112 133.102 379.088C133.646 378.064 134.406 377.28 135.382 376.736C136.374 376.176 137.51 375.896 138.79 375.896C140.038 375.896 141.142 376.168 142.102 376.712C143.062 377.256 143.798 378.008 144.31 378.968C144.838 379.912 145.102 380.984 145.102 382.184ZM142.846 381.728C142.846 380.896 142.662 380.184 142.294 379.592C141.926 378.984 141.422 378.528 140.782 378.224C140.158 377.904 139.462 377.744 138.694 377.744C137.59 377.744 136.646 378.096 135.862 378.8C135.094 379.504 134.654 380.48 134.542 381.728H142.846Z" fill="white"/>
<path d="M124.32 389.432C123.216 389.432 122.224 389.24 121.344 388.856C120.48 388.456 119.8 387.912 119.304 387.224C118.808 386.52 118.552 385.712 118.536 384.8H120.864C120.944 385.584 121.264 386.248 121.824 386.792C122.4 387.32 123.232 387.584 124.32 387.584C125.36 387.584 126.176 387.328 126.768 386.816C127.376 386.288 127.68 385.616 127.68 384.8C127.68 384.16 127.504 383.64 127.152 383.24C126.8 382.84 126.36 382.536 125.832 382.328C125.304 382.12 124.592 381.896 123.696 381.656C122.592 381.368 121.704 381.08 121.032 380.792C120.376 380.504 119.808 380.056 119.328 379.448C118.864 378.824 118.632 377.992 118.632 376.952C118.632 376.04 118.864 375.232 119.328 374.528C119.792 373.824 120.44 373.28 121.272 372.896C122.12 372.512 123.088 372.32 124.176 372.32C125.744 372.32 127.024 372.712 128.016 373.496C129.024 374.28 129.592 375.32 129.72 376.616H127.32C127.24 375.976 126.904 375.416 126.312 374.936C125.72 374.44 124.936 374.192 123.96 374.192C123.048 374.192 122.304 374.432 121.728 374.912C121.152 375.376 120.864 376.032 120.864 376.88C120.864 377.488 121.032 377.984 121.368 378.368C121.72 378.752 122.144 379.048 122.64 379.256C123.152 379.448 123.864 379.672 124.776 379.928C125.88 380.232 126.768 380.536 127.44 380.84C128.112 381.128 128.688 381.584 129.168 382.208C129.648 382.816 129.888 383.648 129.888 384.704C129.888 385.52 129.672 386.288 129.24 387.008C128.808 387.728 128.168 388.312 127.32 388.76C126.472 389.208 125.472 389.432 124.32 389.432Z" fill="white"/>
<rect x="1" y="194" width="367" height="32" fill="#DEE13E"/>
<path d="M108.635 205.722V202.86H113.621V216H110.417V205.722H108.635Z" fill="black"/>
<path d="M115.727 209.25C115.727 207.186 116.123 205.56 116.915 204.372C117.719 203.184 119.009 202.59 120.785 202.59C122.561 202.59 123.845 203.184 124.637 204.372C125.441 205.56 125.843 207.186 125.843 209.25C125.843 211.338 125.441 212.976 124.637 214.164C123.845 215.352 122.561 215.946 120.785 215.946C119.009 215.946 117.719 215.352 116.915 214.164C116.123 212.976 115.727 211.338 115.727 209.25ZM122.819 209.25C122.819 208.038 122.687 207.108 122.423 206.46C122.159 205.8 121.613 205.47 120.785 205.47C119.957 205.47 119.411 205.8 119.147 206.46C118.883 207.108 118.751 208.038 118.751 209.25C118.751 210.066 118.799 210.744 118.895 211.284C118.991 211.812 119.183 212.244 119.471 212.58C119.771 212.904 120.209 213.066 120.785 213.066C121.361 213.066 121.793 212.904 122.081 212.58C122.381 212.244 122.579 211.812 122.675 211.284C122.771 210.744 122.819 210.066 122.819 209.25Z" fill="black"/>
<path d="M127.217 206.172C127.217 205.2 127.493 204.45 128.045 203.922C128.609 203.394 129.335 203.13 130.223 203.13C131.111 203.13 131.831 203.394 132.383 203.922C132.935 204.45 133.211 205.2 133.211 206.172C133.211 207.144 132.935 207.894 132.383 208.422C131.831 208.95 131.111 209.214 130.223 209.214C129.335 209.214 128.609 208.95 128.045 208.422C127.493 207.894 127.217 207.144 127.217 206.172ZM139.439 203.328L132.509 216H129.539L136.469 203.328H139.439ZM130.205 204.93C129.629 204.93 129.341 205.344 129.341 206.172C129.341 206.988 129.629 207.396 130.205 207.396C130.481 207.396 130.697 207.294 130.853 207.09C131.009 206.886 131.087 206.58 131.087 206.172C131.087 205.344 130.793 204.93 130.205 204.93ZM135.785 213.156C135.785 212.184 136.061 211.434 136.613 210.906C137.165 210.378 137.885 210.114 138.773 210.114C139.661 210.114 140.381 210.378 140.933 210.906C141.485 211.434 141.761 212.184 141.761 213.156C141.761 214.128 141.485 214.878 140.933 215.406C140.381 215.934 139.661 216.198 138.773 216.198C137.885 216.198 137.165 215.934 136.613 215.406C136.061 214.878 135.785 214.128 135.785 213.156ZM138.755 211.914C138.479 211.914 138.263 212.016 138.107 212.22C137.963 212.424 137.891 212.736 137.891 213.156C137.891 213.972 138.179 214.38 138.755 214.38C139.031 214.38 139.247 214.278 139.403 214.074C139.559 213.87 139.637 213.564 139.637 213.156C139.637 212.748 139.559 212.442 139.403 212.238C139.247 212.022 139.031 211.914 138.755 211.914Z" fill="black"/>
<path d="M151.824 216.144C150.84 216.144 149.952 215.934 149.16 215.514C148.38 215.094 147.762 214.494 147.306 213.714C146.862 212.934 146.64 212.022 146.64 210.978C146.64 209.946 146.868 209.04 147.324 208.26C147.78 207.468 148.404 206.862 149.196 206.442C149.988 206.022 150.876 205.812 151.86 205.812C152.844 205.812 153.732 206.022 154.524 206.442C155.316 206.862 155.94 207.468 156.396 208.26C156.852 209.04 157.08 209.946 157.08 210.978C157.08 212.01 156.846 212.922 156.378 213.714C155.922 214.494 155.292 215.094 154.488 215.514C153.696 215.934 152.808 216.144 151.824 216.144ZM151.824 213.48C152.412 213.48 152.91 213.264 153.318 212.832C153.738 212.4 153.948 211.782 153.948 210.978C153.948 210.174 153.744 209.556 153.336 209.124C152.94 208.692 152.448 208.476 151.86 208.476C151.26 208.476 150.762 208.692 150.366 209.124C149.97 209.544 149.772 210.162 149.772 210.978C149.772 211.782 149.964 212.4 150.348 212.832C150.744 213.264 151.236 213.48 151.824 213.48Z" fill="black"/>
<path d="M163.753 208.512H162.097V216H159.019V208.512H157.903V205.956H159.019V205.668C159.019 204.432 159.373 203.496 160.081 202.86C160.789 202.212 161.827 201.888 163.195 201.888C163.423 201.888 163.591 201.894 163.699 201.906V204.516C163.111 204.48 162.697 204.564 162.457 204.768C162.217 204.972 162.097 205.338 162.097 205.866V205.956H163.753V208.512Z" fill="black"/>
<path d="M170.239 208.512H168.583V216H165.505V208.512H164.389V205.956H165.505V205.668C165.505 204.432 165.859 203.496 166.567 202.86C167.275 202.212 168.313 201.888 169.681 201.888C169.909 201.888 170.077 201.894 170.185 201.906V204.516C169.597 204.48 169.183 204.564 168.943 204.768C168.703 204.972 168.583 205.338 168.583 205.866V205.956H170.239V208.512Z" fill="black"/>
<path d="M180.072 216.144C179.088 216.144 178.2 215.934 177.408 215.514C176.628 215.094 176.01 214.494 175.554 213.714C175.11 212.934 174.888 212.022 174.888 210.978C174.888 209.946 175.116 209.04 175.572 208.26C176.028 207.468 176.652 206.862 177.444 206.442C178.236 206.022 179.124 205.812 180.108 205.812C181.092 205.812 181.98 206.022 182.772 206.442C183.564 206.862 184.188 207.468 184.644 208.26C185.1 209.04 185.328 209.946 185.328 210.978C185.328 212.01 185.094 212.922 184.626 213.714C184.17 214.494 183.54 215.094 182.736 215.514C181.944 215.934 181.056 216.144 180.072 216.144ZM180.072 213.48C180.66 213.48 181.158 213.264 181.566 212.832C181.986 212.4 182.196 211.782 182.196 210.978C182.196 210.174 181.992 209.556 181.584 209.124C181.188 208.692 180.696 208.476 180.108 208.476C179.508 208.476 179.01 208.692 178.614 209.124C178.218 209.544 178.02 210.162 178.02 210.978C178.02 211.782 178.212 212.4 178.596 212.832C178.992 213.264 179.484 213.48 180.072 213.48Z" fill="black"/>
<path d="M193.081 205.848C194.257 205.848 195.193 206.232 195.889 207C196.597 207.756 196.951 208.8 196.951 210.132V216H193.891V210.546C193.891 209.874 193.717 209.352 193.369 208.98C193.021 208.608 192.553 208.422 191.965 208.422C191.377 208.422 190.909 208.608 190.561 208.98C190.213 209.352 190.039 209.874 190.039 210.546V216H186.961V205.956H190.039V207.288C190.351 206.844 190.771 206.496 191.299 206.244C191.827 205.98 192.421 205.848 193.081 205.848Z" fill="black"/>
<path d="M213.164 205.956L206.864 220.77H203.552L205.856 215.658L201.77 205.956H205.208L207.53 212.238L209.834 205.956H213.164Z" fill="black"/>
<path d="M223.745 210.816C223.745 211.104 223.727 211.404 223.691 211.716H216.725C216.773 212.34 216.971 212.82 217.319 213.156C217.679 213.48 218.117 213.642 218.633 213.642C219.401 213.642 219.935 213.318 220.235 212.67H223.511C223.343 213.33 223.037 213.924 222.593 214.452C222.161 214.98 221.615 215.394 220.955 215.694C220.295 215.994 219.557 216.144 218.741 216.144C217.757 216.144 216.881 215.934 216.113 215.514C215.345 215.094 214.745 214.494 214.313 213.714C213.881 212.934 213.665 212.022 213.665 210.978C213.665 209.934 213.875 209.022 214.295 208.242C214.727 207.462 215.327 206.862 216.095 206.442C216.863 206.022 217.745 205.812 218.741 205.812C219.713 205.812 220.577 206.016 221.333 206.424C222.089 206.832 222.677 207.414 223.097 208.17C223.529 208.926 223.745 209.808 223.745 210.816ZM220.595 210.006C220.595 209.478 220.415 209.058 220.055 208.746C219.695 208.434 219.245 208.278 218.705 208.278C218.189 208.278 217.751 208.428 217.391 208.728C217.043 209.028 216.827 209.454 216.743 210.006H220.595Z" fill="black"/>
<path d="M224.757 210.96C224.757 209.928 224.949 209.022 225.333 208.242C225.729 207.462 226.263 206.862 226.935 206.442C227.607 206.022 228.357 205.812 229.185 205.812C229.893 205.812 230.511 205.956 231.039 206.244C231.579 206.532 231.993 206.91 232.281 207.378V205.956H235.359V216H232.281V214.578C231.981 215.046 231.561 215.424 231.021 215.712C230.493 216 229.875 216.144 229.167 216.144C228.351 216.144 227.607 215.934 226.935 215.514C226.263 215.082 225.729 214.476 225.333 213.696C224.949 212.904 224.757 211.992 224.757 210.96ZM232.281 210.978C232.281 210.21 232.065 209.604 231.633 209.16C231.213 208.716 230.697 208.494 230.085 208.494C229.473 208.494 228.951 208.716 228.519 209.16C228.099 209.592 227.889 210.192 227.889 210.96C227.889 211.728 228.099 212.34 228.519 212.796C228.951 213.24 229.473 213.462 230.085 213.462C230.697 213.462 231.213 213.24 231.633 212.796C232.065 212.352 232.281 211.746 232.281 210.978Z" fill="black"/>
<path d="M240.664 207.63C241.024 207.078 241.474 206.646 242.014 206.334C242.554 206.01 243.154 205.848 243.814 205.848V209.106H242.968C242.2 209.106 241.624 209.274 241.24 209.61C240.856 209.934 240.664 210.51 240.664 211.338V216H237.586V205.956H240.664V207.63Z" fill="black"/>
<path d="M248.363 202.68V216H245.285V202.68H248.363Z" fill="black"/>
<path d="M260.854 205.956L254.553 220.77H251.242L253.546 215.658L249.46 205.956H252.898L255.219 212.238L257.523 205.956H260.854Z" fill="black"/>
</svg>
