<svg width="175" height="60" viewBox="0 0 175 60" fill="none" xmlns="http://www.w3.org/2000/svg">
<g clip-path="url(#clip0_316_27)">
<path d="M69.3001 59.0999C69.1001 59.0999 68.9001 59.0999 68.7001 59.0999C66.5001 58.8999 64.6001 57.5999 63.7001 55.5999C62.6001 53.3999 62.6001 50.9999 62.7001 48.6999C62.7001 47.4999 63.7001 46.5999 64.9001 46.6999C66.1001 46.6999 66.9001 47.5999 66.9001 48.7999V48.8999C66.9001 50.6999 66.8001 52.4999 67.6001 53.7999C68.0001 54.4999 68.7001 54.8999 69.5001 54.8999C69.8001 54.8999 70.0001 54.7999 70.1001 54.6999C70.2001 54.5999 70.3001 54.3999 70.2001 54.0999C70.1001 52.3999 69.4001 50.5999 68.7001 49.3999C67.9001 47.8999 66.9001 46.5999 65.7001 45.4999C64.9001 44.6999 64.8001 43.4999 65.6001 42.5999C66.4001 41.6999 67.7001 41.6999 68.6001 42.4999C70.5001 44.1999 72.0001 46.3999 73.0001 48.7999C73.5001 49.8999 73.8001 50.9999 74.1001 52.0999C74.4001 53.4999 74.6001 54.8999 73.9001 56.3999C73.0001 58.2999 71.1001 59.0999 69.3001 59.0999Z" fill="black"/>
<path d="M24.2 0.5V5H5.6V19.4H20.7V24H5.6V43.3H0V0.5H24.2Z" fill="black"/>
<path d="M45.4001 27C45.4001 26.9 45.4001 26.9 45.4001 26.8C45.3001 26.5 45.2001 26.2 45.0001 25.9L44.9001 25.8C44.4001 25.2 44.2001 24.9 43.5001 24.5L42.7001 24.2C42.4001 24.2 42.1001 24.1 41.8001 24.1C41.7001 24.1 41.7001 24 41.6001 24C41.3001 23.9 41.0001 23.7 40.6001 23.6H40.5001C40.2001 23.5 39.9001 23.5 39.5001 23.5C39.4001 23.5 39.4001 23.5 39.3001 23.5C39.0001 23.5 38.7001 23.6 38.4001 23.6H38.3001C37.5001 23.8 36.7001 24.3 36.2001 24.9C35.6001 25.6 35.2001 26.2 34.9001 27.1C34.8001 27.3 34.8001 27.4 34.8001 27.6C34.7001 28 34.6001 28.5 34.7001 28.9C34.7001 29.3 34.8001 29.6 34.8001 30C34.8001 30.1 34.8001 30.2 34.9001 30.2C35.0001 30.6 35.2001 31 35.4001 31.4C35.6001 31.7 35.8001 32 36.0001 32.2C36.2001 32.5 36.5001 32.7 36.8001 32.9C37.2001 33.2 37.6001 33.3 38.0001 33.5C38.1001 33.5 38.2001 33.6 38.3001 33.6C38.7001 33.7 39.0001 33.7 39.4001 33.7C39.9001 33.7 40.3001 33.6 40.8001 33.5C41.1001 33.4 41.5001 33.2 41.8001 33.1C41.9001 33.1 42.0001 33 42.1001 33C42.2001 33 42.3001 32.9 42.3001 32.8C42.6001 32.6 42.9001 32.4 43.1001 32.2H43.2001L43.3001 32.1C43.6001 31.9 43.8001 31.7 44.0001 31.5C44.2001 31.3 44.4001 31 44.6001 30.7C44.8001 30.4 45.0001 30 45.1001 29.7C45.1001 29.6 45.2001 29.5 45.2001 29.4C45.3001 29 45.4001 28.6 45.3001 28.3C45.5001 27.7 45.4001 27.3 45.4001 27Z" fill="black"/>
<path d="M34.4998 41C31.1998 39.1 28.5998 36.5 26.6998 33.2C24.7998 29.9 23.7998 26.1 23.7998 21.9C23.7998 17.7 24.7998 14 26.6998 10.6C28.5998 7.3 31.1998 4.7 34.4998 2.8C37.7998 0.9 41.3998 0 45.3998 0C49.3998 0 53.0998 0.9 56.2998 2.8C59.5998 4.7 62.1998 7.3 63.9998 10.6C65.8998 13.9 66.7998 17.7 66.7998 21.9C66.7998 26.1 65.8998 29.9 63.9998 33.2C62.0998 36.5 59.4998 39.1 56.2998 41C52.9998 42.9 49.3998 43.8 45.3998 43.8C41.3998 43.8 37.7998 42.8 34.4998 41ZM53.4998 36.8C55.8998 35.4 57.7998 33.4 59.1998 30.8C60.5998 28.2 61.2998 25.2 61.2998 21.8C61.2998 18.4 60.5998 15.4 59.1998 12.8C57.7998 10.2 55.9998 8.3 53.5998 6.9C51.1998 5.5 48.4998 4.8 45.4998 4.8C42.4998 4.8 39.7998 5.5 37.3998 6.9C34.9998 8.3 33.0998 10.3 31.7998 12.8C30.3998 15.4 29.6998 18.4 29.6998 21.8C29.6998 25.2 30.3998 28.2 31.7998 30.8C33.1998 33.4 35.0998 35.4 37.4998 36.8C39.8998 38.2 42.5998 38.9 45.5998 38.9C48.3998 38.9 51.0998 38.2 53.4998 36.8Z" fill="black"/>
<path d="M99.4 16.3C99.2 15.5 98.7 14.8 98 14.5C98 14.5 98 14.5 97.9 14.5C97.7 14.4 97.3 14.2 97.1 14.2C97.1 14.2 97.1 14.2 97 14.2C96.9 14.2 96.5 14.1 96.3 14.1C96.2 14.1 96.2 14 96.1 14C95.3 13.6 94.7 13.4 93.9 13.3C93.4 13.2 92.8 13.3 92.3 13.5C91.8 13.7 91.3 13.9 90.9 14.3C90.5 14.7 90.3 15.1 90.1 15.7C90.1 15.8 90.1 15.8 90 15.9C90 16.2 90 16.6 90 17C90 17.2 90 17.4 90.1 17.6C90.1 17.8 90.1 18 90.2 18.2C90.3 18.6 90.5 19 90.6 19.3C90.7 19.4 90.7 19.5 90.8 19.7C90.8 19.8 90.9 19.8 90.9 19.9C90.9 20 90.9 20 90.9 20.1C90.8 20.5 90.8 20.9 91 21.3C91.2 22 91.7 22.8 92.4 23.1C93.1 23.5 94 23.7 94.8 23.4C95.6 23.2 96.5 22.7 97.1 22C97.3 21.7 97.5 21.5 97.7 21.2C97.8 21.1 97.8 21 97.9 20.9C98 20.7 98.1 20.4 98.2 20.2C98.4 19.9 98.6 19.6 98.7 19.3C98.9 19.1 99.1 18.9 99.3 18.6C99.5 18 99.7 17.1 99.4 16.3Z" fill="black"/>
<path d="M79.0999 41C75.7999 39.1 73.1999 36.5 71.2999 33.2C69.3999 29.9 68.3999 26.1 68.3999 21.9C68.3999 17.7 69.3999 14 71.2999 10.6C73.1999 7.3 75.7999 4.7 79.0999 2.8C82.3999 0.9 85.9999 0 89.9999 0C93.9999 0 97.6999 0.9 100.9 2.8C104.2 4.7 106.8 7.3 108.6 10.6C110.5 13.9 111.4 17.7 111.4 21.9C111.4 26.1 110.5 29.9 108.6 33.2C106.7 36.5 104.1 39.1 100.9 41C97.5999 42.9 93.9999 43.8 89.9999 43.8C85.9999 43.8 82.3999 42.8 79.0999 41ZM98.0999 36.8C100.5 35.4 102.4 33.4 103.8 30.8C105.2 28.2 105.9 25.2 105.9 21.8C105.9 18.4 105.2 15.4 103.8 12.8C102.4 10.2 100.6 8.3 98.1999 6.9C95.6999 5.6 92.9999 4.9 89.9999 4.9C86.9999 4.9 84.2999 5.6 81.8999 7C79.4999 8.4 77.5999 10.4 76.2999 12.9C74.8999 15.5 74.1999 18.5 74.1999 21.9C74.1999 25.3 74.8999 28.3 76.2999 30.9C77.6999 33.5 79.5999 35.5 81.9999 36.9C84.3999 38.3 87.0999 39 90.0999 39C92.9999 38.9 95.6999 38.2 98.0999 36.8Z" fill="black"/>
<path d="M119.5 38.8H134.5V43.3H113.9V0.5H119.5V38.8Z" fill="black"/>
<path d="M142.9 0.5V43.3H137.3V0.5H142.9Z" fill="black"/>
<path d="M153.4 38.5H174.3V43.4H146.8V39L167.6 5.4H147V0.5H174.2V4.9L153.4 38.5Z" fill="black"/>
</g>
<defs>
<clipPath id="clip0_316_27">
<rect width="174.3" height="59.1" fill="white"/>
</clipPath>
</defs>
</svg>
