<svg width="6" height="10" viewBox="0 0 6 10" fill="none" xmlns="http://www.w3.org/2000/svg">
<path d="M0.186797 2.508C0.242797 1.772 0.526797 1.196 1.0388 0.779999C1.5508 0.363999 2.2148 0.155999 3.0308 0.155999C3.5748 0.155999 4.0428 0.256 4.4348 0.456C4.8348 0.648 5.1348 0.912 5.3348 1.248C5.5428 1.584 5.6468 1.964 5.6468 2.388C5.6468 2.884 5.5028 3.312 5.2148 3.672C4.9348 4.032 4.5668 4.264 4.1108 4.368V4.428C4.6308 4.556 5.0428 4.808 5.3468 5.184C5.6508 5.56 5.8028 6.052 5.8028 6.66C5.8028 7.116 5.6988 7.528 5.4908 7.896C5.2828 8.256 4.9708 8.54 4.5548 8.748C4.1388 8.956 3.6388 9.06 3.0548 9.06C2.2068 9.06 1.5108 8.84 0.966797 8.4C0.422797 7.952 0.118797 7.32 0.0547969 6.504H1.1108C1.1668 6.984 1.3628 7.376 1.6988 7.68C2.0348 7.984 2.4828 8.136 3.0428 8.136C3.6028 8.136 4.0268 7.992 4.3148 7.704C4.6108 7.408 4.7588 7.028 4.7588 6.564C4.7588 5.964 4.5588 5.532 4.1588 5.268C3.7588 5.004 3.1548 4.872 2.3468 4.872H2.0708V3.96H2.3588C3.0948 3.952 3.6508 3.832 4.0268 3.6C4.4028 3.36 4.5908 2.992 4.5908 2.496C4.5908 2.072 4.4508 1.732 4.1708 1.476C3.8988 1.22 3.5068 1.092 2.9948 1.092C2.4988 1.092 2.0988 1.22 1.7948 1.476C1.4908 1.732 1.3108 2.076 1.2548 2.508H0.186797Z" fill="black"/>
</svg>
