<svg width="368" height="522" viewBox="0 0 368 522" fill="none" xmlns="http://www.w3.org/2000/svg">
<rect width="368" height="522" rx="50" fill="url(#paint0_linear_325_493)"/>
<path d="M117.168 391.4H247.821V392.6H117.168V391.4Z" fill="white"/>
<path d="M241.797 389.216C240.789 389.216 239.885 389.048 239.085 388.712C238.285 388.36 237.653 387.88 237.189 387.272C236.725 386.648 236.469 385.936 236.421 385.136H238.677C238.741 385.792 239.045 386.328 239.589 386.744C240.149 387.16 240.877 387.368 241.773 387.368C242.605 387.368 243.261 387.184 243.741 386.816C244.221 386.448 244.461 385.984 244.461 385.424C244.461 384.848 244.205 384.424 243.693 384.152C243.181 383.864 242.389 383.584 241.317 383.312C240.341 383.056 239.541 382.8 238.917 382.544C238.309 382.272 237.781 381.88 237.333 381.368C236.901 380.84 236.685 380.152 236.685 379.304C236.685 378.632 236.885 378.016 237.285 377.456C237.685 376.896 238.253 376.456 238.989 376.136C239.725 375.8 240.565 375.632 241.509 375.632C242.965 375.632 244.141 376 245.037 376.736C245.933 377.472 246.413 378.48 246.477 379.76H244.293C244.245 379.072 243.965 378.52 243.453 378.104C242.957 377.688 242.285 377.48 241.437 377.48C240.653 377.48 240.029 377.648 239.565 377.984C239.101 378.32 238.869 378.76 238.869 379.304C238.869 379.736 239.005 380.096 239.277 380.384C239.565 380.656 239.917 380.88 240.333 381.056C240.765 381.216 241.357 381.4 242.109 381.608C243.053 381.864 243.821 382.12 244.413 382.376C245.005 382.616 245.509 382.984 245.925 383.48C246.357 383.976 246.581 384.624 246.597 385.424C246.597 386.144 246.397 386.792 245.997 387.368C245.597 387.944 245.029 388.4 244.293 388.736C243.573 389.056 242.741 389.216 241.797 389.216Z" fill="white"/>
<path d="M233.419 371.24V389H231.235V371.24H233.419Z" fill="white"/>
<path d="M226.456 373.712C226.04 373.712 225.688 373.568 225.4 373.28C225.112 372.992 224.968 372.64 224.968 372.224C224.968 371.808 225.112 371.456 225.4 371.168C225.688 370.88 226.04 370.736 226.456 370.736C226.856 370.736 227.192 370.88 227.464 371.168C227.752 371.456 227.896 371.808 227.896 372.224C227.896 372.64 227.752 372.992 227.464 373.28C227.192 373.568 226.856 373.712 226.456 373.712ZM227.512 375.848V389H225.328V375.848H227.512Z" fill="white"/>
<path d="M208.294 382.376C208.294 381.032 208.566 379.856 209.11 378.848C209.654 377.824 210.398 377.032 211.342 376.472C212.302 375.912 213.366 375.632 214.534 375.632C215.686 375.632 216.686 375.88 217.534 376.376C218.382 376.872 219.014 377.496 219.43 378.248V375.848H221.638V389H219.43V386.552C218.998 387.32 218.35 387.96 217.486 388.472C216.638 388.968 215.646 389.216 214.51 389.216C213.342 389.216 212.286 388.928 211.342 388.352C210.398 387.776 209.654 386.968 209.11 385.928C208.566 384.888 208.294 383.704 208.294 382.376ZM219.43 382.4C219.43 381.408 219.23 380.544 218.83 379.808C218.43 379.072 217.886 378.512 217.198 378.128C216.526 377.728 215.782 377.528 214.966 377.528C214.15 377.528 213.406 377.72 212.734 378.104C212.062 378.488 211.526 379.048 211.126 379.784C210.726 380.52 210.526 381.384 210.526 382.376C210.526 383.384 210.726 384.264 211.126 385.016C211.526 385.752 212.062 386.32 212.734 386.72C213.406 387.104 214.15 387.296 214.966 387.296C215.782 387.296 216.526 387.104 217.198 386.72C217.886 386.32 218.43 385.752 218.83 385.016C219.23 384.264 219.43 383.392 219.43 382.4Z" fill="white"/>
<path d="M203.032 377.648V385.4C203.032 386.04 203.168 386.496 203.44 386.768C203.712 387.024 204.184 387.152 204.856 387.152H206.464V389H204.496C203.28 389 202.368 388.72 201.76 388.16C201.152 387.6 200.848 386.68 200.848 385.4V377.648H199.144V375.848H200.848V372.536H203.032V375.848H206.464V377.648H203.032Z" fill="white"/>
<path d="M197.485 381.92C197.485 382.336 197.461 382.776 197.413 383.24H186.901C186.981 384.536 187.421 385.552 188.221 386.288C189.037 387.008 190.021 387.368 191.173 387.368C192.117 387.368 192.901 387.152 193.525 386.72C194.165 386.272 194.613 385.68 194.869 384.944H197.221C196.869 386.208 196.165 387.24 195.109 388.04C194.053 388.824 192.741 389.216 191.173 389.216C189.925 389.216 188.805 388.936 187.813 388.376C186.837 387.816 186.069 387.024 185.509 386C184.949 384.96 184.669 383.76 184.669 382.4C184.669 381.04 184.941 379.848 185.485 378.824C186.029 377.8 186.789 377.016 187.765 376.472C188.757 375.912 189.893 375.632 191.173 375.632C192.421 375.632 193.525 375.904 194.485 376.448C195.445 376.992 196.181 377.744 196.693 378.704C197.221 379.648 197.485 380.72 197.485 381.92ZM195.229 381.464C195.229 380.632 195.045 379.92 194.677 379.328C194.309 378.72 193.805 378.264 193.165 377.96C192.541 377.64 191.845 377.48 191.077 377.48C189.973 377.48 189.029 377.832 188.245 378.536C187.477 379.24 187.037 380.216 186.925 381.464H195.229Z" fill="white"/>
<path d="M168.45 382.376C168.45 381.032 168.722 379.856 169.266 378.848C169.81 377.824 170.554 377.032 171.498 376.472C172.458 375.912 173.53 375.632 174.714 375.632C175.738 375.632 176.69 375.872 177.57 376.352C178.45 376.816 179.122 377.432 179.586 378.2V371.24H181.794V389H179.586V386.528C179.154 387.312 178.514 387.96 177.666 388.472C176.818 388.968 175.826 389.216 174.69 389.216C173.522 389.216 172.458 388.928 171.498 388.352C170.554 387.776 169.81 386.968 169.266 385.928C168.722 384.888 168.45 383.704 168.45 382.376ZM179.586 382.4C179.586 381.408 179.386 380.544 178.986 379.808C178.586 379.072 178.042 378.512 177.354 378.128C176.682 377.728 175.938 377.528 175.122 377.528C174.306 377.528 173.562 377.72 172.89 378.104C172.218 378.488 171.682 379.048 171.282 379.784C170.882 380.52 170.682 381.384 170.682 382.376C170.682 383.384 170.882 384.264 171.282 385.016C171.682 385.752 172.218 386.32 172.89 386.72C173.562 387.104 174.306 387.296 175.122 387.296C175.938 387.296 176.682 387.104 177.354 386.72C178.042 386.32 178.586 385.752 178.986 385.016C179.386 384.264 179.586 383.392 179.586 382.4Z" fill="white"/>
<path d="M159.985 381.92C159.985 382.336 159.961 382.776 159.913 383.24H149.401C149.481 384.536 149.921 385.552 150.721 386.288C151.537 387.008 152.521 387.368 153.673 387.368C154.617 387.368 155.401 387.152 156.025 386.72C156.665 386.272 157.113 385.68 157.369 384.944H159.721C159.369 386.208 158.665 387.24 157.609 388.04C156.553 388.824 155.241 389.216 153.673 389.216C152.425 389.216 151.305 388.936 150.313 388.376C149.337 387.816 148.569 387.024 148.009 386C147.449 384.96 147.169 383.76 147.169 382.4C147.169 381.04 147.441 379.848 147.985 378.824C148.529 377.8 149.289 377.016 150.265 376.472C151.257 375.912 152.393 375.632 153.673 375.632C154.921 375.632 156.025 375.904 156.985 376.448C157.945 376.992 158.681 377.744 159.193 378.704C159.721 379.648 159.985 380.72 159.985 381.92ZM157.729 381.464C157.729 380.632 157.545 379.92 157.177 379.328C156.809 378.72 156.305 378.264 155.665 377.96C155.041 377.64 154.345 377.48 153.577 377.48C152.473 377.48 151.529 377.832 150.745 378.536C149.977 379.24 149.537 380.216 149.425 381.464H157.729Z" fill="white"/>
<path d="M145.102 381.92C145.102 382.336 145.078 382.776 145.03 383.24H134.518C134.598 384.536 135.038 385.552 135.838 386.288C136.654 387.008 137.638 387.368 138.79 387.368C139.734 387.368 140.518 387.152 141.142 386.72C141.782 386.272 142.23 385.68 142.486 384.944H144.838C144.486 386.208 143.782 387.24 142.726 388.04C141.67 388.824 140.358 389.216 138.79 389.216C137.542 389.216 136.422 388.936 135.43 388.376C134.454 387.816 133.686 387.024 133.126 386C132.566 384.96 132.286 383.76 132.286 382.4C132.286 381.04 132.558 379.848 133.102 378.824C133.646 377.8 134.406 377.016 135.382 376.472C136.374 375.912 137.51 375.632 138.79 375.632C140.038 375.632 141.142 375.904 142.102 376.448C143.062 376.992 143.798 377.744 144.31 378.704C144.838 379.648 145.102 380.72 145.102 381.92ZM142.846 381.464C142.846 380.632 142.662 379.92 142.294 379.328C141.926 378.72 141.422 378.264 140.782 377.96C140.158 377.64 139.462 377.48 138.694 377.48C137.59 377.48 136.646 377.832 135.862 378.536C135.094 379.24 134.654 380.216 134.542 381.464H142.846Z" fill="white"/>
<path d="M124.32 389.168C123.216 389.168 122.224 388.976 121.344 388.592C120.48 388.192 119.8 387.648 119.304 386.96C118.808 386.256 118.552 385.448 118.536 384.536H120.864C120.944 385.32 121.264 385.984 121.824 386.528C122.4 387.056 123.232 387.32 124.32 387.32C125.36 387.32 126.176 387.064 126.768 386.552C127.376 386.024 127.68 385.352 127.68 384.536C127.68 383.896 127.504 383.376 127.152 382.976C126.8 382.576 126.36 382.272 125.832 382.064C125.304 381.856 124.592 381.632 123.696 381.392C122.592 381.104 121.704 380.816 121.032 380.528C120.376 380.24 119.808 379.792 119.328 379.184C118.864 378.56 118.632 377.728 118.632 376.688C118.632 375.776 118.864 374.968 119.328 374.264C119.792 373.56 120.44 373.016 121.272 372.632C122.12 372.248 123.088 372.056 124.176 372.056C125.744 372.056 127.024 372.448 128.016 373.232C129.024 374.016 129.592 375.056 129.72 376.352H127.32C127.24 375.712 126.904 375.152 126.312 374.672C125.72 374.176 124.936 373.928 123.96 373.928C123.048 373.928 122.304 374.168 121.728 374.648C121.152 375.112 120.864 375.768 120.864 376.616C120.864 377.224 121.032 377.72 121.368 378.104C121.72 378.488 122.144 378.784 122.64 378.992C123.152 379.184 123.864 379.408 124.776 379.664C125.88 379.968 126.768 380.272 127.44 380.576C128.112 380.864 128.688 381.32 129.168 381.944C129.648 382.552 129.888 383.384 129.888 384.44C129.888 385.256 129.672 386.024 129.24 386.744C128.808 387.464 128.168 388.048 127.32 388.496C126.472 388.944 125.472 389.168 124.32 389.168Z" fill="white"/>
<path d="M333.107 135.8C336.307 135.8 338.874 136.867 340.807 139C342.741 141.1 343.707 144 343.707 147.7V164H335.207V148.85C335.207 146.983 334.724 145.533 333.757 144.5C332.791 143.467 331.491 142.95 329.857 142.95C328.224 142.95 326.924 143.467 325.957 144.5C324.991 145.533 324.507 146.983 324.507 148.85V164H315.957V127H324.507V139.85C325.374 138.617 326.557 137.633 328.057 136.9C329.557 136.167 331.241 135.8 333.107 135.8Z" fill="white"/>
<path d="M311.195 156.75V164H306.845C303.745 164 301.328 163.25 299.595 161.75C297.862 160.217 296.995 157.733 296.995 154.3V143.2H293.595V136.1H296.995V129.3H305.545V136.1H311.145V143.2H305.545V154.4C305.545 155.233 305.745 155.833 306.145 156.2C306.545 156.567 307.212 156.75 308.145 156.75H311.195Z" fill="white"/>
<path d="M278.953 135.8C282.22 135.8 284.82 136.867 286.753 139C288.72 141.1 289.703 144 289.703 147.7V164H281.203V148.85C281.203 146.983 280.72 145.533 279.753 144.5C278.787 143.467 277.487 142.95 275.853 142.95C274.22 142.95 272.92 143.467 271.953 144.5C270.987 145.533 270.503 146.983 270.503 148.85V164H261.953V136.1H270.503V139.8C271.37 138.567 272.537 137.6 274.003 136.9C275.47 136.167 277.12 135.8 278.953 135.8Z" fill="white"/>
<path d="M242.818 164.4C240.084 164.4 237.618 163.817 235.418 162.65C233.251 161.483 231.534 159.817 230.268 157.65C229.034 155.483 228.418 152.95 228.418 150.05C228.418 147.183 229.051 144.667 230.318 142.5C231.584 140.3 233.318 138.617 235.518 137.45C237.718 136.283 240.184 135.7 242.918 135.7C245.651 135.7 248.118 136.283 250.318 137.45C252.518 138.617 254.251 140.3 255.518 142.5C256.784 144.667 257.418 147.183 257.418 150.05C257.418 152.917 256.768 155.45 255.468 157.65C254.201 159.817 252.451 161.483 250.218 162.65C248.018 163.817 245.551 164.4 242.818 164.4ZM242.818 157C244.451 157 245.834 156.4 246.968 155.2C248.134 154 248.718 152.283 248.718 150.05C248.718 147.817 248.151 146.1 247.018 144.9C245.918 143.7 244.551 143.1 242.918 143.1C241.251 143.1 239.868 143.7 238.768 144.9C237.668 146.067 237.118 147.783 237.118 150.05C237.118 152.283 237.651 154 238.718 155.2C239.818 156.4 241.184 157 242.818 157Z" fill="white"/>
<path d="M212.788 135.8C216.255 135.8 219.005 136.85 221.038 138.95C223.105 141.05 224.138 143.967 224.138 147.7V164H215.638V148.85C215.638 147.05 215.155 145.667 214.188 144.7C213.255 143.7 211.955 143.2 210.288 143.2C208.621 143.2 207.305 143.7 206.338 144.7C205.405 145.667 204.938 147.05 204.938 148.85V164H196.438V148.85C196.438 147.05 195.955 145.667 194.988 144.7C194.055 143.7 192.755 143.2 191.088 143.2C189.421 143.2 188.105 143.7 187.138 144.7C186.205 145.667 185.738 147.05 185.738 148.85V164H177.188V136.1H185.738V139.6C186.605 138.433 187.738 137.517 189.138 136.85C190.538 136.15 192.121 135.8 193.888 135.8C195.988 135.8 197.855 136.25 199.488 137.15C201.155 138.05 202.455 139.333 203.388 141C204.355 139.467 205.671 138.217 207.338 137.25C209.005 136.283 210.821 135.8 212.788 135.8Z" fill="white"/>
<path d="M173.582 116.5L160.182 173.35H151.932L165.332 116.5H173.582Z" fill="white"/>
<path d="M148.171 153.8C148.171 155.633 147.688 157.333 146.721 158.9C145.788 160.433 144.388 161.7 142.521 162.7C140.688 163.667 138.505 164.2 135.971 164.3V168.35H132.771V164.25C129.238 163.95 126.388 162.9 124.221 161.1C122.055 159.267 120.905 156.783 120.771 153.65H129.871C130.071 155.65 131.038 156.933 132.771 157.5V149.6C130.171 148.933 128.088 148.283 126.521 147.65C124.988 147.017 123.638 146 122.471 144.6C121.305 143.2 120.721 141.283 120.721 138.85C120.721 135.817 121.838 133.383 124.071 131.55C126.338 129.717 129.238 128.683 132.771 128.45V124.4H135.971V128.45C139.471 128.717 142.238 129.733 144.271 131.5C146.305 133.267 147.438 135.717 147.671 138.85H138.521C138.321 137.05 137.471 135.883 135.971 135.35V143.1C138.738 143.867 140.871 144.55 142.371 145.15C143.871 145.75 145.205 146.75 146.371 148.15C147.571 149.517 148.171 151.4 148.171 153.8ZM129.771 138.45C129.771 139.283 130.021 139.983 130.521 140.55C131.055 141.117 131.805 141.617 132.771 142.05V135.1C131.838 135.267 131.105 135.633 130.571 136.2C130.038 136.733 129.771 137.483 129.771 138.45ZM135.971 157.65C136.971 157.483 137.755 157.083 138.321 156.45C138.921 155.817 139.221 155.033 139.221 154.1C139.221 153.233 138.938 152.533 138.371 152C137.838 151.433 137.038 150.95 135.971 150.55V157.65Z" fill="white"/>
<path d="M88.1543 145.25C88.1543 139.517 89.2543 135 91.4543 131.7C93.6876 128.4 97.2709 126.75 102.204 126.75C107.138 126.75 110.704 128.4 112.904 131.7C115.138 135 116.254 139.517 116.254 145.25C116.254 151.05 115.138 155.6 112.904 158.9C110.704 162.2 107.138 163.85 102.204 163.85C97.2709 163.85 93.6876 162.2 91.4543 158.9C89.2543 155.6 88.1543 151.05 88.1543 145.25ZM107.854 145.25C107.854 141.883 107.488 139.3 106.754 137.5C106.021 135.667 104.504 134.75 102.204 134.75C99.9043 134.75 98.3876 135.667 97.6543 137.5C96.9209 139.3 96.5543 141.883 96.5543 145.25C96.5543 147.517 96.6876 149.4 96.9543 150.9C97.2209 152.367 97.7543 153.567 98.5543 154.5C99.3876 155.4 100.604 155.85 102.204 155.85C103.804 155.85 105.004 155.4 105.804 154.5C106.638 153.567 107.188 152.367 107.454 150.9C107.721 149.4 107.854 147.517 107.854 145.25Z" fill="white"/>
<path d="M55.5371 145.25C55.5371 139.517 56.6371 135 58.8371 131.7C61.0704 128.4 64.6537 126.75 69.5871 126.75C74.5204 126.75 78.0871 128.4 80.2871 131.7C82.5204 135 83.6371 139.517 83.6371 145.25C83.6371 151.05 82.5204 155.6 80.2871 158.9C78.0871 162.2 74.5204 163.85 69.5871 163.85C64.6537 163.85 61.0704 162.2 58.8371 158.9C56.6371 155.6 55.5371 151.05 55.5371 145.25ZM75.2371 145.25C75.2371 141.883 74.8704 139.3 74.1371 137.5C73.4037 135.667 71.8871 134.75 69.5871 134.75C67.2871 134.75 65.7704 135.667 65.0371 137.5C64.3037 139.3 63.9371 141.883 63.9371 145.25C63.9371 147.517 64.0704 149.4 64.3371 150.9C64.6037 152.367 65.1371 153.567 65.9371 154.5C66.7704 155.4 67.9871 155.85 69.5871 155.85C71.1871 155.85 72.3871 155.4 73.1871 154.5C74.0204 153.567 74.5704 152.367 74.8371 150.9C75.1037 149.4 75.2371 147.517 75.2371 145.25Z" fill="white"/>
<path d="M41.7511 137.35C41.4845 136.117 41.0178 135.2 40.3511 134.6C39.6845 133.967 38.7345 133.65 37.5011 133.65C35.6011 133.65 34.2345 134.483 33.4011 136.15C32.5678 137.783 32.1345 140.383 32.1011 143.95C32.8345 142.783 33.8845 141.867 35.2511 141.2C36.6511 140.533 38.1845 140.2 39.8511 140.2C43.1178 140.2 45.7345 141.233 47.7011 143.3C49.7011 145.367 50.7011 148.25 50.7011 151.95C50.7011 154.383 50.2011 156.517 49.2011 158.35C48.2345 160.183 46.8011 161.617 44.9011 162.65C43.0345 163.683 40.8178 164.2 38.2511 164.2C33.1178 164.2 29.5511 162.6 27.5511 159.4C25.5511 156.167 24.5511 151.533 24.5511 145.5C24.5511 139.167 25.6011 134.467 27.7011 131.4C29.8345 128.3 33.2345 126.75 37.9011 126.75C40.4011 126.75 42.5011 127.25 44.2011 128.25C45.9345 129.217 47.2345 130.5 48.1012 132.1C49.0011 133.7 49.5345 135.45 49.7011 137.35H41.7511ZM37.8011 146.95C36.3678 146.95 35.1678 147.383 34.2011 148.25C33.2678 149.083 32.8011 150.283 32.8011 151.85C32.8011 153.45 33.2345 154.7 34.1011 155.6C35.0011 156.5 36.2678 156.95 37.9011 156.95C39.3678 156.95 40.5178 156.517 41.3511 155.65C42.2178 154.75 42.6511 153.533 42.6511 152C42.6511 150.433 42.2345 149.2 41.4011 148.3C40.5678 147.4 39.3678 146.95 37.8011 146.95Z" fill="white"/>
<path d="M0 412H368V472C368 499.614 345.614 522 318 522H50C22.3858 522 0 499.614 0 472V412Z" fill="white"/>
<path d="M277.617 269.848C276.661 269.848 275.804 269.688 275.045 269.37C274.286 269.036 273.687 268.581 273.247 268.004C272.807 267.412 272.564 266.737 272.519 265.978H274.658C274.719 266.6 275.007 267.109 275.523 267.503C276.054 267.898 276.745 268.095 277.594 268.095C278.383 268.095 279.005 267.921 279.461 267.572C279.916 267.223 280.143 266.783 280.143 266.251C280.143 265.705 279.901 265.303 279.415 265.045C278.93 264.772 278.178 264.506 277.162 264.249C276.236 264.006 275.478 263.763 274.886 263.52C274.309 263.262 273.808 262.89 273.384 262.405C272.974 261.904 272.769 261.252 272.769 260.448C272.769 259.81 272.959 259.226 273.338 258.695C273.717 258.164 274.256 257.747 274.954 257.443C275.652 257.125 276.449 256.965 277.344 256.965C278.725 256.965 279.84 257.314 280.69 258.012C281.539 258.71 281.995 259.666 282.055 260.88H279.984C279.939 260.228 279.673 259.704 279.187 259.31C278.717 258.915 278.08 258.718 277.276 258.718C276.532 258.718 275.94 258.877 275.5 259.196C275.06 259.514 274.84 259.932 274.84 260.448C274.84 260.857 274.969 261.199 275.227 261.472C275.5 261.73 275.834 261.942 276.229 262.109C276.638 262.261 277.2 262.435 277.913 262.633C278.808 262.875 279.536 263.118 280.098 263.361C280.659 263.588 281.137 263.937 281.532 264.408C281.942 264.878 282.154 265.493 282.169 266.251C282.169 266.934 281.979 267.549 281.6 268.095C281.221 268.641 280.682 269.074 279.984 269.392C279.301 269.696 278.512 269.848 277.617 269.848Z" fill="white"/>
<path d="M266.782 259.196C267.146 258.483 267.662 257.929 268.33 257.534C269.012 257.14 269.839 256.942 270.811 256.942V259.082H270.264C267.943 259.082 266.782 260.341 266.782 262.86V269.643H264.711V257.17H266.782V259.196Z" fill="white"/>
<path d="M261.977 262.928C261.977 263.323 261.954 263.74 261.909 264.18H251.939C252.015 265.409 252.433 266.373 253.191 267.071C253.965 267.754 254.898 268.095 255.991 268.095C256.886 268.095 257.63 267.89 258.221 267.481C258.828 267.056 259.253 266.494 259.496 265.796H261.726C261.393 266.995 260.725 267.974 259.724 268.732C258.722 269.476 257.478 269.848 255.991 269.848C254.807 269.848 253.745 269.582 252.804 269.051C251.879 268.52 251.15 267.769 250.619 266.798C250.088 265.811 249.823 264.673 249.823 263.384C249.823 262.094 250.081 260.963 250.597 259.992C251.113 259.021 251.833 258.278 252.759 257.762C253.7 257.231 254.777 256.965 255.991 256.965C257.174 256.965 258.221 257.223 259.132 257.739C260.042 258.255 260.74 258.968 261.226 259.879C261.726 260.774 261.977 261.79 261.977 262.928ZM259.837 262.496C259.837 261.707 259.663 261.032 259.314 260.47C258.965 259.894 258.487 259.461 257.88 259.173C257.288 258.869 256.628 258.718 255.9 258.718C254.853 258.718 253.958 259.052 253.214 259.719C252.486 260.387 252.068 261.312 251.962 262.496H259.837Z" fill="white"/>
<path d="M237.287 259.469C237.696 258.756 238.303 258.164 239.108 257.694C239.927 257.208 240.875 256.965 241.953 256.965C243.06 256.965 244.062 257.231 244.957 257.762C245.867 258.293 246.581 259.044 247.096 260.015C247.612 260.971 247.87 262.086 247.87 263.361C247.87 264.62 247.612 265.743 247.096 266.729C246.581 267.716 245.867 268.482 244.957 269.028C244.062 269.574 243.06 269.848 241.953 269.848C240.89 269.848 239.95 269.612 239.13 269.142C238.326 268.656 237.712 268.057 237.287 267.344V275.56H235.216V257.17H237.287V259.469ZM245.754 263.361C245.754 262.42 245.564 261.601 245.185 260.903C244.805 260.205 244.289 259.674 243.637 259.31C243 258.945 242.294 258.763 241.52 258.763C240.761 258.763 240.056 258.953 239.403 259.332C238.766 259.696 238.25 260.235 237.856 260.948C237.476 261.646 237.287 262.458 237.287 263.384C237.287 264.324 237.476 265.151 237.856 265.865C238.25 266.563 238.766 267.101 239.403 267.481C240.056 267.845 240.761 268.027 241.52 268.027C242.294 268.027 243 267.845 243.637 267.481C244.289 267.101 244.805 266.563 245.185 265.865C245.564 265.151 245.754 264.317 245.754 263.361Z" fill="white"/>
<path d="M226.097 269.848C224.928 269.848 223.866 269.582 222.91 269.051C221.969 268.52 221.226 267.769 220.68 266.798C220.148 265.811 219.883 264.673 219.883 263.384C219.883 262.109 220.156 260.986 220.702 260.015C221.264 259.029 222.022 258.278 222.978 257.762C223.934 257.231 225.004 256.965 226.188 256.965C227.371 256.965 228.441 257.231 229.397 257.762C230.353 258.278 231.104 259.021 231.65 259.992C232.212 260.963 232.492 262.094 232.492 263.384C232.492 264.673 232.204 265.811 231.627 266.798C231.066 267.769 230.3 268.52 229.329 269.051C228.357 269.582 227.28 269.848 226.097 269.848ZM226.097 268.027C226.84 268.027 227.538 267.852 228.191 267.503C228.843 267.154 229.366 266.631 229.761 265.933C230.171 265.235 230.376 264.385 230.376 263.384C230.376 262.382 230.178 261.532 229.784 260.834C229.389 260.136 228.873 259.621 228.236 259.287C227.599 258.938 226.908 258.763 226.165 258.763C225.406 258.763 224.708 258.938 224.071 259.287C223.449 259.621 222.948 260.136 222.569 260.834C222.189 261.532 222 262.382 222 263.384C222 264.4 222.182 265.258 222.546 265.956C222.925 266.654 223.426 267.177 224.048 267.526C224.67 267.86 225.353 268.027 226.097 268.027Z" fill="white"/>
<path d="M217.127 252.8V269.643H215.056V252.8H217.127Z" fill="white"/>
<path d="M212.322 262.928C212.322 263.323 212.299 263.74 212.253 264.18H202.284C202.36 265.409 202.777 266.373 203.536 267.071C204.31 267.754 205.243 268.095 206.336 268.095C207.231 268.095 207.974 267.89 208.566 267.481C209.173 267.056 209.598 266.494 209.841 265.796H212.071C211.738 266.995 211.07 267.974 210.068 268.732C209.067 269.476 207.823 269.848 206.336 269.848C205.152 269.848 204.09 269.582 203.149 269.051C202.224 268.52 201.495 267.769 200.964 266.798C200.433 265.811 200.168 264.673 200.168 263.384C200.168 262.094 200.426 260.963 200.941 259.992C201.457 259.021 202.178 258.278 203.104 257.762C204.044 257.231 205.122 256.965 206.336 256.965C207.519 256.965 208.566 257.223 209.477 257.739C210.387 258.255 211.085 258.968 211.571 259.879C212.071 260.774 212.322 261.79 212.322 262.928ZM210.182 262.496C210.182 261.707 210.008 261.032 209.659 260.47C209.31 259.894 208.832 259.461 208.225 259.173C207.633 258.869 206.973 258.718 206.245 258.718C205.198 258.718 204.302 259.052 203.559 259.719C202.831 260.387 202.413 261.312 202.307 262.496H210.182Z" fill="white"/>
<path d="M192.826 267.731L196.696 257.17H198.903L194.01 269.643H191.597L186.704 257.17H188.934L192.826 267.731Z" fill="white"/>
<path d="M185.449 262.928C185.449 263.323 185.426 263.74 185.381 264.18H175.412C175.488 265.409 175.905 266.373 176.664 267.071C177.438 267.754 178.371 268.095 179.463 268.095C180.358 268.095 181.102 267.89 181.694 267.481C182.301 267.056 182.726 266.494 182.968 265.796H185.199C184.865 266.995 184.197 267.974 183.196 268.732C182.195 269.476 180.95 269.848 179.463 269.848C178.28 269.848 177.218 269.582 176.277 269.051C175.351 268.52 174.623 267.769 174.092 266.798C173.561 265.811 173.295 264.673 173.295 263.384C173.295 262.094 173.553 260.963 174.069 259.992C174.585 259.021 175.306 258.278 176.231 257.762C177.172 257.231 178.249 256.965 179.463 256.965C180.647 256.965 181.694 257.223 182.604 257.739C183.515 258.255 184.213 258.968 184.698 259.879C185.199 260.774 185.449 261.79 185.449 262.928ZM183.31 262.496C183.31 261.707 183.135 261.032 182.786 260.47C182.437 259.894 181.959 259.461 181.352 259.173C180.761 258.869 180.101 258.718 179.372 258.718C178.325 258.718 177.43 259.052 176.686 259.719C175.958 260.387 175.541 261.312 175.435 262.496H183.31Z" fill="white"/>
<path d="M162.916 253.779C164.645 253.779 166.14 254.105 167.399 254.757C168.674 255.395 169.645 256.313 170.313 257.511C170.996 258.71 171.337 260.121 171.337 261.745C171.337 263.368 170.996 264.78 170.313 265.978C169.645 267.162 168.674 268.072 167.399 268.71C166.14 269.332 164.645 269.643 162.916 269.643H157.977V253.779H162.916ZM162.916 267.936C164.964 267.936 166.527 267.397 167.604 266.32C168.682 265.227 169.22 263.702 169.22 261.745C169.22 259.772 168.674 258.232 167.582 257.124C166.504 256.017 164.949 255.463 162.916 255.463H160.048V267.936H162.916Z" fill="white"/>
<path d="M138.599 259.469C139.008 258.756 139.615 258.164 140.42 257.694C141.239 257.208 142.187 256.965 143.265 256.965C144.372 256.965 145.374 257.231 146.269 257.762C147.179 258.293 147.893 259.044 148.409 260.015C148.924 260.971 149.182 262.086 149.182 263.361C149.182 264.62 148.924 265.743 148.409 266.729C147.893 267.716 147.179 268.482 146.269 269.028C145.374 269.574 144.372 269.848 143.265 269.848C142.203 269.848 141.262 269.612 140.442 269.142C139.638 268.656 139.024 268.057 138.599 267.344V275.56H136.528V257.17H138.599V259.469ZM147.066 263.361C147.066 262.42 146.876 261.601 146.497 260.903C146.117 260.205 145.601 259.674 144.949 259.31C144.312 258.945 143.606 258.763 142.832 258.763C142.074 258.763 141.368 258.953 140.715 259.332C140.078 259.696 139.562 260.235 139.168 260.948C138.788 261.646 138.599 262.458 138.599 263.384C138.599 264.324 138.788 265.151 139.168 265.865C139.562 266.563 140.078 267.101 140.715 267.481C141.368 267.845 142.074 268.027 142.832 268.027C143.606 268.027 144.312 267.845 144.949 267.481C145.601 267.101 146.117 266.563 146.497 265.865C146.876 265.151 147.066 264.317 147.066 263.361Z" fill="white"/>
<path d="M123.218 259.469C123.627 258.756 124.234 258.164 125.039 257.694C125.858 257.208 126.806 256.965 127.884 256.965C128.991 256.965 129.993 257.231 130.888 257.762C131.798 258.293 132.512 259.044 133.027 260.015C133.543 260.971 133.801 262.086 133.801 263.361C133.801 264.62 133.543 265.743 133.027 266.729C132.512 267.716 131.798 268.482 130.888 269.028C129.993 269.574 128.991 269.848 127.884 269.848C126.821 269.848 125.881 269.612 125.061 269.142C124.257 268.656 123.643 268.057 123.218 267.344V275.56H121.146V257.17H123.218V259.469ZM131.685 263.361C131.685 262.42 131.495 261.601 131.116 260.903C130.736 260.205 130.22 259.674 129.568 259.31C128.931 258.945 128.225 258.763 127.451 258.763C126.692 258.763 125.987 258.953 125.334 259.332C124.697 259.696 124.181 260.235 123.787 260.948C123.407 261.646 123.218 262.458 123.218 263.384C123.218 264.324 123.407 265.151 123.787 265.865C124.181 266.563 124.697 267.101 125.334 267.481C125.987 267.845 126.692 268.027 127.451 268.027C128.225 268.027 128.931 267.845 129.568 267.481C130.22 267.101 130.736 266.563 131.116 265.865C131.495 265.151 131.685 264.317 131.685 263.361Z" fill="white"/>
<path d="M115.187 266.115H108.268L106.993 269.643H104.808L110.544 253.87H112.934L118.647 269.643H116.462L115.187 266.115ZM114.595 264.431L111.728 256.419L108.86 264.431H114.595Z" fill="white"/>
<path d="M86.0584 267.981C87.9854 266.433 89.4952 265.166 90.5877 264.18C91.6802 263.179 92.5982 262.139 93.3417 261.062C94.1004 259.97 94.4798 258.9 94.4798 257.853C94.4798 256.867 94.237 256.093 93.7514 255.531C93.281 254.955 92.5148 254.666 91.4526 254.666C90.4208 254.666 89.6166 254.993 89.04 255.645C88.4786 256.282 88.1751 257.14 88.1296 258.217H86.1267C86.1874 256.518 86.7033 255.205 87.6744 254.279C88.6455 253.354 89.8973 252.891 91.4298 252.891C92.9927 252.891 94.2294 253.323 95.1398 254.188C96.0654 255.053 96.5282 256.244 96.5282 257.762C96.5282 259.021 96.1489 260.25 95.3902 261.449C94.6467 262.633 93.7969 263.679 92.841 264.59C91.8851 265.485 90.6636 266.532 89.1766 267.731H97.0062V269.461H86.0584V267.981Z" fill="white"/>
<path d="M295.622 300.954C294.666 300.954 293.809 300.794 293.05 300.476C292.292 300.142 291.692 299.687 291.252 299.11C290.812 298.518 290.57 297.843 290.524 297.084H292.664C292.724 297.706 293.013 298.215 293.528 298.609C294.059 299.004 294.75 299.201 295.6 299.201C296.389 299.201 297.011 299.027 297.466 298.678C297.921 298.329 298.149 297.888 298.149 297.357C298.149 296.811 297.906 296.409 297.42 296.151C296.935 295.878 296.184 295.612 295.167 295.354C294.242 295.112 293.483 294.869 292.891 294.626C292.315 294.368 291.814 293.996 291.389 293.511C290.979 293.01 290.774 292.358 290.774 291.553C290.774 290.916 290.964 290.332 291.343 289.801C291.723 289.27 292.261 288.853 292.959 288.549C293.657 288.23 294.454 288.071 295.349 288.071C296.73 288.071 297.845 288.42 298.695 289.118C299.545 289.816 300 290.772 300.061 291.986H297.989C297.944 291.333 297.678 290.81 297.193 290.415C296.722 290.021 296.085 289.824 295.281 289.824C294.537 289.824 293.946 289.983 293.506 290.302C293.066 290.62 292.846 291.038 292.846 291.553C292.846 291.963 292.975 292.305 293.233 292.578C293.506 292.836 293.839 293.048 294.234 293.215C294.644 293.367 295.205 293.541 295.918 293.738C296.813 293.981 297.542 294.224 298.103 294.467C298.665 294.694 299.143 295.043 299.537 295.514C299.947 295.984 300.159 296.599 300.174 297.357C300.174 298.04 299.985 298.655 299.605 299.201C299.226 299.747 298.687 300.18 297.989 300.498C297.307 300.802 296.518 300.954 295.622 300.954Z" fill="white"/>
<path d="M284.787 290.302C285.152 289.588 285.667 289.035 286.335 288.64C287.018 288.246 287.845 288.048 288.816 288.048V290.188H288.27C285.948 290.188 284.787 291.447 284.787 293.966V300.749H282.716V288.276H284.787V290.302Z" fill="white"/>
<path d="M279.982 294.034C279.982 294.429 279.959 294.846 279.914 295.286H269.945C270.021 296.515 270.438 297.479 271.197 298.177C271.971 298.86 272.904 299.201 273.996 299.201C274.891 299.201 275.635 298.996 276.227 298.586C276.834 298.162 277.259 297.6 277.501 296.902H279.732C279.398 298.101 278.73 299.08 277.729 299.838C276.727 300.582 275.483 300.954 273.996 300.954C272.813 300.954 271.751 300.688 270.81 300.157C269.884 299.626 269.156 298.875 268.625 297.904C268.094 296.917 267.828 295.779 267.828 294.49C267.828 293.2 268.086 292.069 268.602 291.098C269.118 290.127 269.839 289.384 270.764 288.868C271.705 288.337 272.782 288.071 273.996 288.071C275.18 288.071 276.227 288.329 277.137 288.845C278.048 289.361 278.746 290.074 279.231 290.984C279.732 291.88 279.982 292.896 279.982 294.034ZM277.843 293.602C277.843 292.813 277.668 292.138 277.319 291.576C276.97 291 276.492 290.567 275.885 290.279C275.294 289.975 274.633 289.824 273.905 289.824C272.858 289.824 271.963 290.158 271.219 290.825C270.491 291.493 270.074 292.418 269.968 293.602H277.843Z" fill="white"/>
<path d="M260.12 288.048C261.638 288.048 262.867 288.511 263.808 289.437C264.748 290.347 265.219 291.667 265.219 293.397V300.749H263.17V293.693C263.17 292.449 262.859 291.5 262.237 290.848C261.615 290.18 260.765 289.846 259.688 289.846C258.595 289.846 257.723 290.188 257.07 290.871C256.433 291.553 256.114 292.547 256.114 293.852V300.749H254.043V288.276H256.114V290.051C256.524 289.414 257.078 288.921 257.776 288.572C258.489 288.223 259.271 288.048 260.12 288.048Z" fill="white"/>
<path d="M243.806 288.071C244.883 288.071 245.824 288.306 246.628 288.777C247.448 289.247 248.055 289.839 248.449 290.552V288.276H250.543V301.022C250.543 302.16 250.3 303.169 249.815 304.049C249.329 304.944 248.631 305.642 247.721 306.143C246.826 306.644 245.779 306.894 244.58 306.894C242.941 306.894 241.576 306.507 240.483 305.733C239.391 304.959 238.746 303.905 238.548 302.57H240.597C240.824 303.328 241.295 303.935 242.008 304.39C242.721 304.861 243.578 305.096 244.58 305.096C245.718 305.096 246.644 304.739 247.357 304.026C248.085 303.313 248.449 302.312 248.449 301.022V298.404C248.039 299.133 247.433 299.74 246.628 300.225C245.824 300.711 244.883 300.954 243.806 300.954C242.698 300.954 241.689 300.68 240.779 300.134C239.884 299.588 239.178 298.822 238.662 297.835C238.146 296.849 237.888 295.726 237.888 294.467C237.888 293.192 238.146 292.077 238.662 291.121C239.178 290.15 239.884 289.399 240.779 288.868C241.689 288.337 242.698 288.071 243.806 288.071ZM248.449 294.49C248.449 293.549 248.259 292.729 247.88 292.031C247.501 291.333 246.985 290.802 246.332 290.438C245.695 290.059 244.99 289.869 244.216 289.869C243.442 289.869 242.736 290.051 242.099 290.415C241.462 290.78 240.953 291.311 240.574 292.009C240.195 292.707 240.005 293.526 240.005 294.467C240.005 295.423 240.195 296.257 240.574 296.97C240.953 297.668 241.462 298.207 242.099 298.586C242.736 298.951 243.442 299.133 244.216 299.133C244.99 299.133 245.695 298.951 246.332 298.586C246.985 298.207 247.501 297.668 247.88 296.97C248.259 296.257 248.449 295.43 248.449 294.49Z" fill="white"/>
<path d="M234.131 286.25C233.736 286.25 233.402 286.114 233.129 285.841C232.856 285.567 232.72 285.234 232.72 284.839C232.72 284.445 232.856 284.111 233.129 283.838C233.402 283.565 233.736 283.428 234.131 283.428C234.51 283.428 234.829 283.565 235.087 283.838C235.36 284.111 235.496 284.445 235.496 284.839C235.496 285.234 235.36 285.567 235.087 285.841C234.829 286.114 234.51 286.25 234.131 286.25ZM235.132 288.276V300.749H233.061V288.276H235.132Z" fill="white"/>
<path d="M225.585 300.954C224.629 300.954 223.772 300.794 223.013 300.476C222.254 300.142 221.655 299.687 221.215 299.11C220.775 298.518 220.532 297.843 220.487 297.084H222.626C222.687 297.706 222.975 298.215 223.491 298.609C224.022 299.004 224.713 299.201 225.562 299.201C226.351 299.201 226.973 299.027 227.429 298.678C227.884 298.329 228.111 297.888 228.111 297.357C228.111 296.811 227.869 296.409 227.383 296.151C226.898 295.878 226.146 295.612 225.13 295.354C224.204 295.112 223.446 294.869 222.854 294.626C222.277 294.368 221.776 293.996 221.352 293.511C220.942 293.01 220.737 292.358 220.737 291.553C220.737 290.916 220.927 290.332 221.306 289.801C221.685 289.27 222.224 288.853 222.922 288.549C223.62 288.23 224.417 288.071 225.312 288.071C226.693 288.071 227.808 288.42 228.658 289.118C229.507 289.816 229.963 290.772 230.023 291.986H227.952C227.907 291.333 227.641 290.81 227.156 290.415C226.685 290.021 226.048 289.824 225.244 289.824C224.5 289.824 223.908 289.983 223.468 290.302C223.028 290.62 222.808 291.038 222.808 291.553C222.808 291.963 222.937 292.305 223.195 292.578C223.468 292.836 223.802 293.048 224.197 293.215C224.606 293.367 225.168 293.541 225.881 293.738C226.776 293.981 227.504 294.224 228.066 294.467C228.627 294.694 229.105 295.043 229.5 295.514C229.91 295.984 230.122 296.599 230.137 297.357C230.137 298.04 229.947 298.655 229.568 299.201C229.189 299.747 228.65 300.18 227.952 300.498C227.269 300.802 226.48 300.954 225.585 300.954Z" fill="white"/>
<path d="M218.436 294.034C218.436 294.429 218.413 294.846 218.367 295.286H208.398C208.474 296.515 208.891 297.479 209.65 298.177C210.424 298.86 211.357 299.201 212.45 299.201C213.345 299.201 214.088 298.996 214.68 298.586C215.287 298.162 215.712 297.6 215.955 296.902H218.185C217.851 298.101 217.184 299.08 216.182 299.838C215.181 300.582 213.937 300.954 212.45 300.954C211.266 300.954 210.204 300.688 209.263 300.157C208.338 299.626 207.609 298.875 207.078 297.904C206.547 296.917 206.281 295.779 206.281 294.49C206.281 293.2 206.539 292.069 207.055 291.098C207.571 290.127 208.292 289.384 209.218 288.868C210.158 288.337 211.236 288.071 212.45 288.071C213.633 288.071 214.68 288.329 215.591 288.845C216.501 289.361 217.199 290.074 217.684 290.984C218.185 291.88 218.436 292.896 218.436 294.034ZM216.296 293.602C216.296 292.813 216.122 292.138 215.773 291.576C215.424 291 214.946 290.567 214.339 290.279C213.747 289.975 213.087 289.824 212.359 289.824C211.312 289.824 210.416 290.158 209.673 290.825C208.944 291.493 208.527 292.418 208.421 293.602H216.296Z" fill="white"/>
<path d="M195.902 284.885C197.632 284.885 199.126 285.211 200.386 285.863C201.66 286.501 202.632 287.419 203.299 288.617C203.982 289.816 204.323 291.227 204.323 292.851C204.323 294.474 203.982 295.886 203.299 297.084C202.632 298.268 201.66 299.178 200.386 299.816C199.126 300.438 197.632 300.749 195.902 300.749H190.963V284.885H195.902ZM195.902 299.042C197.95 299.042 199.513 298.503 200.591 297.426C201.668 296.333 202.207 294.808 202.207 292.851C202.207 290.878 201.66 289.338 200.568 288.23C199.491 287.123 197.935 286.569 195.902 286.569H193.034V299.042H195.902Z" fill="white"/>
<path d="M182.161 294.034C182.161 294.429 182.138 294.846 182.093 295.286H172.124C172.2 296.515 172.617 297.479 173.376 298.177C174.149 298.86 175.083 299.201 176.175 299.201C177.07 299.201 177.814 298.996 178.406 298.586C179.013 298.162 179.437 297.6 179.68 296.902H181.911C181.577 298.101 180.909 299.08 179.908 299.838C178.906 300.582 177.662 300.954 176.175 300.954C174.992 300.954 173.929 300.688 172.989 300.157C172.063 299.626 171.335 298.875 170.804 297.904C170.273 296.917 170.007 295.779 170.007 294.49C170.007 293.2 170.265 292.069 170.781 291.098C171.297 290.127 172.018 289.384 172.943 288.868C173.884 288.337 174.961 288.071 176.175 288.071C177.359 288.071 178.406 288.329 179.316 288.845C180.226 289.361 180.924 290.074 181.41 290.984C181.911 291.88 182.161 292.896 182.161 294.034ZM180.022 293.602C180.022 292.813 179.847 292.138 179.498 291.576C179.149 291 178.671 290.567 178.064 290.279C177.472 289.975 176.812 289.824 176.084 289.824C175.037 289.824 174.142 290.158 173.398 290.825C172.67 291.493 172.253 292.418 172.147 293.602H180.022Z" fill="white"/>
<path d="M162.666 298.837L166.535 288.276H168.743L163.849 300.749H161.437L156.543 288.276H158.774L162.666 298.837Z" fill="white"/>
<path d="M153.491 286.25C153.097 286.25 152.763 286.114 152.49 285.841C152.217 285.567 152.08 285.234 152.08 284.839C152.08 284.445 152.217 284.111 152.49 283.838C152.763 283.565 153.097 283.428 153.491 283.428C153.87 283.428 154.189 283.565 154.447 283.838C154.72 284.111 154.857 284.445 154.857 284.839C154.857 285.234 154.72 285.567 154.447 285.841C154.189 286.114 153.87 286.25 153.491 286.25ZM154.493 288.276V300.749H152.421V288.276H154.493Z" fill="white"/>
<path d="M146.657 289.983V297.335C146.657 297.942 146.786 298.374 147.044 298.632C147.302 298.875 147.75 298.996 148.387 298.996H149.912V300.749H148.045C146.892 300.749 146.027 300.483 145.451 299.952C144.874 299.421 144.586 298.549 144.586 297.335V289.983H142.97V288.276H144.586V285.135H146.657V288.276H149.912V289.983H146.657Z" fill="white"/>
<path d="M127.976 294.467C127.976 293.192 128.234 292.077 128.75 291.121C129.266 290.15 129.971 289.399 130.866 288.868C131.777 288.337 132.786 288.071 133.893 288.071C134.986 288.071 135.934 288.306 136.739 288.777C137.543 289.247 138.142 289.839 138.537 290.552V288.276H140.631V300.749H138.537V298.427C138.127 299.155 137.512 299.762 136.693 300.248C135.889 300.718 134.948 300.954 133.871 300.954C132.763 300.954 131.762 300.68 130.866 300.134C129.971 299.588 129.266 298.822 128.75 297.835C128.234 296.849 127.976 295.726 127.976 294.467ZM138.537 294.49C138.537 293.549 138.347 292.729 137.968 292.031C137.588 291.333 137.072 290.802 136.42 290.438C135.783 290.059 135.077 289.869 134.303 289.869C133.529 289.869 132.824 290.051 132.186 290.415C131.549 290.78 131.041 291.311 130.662 292.009C130.282 292.707 130.092 293.526 130.092 294.467C130.092 295.423 130.282 296.257 130.662 296.97C131.041 297.668 131.549 298.207 132.186 298.586C132.824 298.951 133.529 299.133 134.303 299.133C135.077 299.133 135.783 298.951 136.42 298.586C137.072 298.207 137.588 297.668 137.968 296.97C138.347 296.257 138.537 295.43 138.537 294.49Z" fill="white"/>
<path d="M126.016 294.034C126.016 294.429 125.993 294.846 125.947 295.286H115.978C116.054 296.515 116.471 297.479 117.23 298.177C118.004 298.86 118.937 299.201 120.03 299.201C120.925 299.201 121.668 298.996 122.26 298.586C122.867 298.162 123.292 297.6 123.535 296.902H125.765C125.432 298.101 124.764 299.08 123.762 299.838C122.761 300.582 121.517 300.954 120.03 300.954C118.846 300.954 117.784 300.688 116.843 300.157C115.918 299.626 115.189 298.875 114.658 297.904C114.127 296.917 113.862 295.779 113.862 294.49C113.862 293.2 114.12 292.069 114.635 291.098C115.151 290.127 115.872 289.384 116.798 288.868C117.738 288.337 118.816 288.071 120.03 288.071C121.213 288.071 122.26 288.329 123.171 288.845C124.081 289.361 124.779 290.074 125.265 290.984C125.765 291.88 126.016 292.896 126.016 294.034ZM123.876 293.602C123.876 292.813 123.702 292.138 123.353 291.576C123.004 291 122.526 290.567 121.919 290.279C121.327 289.975 120.667 289.824 119.939 289.824C118.892 289.824 117.996 290.158 117.253 290.825C116.525 291.493 116.107 292.418 116.001 293.602H123.876Z" fill="white"/>
<path d="M108.216 290.302C108.58 289.588 109.096 289.035 109.764 288.64C110.446 288.246 111.273 288.048 112.245 288.048V290.188H111.698C109.377 290.188 108.216 291.447 108.216 293.966V300.749H106.145V288.276H108.216V290.302Z" fill="white"/>
<path d="M87.7893 292.805C87.7893 291.258 88.1383 289.869 88.8363 288.64C89.5343 287.396 90.4826 286.425 91.6813 285.727C92.8952 285.029 94.2381 284.68 95.7099 284.68C97.4397 284.68 98.9495 285.097 100.239 285.932C101.529 286.766 102.47 287.95 103.062 289.482H100.581C100.141 288.526 99.5034 287.79 98.6688 287.275C97.8494 286.759 96.8631 286.501 95.7099 286.501C94.6023 286.501 93.6084 286.759 92.7283 287.275C91.8483 287.79 91.1579 288.526 90.6571 289.482C90.1564 290.423 89.906 291.531 89.906 292.805C89.906 294.065 90.1564 295.172 90.6571 296.128C91.1579 297.069 91.8483 297.797 92.7283 298.313C93.6084 298.829 94.6023 299.087 95.7099 299.087C96.8631 299.087 97.8494 298.837 98.6688 298.336C99.5034 297.82 100.141 297.084 100.581 296.128H103.062C102.47 297.646 101.529 298.822 100.239 299.656C98.9495 300.476 97.4397 300.885 95.7099 300.885C94.2381 300.885 92.8952 300.544 91.6813 299.861C90.4826 299.163 89.5343 298.2 88.8363 296.97C88.1383 295.741 87.7893 294.353 87.7893 292.805Z" fill="white"/>
<path d="M68.8117 299.087C70.7388 297.539 72.2485 296.272 73.341 295.286C74.4335 294.285 75.3515 293.245 76.0951 292.168C76.8537 291.076 77.2331 290.006 77.2331 288.959C77.2331 287.973 76.9903 287.199 76.5047 286.637C76.0344 286.061 75.2681 285.772 74.2059 285.772C73.1741 285.772 72.3699 286.099 71.7933 286.751C71.2319 287.388 70.9284 288.246 70.8829 289.323H68.88C68.9407 287.624 69.4566 286.311 70.4277 285.385C71.3988 284.46 72.6506 283.997 74.1832 283.997C75.7461 283.997 76.9827 284.429 77.8931 285.294C78.8187 286.159 79.2815 287.35 79.2815 288.868C79.2815 290.127 78.9022 291.356 78.1435 292.555C77.4 293.738 76.5503 294.785 75.5943 295.696C74.6384 296.591 73.4169 297.638 71.9299 298.837H79.7595V300.567H68.8117V299.087Z" fill="white"/>
<path d="M280.053 321.408C280.417 320.694 280.933 320.141 281.601 319.746C282.284 319.352 283.11 319.154 284.082 319.154V321.294H283.535C281.214 321.294 280.053 322.553 280.053 325.072V331.855H277.982V319.382H280.053V321.408Z" fill="white"/>
<path d="M275.248 325.14C275.248 325.535 275.225 325.952 275.18 326.392H265.21C265.286 327.621 265.704 328.585 266.462 329.283C267.236 329.966 268.169 330.307 269.262 330.307C270.157 330.307 270.901 330.102 271.492 329.692C272.099 329.268 272.524 328.706 272.767 328.008H274.997C274.664 329.207 273.996 330.186 272.995 330.944C271.993 331.688 270.749 332.06 269.262 332.06C268.078 332.06 267.016 331.794 266.075 331.263C265.15 330.732 264.421 329.981 263.89 329.01C263.359 328.023 263.094 326.885 263.094 325.596C263.094 324.306 263.352 323.175 263.868 322.204C264.384 321.233 265.104 320.49 266.03 319.974C266.971 319.443 268.048 319.177 269.262 319.177C270.445 319.177 271.492 319.435 272.403 319.951C273.313 320.467 274.011 321.18 274.497 322.09C274.997 322.986 275.248 324.002 275.248 325.14ZM273.108 324.708C273.108 323.919 272.934 323.244 272.585 322.682C272.236 322.106 271.758 321.673 271.151 321.385C270.559 321.081 269.899 320.93 269.171 320.93C268.124 320.93 267.229 321.263 266.485 321.931C265.757 322.599 265.339 323.524 265.233 324.708H273.108Z" fill="white"/>
<path d="M253.63 319.177C254.708 319.177 255.648 319.412 256.453 319.883C257.272 320.353 257.879 320.945 258.274 321.658V319.382H260.367V332.128C260.367 333.266 260.125 334.275 259.639 335.155C259.154 336.05 258.456 336.748 257.545 337.249C256.65 337.75 255.603 338 254.404 338C252.765 338 251.4 337.613 250.307 336.839C249.215 336.065 248.57 335.011 248.373 333.676H250.421C250.649 334.434 251.119 335.041 251.832 335.496C252.545 335.967 253.403 336.202 254.404 336.202C255.542 336.202 256.468 335.845 257.181 335.132C257.909 334.419 258.274 333.418 258.274 332.128V329.51C257.864 330.239 257.257 330.846 256.453 331.331C255.648 331.817 254.708 332.06 253.63 332.06C252.523 332.06 251.514 331.786 250.603 331.24C249.708 330.694 249.002 329.928 248.487 328.941C247.971 327.955 247.713 326.832 247.713 325.573C247.713 324.298 247.971 323.183 248.487 322.227C249.002 321.256 249.708 320.505 250.603 319.974C251.514 319.443 252.523 319.177 253.63 319.177ZM258.274 325.596C258.274 324.655 258.084 323.835 257.704 323.137C257.325 322.439 256.809 321.908 256.157 321.544C255.519 321.165 254.814 320.975 254.04 320.975C253.266 320.975 252.561 321.157 251.923 321.521C251.286 321.886 250.778 322.417 250.398 323.115C250.019 323.813 249.829 324.632 249.829 325.573C249.829 326.529 250.019 327.363 250.398 328.076C250.778 328.774 251.286 329.313 251.923 329.692C252.561 330.057 253.266 330.239 254.04 330.239C254.814 330.239 255.519 330.057 256.157 329.692C256.809 329.313 257.325 328.774 257.704 328.076C258.084 327.363 258.274 326.536 258.274 325.596Z" fill="white"/>
<path d="M232.332 325.573C232.332 324.298 232.59 323.183 233.105 322.227C233.621 321.256 234.327 320.505 235.222 319.974C236.133 319.443 237.142 319.177 238.249 319.177C239.342 319.177 240.29 319.412 241.094 319.883C241.899 320.353 242.498 320.945 242.892 321.658V319.382H244.986V331.855H242.892V329.533C242.483 330.261 241.868 330.868 241.049 331.354C240.245 331.824 239.304 332.06 238.227 332.06C237.119 332.06 236.117 331.786 235.222 331.24C234.327 330.694 233.621 329.928 233.105 328.941C232.59 327.955 232.332 326.832 232.332 325.573ZM242.892 325.596C242.892 324.655 242.703 323.835 242.323 323.137C241.944 322.439 241.428 321.908 240.776 321.544C240.138 321.165 239.433 320.975 238.659 320.975C237.885 320.975 237.18 321.157 236.542 321.521C235.905 321.886 235.397 322.417 235.017 323.115C234.638 323.813 234.448 324.632 234.448 325.573C234.448 326.529 234.638 327.363 235.017 328.076C235.397 328.774 235.905 329.313 236.542 329.692C237.18 330.057 237.885 330.239 238.659 330.239C239.433 330.239 240.138 330.057 240.776 329.692C241.428 329.313 241.944 328.774 242.323 328.076C242.703 327.363 242.892 326.536 242.892 325.596Z" fill="white"/>
<path d="M224.624 319.154C226.141 319.154 227.37 319.617 228.311 320.543C229.252 321.453 229.722 322.773 229.722 324.503V331.855H227.674V324.799C227.674 323.555 227.363 322.606 226.741 321.954C226.118 321.286 225.269 320.952 224.191 320.952C223.099 320.952 222.226 321.294 221.574 321.977C220.937 322.659 220.618 323.653 220.618 324.958V331.855H218.547V319.382H220.618V321.157C221.028 320.52 221.581 320.027 222.279 319.678C222.993 319.329 223.774 319.154 224.624 319.154Z" fill="white"/>
<path d="M202.392 325.573C202.392 324.298 202.65 323.183 203.166 322.227C203.682 321.256 204.387 320.505 205.282 319.974C206.193 319.443 207.202 319.177 208.31 319.177C209.402 319.177 210.35 319.412 211.155 319.883C211.959 320.353 212.558 320.945 212.953 321.658V319.382H215.047V331.855H212.953V329.533C212.543 330.261 211.928 330.868 211.109 331.354C210.305 331.824 209.364 332.06 208.287 332.06C207.179 332.06 206.178 331.786 205.282 331.24C204.387 330.694 203.682 329.928 203.166 328.941C202.65 327.955 202.392 326.832 202.392 325.573ZM212.953 325.596C212.953 324.655 212.763 323.835 212.384 323.137C212.004 322.439 211.488 321.908 210.836 321.544C210.199 321.165 209.493 320.975 208.719 320.975C207.945 320.975 207.24 321.157 206.602 321.521C205.965 321.886 205.457 322.417 205.078 323.115C204.698 323.813 204.509 324.632 204.509 325.573C204.509 326.529 204.698 327.363 205.078 328.076C205.457 328.774 205.965 329.313 206.602 329.692C207.24 330.057 207.945 330.239 208.719 330.239C209.493 330.239 210.199 330.057 210.836 329.692C211.488 329.313 212.004 328.774 212.384 328.076C212.763 327.363 212.953 326.536 212.953 325.596Z" fill="white"/>
<path d="M199.653 316.104V331.855H197.582V320.11L192.347 331.855H190.89L185.633 320.088V331.855H183.561V316.104H185.792L191.619 329.123L197.445 316.104H199.653Z" fill="white"/>
<path d="M171.729 321.089V328.441C171.729 329.048 171.858 329.48 172.116 329.738C172.374 329.981 172.822 330.102 173.459 330.102H174.984V331.855H173.118C171.964 331.855 171.099 331.589 170.523 331.058C169.946 330.527 169.658 329.654 169.658 328.441V321.089H168.042V319.382H169.658V316.241H171.729V319.382H174.984V321.089H171.729Z" fill="white"/>
<path d="M154.604 325.596C154.604 324.306 154.862 323.183 155.378 322.227C155.893 321.256 156.607 320.505 157.517 319.974C158.443 319.443 159.497 319.177 160.681 319.177C162.213 319.177 163.473 319.549 164.459 320.292C165.46 321.036 166.121 322.068 166.439 323.388H164.209C163.996 322.629 163.579 322.03 162.957 321.59C162.35 321.15 161.591 320.93 160.681 320.93C159.497 320.93 158.541 321.339 157.813 322.159C157.085 322.963 156.72 324.109 156.72 325.596C156.72 327.098 157.085 328.259 157.813 329.078C158.541 329.897 159.497 330.307 160.681 330.307C161.591 330.307 162.35 330.095 162.957 329.67C163.564 329.245 163.981 328.638 164.209 327.849H166.439C166.105 329.123 165.438 330.148 164.436 330.921C163.435 331.68 162.183 332.06 160.681 332.06C159.497 332.06 158.443 331.794 157.517 331.263C156.607 330.732 155.893 329.981 155.378 329.01C154.862 328.039 154.604 326.9 154.604 325.596Z" fill="white"/>
<path d="M152.644 325.14C152.644 325.535 152.621 325.952 152.575 326.392H142.606C142.682 327.621 143.099 328.585 143.858 329.283C144.632 329.966 145.565 330.307 146.658 330.307C147.553 330.307 148.296 330.102 148.888 329.692C149.495 329.268 149.92 328.706 150.163 328.008H152.393C152.059 329.207 151.392 330.186 150.39 330.944C149.389 331.688 148.145 332.06 146.658 332.06C145.474 332.06 144.412 331.794 143.471 331.263C142.546 330.732 141.817 329.981 141.286 329.01C140.755 328.023 140.49 326.885 140.49 325.596C140.49 324.306 140.748 323.175 141.263 322.204C141.779 321.233 142.5 320.49 143.426 319.974C144.366 319.443 145.444 319.177 146.658 319.177C147.841 319.177 148.888 319.435 149.799 319.951C150.709 320.467 151.407 321.18 151.893 322.09C152.393 322.986 152.644 324.002 152.644 325.14ZM150.504 324.708C150.504 323.919 150.33 323.244 149.981 322.682C149.632 322.106 149.154 321.673 148.547 321.385C147.955 321.081 147.295 320.93 146.567 320.93C145.52 320.93 144.624 321.263 143.881 321.931C143.153 322.599 142.735 323.524 142.629 324.708H150.504Z" fill="white"/>
<path d="M136.733 317.356C136.339 317.356 136.005 317.22 135.732 316.947C135.474 316.673 135.345 316.34 135.345 315.945C135.345 315.551 135.474 315.217 135.732 314.944C136.005 314.671 136.339 314.534 136.733 314.534C137.128 314.534 137.454 314.671 137.712 314.944C137.985 315.217 138.121 315.551 138.121 315.945C138.121 316.34 137.985 316.673 137.712 316.947C137.454 317.22 137.128 317.356 136.733 317.356ZM137.757 334.563C137.757 335.671 137.477 336.483 136.915 336.999C136.354 337.514 135.534 337.772 134.457 337.772H133.251V336.02H134.116C134.692 336.02 135.094 335.906 135.322 335.678C135.565 335.451 135.686 335.064 135.686 334.518V319.382H137.757V334.563Z" fill="white"/>
<path d="M126.499 332.06C125.33 332.06 124.268 331.794 123.312 331.263C122.372 330.732 121.628 329.981 121.082 329.01C120.551 328.023 120.285 326.885 120.285 325.596C120.285 324.321 120.558 323.198 121.105 322.227C121.666 321.241 122.425 320.49 123.381 319.974C124.337 319.443 125.406 319.177 126.59 319.177C127.773 319.177 128.843 319.443 129.799 319.974C130.755 320.49 131.506 321.233 132.052 322.204C132.614 323.175 132.895 324.306 132.895 325.596C132.895 326.885 132.606 328.023 132.03 329.01C131.468 329.981 130.702 330.732 129.731 331.263C128.76 331.794 127.682 332.06 126.499 332.06ZM126.499 330.239C127.242 330.239 127.94 330.064 128.593 329.715C129.245 329.366 129.769 328.843 130.163 328.145C130.573 327.447 130.778 326.597 130.778 325.596C130.778 324.594 130.581 323.744 130.186 323.046C129.792 322.348 129.276 321.832 128.638 321.499C128.001 321.15 127.311 320.975 126.567 320.975C125.808 320.975 125.11 321.15 124.473 321.499C123.851 321.832 123.35 322.348 122.971 323.046C122.592 323.744 122.402 324.594 122.402 325.596C122.402 326.612 122.584 327.469 122.948 328.167C123.328 328.865 123.828 329.389 124.45 329.738C125.072 330.072 125.755 330.239 126.499 330.239Z" fill="white"/>
<path d="M114.64 321.408C115.004 320.694 115.52 320.141 116.187 319.746C116.87 319.352 117.697 319.154 118.668 319.154V321.294H118.122C115.8 321.294 114.64 322.553 114.64 325.072V331.855H112.568V319.382H114.64V321.408Z" fill="white"/>
<path d="M109.994 320.634C109.994 321.954 109.539 323.054 108.628 323.934C107.733 324.799 106.36 325.231 104.509 325.231H101.459V331.855H99.3877V315.991H104.509C106.299 315.991 107.657 316.423 108.583 317.288C109.524 318.153 109.994 319.268 109.994 320.634ZM104.509 323.524C105.662 323.524 106.512 323.274 107.058 322.773C107.604 322.273 107.877 321.559 107.877 320.634C107.877 318.676 106.755 317.698 104.509 317.698H101.459V323.524H104.509Z" fill="white"/>
<path d="M85.1416 317.288V315.399H89.4206V331.855H87.3266V317.288H85.1416Z" fill="white"/>
<path d="M275.586 464.3L271.311 478H268.961L265.661 467.125L262.361 478H260.011L255.711 464.3H258.036L261.186 475.8L264.586 464.3H266.911L270.236 475.825L273.336 464.3H275.586Z" fill="black"/>
<path d="M247.319 478.225C246.036 478.225 244.869 477.933 243.819 477.35C242.786 476.767 241.969 475.942 241.369 474.875C240.786 473.792 240.494 472.542 240.494 471.125C240.494 469.725 240.794 468.492 241.394 467.425C242.011 466.342 242.844 465.517 243.894 464.95C244.944 464.367 246.119 464.075 247.419 464.075C248.719 464.075 249.894 464.367 250.944 464.95C251.994 465.517 252.819 466.333 253.419 467.4C254.036 468.467 254.344 469.708 254.344 471.125C254.344 472.542 254.028 473.792 253.394 474.875C252.778 475.942 251.936 476.767 250.869 477.35C249.803 477.933 248.619 478.225 247.319 478.225ZM247.319 476.225C248.136 476.225 248.903 476.033 249.619 475.65C250.336 475.267 250.911 474.692 251.344 473.925C251.794 473.158 252.019 472.225 252.019 471.125C252.019 470.025 251.803 469.092 251.369 468.325C250.936 467.558 250.369 466.992 249.669 466.625C248.969 466.242 248.211 466.05 247.394 466.05C246.561 466.05 245.794 466.242 245.094 466.625C244.411 466.992 243.861 467.558 243.444 468.325C243.028 469.092 242.819 470.025 242.819 471.125C242.819 472.242 243.019 473.183 243.419 473.95C243.836 474.717 244.386 475.292 245.069 475.675C245.753 476.042 246.503 476.225 247.319 476.225Z" fill="black"/>
<path d="M232.028 464.05C233.695 464.05 235.045 464.558 236.078 465.575C237.112 466.575 237.628 468.025 237.628 469.925V478H235.378V470.25C235.378 468.883 235.037 467.842 234.353 467.125C233.67 466.392 232.737 466.025 231.553 466.025C230.353 466.025 229.395 466.4 228.678 467.15C227.978 467.9 227.628 468.992 227.628 470.425V478H225.353V464.3H227.628V466.25C228.078 465.55 228.687 465.008 229.453 464.625C230.237 464.242 231.095 464.05 232.028 464.05Z" fill="black"/>
<path d="M215.685 470.625C215.685 471.058 215.66 471.517 215.61 472H204.66C204.744 473.35 205.202 474.408 206.035 475.175C206.885 475.925 207.91 476.3 209.11 476.3C210.094 476.3 210.91 476.075 211.56 475.625C212.227 475.158 212.694 474.542 212.96 473.775H215.41C215.044 475.092 214.31 476.167 213.21 477C212.11 477.817 210.744 478.225 209.11 478.225C207.81 478.225 206.644 477.933 205.61 477.35C204.594 476.767 203.794 475.942 203.21 474.875C202.627 473.792 202.335 472.542 202.335 471.125C202.335 469.708 202.619 468.467 203.185 467.4C203.752 466.333 204.544 465.517 205.56 464.95C206.594 464.367 207.777 464.075 209.11 464.075C210.41 464.075 211.56 464.358 212.56 464.925C213.56 465.492 214.327 466.275 214.86 467.275C215.41 468.258 215.685 469.375 215.685 470.625ZM213.335 470.15C213.335 469.283 213.144 468.542 212.76 467.925C212.377 467.292 211.852 466.817 211.185 466.5C210.535 466.167 209.81 466 209.01 466C207.86 466 206.877 466.367 206.06 467.1C205.26 467.833 204.802 468.85 204.685 470.15H213.335Z" fill="black"/>
<path d="M188.566 466.85C189.032 466.033 189.716 465.367 190.616 464.85C191.516 464.333 192.541 464.075 193.691 464.075C194.924 464.075 196.032 464.367 197.016 464.95C197.999 465.533 198.774 466.358 199.341 467.425C199.907 468.475 200.191 469.7 200.191 471.1C200.191 472.483 199.907 473.717 199.341 474.8C198.774 475.883 197.991 476.725 196.991 477.325C196.007 477.925 194.907 478.225 193.691 478.225C192.507 478.225 191.466 477.967 190.566 477.45C189.682 476.933 189.016 476.275 188.566 475.475V478H186.291V459.5H188.566V466.85ZM197.866 471.1C197.866 470.067 197.657 469.167 197.241 468.4C196.824 467.633 196.257 467.05 195.541 466.65C194.841 466.25 194.066 466.05 193.216 466.05C192.382 466.05 191.607 466.258 190.891 466.675C190.191 467.075 189.624 467.667 189.191 468.45C188.774 469.217 188.566 470.108 188.566 471.125C188.566 472.158 188.774 473.067 189.191 473.85C189.624 474.617 190.191 475.208 190.891 475.625C191.607 476.025 192.382 476.225 193.216 476.225C194.066 476.225 194.841 476.025 195.541 475.625C196.257 475.208 196.824 474.617 197.241 473.85C197.657 473.067 197.866 472.15 197.866 471.1Z" fill="black"/>
<path d="M181.313 462.075C180.88 462.075 180.513 461.925 180.213 461.625C179.913 461.325 179.763 460.958 179.763 460.525C179.763 460.092 179.913 459.725 180.213 459.425C180.513 459.125 180.88 458.975 181.313 458.975C181.73 458.975 182.08 459.125 182.363 459.425C182.663 459.725 182.813 460.092 182.813 460.525C182.813 460.958 182.663 461.325 182.363 461.625C182.08 461.925 181.73 462.075 181.313 462.075ZM182.413 464.3V478H180.138V464.3H182.413Z" fill="black"/>
<path d="M173.087 466.525C173.487 465.742 174.054 465.133 174.787 464.7C175.537 464.267 176.446 464.05 177.512 464.05V466.4H176.912C174.362 466.4 173.087 467.783 173.087 470.55V478H170.812V464.3H173.087V466.525Z" fill="black"/>
<path d="M154.777 471.125C154.777 469.708 155.06 468.475 155.627 467.425C156.193 466.358 156.977 465.533 157.977 464.95C158.993 464.367 160.152 464.075 161.452 464.075C163.135 464.075 164.518 464.483 165.602 465.3C166.702 466.117 167.427 467.25 167.777 468.7H165.327C165.093 467.867 164.635 467.208 163.952 466.725C163.285 466.242 162.452 466 161.452 466C160.152 466 159.102 466.45 158.302 467.35C157.502 468.233 157.102 469.492 157.102 471.125C157.102 472.775 157.502 474.05 158.302 474.95C159.102 475.85 160.152 476.3 161.452 476.3C162.452 476.3 163.285 476.067 163.952 475.6C164.618 475.133 165.077 474.467 165.327 473.6H167.777C167.41 475 166.677 476.125 165.577 476.975C164.477 477.808 163.102 478.225 161.452 478.225C160.152 478.225 158.993 477.933 157.977 477.35C156.977 476.767 156.193 475.942 155.627 474.875C155.06 473.808 154.777 472.558 154.777 471.125Z" fill="black"/>
<path d="M147.415 478.225C146.365 478.225 145.423 478.05 144.59 477.7C143.757 477.333 143.098 476.833 142.615 476.2C142.132 475.55 141.865 474.808 141.815 473.975H144.165C144.232 474.658 144.548 475.217 145.115 475.65C145.698 476.083 146.457 476.3 147.39 476.3C148.257 476.3 148.94 476.108 149.44 475.725C149.94 475.342 150.19 474.858 150.19 474.275C150.19 473.675 149.923 473.233 149.39 472.95C148.857 472.65 148.032 472.358 146.915 472.075C145.898 471.808 145.065 471.542 144.415 471.275C143.782 470.992 143.232 470.583 142.765 470.05C142.315 469.5 142.09 468.783 142.09 467.9C142.09 467.2 142.298 466.558 142.715 465.975C143.132 465.392 143.723 464.933 144.49 464.6C145.257 464.25 146.132 464.075 147.115 464.075C148.632 464.075 149.857 464.458 150.79 465.225C151.723 465.992 152.223 467.042 152.29 468.375H150.015C149.965 467.658 149.673 467.083 149.14 466.65C148.623 466.217 147.923 466 147.04 466C146.223 466 145.573 466.175 145.09 466.525C144.607 466.875 144.365 467.333 144.365 467.9C144.365 468.35 144.507 468.725 144.79 469.025C145.09 469.308 145.457 469.542 145.89 469.725C146.34 469.892 146.957 470.083 147.74 470.3C148.723 470.567 149.523 470.833 150.14 471.1C150.757 471.35 151.282 471.733 151.715 472.25C152.165 472.767 152.398 473.442 152.415 474.275C152.415 475.025 152.207 475.7 151.79 476.3C151.373 476.9 150.782 477.375 150.015 477.725C149.265 478.058 148.398 478.225 147.415 478.225Z" fill="black"/>
<path d="M127.946 466.85C128.412 466.033 129.096 465.367 129.996 464.85C130.896 464.333 131.921 464.075 133.071 464.075C134.304 464.075 135.412 464.367 136.396 464.95C137.379 465.533 138.154 466.358 138.721 467.425C139.287 468.475 139.571 469.7 139.571 471.1C139.571 472.483 139.287 473.717 138.721 474.8C138.154 475.883 137.371 476.725 136.371 477.325C135.387 477.925 134.287 478.225 133.071 478.225C131.887 478.225 130.846 477.967 129.946 477.45C129.062 476.933 128.396 476.275 127.946 475.475V478H125.671V459.5H127.946V466.85ZM137.246 471.1C137.246 470.067 137.037 469.167 136.621 468.4C136.204 467.633 135.637 467.05 134.921 466.65C134.221 466.25 133.446 466.05 132.596 466.05C131.762 466.05 130.987 466.258 130.271 466.675C129.571 467.075 129.004 467.667 128.571 468.45C128.154 469.217 127.946 470.108 127.946 471.125C127.946 472.158 128.154 473.067 128.571 473.85C129.004 474.617 129.571 475.208 130.271 475.625C130.987 476.025 131.762 476.225 132.596 476.225C133.446 476.225 134.221 476.025 134.921 475.625C135.637 475.208 136.204 474.617 136.621 473.85C137.037 473.067 137.246 472.15 137.246 471.1Z" fill="black"/>
<path d="M121.829 464.3V478H119.554V475.975C119.121 476.675 118.513 477.225 117.729 477.625C116.963 478.008 116.113 478.2 115.179 478.2C114.113 478.2 113.154 477.983 112.304 477.55C111.454 477.1 110.779 476.433 110.279 475.55C109.796 474.667 109.554 473.592 109.554 472.325V464.3H111.804V472.025C111.804 473.375 112.146 474.417 112.829 475.15C113.513 475.867 114.446 476.225 115.629 476.225C116.846 476.225 117.804 475.85 118.504 475.1C119.204 474.35 119.554 473.258 119.554 471.825V464.3H121.829Z" fill="black"/>
<path d="M100.532 478.175C99.3815 478.175 98.3482 477.975 97.4315 477.575C96.5315 477.158 95.8232 476.592 95.3065 475.875C94.7899 475.142 94.5232 474.3 94.5065 473.35H96.9315C97.0149 474.167 97.3482 474.858 97.9315 475.425C98.5315 475.975 99.3982 476.25 100.532 476.25C101.615 476.25 102.465 475.983 103.082 475.45C103.715 474.9 104.032 474.2 104.032 473.35C104.032 472.683 103.848 472.142 103.482 471.725C103.115 471.308 102.657 470.992 102.107 470.775C101.557 470.558 100.815 470.325 99.8815 470.075C98.7315 469.775 97.8065 469.475 97.1065 469.175C96.4232 468.875 95.8315 468.408 95.3315 467.775C94.8482 467.125 94.6065 466.258 94.6065 465.175C94.6065 464.225 94.8482 463.383 95.3315 462.65C95.8149 461.917 96.4899 461.35 97.3565 460.95C98.2399 460.55 99.2482 460.35 100.382 460.35C102.015 460.35 103.348 460.758 104.382 461.575C105.432 462.392 106.023 463.475 106.157 464.825H103.657C103.573 464.158 103.223 463.575 102.607 463.075C101.99 462.558 101.173 462.3 100.157 462.3C99.2065 462.3 98.4315 462.55 97.8315 463.05C97.2315 463.533 96.9315 464.217 96.9315 465.1C96.9315 465.733 97.1065 466.25 97.4565 466.65C97.8232 467.05 98.2649 467.358 98.7815 467.575C99.3149 467.775 100.057 468.008 101.007 468.275C102.157 468.592 103.082 468.908 103.782 469.225C104.482 469.525 105.082 470 105.582 470.65C106.082 471.283 106.332 472.15 106.332 473.25C106.332 474.1 106.107 474.9 105.657 475.65C105.207 476.4 104.54 477.008 103.657 477.475C102.773 477.942 101.732 478.175 100.532 478.175Z" fill="black"/>
<path d="M290.76 58.7C294.293 58.7 297.06 59.7667 299.06 61.9C301.093 64.0333 302.11 66.95 302.11 70.65V87H292.31V71.95C292.31 70.45 291.893 69.2833 291.06 68.45C290.226 67.6167 289.093 67.2 287.66 67.2C286.226 67.2 285.093 67.6167 284.26 68.45C283.426 69.2833 283.01 70.45 283.01 71.95V87H273.21V71.95C273.21 70.45 272.793 69.2833 271.96 68.45C271.16 67.6167 270.043 67.2 268.61 67.2C267.143 67.2 265.993 67.6167 265.16 68.45C264.326 69.2833 263.91 70.45 263.91 71.95V87H254.11V58.95H263.91V62.65C264.776 61.45 265.893 60.5 267.26 59.8C268.66 59.0667 270.26 58.7 272.06 58.7C274.126 58.7 275.96 59.15 277.56 60.05C279.193 60.95 280.476 62.2167 281.41 63.85C282.41 62.3167 283.726 61.0833 285.36 60.15C286.993 59.1833 288.793 58.7 290.76 58.7Z" fill="white"/>
<path d="M248.532 58.95V87H238.682V83C237.849 84.2667 236.699 85.3 235.232 86.1C233.766 86.8667 232.082 87.25 230.182 87.25C226.916 87.25 224.332 86.1833 222.432 84.05C220.566 81.8833 219.632 78.95 219.632 75.25V58.95H229.382V74C229.382 75.6 229.799 76.8667 230.632 77.8C231.499 78.7 232.632 79.15 234.032 79.15C235.466 79.15 236.599 78.7 237.432 77.8C238.266 76.8667 238.682 75.6 238.682 74V58.95H248.532Z" fill="white"/>
<path d="M209.401 56.35C207.668 56.35 206.268 55.8833 205.201 54.95C204.168 53.9833 203.651 52.7833 203.651 51.35C203.651 49.8833 204.168 48.6667 205.201 47.7C206.268 46.7333 207.668 46.25 209.401 46.25C211.101 46.25 212.468 46.7333 213.501 47.7C214.568 48.6667 215.101 49.8833 215.101 51.35C215.101 52.7833 214.568 53.9833 213.501 54.95C212.468 55.8833 211.101 56.35 209.401 56.35ZM214.251 58.95V87H204.451V58.95H214.251Z" fill="white"/>
<path d="M187.732 58.7C191.266 58.7 194.032 59.7667 196.032 61.9C198.066 64.0333 199.082 66.95 199.082 70.65V87H189.282V71.95C189.282 70.45 188.866 69.2833 188.032 68.45C187.199 67.6167 186.066 67.2 184.632 67.2C183.199 67.2 182.066 67.6167 181.232 68.45C180.399 69.2833 179.982 70.45 179.982 71.95V87H170.182V71.95C170.182 70.45 169.766 69.2833 168.932 68.45C168.132 67.6167 167.016 67.2 165.582 67.2C164.116 67.2 162.966 67.6167 162.132 68.45C161.299 69.2833 160.882 70.45 160.882 71.95V87H151.082V58.95H160.882V62.65C161.749 61.45 162.866 60.5 164.232 59.8C165.632 59.0667 167.232 58.7 169.032 58.7C171.099 58.7 172.932 59.15 174.532 60.05C176.166 60.95 177.449 62.2167 178.382 63.85C179.382 62.3167 180.699 61.0833 182.332 60.15C183.966 59.1833 185.766 58.7 187.732 58.7Z" fill="white"/>
<path d="M147.072 72.65C147.072 73.4166 147.022 74.1833 146.922 74.95H128.372C128.472 76.4833 128.888 77.6333 129.622 78.4C130.388 79.1333 131.355 79.5 132.522 79.5C134.155 79.5 135.322 78.7666 136.022 77.3H146.472C146.038 79.2333 145.188 80.9666 143.922 82.5C142.688 84 141.122 85.1833 139.222 86.05C137.322 86.9166 135.222 87.35 132.922 87.35C130.155 87.35 127.688 86.7666 125.522 85.6C123.388 84.4333 121.705 82.7666 120.472 80.6C119.272 78.4333 118.672 75.8833 118.672 72.95C118.672 70.0166 119.272 67.4833 120.472 65.35C121.672 63.1833 123.338 61.5166 125.472 60.35C127.638 59.1833 130.122 58.6 132.922 58.6C135.688 58.6 138.138 59.1666 140.272 60.3C142.405 61.4333 144.072 63.0666 145.272 65.2C146.472 67.3 147.072 69.7833 147.072 72.65ZM137.072 70.2C137.072 69 136.672 68.0666 135.872 67.4C135.072 66.7 134.072 66.35 132.872 66.35C131.672 66.35 130.688 66.6833 129.922 67.35C129.155 67.9833 128.655 68.9333 128.422 70.2H137.072Z" fill="white"/>
<path d="M107.708 63.9C108.808 62.3 110.142 61.0333 111.708 60.1C113.275 59.1667 114.958 58.7 116.758 58.7V69.15H114.008C111.875 69.15 110.292 69.5667 109.258 70.4C108.225 71.2333 107.708 72.6833 107.708 74.75V87H97.9084V58.95H107.708V63.9Z" fill="white"/>
<path d="M93.9713 63.5C93.9713 65.6333 93.4713 67.5833 92.4713 69.35C91.5046 71.0833 90.0213 72.4833 88.0213 73.55C86.0546 74.5833 83.6379 75.1 80.7713 75.1H75.9213V87H66.1213V51.75H80.7713C83.6046 51.75 86.0046 52.25 87.9713 53.25C89.9713 54.25 91.4713 55.6333 92.4713 57.4C93.4713 59.1667 93.9713 61.2 93.9713 63.5ZM79.8213 67.3C82.5879 67.3 83.9713 66.0333 83.9713 63.5C83.9713 60.9333 82.5879 59.65 79.8213 59.65H75.9213V67.3H79.8213Z" fill="white"/>
<rect x="1" y="194" width="367" height="32" fill="#DEE13E"/>
<path d="M260.854 205.956L254.554 220.77H251.242L253.546 215.658L249.46 205.956H252.898L255.22 212.238L257.524 205.956H260.854Z" fill="black"/>
<path d="M248.363 202.68V216H245.285V202.68H248.363Z" fill="black"/>
<path d="M240.664 207.63C241.024 207.078 241.474 206.646 242.014 206.334C242.554 206.01 243.154 205.848 243.814 205.848V209.106H242.968C242.2 209.106 241.624 209.274 241.24 209.61C240.856 209.934 240.664 210.51 240.664 211.338V216H237.586V205.956H240.664V207.63Z" fill="black"/>
<path d="M224.757 210.96C224.757 209.928 224.949 209.022 225.333 208.242C225.729 207.462 226.263 206.862 226.935 206.442C227.607 206.022 228.357 205.812 229.185 205.812C229.893 205.812 230.511 205.956 231.039 206.244C231.579 206.532 231.993 206.91 232.281 207.378V205.956H235.359V216H232.281V214.578C231.981 215.046 231.561 215.424 231.021 215.712C230.493 216 229.875 216.144 229.167 216.144C228.351 216.144 227.607 215.934 226.935 215.514C226.263 215.082 225.729 214.476 225.333 213.696C224.949 212.904 224.757 211.992 224.757 210.96ZM232.281 210.978C232.281 210.21 232.065 209.604 231.633 209.16C231.213 208.716 230.697 208.494 230.085 208.494C229.473 208.494 228.951 208.716 228.519 209.16C228.099 209.592 227.889 210.192 227.889 210.96C227.889 211.728 228.099 212.34 228.519 212.796C228.951 213.24 229.473 213.462 230.085 213.462C230.697 213.462 231.213 213.24 231.633 212.796C232.065 212.352 232.281 211.746 232.281 210.978Z" fill="black"/>
<path d="M223.745 210.816C223.745 211.104 223.727 211.404 223.691 211.716H216.725C216.773 212.34 216.971 212.82 217.319 213.156C217.679 213.48 218.117 213.642 218.633 213.642C219.401 213.642 219.935 213.318 220.235 212.67H223.511C223.343 213.33 223.037 213.924 222.593 214.452C222.161 214.98 221.615 215.394 220.955 215.694C220.295 215.994 219.557 216.144 218.741 216.144C217.757 216.144 216.881 215.934 216.113 215.514C215.345 215.094 214.745 214.494 214.313 213.714C213.881 212.934 213.665 212.022 213.665 210.978C213.665 209.934 213.875 209.022 214.295 208.242C214.727 207.462 215.327 206.862 216.095 206.442C216.863 206.022 217.745 205.812 218.741 205.812C219.713 205.812 220.577 206.016 221.333 206.424C222.089 206.832 222.677 207.414 223.097 208.17C223.529 208.926 223.745 209.808 223.745 210.816ZM220.595 210.006C220.595 209.478 220.415 209.058 220.055 208.746C219.695 208.434 219.245 208.278 218.705 208.278C218.189 208.278 217.751 208.428 217.391 208.728C217.043 209.028 216.827 209.454 216.743 210.006H220.595Z" fill="black"/>
<path d="M213.164 205.956L206.864 220.77H203.552L205.856 215.658L201.77 205.956H205.208L207.53 212.238L209.834 205.956H213.164Z" fill="black"/>
<path d="M193.081 205.848C194.257 205.848 195.193 206.232 195.889 207C196.597 207.756 196.951 208.8 196.951 210.132V216H193.891V210.546C193.891 209.874 193.717 209.352 193.369 208.98C193.021 208.608 192.553 208.422 191.965 208.422C191.377 208.422 190.909 208.608 190.561 208.98C190.213 209.352 190.039 209.874 190.039 210.546V216H186.961V205.956H190.039V207.288C190.351 206.844 190.771 206.496 191.299 206.244C191.827 205.98 192.421 205.848 193.081 205.848Z" fill="black"/>
<path d="M180.072 216.144C179.088 216.144 178.2 215.934 177.408 215.514C176.628 215.094 176.01 214.494 175.554 213.714C175.11 212.934 174.888 212.022 174.888 210.978C174.888 209.946 175.116 209.04 175.572 208.26C176.028 207.468 176.652 206.862 177.444 206.442C178.236 206.022 179.124 205.812 180.108 205.812C181.092 205.812 181.98 206.022 182.772 206.442C183.564 206.862 184.188 207.468 184.644 208.26C185.1 209.04 185.328 209.946 185.328 210.978C185.328 212.01 185.094 212.922 184.626 213.714C184.17 214.494 183.54 215.094 182.736 215.514C181.944 215.934 181.056 216.144 180.072 216.144ZM180.072 213.48C180.66 213.48 181.158 213.264 181.566 212.832C181.986 212.4 182.196 211.782 182.196 210.978C182.196 210.174 181.992 209.556 181.584 209.124C181.188 208.692 180.696 208.476 180.108 208.476C179.508 208.476 179.01 208.692 178.614 209.124C178.218 209.544 178.02 210.162 178.02 210.978C178.02 211.782 178.212 212.4 178.596 212.832C178.992 213.264 179.484 213.48 180.072 213.48Z" fill="black"/>
<path d="M170.239 208.512H168.583V216H165.505V208.512H164.389V205.956H165.505V205.668C165.505 204.432 165.859 203.496 166.567 202.86C167.275 202.212 168.313 201.888 169.681 201.888C169.909 201.888 170.077 201.894 170.185 201.906V204.516C169.597 204.48 169.183 204.564 168.943 204.768C168.703 204.972 168.583 205.338 168.583 205.866V205.956H170.239V208.512Z" fill="black"/>
<path d="M163.753 208.512H162.097V216H159.019V208.512H157.903V205.956H159.019V205.668C159.019 204.432 159.373 203.496 160.081 202.86C160.789 202.212 161.827 201.888 163.195 201.888C163.423 201.888 163.591 201.894 163.699 201.906V204.516C163.111 204.48 162.697 204.564 162.457 204.768C162.217 204.972 162.097 205.338 162.097 205.866V205.956H163.753V208.512Z" fill="black"/>
<path d="M151.824 216.144C150.84 216.144 149.952 215.934 149.16 215.514C148.38 215.094 147.762 214.494 147.306 213.714C146.862 212.934 146.64 212.022 146.64 210.978C146.64 209.946 146.868 209.04 147.324 208.26C147.78 207.468 148.404 206.862 149.196 206.442C149.988 206.022 150.876 205.812 151.86 205.812C152.844 205.812 153.732 206.022 154.524 206.442C155.316 206.862 155.94 207.468 156.396 208.26C156.852 209.04 157.08 209.946 157.08 210.978C157.08 212.01 156.846 212.922 156.378 213.714C155.922 214.494 155.292 215.094 154.488 215.514C153.696 215.934 152.808 216.144 151.824 216.144ZM151.824 213.48C152.412 213.48 152.91 213.264 153.318 212.832C153.738 212.4 153.948 211.782 153.948 210.978C153.948 210.174 153.744 209.556 153.336 209.124C152.94 208.692 152.448 208.476 151.86 208.476C151.26 208.476 150.762 208.692 150.366 209.124C149.97 209.544 149.772 210.162 149.772 210.978C149.772 211.782 149.964 212.4 150.348 212.832C150.744 213.264 151.236 213.48 151.824 213.48Z" fill="black"/>
<path d="M127.217 206.172C127.217 205.2 127.493 204.45 128.045 203.922C128.609 203.394 129.335 203.13 130.223 203.13C131.111 203.13 131.831 203.394 132.383 203.922C132.935 204.45 133.211 205.2 133.211 206.172C133.211 207.144 132.935 207.894 132.383 208.422C131.831 208.95 131.111 209.214 130.223 209.214C129.335 209.214 128.609 208.95 128.045 208.422C127.493 207.894 127.217 207.144 127.217 206.172ZM139.439 203.328L132.509 216H129.539L136.469 203.328H139.439ZM130.205 204.93C129.629 204.93 129.341 205.344 129.341 206.172C129.341 206.988 129.629 207.396 130.205 207.396C130.481 207.396 130.697 207.294 130.853 207.09C131.009 206.886 131.087 206.58 131.087 206.172C131.087 205.344 130.793 204.93 130.205 204.93ZM135.785 213.156C135.785 212.184 136.061 211.434 136.613 210.906C137.165 210.378 137.885 210.114 138.773 210.114C139.661 210.114 140.381 210.378 140.933 210.906C141.485 211.434 141.761 212.184 141.761 213.156C141.761 214.128 141.485 214.878 140.933 215.406C140.381 215.934 139.661 216.198 138.773 216.198C137.885 216.198 137.165 215.934 136.613 215.406C136.061 214.878 135.785 214.128 135.785 213.156ZM138.755 211.914C138.479 211.914 138.263 212.016 138.107 212.22C137.963 212.424 137.891 212.736 137.891 213.156C137.891 213.972 138.179 214.38 138.755 214.38C139.031 214.38 139.247 214.278 139.403 214.074C139.559 213.87 139.637 213.564 139.637 213.156C139.637 212.748 139.559 212.442 139.403 212.238C139.247 212.022 139.031 211.914 138.755 211.914Z" fill="black"/>
<path d="M115.727 209.25C115.727 207.186 116.123 205.56 116.915 204.372C117.719 203.184 119.009 202.59 120.785 202.59C122.561 202.59 123.845 203.184 124.637 204.372C125.441 205.56 125.843 207.186 125.843 209.25C125.843 211.338 125.441 212.976 124.637 214.164C123.845 215.352 122.561 215.946 120.785 215.946C119.009 215.946 117.719 215.352 116.915 214.164C116.123 212.976 115.727 211.338 115.727 209.25ZM122.819 209.25C122.819 208.038 122.687 207.108 122.423 206.46C122.159 205.8 121.613 205.47 120.785 205.47C119.957 205.47 119.411 205.8 119.147 206.46C118.883 207.108 118.751 208.038 118.751 209.25C118.751 210.066 118.799 210.744 118.895 211.284C118.991 211.812 119.183 212.244 119.471 212.58C119.771 212.904 120.209 213.066 120.785 213.066C121.361 213.066 121.793 212.904 122.081 212.58C122.381 212.244 122.579 211.812 122.675 211.284C122.771 210.744 122.819 210.066 122.819 209.25Z" fill="black"/>
<path d="M108.635 205.722V202.86H113.621V216H110.417V205.722H108.635Z" fill="black"/>
<defs>
<linearGradient id="paint0_linear_325_493" x1="184" y1="0" x2="381.037" y2="502.783" gradientUnits="userSpaceOnUse">
<stop/>
<stop offset="1" stop-color="#666666"/>
</linearGradient>
</defs>
</svg>
