<svg width="368" height="522" viewBox="0 0 368 522" fill="none" xmlns="http://www.w3.org/2000/svg">
<rect width="368" height="522" rx="50" fill="black"/>
<path d="M276.459 187.2V193H272.979C270.499 193 268.566 192.4 267.179 191.2C265.792 189.973 265.099 187.987 265.099 185.24V176.36H262.379V170.68H265.099V165.24H271.939V170.68H276.419V176.36H271.939V185.32C271.939 185.987 272.099 186.467 272.419 186.76C272.739 187.053 273.272 187.2 274.019 187.2H276.459Z" fill="white"/>
<path d="M250.666 170.44C253.279 170.44 255.359 171.293 256.906 173C258.479 174.68 259.266 177 259.266 179.96V193H252.466V180.88C252.466 179.387 252.079 178.227 251.306 177.4C250.533 176.573 249.493 176.16 248.186 176.16C246.879 176.16 245.839 176.573 245.066 177.4C244.293 178.227 243.906 179.387 243.906 180.88V193H237.066V170.68H243.906V173.64C244.599 172.653 245.533 171.88 246.706 171.32C247.879 170.733 249.199 170.44 250.666 170.44Z" fill="white"/>
<path d="M233.457 181.48C233.457 182.12 233.417 182.787 233.337 183.48H217.857C217.964 184.867 218.404 185.933 219.177 186.68C219.977 187.4 220.951 187.76 222.097 187.76C223.804 187.76 224.991 187.04 225.657 185.6H232.937C232.564 187.067 231.884 188.387 230.897 189.56C229.937 190.733 228.724 191.653 227.257 192.32C225.791 192.987 224.151 193.32 222.337 193.32C220.151 193.32 218.204 192.853 216.497 191.92C214.791 190.987 213.457 189.653 212.497 187.92C211.537 186.187 211.057 184.16 211.057 181.84C211.057 179.52 211.524 177.493 212.457 175.76C213.417 174.027 214.751 172.693 216.457 171.76C218.164 170.827 220.124 170.36 222.337 170.36C224.497 170.36 226.417 170.813 228.097 171.72C229.777 172.627 231.084 173.92 232.017 175.6C232.977 177.28 233.457 179.24 233.457 181.48ZM226.457 179.68C226.457 178.507 226.057 177.573 225.257 176.88C224.457 176.187 223.457 175.84 222.257 175.84C221.111 175.84 220.137 176.173 219.337 176.84C218.564 177.507 218.084 178.453 217.897 179.68H226.457Z" fill="white"/>
<path d="M198.554 170.44C201.327 170.44 203.527 171.28 205.154 172.96C206.807 174.64 207.634 176.973 207.634 179.96V193H200.834V180.88C200.834 179.44 200.447 178.333 199.674 177.56C198.927 176.76 197.887 176.36 196.554 176.36C195.22 176.36 194.167 176.76 193.394 177.56C192.647 178.333 192.274 179.44 192.274 180.88V193H185.474V180.88C185.474 179.44 185.087 178.333 184.314 177.56C183.567 176.76 182.527 176.36 181.194 176.36C179.86 176.36 178.807 176.76 178.034 177.56C177.287 178.333 176.914 179.44 176.914 180.88V193H170.074V170.68H176.914V173.48C177.607 172.547 178.514 171.813 179.634 171.28C180.754 170.72 182.02 170.44 183.434 170.44C185.114 170.44 186.607 170.8 187.914 171.52C189.247 172.24 190.287 173.267 191.034 174.6C191.807 173.373 192.86 172.373 194.194 171.6C195.527 170.827 196.98 170.44 198.554 170.44Z" fill="white"/>
<path d="M167.6 170.68L153.6 203.6H146.24L151.36 192.24L142.28 170.68H149.92L155.08 184.64L160.2 170.68H167.6Z" fill="white"/>
<path d="M116.292 181.8C116.292 179.507 116.719 177.493 117.572 175.76C118.452 174.027 119.639 172.693 121.132 171.76C122.625 170.827 124.292 170.36 126.132 170.36C127.705 170.36 129.079 170.68 130.252 171.32C131.452 171.96 132.372 172.8 133.012 173.84V170.68H139.852V193H133.012V189.84C132.345 190.88 131.412 191.72 130.212 192.36C129.039 193 127.665 193.32 126.092 193.32C124.279 193.32 122.625 192.853 121.132 191.92C119.639 190.96 118.452 189.613 117.572 187.88C116.719 186.12 116.292 184.093 116.292 181.8ZM133.012 181.84C133.012 180.133 132.532 178.787 131.572 177.8C130.639 176.813 129.492 176.32 128.132 176.32C126.772 176.32 125.612 176.813 124.652 177.8C123.719 178.76 123.252 180.093 123.252 181.8C123.252 183.507 123.719 184.867 124.652 185.88C125.612 186.867 126.772 187.36 128.132 187.36C129.492 187.36 130.639 186.867 131.572 185.88C132.532 184.893 133.012 183.547 133.012 181.84Z" fill="white"/>
<path d="M114.091 173.96C114.091 175.587 113.718 177.08 112.971 178.44C112.224 179.773 111.078 180.853 109.531 181.68C107.984 182.507 106.064 182.92 103.771 182.92H99.5309V193H92.6909V164.92H103.771C106.011 164.92 107.904 165.307 109.451 166.08C110.998 166.853 112.158 167.92 112.931 169.28C113.704 170.64 114.091 172.2 114.091 173.96ZM103.251 177.48C104.558 177.48 105.531 177.173 106.171 176.56C106.811 175.947 107.131 175.08 107.131 173.96C107.131 172.84 106.811 171.973 106.171 171.36C105.531 170.747 104.558 170.44 103.251 170.44H99.5309V177.48H103.251Z" fill="white"/>
<path d="M246.348 141.48C246.348 142.12 246.308 142.787 246.228 143.48H230.748C230.855 144.867 231.295 145.933 232.068 146.68C232.868 147.4 233.841 147.76 234.988 147.76C236.695 147.76 237.881 147.04 238.548 145.6H245.828C245.455 147.067 244.775 148.387 243.788 149.56C242.828 150.733 241.615 151.653 240.148 152.32C238.681 152.987 237.041 153.32 235.228 153.32C233.041 153.32 231.095 152.853 229.388 151.92C227.681 150.987 226.348 149.653 225.388 147.92C224.428 146.187 223.948 144.16 223.948 141.84C223.948 139.52 224.415 137.493 225.348 135.76C226.308 134.027 227.641 132.693 229.348 131.76C231.055 130.827 233.015 130.36 235.228 130.36C237.388 130.36 239.308 130.813 240.988 131.72C242.668 132.627 243.975 133.92 244.908 135.6C245.868 137.28 246.348 139.24 246.348 141.48ZM239.348 139.68C239.348 138.507 238.948 137.573 238.148 136.88C237.348 136.187 236.348 135.84 235.148 135.84C234.001 135.84 233.028 136.173 232.228 136.84C231.455 137.507 230.975 138.453 230.788 139.68H239.348Z" fill="white"/>
<path d="M220.351 123.4V153H213.511V123.4H220.351Z" fill="white"/>
<path d="M194.843 130.36C196.416 130.36 197.789 130.68 198.963 131.32C200.163 131.96 201.083 132.8 201.723 133.84V130.68H208.563V152.96C208.563 155.013 208.149 156.867 207.323 158.52C206.523 160.2 205.283 161.533 203.603 162.52C201.949 163.507 199.883 164 197.403 164C194.096 164 191.416 163.213 189.363 161.64C187.309 160.093 186.136 157.987 185.843 155.32H192.603C192.816 156.173 193.323 156.84 194.123 157.32C194.923 157.827 195.909 158.08 197.083 158.08C198.496 158.08 199.616 157.667 200.443 156.84C201.296 156.04 201.723 154.747 201.723 152.96V149.8C201.056 150.84 200.136 151.693 198.963 152.36C197.789 153 196.416 153.32 194.843 153.32C193.003 153.32 191.336 152.853 189.843 151.92C188.349 150.96 187.163 149.613 186.283 147.88C185.429 146.12 185.003 144.093 185.003 141.8C185.003 139.507 185.429 137.493 186.283 135.76C187.163 134.027 188.349 132.693 189.843 131.76C191.336 130.827 193.003 130.36 194.843 130.36ZM201.723 141.84C201.723 140.133 201.243 138.787 200.283 137.8C199.349 136.813 198.203 136.32 196.843 136.32C195.483 136.32 194.323 136.813 193.363 137.8C192.429 138.76 191.963 140.093 191.963 141.8C191.963 143.507 192.429 144.867 193.363 145.88C194.323 146.867 195.483 147.36 196.843 147.36C198.203 147.36 199.349 146.867 200.283 145.88C201.243 144.893 201.723 143.547 201.723 141.84Z" fill="white"/>
<path d="M173.01 130.44C175.623 130.44 177.703 131.293 179.25 133C180.823 134.68 181.61 137 181.61 139.96V153H174.81V140.88C174.81 139.387 174.423 138.227 173.65 137.4C172.876 136.573 171.836 136.16 170.53 136.16C169.223 136.16 168.183 136.573 167.41 137.4C166.636 138.227 166.25 139.387 166.25 140.88V153H159.41V130.68H166.25V133.64C166.943 132.653 167.876 131.88 169.05 131.32C170.223 130.733 171.543 130.44 173.01 130.44Z" fill="white"/>
<path d="M151.053 128.36C149.853 128.36 148.866 128.013 148.093 127.32C147.346 126.6 146.973 125.72 146.973 124.68C146.973 123.613 147.346 122.733 148.093 122.04C148.866 121.32 149.853 120.96 151.053 120.96C152.226 120.96 153.186 121.32 153.933 122.04C154.706 122.733 155.093 123.613 155.093 124.68C155.093 125.72 154.706 126.6 153.933 127.32C153.186 128.013 152.226 128.36 151.053 128.36ZM154.453 130.68V153H147.613V130.68H154.453Z" fill="white"/>
<path d="M133.163 153.28C131.11 153.28 129.27 152.947 127.643 152.28C126.017 151.613 124.71 150.627 123.723 149.32C122.763 148.013 122.257 146.44 122.203 144.6H129.483C129.59 145.64 129.95 146.44 130.563 147C131.177 147.533 131.977 147.8 132.963 147.8C133.977 147.8 134.777 147.573 135.363 147.12C135.95 146.64 136.243 145.987 136.243 145.16C136.243 144.467 136.003 143.893 135.523 143.44C135.07 142.987 134.497 142.613 133.803 142.32C133.137 142.027 132.177 141.693 130.923 141.32C129.11 140.76 127.63 140.2 126.483 139.64C125.337 139.08 124.35 138.253 123.523 137.16C122.697 136.067 122.283 134.64 122.283 132.88C122.283 130.267 123.23 128.227 125.123 126.76C127.017 125.267 129.483 124.52 132.523 124.52C135.617 124.52 138.11 125.267 140.003 126.76C141.897 128.227 142.91 130.28 143.043 132.92H135.643C135.59 132.013 135.257 131.307 134.643 130.8C134.03 130.267 133.243 130 132.283 130C131.457 130 130.79 130.227 130.283 130.68C129.777 131.107 129.523 131.733 129.523 132.56C129.523 133.467 129.95 134.173 130.803 134.68C131.657 135.187 132.99 135.733 134.803 136.32C136.617 136.933 138.083 137.52 139.203 138.08C140.35 138.64 141.337 139.453 142.163 140.52C142.99 141.587 143.403 142.96 143.403 144.64C143.403 146.24 142.99 147.693 142.163 149C141.363 150.307 140.19 151.347 138.643 152.12C137.097 152.893 135.27 153.28 133.163 153.28Z" fill="white"/>
<path fill-rule="evenodd" clip-rule="evenodd" d="M239 271H129V381H239V271ZM119 261V391H249V261H119Z" fill="white"/>
</svg>
