<svg width="368" height="522" viewBox="0 0 368 522" fill="none" xmlns="http://www.w3.org/2000/svg">
<rect width="368" height="522" rx="50" fill="black"/>
<path d="M0 412H368V472C368 499.614 345.614 522 318 522H50C22.3858 522 0 499.614 0 472V412Z" fill="white"/>
<path d="M276.459 123.2V129H272.979C270.499 129 268.566 128.4 267.179 127.2C265.792 125.973 265.099 123.987 265.099 121.24V112.36H262.379V106.68H265.099V101.24H271.939V106.68H276.419V112.36H271.939V121.32C271.939 121.987 272.099 122.467 272.419 122.76C272.739 123.053 273.272 123.2 274.019 123.2H276.459Z" fill="white"/>
<path d="M250.666 106.44C253.279 106.44 255.359 107.293 256.906 109C258.479 110.68 259.266 113 259.266 115.96V129H252.466V116.88C252.466 115.387 252.079 114.227 251.306 113.4C250.533 112.573 249.493 112.16 248.186 112.16C246.879 112.16 245.839 112.573 245.066 113.4C244.293 114.227 243.906 115.387 243.906 116.88V129H237.066V106.68H243.906V109.64C244.599 108.653 245.533 107.88 246.706 107.32C247.879 106.733 249.199 106.44 250.666 106.44Z" fill="white"/>
<path d="M233.457 117.48C233.457 118.12 233.417 118.787 233.337 119.48H217.857C217.964 120.867 218.404 121.933 219.177 122.68C219.977 123.4 220.951 123.76 222.097 123.76C223.804 123.76 224.991 123.04 225.657 121.6H232.937C232.564 123.067 231.884 124.387 230.897 125.56C229.937 126.733 228.724 127.653 227.257 128.32C225.791 128.987 224.151 129.32 222.337 129.32C220.151 129.32 218.204 128.853 216.497 127.92C214.791 126.987 213.457 125.653 212.497 123.92C211.537 122.187 211.057 120.16 211.057 117.84C211.057 115.52 211.524 113.493 212.457 111.76C213.417 110.027 214.751 108.693 216.457 107.76C218.164 106.827 220.124 106.36 222.337 106.36C224.497 106.36 226.417 106.813 228.097 107.72C229.777 108.627 231.084 109.92 232.017 111.6C232.977 113.28 233.457 115.24 233.457 117.48ZM226.457 115.68C226.457 114.507 226.057 113.573 225.257 112.88C224.457 112.187 223.457 111.84 222.257 111.84C221.111 111.84 220.137 112.173 219.337 112.84C218.564 113.507 218.084 114.453 217.897 115.68H226.457Z" fill="white"/>
<path d="M198.554 106.44C201.327 106.44 203.527 107.28 205.154 108.96C206.807 110.64 207.634 112.973 207.634 115.96V129H200.834V116.88C200.834 115.44 200.447 114.333 199.674 113.56C198.927 112.76 197.887 112.36 196.554 112.36C195.22 112.36 194.167 112.76 193.394 113.56C192.647 114.333 192.274 115.44 192.274 116.88V129H185.474V116.88C185.474 115.44 185.087 114.333 184.314 113.56C183.567 112.76 182.527 112.36 181.194 112.36C179.86 112.36 178.807 112.76 178.034 113.56C177.287 114.333 176.914 115.44 176.914 116.88V129H170.074V106.68H176.914V109.48C177.607 108.547 178.514 107.813 179.634 107.28C180.754 106.72 182.02 106.44 183.434 106.44C185.114 106.44 186.607 106.8 187.914 107.52C189.247 108.24 190.287 109.267 191.034 110.6C191.807 109.373 192.86 108.373 194.194 107.6C195.527 106.827 196.98 106.44 198.554 106.44Z" fill="white"/>
<path d="M167.6 106.68L153.6 139.6H146.24L151.36 128.24L142.28 106.68H149.92L155.08 120.64L160.2 106.68H167.6Z" fill="white"/>
<path d="M116.292 117.8C116.292 115.507 116.719 113.493 117.572 111.76C118.452 110.027 119.639 108.693 121.132 107.76C122.625 106.827 124.292 106.36 126.132 106.36C127.705 106.36 129.079 106.68 130.252 107.32C131.452 107.96 132.372 108.8 133.012 109.84V106.68H139.852V129H133.012V125.84C132.345 126.88 131.412 127.72 130.212 128.36C129.039 129 127.665 129.32 126.092 129.32C124.279 129.32 122.625 128.853 121.132 127.92C119.639 126.96 118.452 125.613 117.572 123.88C116.719 122.12 116.292 120.093 116.292 117.8ZM133.012 117.84C133.012 116.133 132.532 114.787 131.572 113.8C130.639 112.813 129.492 112.32 128.132 112.32C126.772 112.32 125.612 112.813 124.652 113.8C123.719 114.76 123.252 116.093 123.252 117.8C123.252 119.507 123.719 120.867 124.652 121.88C125.612 122.867 126.772 123.36 128.132 123.36C129.492 123.36 130.639 122.867 131.572 121.88C132.532 120.893 133.012 119.547 133.012 117.84Z" fill="white"/>
<path d="M114.091 109.96C114.091 111.587 113.718 113.08 112.971 114.44C112.224 115.773 111.078 116.853 109.531 117.68C107.984 118.507 106.064 118.92 103.771 118.92H99.5309V129H92.6909V100.92H103.771C106.011 100.92 107.904 101.307 109.451 102.08C110.998 102.853 112.158 103.92 112.931 105.28C113.704 106.64 114.091 108.2 114.091 109.96ZM103.251 113.48C104.558 113.48 105.531 113.173 106.171 112.56C106.811 111.947 107.131 111.08 107.131 109.96C107.131 108.84 106.811 107.973 106.171 107.36C105.531 106.747 104.558 106.44 103.251 106.44H99.5309V113.48H103.251Z" fill="white"/>
<path d="M246.348 77.48C246.348 78.12 246.308 78.7867 246.228 79.48H230.748C230.855 80.8667 231.295 81.9334 232.068 82.68C232.868 83.4 233.841 83.76 234.988 83.76C236.695 83.76 237.881 83.04 238.548 81.6H245.828C245.455 83.0667 244.775 84.3867 243.788 85.56C242.828 86.7334 241.615 87.6534 240.148 88.32C238.681 88.9867 237.041 89.32 235.228 89.32C233.041 89.32 231.095 88.8534 229.388 87.92C227.681 86.9867 226.348 85.6534 225.388 83.92C224.428 82.1867 223.948 80.16 223.948 77.84C223.948 75.52 224.415 73.4934 225.348 71.76C226.308 70.0267 227.641 68.6934 229.348 67.76C231.055 66.8267 233.015 66.36 235.228 66.36C237.388 66.36 239.308 66.8134 240.988 67.72C242.668 68.6267 243.975 69.92 244.908 71.6C245.868 73.28 246.348 75.24 246.348 77.48ZM239.348 75.68C239.348 74.5067 238.948 73.5734 238.148 72.88C237.348 72.1867 236.348 71.84 235.148 71.84C234.001 71.84 233.028 72.1734 232.228 72.84C231.455 73.5067 230.975 74.4534 230.788 75.68H239.348Z" fill="white"/>
<path d="M220.351 59.4V89H213.511V59.4H220.351Z" fill="white"/>
<path d="M194.843 66.36C196.416 66.36 197.789 66.68 198.963 67.32C200.163 67.96 201.083 68.8 201.723 69.84V66.68H208.563V88.96C208.563 91.0134 208.149 92.8667 207.323 94.52C206.523 96.2 205.283 97.5334 203.603 98.5201C201.949 99.5067 199.883 100 197.403 100C194.096 100 191.416 99.2134 189.363 97.64C187.309 96.0934 186.136 93.9867 185.843 91.32H192.603C192.816 92.1734 193.323 92.84 194.123 93.32C194.923 93.8267 195.909 94.08 197.083 94.08C198.496 94.08 199.616 93.6667 200.443 92.84C201.296 92.04 201.723 90.7467 201.723 88.96V85.8C201.056 86.84 200.136 87.6934 198.963 88.36C197.789 89 196.416 89.32 194.843 89.32C193.003 89.32 191.336 88.8534 189.843 87.92C188.349 86.96 187.163 85.6134 186.283 83.88C185.429 82.12 185.003 80.0934 185.003 77.8C185.003 75.5067 185.429 73.4934 186.283 71.76C187.163 70.0267 188.349 68.6934 189.843 67.76C191.336 66.8267 193.003 66.36 194.843 66.36ZM201.723 77.84C201.723 76.1334 201.243 74.7867 200.283 73.8C199.349 72.8134 198.203 72.32 196.843 72.32C195.483 72.32 194.323 72.8134 193.363 73.8C192.429 74.76 191.963 76.0934 191.963 77.8C191.963 79.5067 192.429 80.8667 193.363 81.88C194.323 82.8667 195.483 83.36 196.843 83.36C198.203 83.36 199.349 82.8667 200.283 81.88C201.243 80.8934 201.723 79.5467 201.723 77.84Z" fill="white"/>
<path d="M173.01 66.44C175.623 66.44 177.703 67.2933 179.25 69C180.823 70.68 181.61 73 181.61 75.96V89H174.81V76.88C174.81 75.3867 174.423 74.2267 173.65 73.4C172.876 72.5733 171.836 72.16 170.53 72.16C169.223 72.16 168.183 72.5733 167.41 73.4C166.636 74.2267 166.25 75.3867 166.25 76.88V89H159.41V66.68H166.25V69.64C166.943 68.6533 167.876 67.88 169.05 67.32C170.223 66.7333 171.543 66.44 173.01 66.44Z" fill="white"/>
<path d="M151.053 64.36C149.853 64.36 148.866 64.0134 148.093 63.32C147.346 62.6 146.973 61.72 146.973 60.68C146.973 59.6134 147.346 58.7334 148.093 58.04C148.866 57.32 149.853 56.96 151.053 56.96C152.226 56.96 153.186 57.32 153.933 58.04C154.706 58.7334 155.093 59.6134 155.093 60.68C155.093 61.72 154.706 62.6 153.933 63.32C153.186 64.0134 152.226 64.36 151.053 64.36ZM154.453 66.68V89H147.613V66.68H154.453Z" fill="white"/>
<path d="M133.163 89.28C131.11 89.28 129.27 88.9467 127.643 88.28C126.017 87.6134 124.71 86.6267 123.723 85.32C122.763 84.0134 122.257 82.44 122.203 80.6H129.483C129.59 81.64 129.95 82.44 130.563 83C131.177 83.5334 131.977 83.8 132.963 83.8C133.977 83.8 134.777 83.5734 135.363 83.12C135.95 82.64 136.243 81.9867 136.243 81.16C136.243 80.4667 136.003 79.8934 135.523 79.44C135.07 78.9867 134.497 78.6134 133.803 78.32C133.137 78.0267 132.177 77.6934 130.923 77.32C129.11 76.76 127.63 76.2 126.483 75.64C125.337 75.08 124.35 74.2534 123.523 73.16C122.697 72.0667 122.283 70.64 122.283 68.88C122.283 66.2667 123.23 64.2267 125.123 62.76C127.017 61.2667 129.483 60.52 132.523 60.52C135.617 60.52 138.11 61.2667 140.003 62.76C141.897 64.2267 142.91 66.28 143.043 68.92H135.643C135.59 68.0134 135.257 67.3067 134.643 66.8C134.03 66.2667 133.243 66 132.283 66C131.457 66 130.79 66.2267 130.283 66.68C129.777 67.1067 129.523 67.7334 129.523 68.56C129.523 69.4667 129.95 70.1734 130.803 70.68C131.657 71.1867 132.99 71.7334 134.803 72.32C136.617 72.9334 138.083 73.52 139.203 74.08C140.35 74.64 141.337 75.4534 142.163 76.52C142.99 77.5867 143.403 78.96 143.403 80.64C143.403 82.24 142.99 83.6934 142.163 85C141.363 86.3067 140.19 87.3467 138.643 88.12C137.097 88.8934 135.27 89.28 133.163 89.28Z" fill="white"/>
<path d="M305.376 308.096C305.098 308.096 304.864 308 304.672 307.808C304.48 307.616 304.384 307.381 304.384 307.104C304.384 306.827 304.48 306.592 304.672 306.4C304.864 306.208 305.098 306.112 305.376 306.112C305.642 306.112 305.866 306.208 306.048 306.4C306.24 306.592 306.336 306.827 306.336 307.104C306.336 307.381 306.24 307.616 306.048 307.808C305.866 308 305.642 308.096 305.376 308.096Z" fill="white"/>
<path d="M302.99 303.28C302.99 303.557 302.974 303.851 302.942 304.16H295.934C295.987 305.024 296.28 305.701 296.814 306.192C297.358 306.672 298.014 306.912 298.782 306.912C299.411 306.912 299.934 306.768 300.35 306.48C300.776 306.181 301.075 305.787 301.246 305.296H302.814C302.579 306.139 302.11 306.827 301.406 307.36C300.702 307.883 299.827 308.144 298.782 308.144C297.95 308.144 297.203 307.957 296.542 307.584C295.891 307.211 295.379 306.683 295.006 306C294.632 305.307 294.446 304.507 294.446 303.6C294.446 302.693 294.627 301.899 294.99 301.216C295.352 300.533 295.859 300.011 296.51 299.648C297.171 299.275 297.928 299.088 298.782 299.088C299.614 299.088 300.35 299.269 300.99 299.632C301.63 299.995 302.12 300.496 302.462 301.136C302.814 301.765 302.99 302.48 302.99 303.28ZM301.486 302.976C301.486 302.421 301.363 301.947 301.118 301.552C300.872 301.147 300.536 300.843 300.11 300.64C299.694 300.427 299.23 300.32 298.718 300.32C297.982 300.32 297.352 300.555 296.83 301.024C296.318 301.493 296.024 302.144 295.95 302.976H301.486Z" fill="white"/>
<path d="M289.049 299.072C289.732 299.072 290.34 299.216 290.873 299.504C291.407 299.781 291.828 300.203 292.137 300.768C292.447 301.333 292.601 302.021 292.601 302.832V308H291.161V303.04C291.161 302.165 290.943 301.499 290.505 301.04C290.079 300.571 289.497 300.336 288.761 300.336C288.004 300.336 287.401 300.581 286.953 301.072C286.505 301.552 286.281 302.251 286.281 303.168V308H284.841V303.04C284.841 302.165 284.623 301.499 284.185 301.04C283.759 300.571 283.177 300.336 282.441 300.336C281.684 300.336 281.081 300.581 280.633 301.072C280.185 301.552 279.961 302.251 279.961 303.168V308H278.505V299.232H279.961V300.496C280.249 300.037 280.633 299.685 281.113 299.44C281.604 299.195 282.143 299.072 282.729 299.072C283.465 299.072 284.116 299.237 284.681 299.568C285.247 299.899 285.668 300.384 285.945 301.024C286.191 300.405 286.596 299.925 287.161 299.584C287.727 299.243 288.356 299.072 289.049 299.072Z" fill="white"/>
<path d="M275.32 297.808C275.043 297.808 274.808 297.712 274.616 297.52C274.424 297.328 274.328 297.093 274.328 296.816C274.328 296.539 274.424 296.304 274.616 296.112C274.808 295.92 275.043 295.824 275.32 295.824C275.587 295.824 275.811 295.92 275.992 296.112C276.184 296.304 276.28 296.539 276.28 296.816C276.28 297.093 276.184 297.328 275.992 297.52C275.811 297.712 275.587 297.808 275.32 297.808ZM276.024 299.232V308H274.568V299.232H276.024Z" fill="white"/>
<path d="M270.516 300.432V305.6C270.516 306.027 270.606 306.331 270.788 306.512C270.969 306.683 271.284 306.768 271.732 306.768H272.804V308H271.492C270.681 308 270.073 307.813 269.668 307.44C269.262 307.067 269.06 306.453 269.06 305.6V300.432H267.924V299.232H269.06V297.024H270.516V299.232H272.804V300.432H270.516Z" fill="white"/>
<path d="M253.118 303.584C253.118 302.688 253.299 301.904 253.662 301.232C254.024 300.549 254.52 300.021 255.15 299.648C255.79 299.275 256.504 299.088 257.294 299.088C257.976 299.088 258.611 299.248 259.198 299.568C259.784 299.877 260.232 300.288 260.542 300.8V296.16H262.014V308H260.542V306.352C260.254 306.875 259.827 307.307 259.262 307.648C258.696 307.979 258.035 308.144 257.278 308.144C256.499 308.144 255.79 307.952 255.15 307.568C254.52 307.184 254.024 306.645 253.662 305.952C253.299 305.259 253.118 304.469 253.118 303.584ZM260.542 303.6C260.542 302.939 260.408 302.363 260.142 301.872C259.875 301.381 259.512 301.008 259.054 300.752C258.606 300.485 258.11 300.352 257.566 300.352C257.022 300.352 256.526 300.48 256.078 300.736C255.63 300.992 255.272 301.365 255.006 301.856C254.739 302.347 254.606 302.923 254.606 303.584C254.606 304.256 254.739 304.843 255.006 305.344C255.272 305.835 255.63 306.213 256.078 306.48C256.526 306.736 257.022 306.864 257.566 306.864C258.11 306.864 258.606 306.736 259.054 306.48C259.512 306.213 259.875 305.835 260.142 305.344C260.408 304.843 260.542 304.261 260.542 303.6Z" fill="white"/>
<path d="M247.699 299.072C248.766 299.072 249.63 299.397 250.291 300.048C250.953 300.688 251.283 301.616 251.283 302.832V308H249.843V303.04C249.843 302.165 249.625 301.499 249.187 301.04C248.75 300.571 248.153 300.336 247.395 300.336C246.627 300.336 246.014 300.576 245.555 301.056C245.107 301.536 244.883 302.235 244.883 303.152V308H243.427V299.232H244.883V300.48C245.171 300.032 245.561 299.685 246.051 299.44C246.553 299.195 247.102 299.072 247.699 299.072Z" fill="white"/>
<path d="M232.071 303.584C232.071 302.688 232.252 301.904 232.615 301.232C232.977 300.549 233.473 300.021 234.103 299.648C234.743 299.275 235.452 299.088 236.231 299.088C236.999 299.088 237.665 299.253 238.231 299.584C238.796 299.915 239.217 300.331 239.495 300.832V299.232H240.967V308H239.495V306.368C239.207 306.88 238.775 307.307 238.199 307.648C237.633 307.979 236.972 308.144 236.215 308.144C235.436 308.144 234.732 307.952 234.103 307.568C233.473 307.184 232.977 306.645 232.615 305.952C232.252 305.259 232.071 304.469 232.071 303.584ZM239.495 303.6C239.495 302.939 239.361 302.363 239.095 301.872C238.828 301.381 238.465 301.008 238.007 300.752C237.559 300.485 237.063 300.352 236.519 300.352C235.975 300.352 235.479 300.48 235.031 300.736C234.583 300.992 234.225 301.365 233.959 301.856C233.692 302.347 233.559 302.923 233.559 303.584C233.559 304.256 233.692 304.843 233.959 305.344C234.225 305.835 234.583 306.213 235.031 306.48C235.479 306.736 235.975 306.864 236.519 306.864C237.063 306.864 237.559 306.736 238.007 306.48C238.465 306.213 238.828 305.835 239.095 305.344C239.361 304.843 239.495 304.261 239.495 303.6Z" fill="white"/>
<path d="M224.297 300.432V305.6C224.297 306.027 224.388 306.331 224.569 306.512C224.75 306.683 225.065 306.768 225.513 306.768H226.585V308H225.273C224.462 308 223.854 307.813 223.449 307.44C223.044 307.067 222.841 306.453 222.841 305.6V300.432H221.705V299.232H222.841V297.024H224.297V299.232H226.585V300.432H224.297Z" fill="white"/>
<path d="M217.266 308.144C216.594 308.144 215.991 308.032 215.458 307.808C214.924 307.573 214.503 307.253 214.194 306.848C213.884 306.432 213.714 305.957 213.682 305.424H215.186C215.228 305.861 215.431 306.219 215.794 306.496C216.167 306.773 216.652 306.912 217.25 306.912C217.804 306.912 218.242 306.789 218.562 306.544C218.882 306.299 219.042 305.989 219.042 305.616C219.042 305.232 218.871 304.949 218.53 304.768C218.188 304.576 217.66 304.389 216.946 304.208C216.295 304.037 215.762 303.867 215.346 303.696C214.94 303.515 214.588 303.253 214.29 302.912C214.002 302.56 213.858 302.101 213.858 301.536C213.858 301.088 213.991 300.677 214.258 300.304C214.524 299.931 214.903 299.637 215.394 299.424C215.884 299.2 216.444 299.088 217.074 299.088C218.044 299.088 218.828 299.333 219.426 299.824C220.023 300.315 220.343 300.987 220.386 301.84H218.93C218.898 301.381 218.711 301.013 218.37 300.736C218.039 300.459 217.591 300.32 217.026 300.32C216.503 300.32 216.087 300.432 215.778 300.656C215.468 300.88 215.314 301.173 215.314 301.536C215.314 301.824 215.404 302.064 215.586 302.256C215.778 302.437 216.012 302.587 216.29 302.704C216.578 302.811 216.972 302.933 217.474 303.072C218.103 303.243 218.615 303.413 219.01 303.584C219.404 303.744 219.74 303.989 220.018 304.32C220.306 304.651 220.455 305.083 220.466 305.616C220.466 306.096 220.332 306.528 220.066 306.912C219.799 307.296 219.42 307.6 218.93 307.824C218.45 308.037 217.895 308.144 217.266 308.144Z" fill="white"/>
<path d="M207.751 308.144C206.93 308.144 206.183 307.957 205.511 307.584C204.85 307.211 204.327 306.683 203.943 306C203.57 305.307 203.383 304.507 203.383 303.6C203.383 302.704 203.575 301.915 203.959 301.232C204.354 300.539 204.887 300.011 205.559 299.648C206.231 299.275 206.983 299.088 207.815 299.088C208.647 299.088 209.399 299.275 210.071 299.648C210.743 300.011 211.271 300.533 211.655 301.216C212.05 301.899 212.247 302.693 212.247 303.6C212.247 304.507 212.045 305.307 211.639 306C211.245 306.683 210.706 307.211 210.023 307.584C209.341 307.957 208.583 308.144 207.751 308.144ZM207.751 306.864C208.274 306.864 208.765 306.741 209.223 306.496C209.682 306.251 210.05 305.883 210.327 305.392C210.615 304.901 210.759 304.304 210.759 303.6C210.759 302.896 210.621 302.299 210.343 301.808C210.066 301.317 209.703 300.955 209.255 300.72C208.807 300.475 208.322 300.352 207.799 300.352C207.266 300.352 206.775 300.475 206.327 300.72C205.89 300.955 205.538 301.317 205.271 301.808C205.005 302.299 204.871 302.896 204.871 303.6C204.871 304.315 204.999 304.917 205.255 305.408C205.522 305.899 205.874 306.267 206.311 306.512C206.749 306.747 207.229 306.864 207.751 306.864Z" fill="white"/>
<path d="M193.665 303.6C193.665 302.693 193.846 301.904 194.209 301.232C194.571 300.549 195.073 300.021 195.713 299.648C196.363 299.275 197.105 299.088 197.937 299.088C199.014 299.088 199.899 299.349 200.593 299.872C201.297 300.395 201.761 301.12 201.985 302.048H200.417C200.267 301.515 199.974 301.093 199.537 300.784C199.11 300.475 198.577 300.32 197.937 300.32C197.105 300.32 196.433 300.608 195.921 301.184C195.409 301.749 195.153 302.555 195.153 303.6C195.153 304.656 195.409 305.472 195.921 306.048C196.433 306.624 197.105 306.912 197.937 306.912C198.577 306.912 199.11 306.763 199.537 306.464C199.963 306.165 200.257 305.739 200.417 305.184H201.985C201.75 306.08 201.281 306.8 200.577 307.344C199.873 307.877 198.993 308.144 197.937 308.144C197.105 308.144 196.363 307.957 195.713 307.584C195.073 307.211 194.571 306.683 194.209 306C193.846 305.317 193.665 304.517 193.665 303.6Z" fill="white"/>
<path d="M183.98 299.072C185.047 299.072 185.911 299.397 186.573 300.048C187.234 300.688 187.564 301.616 187.564 302.832V308H186.124V303.04C186.124 302.165 185.906 301.499 185.469 301.04C185.031 300.571 184.434 300.336 183.676 300.336C182.908 300.336 182.295 300.576 181.837 301.056C181.389 301.536 181.165 302.235 181.165 303.152V308H179.708V299.232H181.165V300.48C181.453 300.032 181.842 299.685 182.333 299.44C182.834 299.195 183.383 299.072 183.98 299.072Z" fill="white"/>
<path d="M173.298 308.144C172.477 308.144 171.73 307.957 171.058 307.584C170.397 307.211 169.874 306.683 169.49 306C169.117 305.307 168.93 304.507 168.93 303.6C168.93 302.704 169.122 301.915 169.506 301.232C169.901 300.539 170.434 300.011 171.106 299.648C171.778 299.275 172.53 299.088 173.362 299.088C174.194 299.088 174.946 299.275 175.618 299.648C176.29 300.011 176.818 300.533 177.202 301.216C177.597 301.899 177.794 302.693 177.794 303.6C177.794 304.507 177.592 305.307 177.186 306C176.792 306.683 176.253 307.211 175.57 307.584C174.888 307.957 174.13 308.144 173.298 308.144ZM173.298 306.864C173.821 306.864 174.312 306.741 174.77 306.496C175.229 306.251 175.597 305.883 175.874 305.392C176.162 304.901 176.306 304.304 176.306 303.6C176.306 302.896 176.168 302.299 175.89 301.808C175.613 301.317 175.25 300.955 174.802 300.72C174.354 300.475 173.869 300.352 173.346 300.352C172.813 300.352 172.322 300.475 171.874 300.72C171.437 300.955 171.085 301.317 170.818 301.808C170.552 302.299 170.418 302.896 170.418 303.6C170.418 304.315 170.546 304.917 170.802 305.408C171.069 305.899 171.421 306.267 171.858 306.512C172.296 306.747 172.776 306.864 173.298 306.864Z" fill="white"/>
<path d="M153.852 303.584C153.852 302.688 154.033 301.904 154.396 301.232C154.759 300.549 155.255 300.021 155.884 299.648C156.524 299.275 157.239 299.088 158.028 299.088C158.711 299.088 159.345 299.248 159.932 299.568C160.519 299.877 160.967 300.288 161.276 300.8V296.16H162.748V308H161.276V306.352C160.988 306.875 160.561 307.307 159.996 307.648C159.431 307.979 158.769 308.144 158.012 308.144C157.233 308.144 156.524 307.952 155.884 307.568C155.255 307.184 154.759 306.645 154.396 305.952C154.033 305.259 153.852 304.469 153.852 303.584ZM161.276 303.6C161.276 302.939 161.143 302.363 160.876 301.872C160.609 301.381 160.247 301.008 159.788 300.752C159.34 300.485 158.844 300.352 158.3 300.352C157.756 300.352 157.26 300.48 156.812 300.736C156.364 300.992 156.007 301.365 155.74 301.856C155.473 302.347 155.34 302.923 155.34 303.584C155.34 304.256 155.473 304.843 155.74 305.344C156.007 305.835 156.364 306.213 156.812 306.48C157.26 306.736 157.756 306.864 158.3 306.864C158.844 306.864 159.34 306.736 159.788 306.48C160.247 306.213 160.609 305.835 160.876 305.344C161.143 304.843 161.276 304.261 161.276 303.6Z" fill="white"/>
<path d="M152.474 303.28C152.474 303.557 152.458 303.851 152.426 304.16H145.418C145.472 305.024 145.765 305.701 146.298 306.192C146.842 306.672 147.498 306.912 148.266 306.912C148.896 306.912 149.418 306.768 149.834 306.48C150.261 306.181 150.56 305.787 150.73 305.296H152.298C152.064 306.139 151.594 306.827 150.89 307.36C150.186 307.883 149.312 308.144 148.266 308.144C147.434 308.144 146.688 307.957 146.026 307.584C145.376 307.211 144.864 306.683 144.49 306C144.117 305.307 143.93 304.507 143.93 303.6C143.93 302.693 144.112 301.899 144.474 301.216C144.837 300.533 145.344 300.011 145.994 299.648C146.656 299.275 147.413 299.088 148.266 299.088C149.098 299.088 149.834 299.269 150.474 299.632C151.114 299.995 151.605 300.496 151.946 301.136C152.298 301.765 152.474 302.48 152.474 303.28ZM150.97 302.976C150.97 302.421 150.848 301.947 150.602 301.552C150.357 301.147 150.021 300.843 149.594 300.64C149.178 300.427 148.714 300.32 148.202 300.32C147.466 300.32 146.837 300.555 146.314 301.024C145.802 301.493 145.509 302.144 145.434 302.976H150.97Z" fill="white"/>
<path d="M139.219 308.144C138.547 308.144 137.944 308.032 137.411 307.808C136.877 307.573 136.456 307.253 136.147 306.848C135.837 306.432 135.667 305.957 135.635 305.424H137.139C137.181 305.861 137.384 306.219 137.747 306.496C138.12 306.773 138.605 306.912 139.203 306.912C139.757 306.912 140.195 306.789 140.515 306.544C140.835 306.299 140.995 305.989 140.995 305.616C140.995 305.232 140.824 304.949 140.483 304.768C140.141 304.576 139.613 304.389 138.899 304.208C138.248 304.037 137.715 303.867 137.299 303.696C136.893 303.515 136.541 303.253 136.243 302.912C135.955 302.56 135.811 302.101 135.811 301.536C135.811 301.088 135.944 300.677 136.211 300.304C136.477 299.931 136.856 299.637 137.347 299.424C137.837 299.2 138.397 299.088 139.027 299.088C139.997 299.088 140.781 299.333 141.379 299.824C141.976 300.315 142.296 300.987 142.339 301.84H140.883C140.851 301.381 140.664 301.013 140.323 300.736C139.992 300.459 139.544 300.32 138.979 300.32C138.456 300.32 138.04 300.432 137.731 300.656C137.421 300.88 137.267 301.173 137.267 301.536C137.267 301.824 137.357 302.064 137.539 302.256C137.731 302.437 137.965 302.587 138.243 302.704C138.531 302.811 138.925 302.933 139.427 303.072C140.056 303.243 140.568 303.413 140.963 303.584C141.357 303.744 141.693 303.989 141.971 304.32C142.259 304.651 142.408 305.083 142.419 305.616C142.419 306.096 142.285 306.528 142.019 306.912C141.752 307.296 141.373 307.6 140.883 307.824C140.403 308.037 139.848 308.144 139.219 308.144Z" fill="white"/>
<path d="M124.758 303.584C124.758 302.688 124.94 301.904 125.302 301.232C125.665 300.549 126.161 300.021 126.79 299.648C127.43 299.275 128.14 299.088 128.918 299.088C129.686 299.088 130.353 299.253 130.918 299.584C131.484 299.915 131.905 300.331 132.182 300.832V299.232H133.654V308H132.182V306.368C131.894 306.88 131.462 307.307 130.886 307.648C130.321 307.979 129.66 308.144 128.902 308.144C128.124 308.144 127.42 307.952 126.79 307.568C126.161 307.184 125.665 306.645 125.302 305.952C124.94 305.259 124.758 304.469 124.758 303.584ZM132.182 303.6C132.182 302.939 132.049 302.363 131.782 301.872C131.516 301.381 131.153 301.008 130.694 300.752C130.246 300.485 129.75 300.352 129.206 300.352C128.662 300.352 128.166 300.48 127.718 300.736C127.27 300.992 126.913 301.365 126.646 301.856C126.38 302.347 126.246 302.923 126.246 303.584C126.246 304.256 126.38 304.843 126.646 305.344C126.913 305.835 127.27 306.213 127.718 306.48C128.166 306.736 128.662 306.864 129.206 306.864C129.75 306.864 130.246 306.736 130.694 306.48C131.153 306.213 131.516 305.835 131.782 305.344C132.049 304.843 132.182 304.261 132.182 303.6Z" fill="white"/>
<path d="M115.946 300.864C116.244 300.341 116.682 299.915 117.258 299.584C117.834 299.253 118.49 299.088 119.226 299.088C120.015 299.088 120.724 299.275 121.354 299.648C121.983 300.021 122.479 300.549 122.842 301.232C123.204 301.904 123.386 302.688 123.386 303.584C123.386 304.469 123.204 305.259 122.842 305.952C122.479 306.645 121.978 307.184 121.338 307.568C120.708 307.952 120.004 308.144 119.226 308.144C118.468 308.144 117.802 307.979 117.226 307.648C116.66 307.317 116.234 306.896 115.946 306.384V308H114.49V296.16H115.946V300.864ZM121.898 303.584C121.898 302.923 121.764 302.347 121.498 301.856C121.231 301.365 120.868 300.992 120.41 300.736C119.962 300.48 119.466 300.352 118.922 300.352C118.388 300.352 117.892 300.485 117.434 300.752C116.986 301.008 116.623 301.387 116.346 301.888C116.079 302.379 115.946 302.949 115.946 303.6C115.946 304.261 116.079 304.843 116.346 305.344C116.623 305.835 116.986 306.213 117.434 306.48C117.892 306.736 118.388 306.864 118.922 306.864C119.466 306.864 119.962 306.736 120.41 306.48C120.868 306.213 121.231 305.835 121.498 305.344C121.764 304.843 121.898 304.256 121.898 303.584Z" fill="white"/>
<path d="M108.302 303.28C108.302 303.557 108.286 303.851 108.254 304.16H101.246C101.3 305.024 101.593 305.701 102.126 306.192C102.67 306.672 103.326 306.912 104.094 306.912C104.724 306.912 105.246 306.768 105.662 306.48C106.089 306.181 106.388 305.787 106.558 305.296H108.126C107.892 306.139 107.422 306.827 106.718 307.36C106.014 307.883 105.14 308.144 104.094 308.144C103.262 308.144 102.516 307.957 101.854 307.584C101.204 307.211 100.692 306.683 100.318 306C99.945 305.307 99.7583 304.507 99.7583 303.6C99.7583 302.693 99.9396 301.899 100.302 301.216C100.665 300.533 101.172 300.011 101.822 299.648C102.484 299.275 103.241 299.088 104.094 299.088C104.926 299.088 105.662 299.269 106.302 299.632C106.942 299.995 107.433 300.496 107.774 301.136C108.126 301.765 108.302 302.48 108.302 303.28ZM106.798 302.976C106.798 302.421 106.676 301.947 106.43 301.552C106.185 301.147 105.849 300.843 105.422 300.64C105.006 300.427 104.542 300.32 104.03 300.32C103.294 300.32 102.665 300.555 102.142 301.024C101.63 301.493 101.337 302.144 101.262 302.976H106.798Z" fill="white"/>
<path d="M96.2501 300.432V305.6C96.2501 306.027 96.3407 306.331 96.5221 306.512C96.7034 306.683 97.0181 306.768 97.4661 306.768H98.5381V308H97.2261C96.4154 308 95.8074 307.813 95.4021 307.44C94.9967 307.067 94.7941 306.453 94.7941 305.6V300.432H93.6581V299.232H94.7941V297.024H96.2501V299.232H98.5381V300.432H96.2501Z" fill="white"/>
<path d="M88.0638 308.144C87.2425 308.144 86.4958 307.957 85.8238 307.584C85.1625 307.211 84.6398 306.683 84.2558 306C83.8825 305.307 83.6958 304.507 83.6958 303.6C83.6958 302.704 83.8878 301.915 84.2718 301.232C84.6665 300.539 85.1998 300.011 85.8718 299.648C86.5438 299.275 87.2958 299.088 88.1278 299.088C88.9598 299.088 89.7118 299.275 90.3838 299.648C91.0558 300.011 91.5838 300.533 91.9678 301.216C92.3625 301.899 92.5598 302.693 92.5598 303.6C92.5598 304.507 92.3571 305.307 91.9518 306C91.5571 306.683 91.0185 307.211 90.3358 307.584C89.6531 307.957 88.8958 308.144 88.0638 308.144ZM88.0638 306.864C88.5865 306.864 89.0771 306.741 89.5358 306.496C89.9945 306.251 90.3625 305.883 90.6398 305.392C90.9278 304.901 91.0718 304.304 91.0718 303.6C91.0718 302.896 90.9331 302.299 90.6558 301.808C90.3785 301.317 90.0158 300.955 89.5678 300.72C89.1198 300.475 88.6345 300.352 88.1118 300.352C87.5785 300.352 87.0878 300.475 86.6398 300.72C86.2025 300.955 85.8505 301.317 85.5838 301.808C85.3171 302.299 85.1838 302.896 85.1838 303.6C85.1838 304.315 85.3118 304.917 85.5678 305.408C85.8345 305.899 86.1865 306.267 86.6238 306.512C87.0611 306.747 87.5411 306.864 88.0638 306.864Z" fill="white"/>
<path d="M81.7814 299.232V308H80.3254V306.704C80.0481 307.152 79.6587 307.504 79.1574 307.76C78.6667 308.005 78.1227 308.128 77.5254 308.128C76.8427 308.128 76.2294 307.989 75.6854 307.712C75.1414 307.424 74.7094 306.997 74.3894 306.432C74.0801 305.867 73.9254 305.179 73.9254 304.368V299.232H75.3654V304.176C75.3654 305.04 75.5841 305.707 76.0214 306.176C76.4587 306.635 77.0561 306.864 77.8134 306.864C78.5921 306.864 79.2054 306.624 79.6534 306.144C80.1014 305.664 80.3254 304.965 80.3254 304.048V299.232H81.7814Z" fill="white"/>
<path d="M62.6489 303.584C62.6489 302.688 62.8303 301.904 63.1929 301.232C63.5556 300.549 64.0516 300.021 64.6809 299.648C65.3209 299.275 66.0356 299.088 66.8249 299.088C67.5823 299.088 68.2436 299.259 68.8089 299.6C69.3849 299.931 69.8063 300.341 70.0729 300.832V299.232H71.5449V312.16H70.0729V306.384C69.7956 306.875 69.3689 307.291 68.7929 307.632C68.2169 307.973 67.5449 308.144 66.7769 308.144C66.0089 308.144 65.3103 307.952 64.6809 307.568C64.0516 307.184 63.5556 306.645 63.1929 305.952C62.8303 305.259 62.6489 304.469 62.6489 303.584ZM70.0729 303.6C70.0729 302.939 69.9396 302.363 69.6729 301.872C69.4063 301.381 69.0436 301.008 68.5849 300.752C68.1369 300.485 67.6409 300.352 67.0969 300.352C66.5529 300.352 66.0569 300.48 65.6089 300.736C65.1609 300.992 64.8036 301.365 64.5369 301.856C64.2703 302.347 64.1369 302.923 64.1369 303.584C64.1369 304.256 64.2703 304.843 64.5369 305.344C64.8036 305.835 65.1609 306.213 65.6089 306.48C66.0569 306.736 66.5529 306.864 67.0969 306.864C67.6409 306.864 68.1369 306.736 68.5849 306.48C69.0436 306.213 69.4063 305.835 69.6729 305.344C69.9396 304.843 70.0729 304.261 70.0729 303.6Z" fill="white"/>
<path d="M321.855 269.072C322.922 269.072 323.786 269.397 324.448 270.048C325.109 270.688 325.44 271.616 325.44 272.832V278H324V273.04C324 272.165 323.781 271.499 323.344 271.04C322.906 270.571 322.309 270.336 321.552 270.336C320.784 270.336 320.17 270.576 319.711 271.056C319.263 271.536 319.039 272.235 319.039 273.152V278H317.583V269.232H319.039V270.48C319.327 270.032 319.717 269.685 320.207 269.44C320.709 269.195 321.258 269.072 321.855 269.072Z" fill="white"/>
<path d="M311.173 278.144C310.352 278.144 309.605 277.957 308.933 277.584C308.272 277.211 307.749 276.683 307.365 276C306.992 275.307 306.805 274.507 306.805 273.6C306.805 272.704 306.997 271.915 307.381 271.232C307.776 270.539 308.309 270.011 308.981 269.648C309.653 269.275 310.405 269.088 311.237 269.088C312.069 269.088 312.821 269.275 313.493 269.648C314.165 270.011 314.693 270.533 315.077 271.216C315.472 271.899 315.669 272.693 315.669 273.6C315.669 274.507 315.467 275.307 315.061 276C314.667 276.683 314.128 277.211 313.445 277.584C312.763 277.957 312.005 278.144 311.173 278.144ZM311.173 276.864C311.696 276.864 312.187 276.741 312.645 276.496C313.104 276.251 313.472 275.883 313.749 275.392C314.037 274.901 314.181 274.304 314.181 273.6C314.181 272.896 314.043 272.299 313.765 271.808C313.488 271.317 313.125 270.955 312.677 270.72C312.229 270.475 311.744 270.352 311.221 270.352C310.688 270.352 310.197 270.475 309.749 270.72C309.312 270.955 308.96 271.317 308.693 271.808C308.427 272.299 308.293 272.896 308.293 273.6C308.293 274.315 308.421 274.917 308.677 275.408C308.944 275.899 309.296 276.267 309.733 276.512C310.171 276.747 310.651 276.864 311.173 276.864Z" fill="white"/>
<path d="M304.164 267.808C303.886 267.808 303.652 267.712 303.46 267.52C303.268 267.328 303.172 267.093 303.172 266.816C303.172 266.539 303.268 266.304 303.46 266.112C303.652 265.92 303.886 265.824 304.164 265.824C304.43 265.824 304.654 265.92 304.836 266.112C305.028 266.304 305.124 266.539 305.124 266.816C305.124 267.093 305.028 267.328 304.836 267.52C304.654 267.712 304.43 267.808 304.164 267.808ZM304.868 269.232V278H303.412V269.232H304.868Z" fill="white"/>
<path d="M299.359 270.432V275.6C299.359 276.027 299.45 276.331 299.631 276.512C299.813 276.683 300.127 276.768 300.575 276.768H301.647V278H300.335C299.525 278 298.917 277.813 298.511 277.44C298.106 277.067 297.903 276.453 297.903 275.6V270.432H296.767V269.232H297.903V267.024H299.359V269.232H301.647V270.432H299.359Z" fill="white"/>
<path d="M295.662 273.28C295.662 273.557 295.646 273.851 295.614 274.16H288.606C288.659 275.024 288.952 275.701 289.486 276.192C290.03 276.672 290.686 276.912 291.454 276.912C292.083 276.912 292.606 276.768 293.022 276.48C293.448 276.181 293.747 275.787 293.918 275.296H295.486C295.251 276.139 294.782 276.827 294.078 277.36C293.374 277.883 292.499 278.144 291.454 278.144C290.622 278.144 289.875 277.957 289.214 277.584C288.563 277.211 288.051 276.683 287.678 276C287.304 275.307 287.118 274.507 287.118 273.6C287.118 272.693 287.299 271.899 287.662 271.216C288.024 270.533 288.531 270.011 289.182 269.648C289.843 269.275 290.6 269.088 291.454 269.088C292.286 269.088 293.022 269.269 293.662 269.632C294.302 269.995 294.792 270.496 295.134 271.136C295.486 271.765 295.662 272.48 295.662 273.28ZM294.158 272.976C294.158 272.421 294.035 271.947 293.79 271.552C293.544 271.147 293.208 270.843 292.782 270.64C292.366 270.427 291.902 270.32 291.39 270.32C290.654 270.32 290.024 270.555 289.502 271.024C288.99 271.493 288.696 272.144 288.622 272.976H294.158Z" fill="white"/>
<path d="M285.18 266.16V278H283.724V266.16H285.18Z" fill="white"/>
<path d="M274.368 270.848C274.656 270.347 275.082 269.931 275.648 269.6C276.224 269.259 276.89 269.088 277.648 269.088C278.426 269.088 279.13 269.275 279.76 269.648C280.4 270.021 280.901 270.549 281.264 271.232C281.626 271.904 281.808 272.688 281.808 273.584C281.808 274.469 281.626 275.259 281.264 275.952C280.901 276.645 280.4 277.184 279.76 277.568C279.13 277.952 278.426 278.144 277.648 278.144C276.901 278.144 276.24 277.979 275.664 277.648C275.098 277.307 274.666 276.885 274.368 276.384V282.16H272.912V269.232H274.368V270.848ZM280.32 273.584C280.32 272.923 280.186 272.347 279.92 271.856C279.653 271.365 279.29 270.992 278.832 270.736C278.384 270.48 277.888 270.352 277.344 270.352C276.81 270.352 276.314 270.485 275.856 270.752C275.408 271.008 275.045 271.387 274.768 271.888C274.501 272.379 274.368 272.949 274.368 273.6C274.368 274.261 274.501 274.843 274.768 275.344C275.045 275.835 275.408 276.213 275.856 276.48C276.314 276.736 276.81 276.864 277.344 276.864C277.888 276.864 278.384 276.736 278.832 276.48C279.29 276.213 279.653 275.835 279.92 275.344C280.186 274.843 280.32 274.256 280.32 273.584Z" fill="white"/>
<path d="M266.971 269.072C267.654 269.072 268.262 269.216 268.795 269.504C269.329 269.781 269.75 270.203 270.059 270.768C270.369 271.333 270.523 272.021 270.523 272.832V278H269.083V273.04C269.083 272.165 268.865 271.499 268.427 271.04C268.001 270.571 267.419 270.336 266.683 270.336C265.926 270.336 265.323 270.581 264.875 271.072C264.427 271.552 264.203 272.251 264.203 273.168V278H262.763V273.04C262.763 272.165 262.545 271.499 262.107 271.04C261.681 270.571 261.099 270.336 260.363 270.336C259.606 270.336 259.003 270.581 258.555 271.072C258.107 271.552 257.883 272.251 257.883 273.168V278H256.427V269.232H257.883V270.496C258.171 270.037 258.555 269.685 259.035 269.44C259.526 269.195 260.065 269.072 260.651 269.072C261.387 269.072 262.038 269.237 262.603 269.568C263.169 269.899 263.59 270.384 263.867 271.024C264.113 270.405 264.518 269.925 265.083 269.584C265.649 269.243 266.278 269.072 266.971 269.072Z" fill="white"/>
<path d="M250.017 278.144C249.196 278.144 248.449 277.957 247.777 277.584C247.116 277.211 246.593 276.683 246.209 276C245.836 275.307 245.649 274.507 245.649 273.6C245.649 272.704 245.841 271.915 246.225 271.232C246.62 270.539 247.153 270.011 247.825 269.648C248.497 269.275 249.249 269.088 250.081 269.088C250.913 269.088 251.665 269.275 252.337 269.648C253.009 270.011 253.537 270.533 253.921 271.216C254.316 271.899 254.513 272.693 254.513 273.6C254.513 274.507 254.31 275.307 253.905 276C253.51 276.683 252.972 277.211 252.289 277.584C251.606 277.957 250.849 278.144 250.017 278.144ZM250.017 276.864C250.54 276.864 251.03 276.741 251.489 276.496C251.948 276.251 252.316 275.883 252.593 275.392C252.881 274.901 253.025 274.304 253.025 273.6C253.025 272.896 252.886 272.299 252.609 271.808C252.332 271.317 251.969 270.955 251.521 270.72C251.073 270.475 250.588 270.352 250.065 270.352C249.532 270.352 249.041 270.475 248.593 270.72C248.156 270.955 247.804 271.317 247.537 271.808C247.27 272.299 247.137 272.896 247.137 273.6C247.137 274.315 247.265 274.917 247.521 275.408C247.788 275.899 248.14 276.267 248.577 276.512C249.014 276.747 249.494 276.864 250.017 276.864Z" fill="white"/>
<path d="M235.93 273.6C235.93 272.693 236.112 271.904 236.474 271.232C236.837 270.549 237.338 270.021 237.978 269.648C238.629 269.275 239.37 269.088 240.202 269.088C241.28 269.088 242.165 269.349 242.858 269.872C243.562 270.395 244.026 271.12 244.25 272.048H242.682C242.533 271.515 242.24 271.093 241.802 270.784C241.376 270.475 240.842 270.32 240.202 270.32C239.37 270.32 238.698 270.608 238.186 271.184C237.674 271.749 237.418 272.555 237.418 273.6C237.418 274.656 237.674 275.472 238.186 276.048C238.698 276.624 239.37 276.912 240.202 276.912C240.842 276.912 241.376 276.763 241.802 276.464C242.229 276.165 242.522 275.739 242.682 275.184H244.25C244.016 276.08 243.546 276.8 242.842 277.344C242.138 277.877 241.258 278.144 240.202 278.144C239.37 278.144 238.629 277.957 237.978 277.584C237.338 277.211 236.837 276.683 236.474 276C236.112 275.317 235.93 274.517 235.93 273.6Z" fill="white"/>
<path d="M228.156 270.432V275.6C228.156 276.027 228.247 276.331 228.428 276.512C228.61 276.683 228.924 276.768 229.372 276.768H230.444V278H229.132C228.322 278 227.714 277.813 227.308 277.44C226.903 277.067 226.7 276.453 226.7 275.6V270.432H225.564V269.232H226.7V267.024H228.156V269.232H230.444V270.432H228.156Z" fill="white"/>
<path d="M216.118 273.6C216.118 272.693 216.299 271.904 216.662 271.232C217.024 270.549 217.526 270.021 218.166 269.648C218.816 269.275 219.558 269.088 220.39 269.088C221.467 269.088 222.352 269.349 223.046 269.872C223.75 270.395 224.214 271.12 224.438 272.048H222.87C222.72 271.515 222.427 271.093 221.99 270.784C221.563 270.475 221.03 270.32 220.39 270.32C219.558 270.32 218.886 270.608 218.374 271.184C217.862 271.749 217.606 272.555 217.606 273.6C217.606 274.656 217.862 275.472 218.374 276.048C218.886 276.624 219.558 276.912 220.39 276.912C221.03 276.912 221.563 276.763 221.99 276.464C222.416 276.165 222.71 275.739 222.87 275.184H224.438C224.203 276.08 223.734 276.8 223.03 277.344C222.326 277.877 221.446 278.144 220.39 278.144C219.558 278.144 218.816 277.957 218.166 277.584C217.526 277.211 217.024 276.683 216.662 276C216.299 275.317 216.118 274.517 216.118 273.6Z" fill="white"/>
<path d="M214.74 273.28C214.74 273.557 214.724 273.851 214.692 274.16H207.684C207.737 275.024 208.03 275.701 208.564 276.192C209.108 276.672 209.764 276.912 210.532 276.912C211.161 276.912 211.684 276.768 212.1 276.48C212.526 276.181 212.825 275.787 212.996 275.296H214.564C214.329 276.139 213.86 276.827 213.156 277.36C212.452 277.883 211.577 278.144 210.532 278.144C209.7 278.144 208.953 277.957 208.292 277.584C207.641 277.211 207.129 276.683 206.756 276C206.382 275.307 206.196 274.507 206.196 273.6C206.196 272.693 206.377 271.899 206.74 271.216C207.102 270.533 207.609 270.011 208.26 269.648C208.921 269.275 209.678 269.088 210.532 269.088C211.364 269.088 212.1 269.269 212.74 269.632C213.38 269.995 213.87 270.496 214.212 271.136C214.564 271.765 214.74 272.48 214.74 273.28ZM213.236 272.976C213.236 272.421 213.113 271.947 212.868 271.552C212.622 271.147 212.286 270.843 211.86 270.64C211.444 270.427 210.98 270.32 210.468 270.32C209.732 270.32 209.102 270.555 208.58 271.024C208.068 271.493 207.774 272.144 207.7 272.976H213.236Z" fill="white"/>
<path d="M203.555 267.808C203.278 267.808 203.043 267.712 202.851 267.52C202.67 267.328 202.579 267.093 202.579 266.816C202.579 266.539 202.67 266.304 202.851 266.112C203.043 265.92 203.278 265.824 203.555 265.824C203.832 265.824 204.062 265.92 204.243 266.112C204.435 266.304 204.531 266.539 204.531 266.816C204.531 267.093 204.435 267.328 204.243 267.52C204.062 267.712 203.832 267.808 203.555 267.808ZM204.275 279.904C204.275 280.683 204.078 281.253 203.683 281.616C203.288 281.979 202.712 282.16 201.955 282.16H201.107V280.928H201.715C202.12 280.928 202.403 280.848 202.563 280.688C202.734 280.528 202.819 280.256 202.819 279.872V269.232H204.275V279.904Z" fill="white"/>
<path d="M196.361 278.144C195.539 278.144 194.793 277.957 194.121 277.584C193.459 277.211 192.937 276.683 192.553 276C192.179 275.307 191.993 274.507 191.993 273.6C191.993 272.704 192.185 271.915 192.569 271.232C192.963 270.539 193.497 270.011 194.169 269.648C194.841 269.275 195.593 269.088 196.425 269.088C197.257 269.088 198.009 269.275 198.681 269.648C199.353 270.011 199.881 270.533 200.265 271.216C200.659 271.899 200.857 272.693 200.857 273.6C200.857 274.507 200.654 275.307 200.249 276C199.854 276.683 199.315 277.211 198.633 277.584C197.95 277.957 197.193 278.144 196.361 278.144ZM196.361 276.864C196.883 276.864 197.374 276.741 197.833 276.496C198.291 276.251 198.659 275.883 198.937 275.392C199.225 274.901 199.369 274.304 199.369 273.6C199.369 272.896 199.23 272.299 198.953 271.808C198.675 271.317 198.313 270.955 197.865 270.72C197.417 270.475 196.931 270.352 196.409 270.352C195.875 270.352 195.385 270.475 194.937 270.72C194.499 270.955 194.147 271.317 193.881 271.808C193.614 272.299 193.481 272.896 193.481 273.6C193.481 274.315 193.609 274.917 193.865 275.408C194.131 275.899 194.483 276.267 194.921 276.512C195.358 276.747 195.838 276.864 196.361 276.864Z" fill="white"/>
<path d="M188.024 270.656C188.28 270.155 188.643 269.765 189.112 269.488C189.592 269.211 190.173 269.072 190.856 269.072V270.576H190.472C188.84 270.576 188.024 271.461 188.024 273.232V278H186.568V269.232H188.024V270.656Z" fill="white"/>
<path d="M177.211 270.848C177.499 270.347 177.926 269.931 178.491 269.6C179.067 269.259 179.734 269.088 180.491 269.088C181.27 269.088 181.974 269.275 182.603 269.648C183.243 270.021 183.745 270.549 184.107 271.232C184.47 271.904 184.651 272.688 184.651 273.584C184.651 274.469 184.47 275.259 184.107 275.952C183.745 276.645 183.243 277.184 182.603 277.568C181.974 277.952 181.27 278.144 180.491 278.144C179.745 278.144 179.083 277.979 178.507 277.648C177.942 277.307 177.51 276.885 177.211 276.384V282.16H175.755V269.232H177.211V270.848ZM183.163 273.584C183.163 272.923 183.03 272.347 182.763 271.856C182.497 271.365 182.134 270.992 181.675 270.736C181.227 270.48 180.731 270.352 180.187 270.352C179.654 270.352 179.158 270.485 178.699 270.752C178.251 271.008 177.889 271.387 177.611 271.888C177.345 272.379 177.211 272.949 177.211 273.6C177.211 274.261 177.345 274.843 177.611 275.344C177.889 275.835 178.251 276.213 178.699 276.48C179.158 276.736 179.654 276.864 180.187 276.864C180.731 276.864 181.227 276.736 181.675 276.48C182.134 276.213 182.497 275.835 182.763 275.344C183.03 274.843 183.163 274.256 183.163 273.584Z" fill="white"/>
<path d="M169.568 273.28C169.568 273.557 169.552 273.851 169.52 274.16H162.512C162.565 275.024 162.859 275.701 163.392 276.192C163.936 276.672 164.592 276.912 165.36 276.912C165.989 276.912 166.512 276.768 166.928 276.48C167.355 276.181 167.653 275.787 167.824 275.296H169.392C169.157 276.139 168.688 276.827 167.984 277.36C167.28 277.883 166.405 278.144 165.36 278.144C164.528 278.144 163.781 277.957 163.12 277.584C162.469 277.211 161.957 276.683 161.584 276C161.211 275.307 161.024 274.507 161.024 273.6C161.024 272.693 161.205 271.899 161.568 271.216C161.931 270.533 162.437 270.011 163.088 269.648C163.749 269.275 164.507 269.088 165.36 269.088C166.192 269.088 166.928 269.269 167.568 269.632C168.208 269.995 168.699 270.496 169.04 271.136C169.392 271.765 169.568 272.48 169.568 273.28ZM168.064 272.976C168.064 272.421 167.941 271.947 167.696 271.552C167.451 271.147 167.115 270.843 166.688 270.64C166.272 270.427 165.808 270.32 165.296 270.32C164.56 270.32 163.931 270.555 163.408 271.024C162.896 271.493 162.603 272.144 162.528 272.976H168.064Z" fill="white"/>
<path d="M155.627 269.072C156.31 269.072 156.918 269.216 157.451 269.504C157.985 269.781 158.406 270.203 158.715 270.768C159.025 271.333 159.179 272.021 159.179 272.832V278H157.739V273.04C157.739 272.165 157.521 271.499 157.083 271.04C156.657 270.571 156.075 270.336 155.339 270.336C154.582 270.336 153.979 270.581 153.531 271.072C153.083 271.552 152.859 272.251 152.859 273.168V278H151.419V273.04C151.419 272.165 151.201 271.499 150.763 271.04C150.337 270.571 149.755 270.336 149.019 270.336C148.262 270.336 147.659 270.581 147.211 271.072C146.763 271.552 146.539 272.251 146.539 273.168V278H145.083V269.232H146.539V270.496C146.827 270.037 147.211 269.685 147.691 269.44C148.182 269.195 148.721 269.072 149.307 269.072C150.043 269.072 150.694 269.237 151.259 269.568C151.825 269.899 152.246 270.384 152.523 271.024C152.769 270.405 153.174 269.925 153.739 269.584C154.305 269.243 154.934 269.072 155.627 269.072Z" fill="white"/>
<path d="M141.898 267.808C141.621 267.808 141.386 267.712 141.194 267.52C141.002 267.328 140.906 267.093 140.906 266.816C140.906 266.539 141.002 266.304 141.194 266.112C141.386 265.92 141.621 265.824 141.898 265.824C142.165 265.824 142.389 265.92 142.57 266.112C142.762 266.304 142.858 266.539 142.858 266.816C142.858 267.093 142.762 267.328 142.57 267.52C142.389 267.712 142.165 267.808 141.898 267.808ZM142.602 269.232V278H141.146V269.232H142.602Z" fill="white"/>
<path d="M137.094 270.432V275.6C137.094 276.027 137.184 276.331 137.366 276.512C137.547 276.683 137.862 276.768 138.31 276.768H139.382V278H138.07C137.259 278 136.651 277.813 136.246 277.44C135.841 277.067 135.638 276.453 135.638 275.6V270.432H134.502V269.232H135.638V267.024H137.094V269.232H139.382V270.432H137.094Z" fill="white"/>
<path d="M132.585 271.52V272.752H126.201V271.52H132.585Z" fill="white"/>
<path d="M124.584 273.28C124.584 273.557 124.568 273.851 124.536 274.16H117.528C117.581 275.024 117.874 275.701 118.408 276.192C118.952 276.672 119.608 276.912 120.376 276.912C121.005 276.912 121.528 276.768 121.944 276.48C122.37 276.181 122.669 275.787 122.84 275.296H124.408C124.173 276.139 123.704 276.827 123 277.36C122.296 277.883 121.421 278.144 120.376 278.144C119.544 278.144 118.797 277.957 118.136 277.584C117.485 277.211 116.973 276.683 116.6 276C116.226 275.307 116.04 274.507 116.04 273.6C116.04 272.693 116.221 271.899 116.584 271.216C116.946 270.533 117.453 270.011 118.104 269.648C118.765 269.275 119.522 269.088 120.376 269.088C121.208 269.088 121.944 269.269 122.584 269.632C123.224 269.995 123.714 270.496 124.056 271.136C124.408 271.765 124.584 272.48 124.584 273.28ZM123.08 272.976C123.08 272.421 122.957 271.947 122.712 271.552C122.466 271.147 122.13 270.843 121.704 270.64C121.288 270.427 120.824 270.32 120.312 270.32C119.576 270.32 118.946 270.555 118.424 271.024C117.912 271.493 117.618 272.144 117.544 272.976H123.08Z" fill="white"/>
<path d="M110.621 269.072C111.688 269.072 112.552 269.397 113.213 270.048C113.874 270.688 114.205 271.616 114.205 272.832V278H112.765V273.04C112.765 272.165 112.546 271.499 112.109 271.04C111.672 270.571 111.074 270.336 110.317 270.336C109.549 270.336 108.936 270.576 108.477 271.056C108.029 271.536 107.805 272.235 107.805 273.152V278H106.349V269.232H107.805V270.48C108.093 270.032 108.482 269.685 108.973 269.44C109.474 269.195 110.024 269.072 110.621 269.072Z" fill="white"/>
<path d="M99.9388 278.144C99.1175 278.144 98.3708 277.957 97.6988 277.584C97.0375 277.211 96.5148 276.683 96.1308 276C95.7575 275.307 95.5708 274.507 95.5708 273.6C95.5708 272.704 95.7628 271.915 96.1468 271.232C96.5415 270.539 97.0748 270.011 97.7468 269.648C98.4188 269.275 99.1708 269.088 100.003 269.088C100.835 269.088 101.587 269.275 102.259 269.648C102.931 270.011 103.459 270.533 103.843 271.216C104.237 271.899 104.435 272.693 104.435 273.6C104.435 274.507 104.232 275.307 103.827 276C103.432 276.683 102.893 277.211 102.211 277.584C101.528 277.957 100.771 278.144 99.9388 278.144ZM99.9388 276.864C100.461 276.864 100.952 276.741 101.411 276.496C101.869 276.251 102.237 275.883 102.515 275.392C102.803 274.901 102.947 274.304 102.947 273.6C102.947 272.896 102.808 272.299 102.531 271.808C102.253 271.317 101.891 270.955 101.443 270.72C100.995 270.475 100.509 270.352 99.9868 270.352C99.4535 270.352 98.9628 270.475 98.5148 270.72C98.0775 270.955 97.7255 271.317 97.4588 271.808C97.1921 272.299 97.0588 272.896 97.0588 273.6C97.0588 274.315 97.1868 274.917 97.4428 275.408C97.7095 275.899 98.0615 276.267 98.4988 276.512C98.9361 276.747 99.4161 276.864 99.9388 276.864Z" fill="white"/>
<path d="M80.4927 273.584C80.4927 272.688 80.674 271.904 81.0367 271.232C81.3993 270.549 81.8953 270.021 82.5247 269.648C83.1647 269.275 83.874 269.088 84.6527 269.088C85.4207 269.088 86.0873 269.253 86.6527 269.584C87.218 269.915 87.6393 270.331 87.9167 270.832V269.232H89.3887V278H87.9167V276.368C87.6287 276.88 87.1967 277.307 86.6207 277.648C86.0553 277.979 85.394 278.144 84.6367 278.144C83.858 278.144 83.154 277.952 82.5247 277.568C81.8953 277.184 81.3993 276.645 81.0367 275.952C80.674 275.259 80.4927 274.469 80.4927 273.584ZM87.9167 273.6C87.9167 272.939 87.7833 272.363 87.5167 271.872C87.25 271.381 86.8873 271.008 86.4287 270.752C85.9807 270.485 85.4847 270.352 84.9407 270.352C84.3967 270.352 83.9007 270.48 83.4527 270.736C83.0047 270.992 82.6473 271.365 82.3807 271.856C82.114 272.347 81.9807 272.923 81.9807 273.584C81.9807 274.256 82.114 274.843 82.3807 275.344C82.6473 275.835 83.0047 276.213 83.4527 276.48C83.9007 276.736 84.3967 276.864 84.9407 276.864C85.4847 276.864 85.9807 276.736 86.4287 276.48C86.8873 276.213 87.25 275.835 87.5167 275.344C87.7833 274.843 87.9167 274.261 87.9167 273.6Z" fill="white"/>
<path d="M70.8886 269.072C71.55 269.072 72.1473 269.216 72.6806 269.504C73.214 269.781 73.63 270.203 73.9286 270.768C74.238 271.333 74.3926 272.021 74.3926 272.832V278H72.9526V273.04C72.9526 272.165 72.734 271.499 72.2966 271.04C71.8593 270.571 71.262 270.336 70.5046 270.336C69.7366 270.336 69.1233 270.576 68.6646 271.056C68.2166 271.536 67.9926 272.235 67.9926 273.152V278H66.5366V266.16H67.9926V270.48C68.2806 270.032 68.6753 269.685 69.1766 269.44C69.6886 269.195 70.2593 269.072 70.8886 269.072Z" fill="white"/>
<path d="M62.4845 270.432V275.6C62.4845 276.027 62.5751 276.331 62.7565 276.512C62.9378 276.683 63.2525 276.768 63.7005 276.768H64.7725V278H63.4605C62.6498 278 62.0418 277.813 61.6365 277.44C61.2311 277.067 61.0285 276.453 61.0285 275.6V270.432H59.8925V269.232H61.0285V267.024H62.4845V269.232H64.7725V270.432H62.4845Z" fill="white"/>
<path d="M57.523 267.808C57.2457 267.808 57.011 267.712 56.819 267.52C56.627 267.328 56.531 267.093 56.531 266.816C56.531 266.539 56.627 266.304 56.819 266.112C57.011 265.92 57.2457 265.824 57.523 265.824C57.7897 265.824 58.0137 265.92 58.195 266.112C58.387 266.304 58.483 266.539 58.483 266.816C58.483 267.093 58.387 267.328 58.195 267.52C58.0137 267.712 57.7897 267.808 57.523 267.808ZM58.227 269.232V278H56.771V269.232H58.227Z" fill="white"/>
<path d="M55.326 269.232L52.59 278H51.086L48.974 271.04L46.862 278H45.358L42.606 269.232H44.094L46.11 276.592L48.286 269.232H49.774L51.902 276.608L53.886 269.232H55.326Z" fill="white"/>
<path d="M331.539 248.144C330.867 248.144 330.264 248.032 329.731 247.808C329.198 247.573 328.776 247.253 328.467 246.848C328.158 246.432 327.987 245.957 327.955 245.424H329.459C329.502 245.861 329.704 246.219 330.067 246.496C330.44 246.773 330.926 246.912 331.523 246.912C332.078 246.912 332.515 246.789 332.835 246.544C333.155 246.299 333.315 245.989 333.315 245.616C333.315 245.232 333.144 244.949 332.803 244.768C332.462 244.576 331.934 244.389 331.219 244.208C330.568 244.037 330.035 243.867 329.619 243.696C329.214 243.515 328.862 243.253 328.563 242.912C328.275 242.56 328.131 242.101 328.131 241.536C328.131 241.088 328.264 240.677 328.531 240.304C328.798 239.931 329.176 239.637 329.667 239.424C330.158 239.2 330.718 239.088 331.347 239.088C332.318 239.088 333.102 239.333 333.699 239.824C334.296 240.315 334.616 240.987 334.659 241.84H333.203C333.171 241.381 332.984 241.013 332.643 240.736C332.312 240.459 331.864 240.32 331.299 240.32C330.776 240.32 330.36 240.432 330.051 240.656C329.742 240.88 329.587 241.173 329.587 241.536C329.587 241.824 329.678 242.064 329.859 242.256C330.051 242.437 330.286 242.587 330.563 242.704C330.851 242.811 331.246 242.933 331.747 243.072C332.376 243.243 332.888 243.413 333.283 243.584C333.678 243.744 334.014 243.989 334.291 244.32C334.579 244.651 334.728 245.083 334.739 245.616C334.739 246.096 334.606 246.528 334.339 246.912C334.072 247.296 333.694 247.6 333.203 247.824C332.723 248.037 332.168 248.144 331.539 248.144Z" fill="white"/>
<path d="M324.383 240.432V245.6C324.383 246.027 324.474 246.331 324.655 246.512C324.836 246.683 325.151 246.768 325.599 246.768H326.671V248H325.359C324.548 248 323.94 247.813 323.535 247.44C323.13 247.067 322.927 246.453 322.927 245.6V240.432H321.791V239.232H322.927V237.024H324.383V239.232H326.671V240.432H324.383Z" fill="white"/>
<path d="M316.645 239.072C317.711 239.072 318.575 239.397 319.237 240.048C319.898 240.688 320.229 241.616 320.229 242.832V248H318.789V243.04C318.789 242.165 318.57 241.499 318.133 241.04C317.695 240.571 317.098 240.336 316.341 240.336C315.573 240.336 314.959 240.576 314.501 241.056C314.053 241.536 313.829 242.235 313.829 243.152V248H312.373V239.232H313.829V240.48C314.117 240.032 314.506 239.685 314.997 239.44C315.498 239.195 316.047 239.072 316.645 239.072Z" fill="white"/>
<path d="M310.451 243.28C310.451 243.557 310.435 243.851 310.403 244.16H303.395C303.448 245.024 303.741 245.701 304.275 246.192C304.819 246.672 305.475 246.912 306.243 246.912C306.872 246.912 307.395 246.768 307.811 246.48C308.237 246.181 308.536 245.787 308.707 245.296H310.275C310.04 246.139 309.571 246.827 308.867 247.36C308.163 247.883 307.288 248.144 306.243 248.144C305.411 248.144 304.664 247.957 304.003 247.584C303.352 247.211 302.84 246.683 302.467 246C302.093 245.307 301.907 244.507 301.907 243.6C301.907 242.693 302.088 241.899 302.451 241.216C302.813 240.533 303.32 240.011 303.971 239.648C304.632 239.275 305.389 239.088 306.243 239.088C307.075 239.088 307.811 239.269 308.451 239.632C309.091 239.995 309.581 240.496 309.923 241.136C310.275 241.765 310.451 242.48 310.451 243.28ZM308.947 242.976C308.947 242.421 308.824 241.947 308.579 241.552C308.333 241.147 307.997 240.843 307.571 240.64C307.155 240.427 306.691 240.32 306.179 240.32C305.443 240.32 304.813 240.555 304.291 241.024C303.779 241.493 303.485 242.144 303.411 242.976H308.947Z" fill="white"/>
<path d="M296.51 239.072C297.193 239.072 297.801 239.216 298.334 239.504C298.868 239.781 299.289 240.203 299.598 240.768C299.908 241.333 300.062 242.021 300.062 242.832V248H298.622V243.04C298.622 242.165 298.404 241.499 297.966 241.04C297.54 240.571 296.958 240.336 296.222 240.336C295.465 240.336 294.862 240.581 294.414 241.072C293.966 241.552 293.742 242.251 293.742 243.168V248H292.302V243.04C292.302 242.165 292.084 241.499 291.646 241.04C291.22 240.571 290.638 240.336 289.902 240.336C289.145 240.336 288.542 240.581 288.094 241.072C287.646 241.552 287.422 242.251 287.422 243.168V248H285.966V239.232H287.422V240.496C287.71 240.037 288.094 239.685 288.574 239.44C289.065 239.195 289.604 239.072 290.19 239.072C290.926 239.072 291.577 239.237 292.142 239.568C292.708 239.899 293.129 240.384 293.406 241.024C293.652 240.405 294.057 239.925 294.622 239.584C295.188 239.243 295.817 239.072 296.51 239.072Z" fill="white"/>
<path d="M284.044 243.28C284.044 243.557 284.028 243.851 283.996 244.16H276.988C277.042 245.024 277.335 245.701 277.868 246.192C278.412 246.672 279.068 246.912 279.836 246.912C280.466 246.912 280.988 246.768 281.404 246.48C281.831 246.181 282.13 245.787 282.3 245.296H283.868C283.634 246.139 283.164 246.827 282.46 247.36C281.756 247.883 280.882 248.144 279.836 248.144C279.004 248.144 278.258 247.957 277.596 247.584C276.946 247.211 276.434 246.683 276.06 246C275.687 245.307 275.5 244.507 275.5 243.6C275.5 242.693 275.682 241.899 276.044 241.216C276.407 240.533 276.914 240.011 277.564 239.648C278.226 239.275 278.983 239.088 279.836 239.088C280.668 239.088 281.404 239.269 282.044 239.632C282.684 239.995 283.175 240.496 283.516 241.136C283.868 241.765 284.044 242.48 284.044 243.28ZM282.54 242.976C282.54 242.421 282.418 241.947 282.172 241.552C281.927 241.147 281.591 240.843 281.164 240.64C280.748 240.427 280.284 240.32 279.772 240.32C279.036 240.32 278.407 240.555 277.884 241.024C277.372 241.493 277.079 242.144 277.004 242.976H282.54Z" fill="white"/>
<path d="M271.532 240.656C271.788 240.155 272.15 239.765 272.62 239.488C273.1 239.211 273.681 239.072 274.364 239.072V240.576H273.98C272.348 240.576 271.532 241.461 271.532 243.232V248H270.076V239.232H271.532V240.656Z" fill="white"/>
<path d="M266.89 237.808C266.613 237.808 266.378 237.712 266.186 237.52C265.994 237.328 265.898 237.093 265.898 236.816C265.898 236.539 265.994 236.304 266.186 236.112C266.378 235.92 266.613 235.824 266.89 235.824C267.157 235.824 267.381 235.92 267.562 236.112C267.754 236.304 267.85 236.539 267.85 236.816C267.85 237.093 267.754 237.328 267.562 237.52C267.381 237.712 267.157 237.808 266.89 237.808ZM267.594 239.232V248H266.138V239.232H267.594Z" fill="white"/>
<path d="M263.68 239.232V248H262.224V246.704C261.947 247.152 261.557 247.504 261.056 247.76C260.565 248.005 260.021 248.128 259.424 248.128C258.741 248.128 258.128 247.989 257.584 247.712C257.04 247.424 256.608 246.997 256.288 246.432C255.979 245.867 255.824 245.179 255.824 244.368V239.232H257.264V244.176C257.264 245.04 257.483 245.707 257.92 246.176C258.357 246.635 258.955 246.864 259.712 246.864C260.491 246.864 261.104 246.624 261.552 246.144C262 245.664 262.224 244.965 262.224 244.048V239.232H263.68Z" fill="white"/>
<path d="M244.547 243.584C244.547 242.688 244.729 241.904 245.091 241.232C245.454 240.549 245.95 240.021 246.579 239.648C247.219 239.275 247.934 239.088 248.723 239.088C249.481 239.088 250.142 239.259 250.707 239.6C251.283 239.931 251.705 240.341 251.971 240.832V239.232H253.443V252.16H251.971V246.384C251.694 246.875 251.267 247.291 250.691 247.632C250.115 247.973 249.443 248.144 248.675 248.144C247.907 248.144 247.209 247.952 246.579 247.568C245.95 247.184 245.454 246.645 245.091 245.952C244.729 245.259 244.547 244.469 244.547 243.584ZM251.971 243.6C251.971 242.939 251.838 242.363 251.571 241.872C251.305 241.381 250.942 241.008 250.483 240.752C250.035 240.485 249.539 240.352 248.995 240.352C248.451 240.352 247.955 240.48 247.507 240.736C247.059 240.992 246.702 241.365 246.435 241.856C246.169 242.347 246.035 242.923 246.035 243.584C246.035 244.256 246.169 244.843 246.435 245.344C246.702 245.835 247.059 246.213 247.507 246.48C247.955 246.736 248.451 246.864 248.995 246.864C249.539 246.864 250.035 246.736 250.483 246.48C250.942 246.213 251.305 245.835 251.571 245.344C251.838 244.843 251.971 244.261 251.971 243.6Z" fill="white"/>
<path d="M243.169 243.28C243.169 243.557 243.153 243.851 243.121 244.16H236.113C236.167 245.024 236.46 245.701 236.993 246.192C237.537 246.672 238.193 246.912 238.961 246.912C239.591 246.912 240.113 246.768 240.529 246.48C240.956 246.181 241.255 245.787 241.425 245.296H242.993C242.759 246.139 242.289 246.827 241.585 247.36C240.881 247.883 240.007 248.144 238.961 248.144C238.129 248.144 237.383 247.957 236.721 247.584C236.071 247.211 235.559 246.683 235.185 246C234.812 245.307 234.625 244.507 234.625 243.6C234.625 242.693 234.807 241.899 235.169 241.216C235.532 240.533 236.039 240.011 236.689 239.648C237.351 239.275 238.108 239.088 238.961 239.088C239.793 239.088 240.529 239.269 241.169 239.632C241.809 239.995 242.3 240.496 242.641 241.136C242.993 241.765 243.169 242.48 243.169 243.28ZM241.665 242.976C241.665 242.421 241.543 241.947 241.297 241.552C241.052 241.147 240.716 240.843 240.289 240.64C239.873 240.427 239.409 240.32 238.897 240.32C238.161 240.32 237.532 240.555 237.009 241.024C236.497 241.493 236.204 242.144 236.129 242.976H241.665Z" fill="white"/>
<path d="M230.657 240.656C230.913 240.155 231.275 239.765 231.745 239.488C232.225 239.211 232.806 239.072 233.489 239.072V240.576H233.105C231.473 240.576 230.657 241.461 230.657 243.232V248H229.201V239.232H230.657V240.656Z" fill="white"/>
<path d="M214.672 243.6C214.672 242.693 214.854 241.904 215.216 241.232C215.579 240.549 216.08 240.021 216.72 239.648C217.371 239.275 218.112 239.088 218.944 239.088C220.022 239.088 220.907 239.349 221.6 239.872C222.304 240.395 222.768 241.12 222.992 242.048H221.424C221.275 241.515 220.982 241.093 220.544 240.784C220.118 240.475 219.584 240.32 218.944 240.32C218.112 240.32 217.44 240.608 216.928 241.184C216.416 241.749 216.16 242.555 216.16 243.6C216.16 244.656 216.416 245.472 216.928 246.048C217.44 246.624 218.112 246.912 218.944 246.912C219.584 246.912 220.118 246.763 220.544 246.464C220.971 246.165 221.264 245.739 221.424 245.184H222.992C222.758 246.08 222.288 246.8 221.584 247.344C220.88 247.877 220 248.144 218.944 248.144C218.112 248.144 217.371 247.957 216.72 247.584C216.08 247.211 215.579 246.683 215.216 246C214.854 245.317 214.672 244.517 214.672 243.6Z" fill="white"/>
<path d="M212.031 237.808C211.753 237.808 211.519 237.712 211.327 237.52C211.135 237.328 211.039 237.093 211.039 236.816C211.039 236.539 211.135 236.304 211.327 236.112C211.519 235.92 211.753 235.824 212.031 235.824C212.297 235.824 212.521 235.92 212.703 236.112C212.895 236.304 212.991 236.539 212.991 236.816C212.991 237.093 212.895 237.328 212.703 237.52C212.521 237.712 212.297 237.808 212.031 237.808ZM212.735 239.232V248H211.279V239.232H212.735Z" fill="white"/>
<path d="M209.581 240.432H207.741V248H206.285V240.432H205.149V239.232H206.285V238.608C206.285 237.627 206.536 236.912 207.037 236.464C207.549 236.005 208.365 235.776 209.485 235.776V236.992C208.845 236.992 208.392 237.12 208.125 237.376C207.869 237.621 207.741 238.032 207.741 238.608V239.232H209.581V240.432Z" fill="white"/>
<path d="M202.828 237.808C202.55 237.808 202.316 237.712 202.124 237.52C201.932 237.328 201.836 237.093 201.836 236.816C201.836 236.539 201.932 236.304 202.124 236.112C202.316 235.92 202.55 235.824 202.828 235.824C203.094 235.824 203.318 235.92 203.5 236.112C203.692 236.304 203.788 236.539 203.788 236.816C203.788 237.093 203.692 237.328 203.5 237.52C203.318 237.712 203.094 237.808 202.828 237.808ZM203.532 239.232V248H202.076V239.232H203.532Z" fill="white"/>
<path d="M191.813 243.6C191.813 242.693 191.994 241.904 192.357 241.232C192.72 240.549 193.221 240.021 193.861 239.648C194.512 239.275 195.253 239.088 196.085 239.088C197.162 239.088 198.048 239.349 198.741 239.872C199.445 240.395 199.909 241.12 200.133 242.048H198.565C198.416 241.515 198.122 241.093 197.685 240.784C197.258 240.475 196.725 240.32 196.085 240.32C195.253 240.32 194.581 240.608 194.069 241.184C193.557 241.749 193.301 242.555 193.301 243.6C193.301 244.656 193.557 245.472 194.069 246.048C194.581 246.624 195.253 246.912 196.085 246.912C196.725 246.912 197.258 246.763 197.685 246.464C198.112 246.165 198.405 245.739 198.565 245.184H200.133C199.898 246.08 199.429 246.8 198.725 247.344C198.021 247.877 197.141 248.144 196.085 248.144C195.253 248.144 194.512 247.957 193.861 247.584C193.221 247.211 192.72 246.683 192.357 246C191.994 245.317 191.813 244.517 191.813 243.6Z" fill="white"/>
<path d="M190.435 243.28C190.435 243.557 190.419 243.851 190.387 244.16H183.379C183.432 245.024 183.726 245.701 184.259 246.192C184.803 246.672 185.459 246.912 186.227 246.912C186.856 246.912 187.379 246.768 187.795 246.48C188.222 246.181 188.52 245.787 188.691 245.296H190.259C190.024 246.139 189.555 246.827 188.851 247.36C188.147 247.883 187.272 248.144 186.227 248.144C185.395 248.144 184.648 247.957 183.987 247.584C183.336 247.211 182.824 246.683 182.451 246C182.078 245.307 181.891 244.507 181.891 243.6C181.891 242.693 182.072 241.899 182.435 241.216C182.798 240.533 183.304 240.011 183.955 239.648C184.616 239.275 185.374 239.088 186.227 239.088C187.059 239.088 187.795 239.269 188.435 239.632C189.075 239.995 189.566 240.496 189.907 241.136C190.259 241.765 190.435 242.48 190.435 243.28ZM188.931 242.976C188.931 242.421 188.808 241.947 188.563 241.552C188.318 241.147 187.982 240.843 187.555 240.64C187.139 240.427 186.675 240.32 186.163 240.32C185.427 240.32 184.798 240.555 184.275 241.024C183.763 241.493 183.47 242.144 183.395 242.976H188.931Z" fill="white"/>
<path d="M173.079 240.848C173.367 240.347 173.793 239.931 174.359 239.6C174.935 239.259 175.601 239.088 176.359 239.088C177.137 239.088 177.841 239.275 178.471 239.648C179.111 240.021 179.612 240.549 179.975 241.232C180.337 241.904 180.519 242.688 180.519 243.584C180.519 244.469 180.337 245.259 179.975 245.952C179.612 246.645 179.111 247.184 178.471 247.568C177.841 247.952 177.137 248.144 176.359 248.144C175.612 248.144 174.951 247.979 174.375 247.648C173.809 247.307 173.377 246.885 173.079 246.384V252.16H171.623V239.232H173.079V240.848ZM179.031 243.584C179.031 242.923 178.897 242.347 178.631 241.856C178.364 241.365 178.001 240.992 177.543 240.736C177.095 240.48 176.599 240.352 176.055 240.352C175.521 240.352 175.025 240.485 174.567 240.752C174.119 241.008 173.756 241.387 173.479 241.888C173.212 242.379 173.079 242.949 173.079 243.6C173.079 244.261 173.212 244.843 173.479 245.344C173.756 245.835 174.119 246.213 174.567 246.48C175.025 246.736 175.521 246.864 176.055 246.864C176.599 246.864 177.095 246.736 177.543 246.48C178.001 246.213 178.364 245.835 178.631 245.344C178.897 244.843 179.031 244.256 179.031 243.584Z" fill="white"/>
<path d="M166.367 248.144C165.695 248.144 165.093 248.032 164.559 247.808C164.026 247.573 163.605 247.253 163.295 246.848C162.986 246.432 162.815 245.957 162.783 245.424H164.287C164.33 245.861 164.533 246.219 164.895 246.496C165.269 246.773 165.754 246.912 166.351 246.912C166.906 246.912 167.343 246.789 167.663 246.544C167.983 246.299 168.143 245.989 168.143 245.616C168.143 245.232 167.973 244.949 167.631 244.768C167.29 244.576 166.762 244.389 166.047 244.208C165.397 244.037 164.863 243.867 164.447 243.696C164.042 243.515 163.69 243.253 163.391 242.912C163.103 242.56 162.959 242.101 162.959 241.536C162.959 241.088 163.093 240.677 163.359 240.304C163.626 239.931 164.005 239.637 164.495 239.424C164.986 239.2 165.546 239.088 166.175 239.088C167.146 239.088 167.93 239.333 168.527 239.824C169.125 240.315 169.445 240.987 169.487 241.84H168.031C167.999 241.381 167.813 241.013 167.471 240.736C167.141 240.459 166.693 240.32 166.127 240.32C165.605 240.32 165.189 240.432 164.879 240.656C164.57 240.88 164.415 241.173 164.415 241.536C164.415 241.824 164.506 242.064 164.687 242.256C164.879 242.437 165.114 242.587 165.391 242.704C165.679 242.811 166.074 242.933 166.575 243.072C167.205 243.243 167.717 243.413 168.111 243.584C168.506 243.744 168.842 243.989 169.119 244.32C169.407 244.651 169.557 245.083 169.567 245.616C169.567 246.096 169.434 246.528 169.167 246.912C168.901 247.296 168.522 247.6 168.031 247.824C167.551 248.037 166.997 248.144 166.367 248.144Z" fill="white"/>
<path d="M154.485 240.656C154.741 240.155 155.103 239.765 155.573 239.488C156.053 239.211 156.634 239.072 157.317 239.072V240.576H156.933C155.301 240.576 154.485 241.461 154.485 243.232V248H153.029V239.232H154.485V240.656Z" fill="white"/>
<path d="M150.57 239.232V248H149.114V246.704C148.837 247.152 148.448 247.504 147.946 247.76C147.456 248.005 146.912 248.128 146.314 248.128C145.632 248.128 145.018 247.989 144.474 247.712C143.93 247.424 143.498 246.997 143.178 246.432C142.869 245.867 142.714 245.179 142.714 244.368V239.232H144.154V244.176C144.154 245.04 144.373 245.707 144.81 246.176C145.248 246.635 145.845 246.864 146.602 246.864C147.381 246.864 147.994 246.624 148.442 246.144C148.89 245.664 149.114 244.965 149.114 244.048V239.232H150.57Z" fill="white"/>
<path d="M136.384 248.144C135.563 248.144 134.816 247.957 134.144 247.584C133.483 247.211 132.96 246.683 132.576 246C132.203 245.307 132.016 244.507 132.016 243.6C132.016 242.704 132.208 241.915 132.592 241.232C132.987 240.539 133.52 240.011 134.192 239.648C134.864 239.275 135.616 239.088 136.448 239.088C137.28 239.088 138.032 239.275 138.704 239.648C139.376 240.011 139.904 240.533 140.288 241.216C140.683 241.899 140.88 242.693 140.88 243.6C140.88 244.507 140.677 245.307 140.272 246C139.877 246.683 139.339 247.211 138.656 247.584C137.973 247.957 137.216 248.144 136.384 248.144ZM136.384 246.864C136.907 246.864 137.397 246.741 137.856 246.496C138.315 246.251 138.683 245.883 138.96 245.392C139.248 244.901 139.392 244.304 139.392 243.6C139.392 242.896 139.253 242.299 138.976 241.808C138.699 241.317 138.336 240.955 137.888 240.72C137.44 240.475 136.955 240.352 136.432 240.352C135.899 240.352 135.408 240.475 134.96 240.72C134.523 240.955 134.171 241.317 133.904 241.808C133.637 242.299 133.504 242.896 133.504 243.6C133.504 244.315 133.632 244.917 133.888 245.408C134.155 245.899 134.507 246.267 134.944 246.512C135.381 246.747 135.861 246.864 136.384 246.864Z" fill="white"/>
<path d="M131.096 239.232L125.816 252.128H124.312L126.04 247.904L122.504 239.232H124.12L126.872 246.336L129.592 239.232H131.096Z" fill="white"/>
<path d="M112.868 248.144C112.047 248.144 111.3 247.957 110.628 247.584C109.967 247.211 109.444 246.683 109.06 246C108.687 245.307 108.5 244.507 108.5 243.6C108.5 242.704 108.692 241.915 109.076 241.232C109.471 240.539 110.004 240.011 110.676 239.648C111.348 239.275 112.1 239.088 112.932 239.088C113.764 239.088 114.516 239.275 115.188 239.648C115.86 240.011 116.388 240.533 116.772 241.216C117.167 241.899 117.364 242.693 117.364 243.6C117.364 244.507 117.162 245.307 116.756 246C116.362 246.683 115.823 247.211 115.14 247.584C114.458 247.957 113.7 248.144 112.868 248.144ZM112.868 246.864C113.391 246.864 113.882 246.741 114.34 246.496C114.799 246.251 115.167 245.883 115.444 245.392C115.732 244.901 115.876 244.304 115.876 243.6C115.876 242.896 115.738 242.299 115.46 241.808C115.183 241.317 114.82 240.955 114.372 240.72C113.924 240.475 113.439 240.352 112.916 240.352C112.383 240.352 111.892 240.475 111.444 240.72C111.007 240.955 110.655 241.317 110.388 241.808C110.122 242.299 109.988 242.896 109.988 243.6C109.988 244.315 110.116 244.917 110.372 245.408C110.639 245.899 110.991 246.267 111.428 246.512C111.866 246.747 112.346 246.864 112.868 246.864Z" fill="white"/>
<path d="M104.992 240.432V245.6C104.992 246.027 105.083 246.331 105.264 246.512C105.446 246.683 105.76 246.768 106.208 246.768H107.28V248H105.968C105.158 248 104.55 247.813 104.144 247.44C103.739 247.067 103.536 246.453 103.536 245.6V240.432H102.4V239.232H103.536V237.024H104.992V239.232H107.28V240.432H104.992Z" fill="white"/>
<path d="M87.5942 243.584C87.5942 242.688 87.7756 241.904 88.1382 241.232C88.5009 240.549 88.9969 240.021 89.6262 239.648C90.2662 239.275 90.9809 239.088 91.7702 239.088C92.4529 239.088 93.0876 239.248 93.6742 239.568C94.2609 239.877 94.7089 240.288 95.0182 240.8V236.16H96.4902V248H95.0182V246.352C94.7302 246.875 94.3036 247.307 93.7382 247.648C93.1729 247.979 92.5116 248.144 91.7542 248.144C90.9756 248.144 90.2662 247.952 89.6262 247.568C88.9969 247.184 88.5009 246.645 88.1382 245.952C87.7756 245.259 87.5942 244.469 87.5942 243.584ZM95.0182 243.6C95.0182 242.939 94.8849 242.363 94.6182 241.872C94.3516 241.381 93.9889 241.008 93.5302 240.752C93.0822 240.485 92.5862 240.352 92.0422 240.352C91.4982 240.352 91.0022 240.48 90.5542 240.736C90.1062 240.992 89.7489 241.365 89.4822 241.856C89.2156 242.347 89.0822 242.923 89.0822 243.584C89.0822 244.256 89.2156 244.843 89.4822 245.344C89.7489 245.835 90.1062 246.213 90.5542 246.48C91.0022 246.736 91.4982 246.864 92.0422 246.864C92.5862 246.864 93.0822 246.736 93.5302 246.48C93.9889 246.213 94.3516 245.835 94.6182 245.344C94.8849 244.843 95.0182 244.261 95.0182 243.6Z" fill="white"/>
<path d="M86.2164 243.28C86.2164 243.557 86.2004 243.851 86.1684 244.16H79.1604C79.2137 245.024 79.507 245.701 80.0404 246.192C80.5844 246.672 81.2404 246.912 82.0084 246.912C82.6377 246.912 83.1604 246.768 83.5764 246.48C84.003 246.181 84.3017 245.787 84.4724 245.296H86.0404C85.8057 246.139 85.3364 246.827 84.6324 247.36C83.9284 247.883 83.0537 248.144 82.0084 248.144C81.1764 248.144 80.4297 247.957 79.7684 247.584C79.1177 247.211 78.6057 246.683 78.2324 246C77.859 245.307 77.6724 244.507 77.6724 243.6C77.6724 242.693 77.8537 241.899 78.2164 241.216C78.579 240.533 79.0857 240.011 79.7364 239.648C80.3977 239.275 81.155 239.088 82.0084 239.088C82.8404 239.088 83.5764 239.269 84.2164 239.632C84.8564 239.995 85.347 240.496 85.6884 241.136C86.0404 241.765 86.2164 242.48 86.2164 243.28ZM84.7124 242.976C84.7124 242.421 84.5897 241.947 84.3444 241.552C84.099 241.147 83.763 240.843 83.3364 240.64C82.9204 240.427 82.4564 240.32 81.9444 240.32C81.2084 240.32 80.579 240.555 80.0564 241.024C79.5444 241.493 79.251 242.144 79.1764 242.976H84.7124Z" fill="white"/>
<path d="M73.7036 240.656C73.9596 240.155 74.3222 239.765 74.7916 239.488C75.2716 239.211 75.8529 239.072 76.5356 239.072V240.576H76.1516C74.5196 240.576 73.7036 241.461 73.7036 243.232V248H72.2476V239.232H73.7036V240.656Z" fill="white"/>
<path d="M65.8372 248.144C65.0159 248.144 64.2692 247.957 63.5972 247.584C62.9359 247.211 62.4132 246.683 62.0292 246C61.6559 245.307 61.4692 244.507 61.4692 243.6C61.4692 242.704 61.6612 241.915 62.0452 241.232C62.4399 240.539 62.9732 240.011 63.6452 239.648C64.3172 239.275 65.0692 239.088 65.9012 239.088C66.7332 239.088 67.4852 239.275 68.1572 239.648C68.8292 240.011 69.3572 240.533 69.7412 241.216C70.1359 241.899 70.3332 242.693 70.3332 243.6C70.3332 244.507 70.1306 245.307 69.7252 246C69.3306 246.683 68.7919 247.211 68.1092 247.584C67.4266 247.957 66.6692 248.144 65.8372 248.144ZM65.8372 246.864C66.3599 246.864 66.8506 246.741 67.3092 246.496C67.7679 246.251 68.1359 245.883 68.4132 245.392C68.7012 244.901 68.8452 244.304 68.8452 243.6C68.8452 242.896 68.7066 242.299 68.4292 241.808C68.1519 241.317 67.7892 240.955 67.3412 240.72C66.8932 240.475 66.4079 240.352 65.8852 240.352C65.3519 240.352 64.8612 240.475 64.4132 240.72C63.9759 240.955 63.6239 241.317 63.3572 241.808C63.0906 242.299 62.9572 242.896 62.9572 243.6C62.9572 244.315 63.0852 244.917 63.3412 245.408C63.6079 245.899 63.9599 246.267 64.3972 246.512C64.8346 246.747 65.3146 246.864 65.8372 246.864Z" fill="white"/>
<path d="M59.5317 236.16V248H58.0757V236.16H59.5317Z" fill="white"/>
<path d="M54.8902 237.808C54.6129 237.808 54.3782 237.712 54.1862 237.52C53.9942 237.328 53.8982 237.093 53.8982 236.816C53.8982 236.539 53.9942 236.304 54.1862 236.112C54.3782 235.92 54.6129 235.824 54.8902 235.824C55.1569 235.824 55.3809 235.92 55.5622 236.112C55.7542 236.304 55.8502 236.539 55.8502 236.816C55.8502 237.093 55.7542 237.328 55.5622 237.52C55.3809 237.712 55.1569 237.808 54.8902 237.808ZM55.5942 239.232V248H54.1382V239.232H55.5942Z" fill="white"/>
<path d="M42.7817 243.584C42.7817 242.688 42.9631 241.904 43.3257 241.232C43.6884 240.549 44.1844 240.021 44.8137 239.648C45.4537 239.275 46.1631 239.088 46.9417 239.088C47.7097 239.088 48.3764 239.253 48.9417 239.584C49.5071 239.915 49.9284 240.331 50.2057 240.832V239.232H51.6777V248H50.2057V246.368C49.9177 246.88 49.4857 247.307 48.9097 247.648C48.3444 247.979 47.6831 248.144 46.9257 248.144C46.1471 248.144 45.4431 247.952 44.8137 247.568C44.1844 247.184 43.6884 246.645 43.3257 245.952C42.9631 245.259 42.7817 244.469 42.7817 243.584ZM50.2057 243.6C50.2057 242.939 50.0724 242.363 49.8057 241.872C49.5391 241.381 49.1764 241.008 48.7177 240.752C48.2697 240.485 47.7737 240.352 47.2297 240.352C46.6857 240.352 46.1897 240.48 45.7417 240.736C45.2937 240.992 44.9364 241.365 44.6697 241.856C44.4031 242.347 44.2697 242.923 44.2697 243.584C44.2697 244.256 44.4031 244.843 44.6697 245.344C44.9364 245.835 45.2937 246.213 45.7417 246.48C46.1897 246.736 46.6857 246.864 47.2297 246.864C47.7737 246.864 48.2697 246.736 48.7177 246.48C49.1764 246.213 49.5391 245.835 49.8057 245.344C50.0724 244.843 50.2057 244.261 50.2057 243.6Z" fill="white"/>
<path d="M41.5334 236.848V238.032H38.4934V248H37.0374V238.032H33.9814V236.848H41.5334Z" fill="white"/>
<path d="M262.468 461.56L257.338 478H254.518L250.558 464.95L246.598 478H243.778L238.618 461.56H241.408L245.188 475.36L249.268 461.56H252.058L256.048 475.39L259.768 461.56H262.468Z" fill="black"/>
<path d="M228.548 478.27C227.008 478.27 225.608 477.92 224.348 477.22C223.108 476.52 222.128 475.53 221.408 474.25C220.708 472.95 220.358 471.45 220.358 469.75C220.358 468.07 220.718 466.59 221.438 465.31C222.178 464.01 223.178 463.02 224.438 462.34C225.698 461.64 227.108 461.29 228.668 461.29C230.228 461.29 231.638 461.64 232.898 462.34C234.158 463.02 235.148 464 235.868 465.28C236.608 466.56 236.978 468.05 236.978 469.75C236.978 471.45 236.598 472.95 235.838 474.25C235.098 475.53 234.088 476.52 232.808 477.22C231.528 477.92 230.108 478.27 228.548 478.27ZM228.548 475.87C229.528 475.87 230.448 475.64 231.308 475.18C232.168 474.72 232.858 474.03 233.378 473.11C233.918 472.19 234.188 471.07 234.188 469.75C234.188 468.43 233.928 467.31 233.408 466.39C232.888 465.47 232.208 464.79 231.368 464.35C230.528 463.89 229.618 463.66 228.638 463.66C227.638 463.66 226.718 463.89 225.878 464.35C225.058 464.79 224.398 465.47 223.898 466.39C223.398 467.31 223.148 468.43 223.148 469.75C223.148 471.09 223.388 472.22 223.868 473.14C224.368 474.06 225.028 474.75 225.848 475.21C226.668 475.65 227.568 475.87 228.548 475.87Z" fill="black"/>
<path d="M216.725 478H213.995L203.015 461.35V478H200.285V457.06H203.015L213.995 473.68V457.06H216.725V478Z" fill="black"/>
<path d="M183.825 464.23C184.305 463.29 184.985 462.56 185.865 462.04C186.765 461.52 187.855 461.26 189.135 461.26V464.08H188.415C185.355 464.08 183.825 465.74 183.825 469.06V478H181.095V461.56H183.825V464.23Z" fill="black"/>
<path d="M177.492 469.15C177.492 469.67 177.462 470.22 177.402 470.8H164.262C164.362 472.42 164.912 473.69 165.912 474.61C166.932 475.51 168.162 475.96 169.602 475.96C170.782 475.96 171.762 475.69 172.542 475.15C173.342 474.59 173.902 473.85 174.222 472.93H177.162C176.722 474.51 175.842 475.8 174.522 476.8C173.202 477.78 171.562 478.27 169.602 478.27C168.042 478.27 166.642 477.92 165.402 477.22C164.182 476.52 163.222 475.53 162.522 474.25C161.822 472.95 161.472 471.45 161.472 469.75C161.472 468.05 161.812 466.56 162.492 465.28C163.172 464 164.122 463.02 165.342 462.34C166.582 461.64 168.002 461.29 169.602 461.29C171.162 461.29 172.542 461.63 173.742 462.31C174.942 462.99 175.862 463.93 176.502 465.13C177.162 466.31 177.492 467.65 177.492 469.15ZM174.672 468.58C174.672 467.54 174.442 466.65 173.982 465.91C173.522 465.15 172.892 464.58 172.092 464.2C171.312 463.8 170.442 463.6 169.482 463.6C168.102 463.6 166.922 464.04 165.942 464.92C164.982 465.8 164.432 467.02 164.292 468.58H174.672Z" fill="black"/>
<path d="M141.198 469.72C141.198 468.04 141.538 466.57 142.218 465.31C142.898 464.03 143.828 463.04 145.008 462.34C146.208 461.64 147.548 461.29 149.028 461.29C150.308 461.29 151.498 461.59 152.598 462.19C153.698 462.77 154.538 463.54 155.118 464.5V455.8H157.878V478H155.118V474.91C154.578 475.89 153.778 476.7 152.718 477.34C151.658 477.96 150.418 478.27 148.998 478.27C147.538 478.27 146.208 477.91 145.008 477.19C143.828 476.47 142.898 475.46 142.218 474.16C141.538 472.86 141.198 471.38 141.198 469.72ZM155.118 469.75C155.118 468.51 154.868 467.43 154.368 466.51C153.868 465.59 153.188 464.89 152.328 464.41C151.488 463.91 150.558 463.66 149.538 463.66C148.518 463.66 147.588 463.9 146.748 464.38C145.908 464.86 145.238 465.56 144.738 466.48C144.238 467.4 143.988 468.48 143.988 469.72C143.988 470.98 144.238 472.08 144.738 473.02C145.238 473.94 145.908 474.65 146.748 475.15C147.588 475.63 148.518 475.87 149.538 475.87C150.558 475.87 151.488 475.63 152.328 475.15C153.188 474.65 153.868 473.94 154.368 473.02C154.868 472.08 155.118 470.99 155.118 469.75Z" fill="black"/>
<path d="M133.757 464.23C134.237 463.29 134.917 462.56 135.797 462.04C136.697 461.52 137.787 461.26 139.067 461.26V464.08H138.347C135.287 464.08 133.757 465.74 133.757 469.06V478H131.027V461.56H133.757V464.23Z" fill="black"/>
<path d="M116.923 478.21C114.983 478.21 113.213 477.76 111.613 476.86C110.013 475.94 108.743 474.67 107.803 473.05C106.883 471.41 106.423 469.57 106.423 467.53C106.423 465.49 106.883 463.66 107.803 462.04C108.743 460.4 110.013 459.13 111.613 458.23C113.213 457.31 114.983 456.85 116.923 456.85C118.883 456.85 120.663 457.31 122.263 458.23C123.863 459.13 125.123 460.39 126.043 462.01C126.963 463.63 127.423 465.47 127.423 467.53C127.423 469.59 126.963 471.43 126.043 473.05C125.123 474.67 123.863 475.94 122.263 476.86C120.663 477.76 118.883 478.21 116.923 478.21ZM116.923 475.84C118.383 475.84 119.693 475.5 120.853 474.82C122.033 474.14 122.953 473.17 123.613 471.91C124.293 470.65 124.633 469.19 124.633 467.53C124.633 465.85 124.293 464.39 123.613 463.15C122.953 461.89 122.043 460.92 120.883 460.24C119.723 459.56 118.403 459.22 116.923 459.22C115.443 459.22 114.123 459.56 112.963 460.24C111.803 460.92 110.883 461.89 110.203 463.15C109.543 464.39 109.213 465.85 109.213 467.53C109.213 469.19 109.543 470.65 110.203 471.91C110.883 473.17 111.803 474.14 112.963 474.82C114.143 475.5 115.463 475.84 116.923 475.84Z" fill="black"/>
<rect x="167" y="205" width="33" height="9" rx="3" fill="white"/>
</svg>
