<svg width="42" height="43" viewBox="0 0 42 43" fill="none" xmlns="http://www.w3.org/2000/svg">
<path d="M21 0C9.429 0 0 9.6535 0 21.5C0 33.3465 9.429 43 21 43C32.571 43 42 33.3465 42 21.5C42 9.6535 32.571 0 21 0ZM31.038 16.555L19.131 28.7455C18.837 29.0465 18.438 29.2185 18.018 29.2185C17.598 29.2185 17.199 29.0465 16.905 28.7455L10.962 22.661C10.353 22.0375 10.353 21.0055 10.962 20.382C11.571 19.7585 12.579 19.7585 13.188 20.382L18.018 25.327L28.812 14.276C29.421 13.6525 30.429 13.6525 31.038 14.276C31.647 14.8995 31.647 15.91 31.038 16.555Z" fill="#292D32"/>
</svg>
